<svg xmlns="http://www.w3.org/2000/svg" width="240" height="38.54" viewBox="0 0 240 38.54">
  <title>next</title>
  <g id="Layer_2" data-name="Layer 2">
    <g id="Layer_1-2" data-name="Layer 1">
      <rect width="120" height="33.97" rx="16.93" ry="16.93" fill="#fdfefd"/>
      <rect x="1.84" y="0.99" width="115.95" height="31.22" rx="15.56" ry="15.56" fill="#19487d"/>
      <rect x="1.5" y="0.75" width="116.25" height="30.19" rx="15.05" ry="15.05" fill="#3267b0"/>
      <rect x="2.43" y="0.47" width="114.82" height="27.06" rx="13.48" ry="13.48" fill="#42a4dc"/>
      <path d="M103.78.47H15.84A13.52,13.52,0,0,0,2.4,14h0c0,.26,0,.52,0,.78A13.52,13.52,0,0,1,15.84,2h87.94A13.52,13.52,0,0,1,117.2,14.78c0-.26,0-.52,0-.78h0A13.52,13.52,0,0,0,103.78.47Z" fill="#9dd4ed" fill-rule="evenodd"/>
      <path d="M103.78,26H15.84A13.52,13.52,0,0,1,2.43,13.21c0,.26,0,.52,0,.78h0A13.52,13.52,0,0,0,15.84,27.52h87.94A13.52,13.52,0,0,0,117.22,14h0c0-.26,0-.52,0-.78A13.52,13.52,0,0,1,103.78,26Z" fill="#243f94" fill-rule="evenodd"/>
      <path d="M103.13,35H16.87A16.92,16.92,0,0,1,.08,19.72C0,20.28,0,20.84,0,21.42H0a16.93,16.93,0,0,0,16.87,17h86.25a16.93,16.93,0,0,0,16.87-17h0c0-.57,0-1.14-.08-1.7A16.92,16.92,0,0,1,103.13,35Z" fill="#5e5f5f" fill-rule="evenodd"/>
      <path d="M103.13,34H16.87A16.92,16.92,0,0,1,0,17.77c0,.26,0,.52,0,.78H0a16.93,16.93,0,0,0,16.87,17h86.25a16.93,16.93,0,0,0,16.87-17h0c0-.26,0-.52,0-.78A16.92,16.92,0,0,1,103.13,34Z" fill="#888" fill-rule="evenodd"/>
      <rect x="120" y="4.25" width="120" height="30.02" rx="15.01" ry="15.01" fill="#fdfefd"/>
      <rect x="121.84" y="5.09" width="115.95" height="27.49" rx="13.75" ry="13.75" fill="#19487d"/>
      <rect x="121.5" y="5.09" width="116.25" height="26.28" rx="13.14" ry="13.14" fill="#3267b0"/>
      <rect x="122.43" y="6.72" width="114.82" height="26" rx="13" ry="13" fill="#42a4dc"/>
      <path d="M223.78,5.09H135.84a13.27,13.27,0,0,0-13.44,13h0c0,.25,0,.5,0,.75A13.3,13.3,0,0,1,135.84,6.59h87.94A13.3,13.3,0,0,1,237.2,18.84c0-.25,0-.5,0-.75h0A13.27,13.27,0,0,0,223.78,5.09Z" fill="#9dd4ed" fill-rule="evenodd"/>
      <path d="M223.78,29.59H135.84a13.3,13.3,0,0,1-13.42-12.25c0,.25,0,.5,0,.75h0a13.27,13.27,0,0,0,13.44,13h87.94a13.27,13.27,0,0,0,13.44-13h0c0-.25,0-.5,0-.75A13.3,13.3,0,0,1,223.78,29.59Z" fill="#243f94" fill-rule="evenodd"/>
      <path d="M223.13,35.28H136.87a16.67,16.67,0,0,1-16.79-14.69,16,16,0,0,0-.08,1.63h0c0,9,7.56,16.32,16.87,16.32h86.25c9.32,0,16.87-7.31,16.87-16.32h0a16,16,0,0,0-.08-1.63A16.67,16.67,0,0,1,223.13,35.28Z" fill="#5e5f5f" fill-rule="evenodd"/>
      <path d="M223.13,34.27H136.87A16.63,16.63,0,0,1,120,18.71c0,.25,0,.5,0,.75h0c0,9,7.56,16.32,16.87,16.32h86.25c9.32,0,16.87-7.31,16.87-16.32h0c0-.25,0-.5,0-.75A16.63,16.63,0,0,1,223.13,34.27Z" fill="#888" fill-rule="evenodd"/>
      <g>
        <path d="M62.55,8.44c-.25.06-.4,2-.46,4.35l-9.66.07-.91,0-2.43-.13c-.61-.09-1.16.7-1.21,1.8s.43,2.51,1,2.6L52.35,17l9.75.18c.06,2.58.21,4.7.46,4.64.9.23,9.33-5.23,9.26-6.67C71.74,13.14,63.53,7.69,62.55,8.44Z" fill="#243f94"/>
        <path d="M62.55,6.2c-.25.06-.4,2-.46,4.35l-9.66.07-.91,0-2.43-.13c-.61-.09-1.16.7-1.21,1.8s.43,2.51,1,2.6l3.43-.08L62.1,15c.06,2.58.21,4.7.46,4.64.9.23,9.33-5.23,9.26-6.67C71.74,10.9,63.53,5.44,62.55,6.2Z" fill="#fff"/>
      </g>
      <g>
        <path d="M182.55,13.05c-.25.06-.4,2-.46,4.35l-9.66.07-.91,0-2.43-.13c-.61-.09-1.16.7-1.21,1.8s.43,2.51,1,2.6l3.43-.08,9.75.18c.06,2.58.21,4.7.46,4.64.9.23,9.33-5.23,9.26-6.67C191.74,17.75,183.53,12.29,182.55,13.05Z" fill="#243f94"/>
        <path d="M182.55,13.05c-.25.06-.4,2-.46,4.35l-9.66.07-.91,0-2.43-.13c-.61-.09-1.16.7-1.21,1.8s.43,2.51,1,2.6l3.43-.08,9.75.18c.06,2.58.21,4.7.46,4.64.9.23,9.33-5.23,9.26-6.67C191.74,17.75,183.53,12.29,182.55,13.05Z" fill="#fff"/>
      </g>
    </g>
  </g>
</svg>
