<svg xmlns="http://www.w3.org/2000/svg" width="350" height="56" viewBox="0 0 350 56"><defs><style>.cls-1{fill:#fdfefd;}.cls-2{fill:#9f732a;}.cls-3{fill:#cd882a;}.cls-4{fill:#edb31f;}.cls-5{fill:#f9c758;}.cls-5,.cls-6,.cls-7,.cls-8{fill-rule:evenodd;}.cls-6,.cls-9{fill:#cc962b;}.cls-7{fill:#5e5f5f;}.cls-8{fill:#888;}.cls-10,.cls-11{fill:#fff;stroke:#f9c758;stroke-miterlimit:10;}.cls-10{stroke-width:0.31px;}.cls-11{stroke-width:0.3px;}</style></defs><title>Submit_1</title><g id="Layer_2" data-name="Layer 2"><g id="Layer_1-2" data-name="Layer 1"><rect class="cls-1" width="175" height="49.53" rx="24.69" ry="24.69"/><rect class="cls-2" x="2.68" y="1.44" width="169.1" height="45.52" rx="22.69" ry="22.69"/><rect class="cls-3" x="2.19" y="1.1" width="169.53" height="44.03" rx="21.94" ry="21.94"/><rect class="cls-4" x="3.54" y="0.68" width="167.45" height="39.46" rx="19.67" ry="19.67"/><path class="cls-5" d="M151.35.68H23.1A19.72,19.72,0,0,0,3.5,20.41h0c0,.38,0,.76,0,1.14A19.72,19.72,0,0,1,23.1,3H151.35a19.72,19.72,0,0,1,19.57,18.59c0-.38,0-.76,0-1.14h0A19.72,19.72,0,0,0,151.35.68Z"/><path class="cls-6" d="M151.35,37.85H23.1A19.72,19.72,0,0,1,3.54,19.27c0,.38,0,.76,0,1.14h0A19.72,19.72,0,0,0,23.1,40.13H151.35A19.72,19.72,0,0,0,171,20.41h0c0-.38,0-.76,0-1.14A19.72,19.72,0,0,1,151.35,37.85Z"/><path class="cls-7" d="M150.39,51.05H24.61A24.67,24.67,0,0,1,.12,28.76C0,29.57,0,30.4,0,31.23H0A24.69,24.69,0,0,0,24.61,56H150.39A24.69,24.69,0,0,0,175,31.23h0c0-.83,0-1.66-.12-2.47A24.67,24.67,0,0,1,150.39,51.05Z"/><path class="cls-8" d="M150.39,49.53H24.61A24.68,24.68,0,0,1,0,25.91c0,.38,0,.76,0,1.14H0A24.69,24.69,0,0,0,24.61,51.82H150.39A24.69,24.69,0,0,0,175,27h0c0-.38,0-.76,0-1.14A24.68,24.68,0,0,1,150.39,49.53Z"/><path class="cls-9" d="M66.29,17.39a.61.61,0,0,1,0,.62,1,1,0,0,1-.5.37,1.18,1.18,0,0,1-.62,0,.46.46,0,0,1-.38-.39,2.62,2.62,0,0,0-.51-1.1,2.74,2.74,0,0,0-.73-.62,2.29,2.29,0,0,0-.74-.27L62.23,16a2.91,2.91,0,0,0-1.1.11,2.73,2.73,0,0,0-.86.43,2.26,2.26,0,0,0-.57.63,1.59,1.59,0,0,0-.24.72,2.19,2.19,0,0,0,.19,1.25,2.24,2.24,0,0,0,.78.82,6.15,6.15,0,0,0,1.22.6l1.47.57q.74.31,1.47.68a4.94,4.94,0,0,1,1.26.91,3.47,3.47,0,0,1,.81,1.3,4.1,4.1,0,0,1,.16,1.84,4,4,0,0,1-.67,1.9,4,4,0,0,1-1.35,1.22,5,5,0,0,1-1.74.57,5.35,5.35,0,0,1-1.85-.06,5.26,5.26,0,0,1-2.18-1,3.41,3.41,0,0,1-1.28-1.94,1,1,0,0,1,.23-.72,1.32,1.32,0,0,1,.56-.39.85.85,0,0,1,.6,0,.51.51,0,0,1,.33.44,1.78,1.78,0,0,0,.81,1.31,3.76,3.76,0,0,0,2.62.56,2.58,2.58,0,0,0,1-.35,2.47,2.47,0,0,0,.73-.68,2.38,2.38,0,0,0,.39-1,2.28,2.28,0,0,0-.1-1.16,2.18,2.18,0,0,0-.6-.85,4,4,0,0,0-1-.62q-.57-.26-1.22-.52-.81-.31-1.63-.67A6.25,6.25,0,0,1,59,21a3.71,3.71,0,0,1-1-1.3,3.56,3.56,0,0,1-.25-1.92,3.67,3.67,0,0,1,.52-1.61A3.81,3.81,0,0,1,59.32,15a4.51,4.51,0,0,1,1.42-.64,4.87,4.87,0,0,1,1.54-.16,5,5,0,0,1,1,.18,4.28,4.28,0,0,1,1.14.51,4.4,4.4,0,0,1,1.06,1A4.45,4.45,0,0,1,66.29,17.39Z"/><path class="cls-9" d="M71,21.16a22.31,22.31,0,0,0-.06,3.42,6.62,6.62,0,0,0,.36,1.84,1.3,1.3,0,0,0,.58.75,1.58,1.58,0,0,0,.62.14,2.15,2.15,0,0,0,.93-.2,2.6,2.6,0,0,0,1.29-1.35,2.44,2.44,0,0,0,.19-1V21.42a.92.92,0,0,1,.29-.63,1,1,0,0,1,.58-.29.93.93,0,0,1,.62.16.92.92,0,0,1,.37.69l0,7.18a.7.7,0,0,1-.27.63,1,1,0,0,1-.61.16,1.26,1.26,0,0,1-.61-.2.54.54,0,0,1-.27-.47l0-.38a4,4,0,0,1-1.13.62,3.88,3.88,0,0,1-1.3.21,2.88,2.88,0,0,1-3-2.11,8.56,8.56,0,0,1-.39-2.47q0-1.45,0-3.24a.72.72,0,0,1,.32-.63,1.08,1.08,0,0,1,.64-.16,1.35,1.35,0,0,1,.63.2A.48.48,0,0,1,71,21.16Z"/><path class="cls-9" d="M81,28.76a.54.54,0,0,1-.27.47,1.26,1.26,0,0,1-.61.2,1,1,0,0,1-.61-.16.7.7,0,0,1-.27-.63l0-13.52a.92.92,0,0,1,.37-.69.93.93,0,0,1,.62-.16,1,1,0,0,1,.58.29.92.92,0,0,1,.29.63V16.8q0,.68,0,1.47t0,1.48q0,.69,0,1.14t0,.48a4.21,4.21,0,0,1,1.1-.56,3.83,3.83,0,0,1,1.24-.2,3.89,3.89,0,0,1,1.62.35,4.39,4.39,0,0,1,1.34.93,4.23,4.23,0,0,1,.89,1.37,4.37,4.37,0,0,1,0,3.29,4.36,4.36,0,0,1-.89,1.38,4.28,4.28,0,0,1-1.34.94,4,4,0,0,1-2.92.13A4,4,0,0,1,81,28.38Zm4.89-3.84a2.47,2.47,0,0,0-.72-1.74,2.72,2.72,0,0,0-.76-.54,2.24,2.24,0,0,0-1.86,0,2.71,2.71,0,0,0-.76.54,2.48,2.48,0,0,0-.52,2.69,2.6,2.6,0,0,0,1.29,1.35,2.24,2.24,0,0,0,1.86,0,2.6,2.6,0,0,0,1.29-1.35A2.44,2.44,0,0,0,85.89,24.92Z"/><path class="cls-9" d="M95.69,28.6a24.5,24.5,0,0,0-.1-3.27,8,8,0,0,0-.39-1.86,1.62,1.62,0,0,0-.57-.83,1.2,1.2,0,0,0-.61-.19,2.16,2.16,0,0,0-.93.2A2.6,2.6,0,0,0,91.8,24a2.43,2.43,0,0,0-.19,1v3.39a.92.92,0,0,1-.29.63,1,1,0,0,1-.58.29.93.93,0,0,1-.62-.16.92.92,0,0,1-.37-.69l0-7.18a.7.7,0,0,1,.27-.63,1,1,0,0,1,.61-.16,1.26,1.26,0,0,1,.61.2.54.54,0,0,1,.27.47l0,.38a4,4,0,0,1,1.13-.62,3.88,3.88,0,0,1,1.3-.21,3.11,3.11,0,0,1,1.65.39,2.83,2.83,0,0,1,1,1.11A4,4,0,0,1,98.06,21a3.29,3.29,0,0,1,1.44-.42,2.91,2.91,0,0,1,1.93.58,3.52,3.52,0,0,1,1,1.62,9.38,9.38,0,0,1,.42,2.48q.07,1.44.07,3.14a.7.7,0,0,1-.27.63,1,1,0,0,1-.61.16,1.26,1.26,0,0,1-.61-.2.54.54,0,0,1-.27-.47,24.5,24.5,0,0,0-.1-3.27,8,8,0,0,0-.39-1.86,1.62,1.62,0,0,0-.57-.83,1.2,1.2,0,0,0-.61-.19,1.91,1.91,0,0,0-1.42.6,3.59,3.59,0,0,0-.85,1.36q.12.91.16,1.94t0,2.23a.7.7,0,0,1-.27.63,1,1,0,0,1-.61.16,1.26,1.26,0,0,1-.61-.2A.54.54,0,0,1,95.69,28.6Z"/><path class="cls-9" d="M105.25,19a1.06,1.06,0,0,1,.3-.76,1,1,0,0,1,.75-.31A1.06,1.06,0,0,1,107.38,19a1,1,0,0,1-.31.75,1.06,1.06,0,0,1-.76.3,1,1,0,0,1-1-1Zm0,2.46a.72.72,0,0,1,.41-.58,1.23,1.23,0,0,1,.69-.11A1.22,1.22,0,0,1,107,21a.47.47,0,0,1,.19.5l0,6.8a.7.7,0,0,1-.27.63,1,1,0,0,1-.61.16,1.26,1.26,0,0,1-.61-.2.54.54,0,0,1-.27-.47Z"/><path class="cls-9" d="M112.15,20l0-3.77a.72.72,0,0,1,.41-.58,1.28,1.28,0,0,1,.68-.12,1.12,1.12,0,0,1,.61.25.47.47,0,0,1,.19.5V20h2.1a.81.81,0,0,1,.61.38,1,1,0,0,1,.13.63.93.93,0,0,1-.31.56.88.88,0,0,1-.72.19H114l0,6.61a.69.69,0,0,1-.29.63,1,1,0,0,1-.62.16,1.33,1.33,0,0,1-.62-.2.53.53,0,0,1-.29-.47l0-6.73h-2a.7.7,0,0,1-.63-.27,1,1,0,0,1-.16-.61,1.26,1.26,0,0,1,.2-.61.54.54,0,0,1,.47-.27Z"/><path class="cls-10" d="M66.29,13.72a.61.61,0,0,1,0,.62,1,1,0,0,1-.5.37,1.18,1.18,0,0,1-.62,0,.46.46,0,0,1-.38-.39,2.62,2.62,0,0,0-.51-1.1,2.74,2.74,0,0,0-.73-.62,2.29,2.29,0,0,0-.74-.27l-.52-.08a2.91,2.91,0,0,0-1.1.11,2.73,2.73,0,0,0-.86.43,2.26,2.26,0,0,0-.57.63,1.59,1.59,0,0,0-.24.72,2.19,2.19,0,0,0,.19,1.25,2.24,2.24,0,0,0,.78.82,6.15,6.15,0,0,0,1.22.6l1.47.57q.74.31,1.47.68a4.94,4.94,0,0,1,1.26.91,3.47,3.47,0,0,1,.81,1.3,4.1,4.1,0,0,1,.16,1.84,4,4,0,0,1-.67,1.9,4,4,0,0,1-1.35,1.22,5,5,0,0,1-1.74.57,5.35,5.35,0,0,1-1.85-.06,5.26,5.26,0,0,1-2.18-1,3.41,3.41,0,0,1-1.28-1.94,1,1,0,0,1,.23-.72,1.32,1.32,0,0,1,.56-.39.85.85,0,0,1,.6,0,.51.51,0,0,1,.33.44,1.78,1.78,0,0,0,.81,1.31,3.76,3.76,0,0,0,2.62.56,2.58,2.58,0,0,0,1-.35,2.47,2.47,0,0,0,.73-.68A2.38,2.38,0,0,0,65,22a2.28,2.28,0,0,0-.1-1.16,2.18,2.18,0,0,0-.6-.85,4,4,0,0,0-1-.62q-.57-.26-1.22-.52-.81-.31-1.63-.67A6.25,6.25,0,0,1,59,17.3,3.71,3.71,0,0,1,58,16a3.56,3.56,0,0,1-.25-1.92,3.67,3.67,0,0,1,.52-1.61,3.81,3.81,0,0,1,1.07-1.12,4.51,4.51,0,0,1,1.42-.64,4.87,4.87,0,0,1,1.54-.16,5,5,0,0,1,1,.18,4.28,4.28,0,0,1,1.14.51,4.4,4.4,0,0,1,1.06,1A4.45,4.45,0,0,1,66.29,13.72Z"/><path class="cls-10" d="M71,17.49a22.31,22.31,0,0,0-.06,3.42,6.62,6.62,0,0,0,.36,1.84,1.3,1.3,0,0,0,.58.75,1.58,1.58,0,0,0,.62.14,2.15,2.15,0,0,0,.93-.2A2.6,2.6,0,0,0,74.7,22.1a2.44,2.44,0,0,0,.19-1V17.76a.92.92,0,0,1,.29-.63,1,1,0,0,1,.58-.29.93.93,0,0,1,.62.16.92.92,0,0,1,.37.69l0,7.18a.7.7,0,0,1-.27.63,1,1,0,0,1-.61.16,1.26,1.26,0,0,1-.61-.2A.54.54,0,0,1,75,25l0-.38a4,4,0,0,1-1.13.62,3.88,3.88,0,0,1-1.3.21,2.88,2.88,0,0,1-3-2.11,8.56,8.56,0,0,1-.39-2.47q0-1.45,0-3.24a.72.72,0,0,1,.32-.63,1.08,1.08,0,0,1,.64-.16,1.35,1.35,0,0,1,.63.2A.48.48,0,0,1,71,17.49Z"/><path class="cls-10" d="M81,25.1a.54.54,0,0,1-.27.47,1.26,1.26,0,0,1-.61.2,1,1,0,0,1-.61-.16.7.7,0,0,1-.27-.63l0-13.52a.92.92,0,0,1,.37-.69.93.93,0,0,1,.62-.16,1,1,0,0,1,.58.29.92.92,0,0,1,.29.63v1.61q0,.68,0,1.47t0,1.48q0,.69,0,1.14t0,.48a4.21,4.21,0,0,1,1.1-.56,3.83,3.83,0,0,1,1.24-.2,3.89,3.89,0,0,1,1.62.35,4.39,4.39,0,0,1,1.34.93,4.23,4.23,0,0,1,.89,1.37,4.37,4.37,0,0,1,0,3.29,4.36,4.36,0,0,1-.89,1.38,4.28,4.28,0,0,1-1.34.94,4,4,0,0,1-2.92.13A4,4,0,0,1,81,24.72Zm4.89-3.84a2.47,2.47,0,0,0-.72-1.74,2.72,2.72,0,0,0-.76-.54,2.24,2.24,0,0,0-1.86,0,2.71,2.71,0,0,0-.76.54,2.48,2.48,0,0,0-.52,2.69,2.6,2.6,0,0,0,1.29,1.35,2.24,2.24,0,0,0,1.86,0,2.6,2.6,0,0,0,1.29-1.35A2.44,2.44,0,0,0,85.89,21.26Z"/><path class="cls-10" d="M95.69,24.93a24.5,24.5,0,0,0-.1-3.27,8,8,0,0,0-.39-1.86,1.62,1.62,0,0,0-.57-.83,1.2,1.2,0,0,0-.61-.19,2.16,2.16,0,0,0-.93.2,2.6,2.6,0,0,0-1.29,1.35,2.43,2.43,0,0,0-.19,1v3.39a.92.92,0,0,1-.29.63,1,1,0,0,1-.58.29.93.93,0,0,1-.62-.16.92.92,0,0,1-.37-.69l0-7.18a.7.7,0,0,1,.27-.63,1,1,0,0,1,.61-.16,1.26,1.26,0,0,1,.61.2.54.54,0,0,1,.27.47l0,.38a4,4,0,0,1,1.13-.62A3.88,3.88,0,0,1,94,17a3.11,3.11,0,0,1,1.65.39,2.83,2.83,0,0,1,1,1.11,4,4,0,0,1,1.4-1.18,3.29,3.29,0,0,1,1.44-.42,2.91,2.91,0,0,1,1.93.58,3.52,3.52,0,0,1,1,1.62,9.38,9.38,0,0,1,.42,2.48Q103,23,103,24.72a.7.7,0,0,1-.27.63,1,1,0,0,1-.61.16,1.26,1.26,0,0,1-.61-.2.54.54,0,0,1-.27-.47,24.5,24.5,0,0,0-.1-3.27,8,8,0,0,0-.39-1.86,1.62,1.62,0,0,0-.57-.83,1.2,1.2,0,0,0-.61-.19,1.91,1.91,0,0,0-1.42.6,3.59,3.59,0,0,0-.85,1.36q.12.91.16,1.94t0,2.23a.7.7,0,0,1-.27.63,1,1,0,0,1-.61.16,1.26,1.26,0,0,1-.61-.2A.54.54,0,0,1,95.69,24.93Z"/><path class="cls-10" d="M105.25,15.3a1.06,1.06,0,0,1,.3-.76,1,1,0,0,1,.75-.31,1.06,1.06,0,0,1,1.07,1.07,1,1,0,0,1-.31.75,1.06,1.06,0,0,1-.76.3,1,1,0,0,1-1-1Zm0,2.46a.72.72,0,0,1,.41-.58,1.23,1.23,0,0,1,.69-.11,1.22,1.22,0,0,1,.62.26.47.47,0,0,1,.19.5l0,6.8a.7.7,0,0,1-.27.63,1,1,0,0,1-.61.16,1.26,1.26,0,0,1-.61-.2.54.54,0,0,1-.27-.47Z"/><path class="cls-10" d="M112.15,16.35l0-3.77a.72.72,0,0,1,.41-.58,1.28,1.28,0,0,1,.68-.12,1.12,1.12,0,0,1,.61.25.47.47,0,0,1,.19.5v3.72h2.1a.81.81,0,0,1,.61.38,1,1,0,0,1,.13.63.93.93,0,0,1-.31.56.88.88,0,0,1-.72.19H114l0,6.61a.69.69,0,0,1-.29.63,1,1,0,0,1-.62.16,1.33,1.33,0,0,1-.62-.2.53.53,0,0,1-.29-.47l0-6.73h-2a.7.7,0,0,1-.63-.27,1,1,0,0,1-.16-.61,1.26,1.26,0,0,1,.2-.61.54.54,0,0,1,.47-.27Z"/><rect class="cls-1" x="175" y="6" width="175" height="43.79" rx="21.89" ry="21.89"/><rect class="cls-2" x="177.68" y="7.22" width="169.1" height="40.09" rx="20.05" ry="20.05"/><rect class="cls-3" x="177.19" y="7.22" width="169.53" height="38.33" rx="19.17" ry="19.17"/><rect class="cls-4" x="178.54" y="7.22" width="167.45" height="37.92" rx="18.96" ry="18.96"/><path class="cls-5" d="M326.35,7.22H198.1c-10.78,0-19.6,8.53-19.6,19h0c0,.37,0,.73,0,1.1.59-9.92,9.17-17.86,19.57-17.86H326.35c10.4,0,19,7.94,19.57,17.86,0-.36,0-.73,0-1.1h0C346,15.75,337.13,7.22,326.35,7.22Z"/><path class="cls-6" d="M326.35,42.95H198.1c-10.4,0-19-7.94-19.57-17.86,0,.36,0,.73,0,1.1h0c0,10.43,8.82,19,19.6,19H326.35c10.78,0,19.6-8.53,19.6-19h0c0-.37,0-.73,0-1.1C345.32,35,336.75,42.95,326.35,42.95Z"/><path class="cls-7" d="M325.39,51.25H199.61c-12.76,0-23.25-9.4-24.49-21.42A23.28,23.28,0,0,0,175,32.2h0C175,45.34,186,56,199.61,56H325.39C339,56,350,45.34,350,32.2h0a23.28,23.28,0,0,0-.12-2.38C348.64,41.85,338.15,51.25,325.39,51.25Z"/><path class="cls-8" d="M325.39,49.79H199.61c-13.21,0-24-10.07-24.58-22.7,0,.36,0,.73,0,1.1h0C175,41.32,186,52,199.61,52H325.39C339,52,350,41.32,350,28.18h0c0-.37,0-.73,0-1.1C349.38,39.72,338.6,49.79,325.39,49.79Z"/><path class="cls-9" d="M241.33,22.9a.61.61,0,0,1,0,.62,1,1,0,0,1-.5.37,1.18,1.18,0,0,1-.62,0,.46.46,0,0,1-.38-.39,2.61,2.61,0,0,0-.51-1.09,2.73,2.73,0,0,0-.73-.62,2.28,2.28,0,0,0-.74-.27l-.52-.08a2.9,2.9,0,0,0-1.09.11,2.73,2.73,0,0,0-.86.43,2.26,2.26,0,0,0-.57.63,1.58,1.58,0,0,0-.24.71,2.18,2.18,0,0,0,.19,1.25,2.24,2.24,0,0,0,.77.82,6.13,6.13,0,0,0,1.21.59l1.46.57q.74.31,1.46.68a4.93,4.93,0,0,1,1.26.9,3.46,3.46,0,0,1,.81,1.3,4.09,4.09,0,0,1,.15,1.83,3.94,3.94,0,0,1-.67,1.89,4,4,0,0,1-1.34,1.21,5,5,0,0,1-1.74.57,5.34,5.34,0,0,1-1.84-.06,5.25,5.25,0,0,1-2.18-1A3.4,3.4,0,0,1,232.82,32a1,1,0,0,1,.23-.71,1.31,1.31,0,0,1,.56-.39.85.85,0,0,1,.59,0,.51.51,0,0,1,.33.44,1.78,1.78,0,0,0,.81,1.31,3.75,3.75,0,0,0,2.62.56,2.58,2.58,0,0,0,1-.35,2.46,2.46,0,0,0,.73-.68,2.38,2.38,0,0,0,.39-1,2.28,2.28,0,0,0-.1-1.15,2.17,2.17,0,0,0-.59-.84,4,4,0,0,0-1-.62q-.57-.26-1.21-.52-.81-.31-1.63-.67a6.23,6.23,0,0,1-1.46-.88,3.7,3.7,0,0,1-1-1.3,3.55,3.55,0,0,1-.25-1.92,3.66,3.66,0,0,1,.52-1.61,3.8,3.8,0,0,1,1.07-1.12,4.5,4.5,0,0,1,1.42-.64,4.85,4.85,0,0,1,1.53-.15,5,5,0,0,1,1,.18,4.27,4.27,0,0,1,1.14.51,4.39,4.39,0,0,1,1.06,1A4.44,4.44,0,0,1,241.33,22.9Z"/><path class="cls-9" d="M246,26.66a22.26,22.26,0,0,0-.06,3.41,6.61,6.61,0,0,0,.36,1.83,1.3,1.3,0,0,0,.58.75,1.58,1.58,0,0,0,.62.14,2.14,2.14,0,0,0,.93-.2,2.59,2.59,0,0,0,1.28-1.34,2.43,2.43,0,0,0,.19-1V26.92a.92.92,0,0,1,.29-.63,1,1,0,0,1,.58-.29.93.93,0,0,1,.62.15.92.92,0,0,1,.37.69l0,7.16a.7.7,0,0,1-.27.63,1,1,0,0,1-.61.15,1.26,1.26,0,0,1-.61-.2.54.54,0,0,1-.27-.46l0-.38a4,4,0,0,1-1.13.62,3.87,3.87,0,0,1-1.3.21,2.88,2.88,0,0,1-3-2.11,8.54,8.54,0,0,1-.39-2.46q0-1.45,0-3.24a.72.72,0,0,1,.32-.63,1.08,1.08,0,0,1,.64-.15,1.35,1.35,0,0,1,.63.2A.48.48,0,0,1,246,26.66Z"/><path class="cls-9" d="M256,34.25a.54.54,0,0,1-.27.46,1.26,1.26,0,0,1-.61.2,1,1,0,0,1-.61-.15.69.69,0,0,1-.27-.63l0-13.49a.92.92,0,0,1,.37-.69.93.93,0,0,1,.62-.15,1,1,0,0,1,.58.29.92.92,0,0,1,.29.63v1.61q0,.68,0,1.46t0,1.48q0,.69,0,1.14t0,.48a4.2,4.2,0,0,1,1.09-.56,3.83,3.83,0,0,1,1.24-.2,3.88,3.88,0,0,1,1.62.35,4.38,4.38,0,0,1,1.33.93,4.22,4.22,0,0,1,.89,1.37,4.36,4.36,0,0,1,0,3.28,4.35,4.35,0,0,1-.89,1.38,4.27,4.27,0,0,1-1.33.94,4,4,0,0,1-2.91.13,4,4,0,0,1-1.13-.62Zm4.88-3.83a2.47,2.47,0,0,0-.71-1.74,2.71,2.71,0,0,0-.76-.54,2.23,2.23,0,0,0-1.86,0,2.7,2.7,0,0,0-.76.54,2.47,2.47,0,0,0-.52,2.69,2.59,2.59,0,0,0,1.28,1.34,2.23,2.23,0,0,0,1.86,0,2.59,2.59,0,0,0,1.28-1.34A2.43,2.43,0,0,0,260.89,30.41Z"/><path class="cls-9" d="M270.67,34.08a24.45,24.45,0,0,0-.1-3.26,7.94,7.94,0,0,0-.39-1.86,1.62,1.62,0,0,0-.57-.83,1.2,1.2,0,0,0-.61-.19,2.15,2.15,0,0,0-.93.2,2.59,2.59,0,0,0-1.28,1.34,2.42,2.42,0,0,0-.19,1v3.38a.92.92,0,0,1-.29.63,1,1,0,0,1-.58.29.93.93,0,0,1-.62-.15.92.92,0,0,1-.37-.69l0-7.16a.7.7,0,0,1,.27-.63,1,1,0,0,1,.61-.15,1.26,1.26,0,0,1,.61.2.54.54,0,0,1,.27.46l0,.38a4,4,0,0,1,1.13-.62,3.87,3.87,0,0,1,1.3-.21,3.11,3.11,0,0,1,1.64.39,2.82,2.82,0,0,1,1,1.11A4,4,0,0,1,273,26.48a3.28,3.28,0,0,1,1.44-.42,2.9,2.9,0,0,1,1.93.58,3.52,3.52,0,0,1,1,1.62,9.36,9.36,0,0,1,.42,2.47q.07,1.44.07,3.13a.7.7,0,0,1-.27.63,1,1,0,0,1-.61.15,1.26,1.26,0,0,1-.61-.2.54.54,0,0,1-.27-.46,24.45,24.45,0,0,0-.1-3.26,7.94,7.94,0,0,0-.39-1.86,1.62,1.62,0,0,0-.57-.83,1.2,1.2,0,0,0-.61-.19,1.91,1.91,0,0,0-1.42.59,3.58,3.58,0,0,0-.84,1.36q.12.9.15,1.94t0,2.22a.7.7,0,0,1-.27.63,1,1,0,0,1-.61.15,1.26,1.26,0,0,1-.61-.2A.54.54,0,0,1,270.67,34.08Z"/><path class="cls-9" d="M280.21,24.47a1.06,1.06,0,0,1,.3-.76,1,1,0,0,1,.75-.31,1.06,1.06,0,0,1,1.07,1.07,1,1,0,0,1-.31.75,1.06,1.06,0,0,1-.76.3,1,1,0,0,1-1-1Zm0,2.45a.72.72,0,0,1,.4-.58,1.23,1.23,0,0,1,.69-.11,1.21,1.21,0,0,1,.62.26.47.47,0,0,1,.19.5l0,6.78a.7.7,0,0,1-.27.63,1,1,0,0,1-.61.15,1.26,1.26,0,0,1-.61-.2.54.54,0,0,1-.27-.46Z"/><path class="cls-9" d="M287.09,25.51l0-3.76a.72.72,0,0,1,.4-.58,1.28,1.28,0,0,1,.68-.12,1.12,1.12,0,0,1,.61.25.47.47,0,0,1,.19.5v3.71H291a.81.81,0,0,1,.61.38,1,1,0,0,1,.13.63.93.93,0,0,1-.31.56.87.87,0,0,1-.71.19h-1.78l0,6.59a.68.68,0,0,1-.29.63,1,1,0,0,1-.62.15,1.33,1.33,0,0,1-.62-.2.53.53,0,0,1-.29-.46l0-6.71h-2a.69.69,0,0,1-.63-.27,1,1,0,0,1-.15-.61,1.25,1.25,0,0,1,.2-.61.54.54,0,0,1,.46-.27Z"/><path class="cls-11" d="M241.33,22.29a.61.61,0,0,1,0,.62,1,1,0,0,1-.5.37,1.18,1.18,0,0,1-.62,0,.46.46,0,0,1-.38-.39,2.61,2.61,0,0,0-.51-1.09,2.73,2.73,0,0,0-.73-.62,2.28,2.28,0,0,0-.74-.27l-.52-.08a2.9,2.9,0,0,0-1.09.11,2.73,2.73,0,0,0-.86.43,2.26,2.26,0,0,0-.57.63,1.58,1.58,0,0,0-.24.71,2.18,2.18,0,0,0,.19,1.25,2.24,2.24,0,0,0,.77.82,6.13,6.13,0,0,0,1.21.59l1.46.57q.74.31,1.46.68a4.93,4.93,0,0,1,1.26.9,3.46,3.46,0,0,1,.81,1.3,4.09,4.09,0,0,1,.15,1.83,3.94,3.94,0,0,1-.67,1.89,4,4,0,0,1-1.34,1.21,5,5,0,0,1-1.74.57,5.34,5.34,0,0,1-1.84-.06,5.25,5.25,0,0,1-2.18-1,3.4,3.4,0,0,1-1.27-1.94,1,1,0,0,1,.23-.71,1.31,1.31,0,0,1,.56-.39.85.85,0,0,1,.59,0,.51.51,0,0,1,.33.44,1.78,1.78,0,0,0,.81,1.31,3.75,3.75,0,0,0,2.62.56,2.58,2.58,0,0,0,1-.35,2.46,2.46,0,0,0,.73-.68,2.38,2.38,0,0,0,.39-1,2.28,2.28,0,0,0-.1-1.15,2.17,2.17,0,0,0-.59-.84,4,4,0,0,0-1-.62q-.57-.26-1.21-.52-.81-.31-1.63-.67a6.23,6.23,0,0,1-1.46-.88,3.7,3.7,0,0,1-1-1.3,3.55,3.55,0,0,1-.25-1.92,3.66,3.66,0,0,1,.52-1.61,3.8,3.8,0,0,1,1.07-1.12,4.5,4.5,0,0,1,1.42-.64,4.85,4.85,0,0,1,1.53-.15,5,5,0,0,1,1,.18,4.27,4.27,0,0,1,1.14.51,4.39,4.39,0,0,1,1.06,1A4.44,4.44,0,0,1,241.33,22.29Z"/><path class="cls-11" d="M246,26a22.26,22.26,0,0,0-.06,3.41,6.61,6.61,0,0,0,.36,1.83,1.3,1.3,0,0,0,.58.75,1.58,1.58,0,0,0,.62.14,2.14,2.14,0,0,0,.93-.2,2.59,2.59,0,0,0,1.28-1.34,2.43,2.43,0,0,0,.19-1V26.31a.92.92,0,0,1,.29-.63,1,1,0,0,1,.58-.29.93.93,0,0,1,.62.15.92.92,0,0,1,.37.69l0,7.16a.7.7,0,0,1-.27.63,1,1,0,0,1-.61.15,1.26,1.26,0,0,1-.61-.2.54.54,0,0,1-.27-.46l0-.38a4,4,0,0,1-1.13.62,3.87,3.87,0,0,1-1.3.21,2.88,2.88,0,0,1-3-2.11,8.54,8.54,0,0,1-.39-2.46q0-1.45,0-3.24a.72.72,0,0,1,.32-.63,1.08,1.08,0,0,1,.64-.15,1.35,1.35,0,0,1,.63.2A.48.48,0,0,1,246,26Z"/><path class="cls-11" d="M256,33.64a.54.54,0,0,1-.27.46,1.26,1.26,0,0,1-.61.2,1,1,0,0,1-.61-.15.69.69,0,0,1-.27-.63l0-13.49a.92.92,0,0,1,.37-.69.93.93,0,0,1,.62-.15,1,1,0,0,1,.58.29.92.92,0,0,1,.29.63V21.7q0,.68,0,1.46t0,1.48q0,.69,0,1.14t0,.48a4.2,4.2,0,0,1,1.09-.56,3.83,3.83,0,0,1,1.24-.2,3.88,3.88,0,0,1,1.62.35,4.38,4.38,0,0,1,1.33.93,4.22,4.22,0,0,1,.89,1.37,4.36,4.36,0,0,1,0,3.28,4.35,4.35,0,0,1-.89,1.38,4.27,4.27,0,0,1-1.33.94,4,4,0,0,1-2.91.13,4,4,0,0,1-1.13-.62Zm4.88-3.83a2.47,2.47,0,0,0-.71-1.74,2.71,2.71,0,0,0-.76-.54,2.23,2.23,0,0,0-1.86,0,2.7,2.7,0,0,0-.76.54,2.47,2.47,0,0,0-.52,2.69,2.59,2.59,0,0,0,1.28,1.34,2.23,2.23,0,0,0,1.86,0,2.59,2.59,0,0,0,1.28-1.34A2.43,2.43,0,0,0,260.89,29.81Z"/><path class="cls-11" d="M270.67,33.47a24.45,24.45,0,0,0-.1-3.26,7.94,7.94,0,0,0-.39-1.86,1.62,1.62,0,0,0-.57-.83,1.2,1.2,0,0,0-.61-.19,2.15,2.15,0,0,0-.93.2,2.59,2.59,0,0,0-1.28,1.34,2.42,2.42,0,0,0-.19,1v3.38a.92.92,0,0,1-.29.63,1,1,0,0,1-.58.29.93.93,0,0,1-.62-.15.92.92,0,0,1-.37-.69l0-7.16a.7.7,0,0,1,.27-.63,1,1,0,0,1,.61-.15,1.26,1.26,0,0,1,.61.2.54.54,0,0,1,.27.46l0,.38a4,4,0,0,1,1.13-.62,3.87,3.87,0,0,1,1.3-.21,3.11,3.11,0,0,1,1.64.39,2.82,2.82,0,0,1,1,1.11A4,4,0,0,1,273,25.87a3.28,3.28,0,0,1,1.44-.42,2.9,2.9,0,0,1,1.93.58,3.52,3.52,0,0,1,1,1.62,9.36,9.36,0,0,1,.42,2.47q.07,1.44.07,3.13a.7.7,0,0,1-.27.63A1,1,0,0,1,277,34a1.26,1.26,0,0,1-.61-.2.54.54,0,0,1-.27-.46,24.45,24.45,0,0,0-.1-3.26,7.94,7.94,0,0,0-.39-1.86,1.62,1.62,0,0,0-.57-.83,1.2,1.2,0,0,0-.61-.19,1.91,1.91,0,0,0-1.42.59,3.58,3.58,0,0,0-.84,1.36q.12.9.15,1.94t0,2.22a.7.7,0,0,1-.27.63,1,1,0,0,1-.61.15,1.26,1.26,0,0,1-.61-.2A.54.54,0,0,1,270.67,33.47Z"/><path class="cls-11" d="M280.21,23.86a1.06,1.06,0,0,1,.3-.76,1,1,0,0,1,.75-.31,1.06,1.06,0,0,1,1.07,1.07,1,1,0,0,1-.31.75,1.06,1.06,0,0,1-.76.3,1,1,0,0,1-1-1Zm0,2.45a.72.72,0,0,1,.4-.58,1.23,1.23,0,0,1,.69-.11,1.21,1.21,0,0,1,.62.26.47.47,0,0,1,.19.5l0,6.78a.7.7,0,0,1-.27.63,1,1,0,0,1-.61.15,1.26,1.26,0,0,1-.61-.2.54.54,0,0,1-.27-.46Z"/><path class="cls-11" d="M287.09,24.9l0-3.76a.72.72,0,0,1,.4-.58,1.28,1.28,0,0,1,.68-.12,1.12,1.12,0,0,1,.61.25.47.47,0,0,1,.19.5V24.9H291a.81.81,0,0,1,.61.38,1,1,0,0,1,.13.63.93.93,0,0,1-.31.56.87.87,0,0,1-.71.19h-1.78l0,6.59a.68.68,0,0,1-.29.63,1,1,0,0,1-.62.15,1.33,1.33,0,0,1-.62-.2.53.53,0,0,1-.29-.46l0-6.71h-2a.69.69,0,0,1-.63-.27,1,1,0,0,1-.15-.61,1.25,1.25,0,0,1,.2-.61.54.54,0,0,1,.46-.27Z"/></g></g></svg>