<svg xmlns="http://www.w3.org/2000/svg" width="350" height="56" viewBox="0 0 350 56">
  <title>quiz</title>
  <g id="Layer_2" data-name="Layer 2">
    <g id="Layer_1-2" data-name="Layer 1">
      <rect width="175" height="49.53" rx="24.69" ry="24.69" fill="#fdfefd"/>
      <rect x="2.68" y="1.44" width="169.1" height="45.52" rx="22.69" ry="22.69" fill="#9f732a"/>
      <rect x="2.19" y="1.1" width="169.53" height="44.03" rx="21.94" ry="21.94" fill="#cd882a"/>
      <rect x="3.54" y="0.68" width="167.45" height="39.46" rx="19.67" ry="19.67" fill="#edb31f"/>
      <path d="M151.35.68H23.1A19.72,19.72,0,0,0,3.5,20.41h0c0,.38,0,.76,0,1.14A19.72,19.72,0,0,1,23.1,3H151.35a19.72,19.72,0,0,1,19.57,18.59c0-.38,0-.76,0-1.14h0A19.72,19.72,0,0,0,151.35.68Z" fill="#f9c758" fill-rule="evenodd"/>
      <path d="M151.35,37.85H23.1A19.72,19.72,0,0,1,3.54,19.27c0,.38,0,.76,0,1.14h0A19.72,19.72,0,0,0,23.1,40.13H151.35A19.72,19.72,0,0,0,171,20.41h0c0-.38,0-.76,0-1.14A19.72,19.72,0,0,1,151.35,37.85Z" fill="#cc962b" fill-rule="evenodd"/>
      <path d="M150.39,51.05H24.61A24.67,24.67,0,0,1,.12,28.76C0,29.57,0,30.4,0,31.23H0A24.69,24.69,0,0,0,24.61,56H150.39A24.69,24.69,0,0,0,175,31.23h0c0-.83,0-1.66-.12-2.47A24.67,24.67,0,0,1,150.39,51.05Z" fill="#5e5f5f" fill-rule="evenodd"/>
      <path d="M150.39,49.53H24.61A24.68,24.68,0,0,1,0,25.91c0,.38,0,.76,0,1.14H0A24.69,24.69,0,0,0,24.61,51.82H150.39A24.69,24.69,0,0,0,175,27h0c0-.38,0-.76,0-1.14A24.68,24.68,0,0,1,150.39,49.53Z" fill="#888" fill-rule="evenodd"/>
      <rect x="175" y="6" width="175" height="43.79" rx="21.89" ry="21.89" fill="#fdfefd"/>
      <rect x="177.68" y="7.22" width="169.1" height="40.09" rx="20.05" ry="20.05" fill="#9f732a"/>
      <rect x="177.19" y="7.22" width="169.53" height="38.33" rx="19.17" ry="19.17" fill="#cd882a"/>
      <rect x="178.54" y="7.22" width="167.45" height="37.92" rx="18.96" ry="18.96" fill="#edb31f"/>
      <path d="M326.35,7.22H198.1c-10.78,0-19.6,8.53-19.6,19h0c0,.37,0,.73,0,1.1.59-9.92,9.17-17.86,19.57-17.86H326.35c10.4,0,19,7.94,19.57,17.86,0-.36,0-.73,0-1.1h0C346,15.75,337.13,7.22,326.35,7.22Z" fill="#f9c758" fill-rule="evenodd"/>
      <path d="M326.35,42.95H198.1c-10.4,0-19-7.94-19.57-17.86,0,.36,0,.73,0,1.1h0c0,10.43,8.82,19,19.6,19H326.35c10.78,0,19.6-8.53,19.6-19h0c0-.37,0-.73,0-1.1C345.32,35,336.75,42.95,326.35,42.95Z" fill="#cc962b" fill-rule="evenodd"/>
      <path d="M325.39,51.25H199.61c-12.76,0-23.25-9.4-24.49-21.42A23.28,23.28,0,0,0,175,32.2h0C175,45.34,186,56,199.61,56H325.39C339,56,350,45.34,350,32.2h0a23.28,23.28,0,0,0-.12-2.38C348.64,41.85,338.15,51.25,325.39,51.25Z" fill="#5e5f5f" fill-rule="evenodd"/>
      <path d="M325.39,49.79H199.61c-13.21,0-24-10.07-24.58-22.7,0,.36,0,.73,0,1.1h0C175,41.32,186,52,199.61,52H325.39C339,52,350,41.32,350,28.18h0c0-.37,0-.73,0-1.1C349.38,39.72,338.6,49.79,325.39,49.79Z" fill="#888" fill-rule="evenodd"/>
      <g>
        <g>
          <path d="M78,27.3a4.85,4.85,0,0,1-1.31.79,3.92,3.92,0,0,1-1.48.28,4,4,0,0,1-2.08-.57,5.63,5.63,0,0,1-1.71-1.59,8,8,0,0,1-1.15-2.37,10,10,0,0,1-.42-2.94,10.39,10.39,0,0,1,.42-3,8.61,8.61,0,0,1,1.15-2.47,5.86,5.86,0,0,1,1.71-1.67,3.83,3.83,0,0,1,4.15,0A5.87,5.87,0,0,1,79,15.47a8.63,8.63,0,0,1,1.15,2.47,10.42,10.42,0,0,1,.42,3,9.68,9.68,0,0,1-.38,2.75,9,9,0,0,1-1,2.28l.93,1.22a.82.82,0,0,1,0,.72,1,1,0,0,1-.44.45,1.06,1.06,0,0,1-.63.1.6.6,0,0,1-.49-.37ZM71.77,21a7.73,7.73,0,0,0,.28,2.11,6.28,6.28,0,0,0,.76,1.72A3.82,3.82,0,0,0,73.92,26a2.45,2.45,0,0,0,1.37.42,2.49,2.49,0,0,0,1.64-.63l-1-1.34a.72.72,0,0,1-.16-.68,1,1,0,0,1,.39-.5,1.3,1.3,0,0,1,.62-.21.56.56,0,0,1,.51.2l.76,1a6.46,6.46,0,0,0,.52-1.51A8.07,8.07,0,0,0,78.73,21a8.37,8.37,0,0,0-.28-2.17A7.61,7.61,0,0,0,77.69,17a4.45,4.45,0,0,0-1.11-1.31,2.2,2.2,0,0,0-1.37-.49,2.15,2.15,0,0,0-1.36.49A4.38,4.38,0,0,0,72.77,17,7.55,7.55,0,0,0,72,18.87,8.71,8.71,0,0,0,71.77,21Z" fill="#cb962b"/>
          <path d="M85.15,20.22a23,23,0,0,0-.06,3.5,6.79,6.79,0,0,0,.37,1.88,1.33,1.33,0,0,0,.6.77,1.62,1.62,0,0,0,.63.15,2.2,2.2,0,0,0,1-.21A2.65,2.65,0,0,0,89,24.93a2.49,2.49,0,0,0,.2-1V20.49a.94.94,0,0,1,.29-.65,1,1,0,0,1,.6-.29.9.9,0,0,1,1,.87l0,7.35a.71.71,0,0,1-.28.65,1,1,0,0,1-.62.16,1.28,1.28,0,0,1-.62-.21.55.55,0,0,1-.28-.48l0-.39a4.14,4.14,0,0,1-1.16.63,4,4,0,0,1-1.33.22,2.95,2.95,0,0,1-3.11-2.16,8.76,8.76,0,0,1-.4-2.53q0-1.49,0-3.32a.74.74,0,0,1,.33-.65,1.11,1.11,0,0,1,.66-.16,1.37,1.37,0,0,1,.65.21A.49.49,0,0,1,85.15,20.22Z" fill="#cb962b"/>
          <path d="M93.67,18a1.08,1.08,0,0,1,.31-.78,1,1,0,0,1,.77-.32,1.08,1.08,0,0,1,1.1,1.1,1,1,0,0,1-.32.77,1.08,1.08,0,0,1-.78.31A1,1,0,0,1,93.67,18Zm0,2.51a.74.74,0,0,1,.42-.6,1.28,1.28,0,0,1,1.34.16.48.48,0,0,1,.2.51l0,7a.71.71,0,0,1-.28.65,1,1,0,0,1-.62.16,1.28,1.28,0,0,1-.62-.21.55.55,0,0,1-.28-.48Z" fill="#cb962b"/>
          <path d="M99.07,28.52a1.27,1.27,0,0,1-.66-.15.72.72,0,0,1-.33-.4,1,1,0,0,1,0-.57,1.66,1.66,0,0,1,.35-.63l4.74-5.32-4.49,0a.79.79,0,0,1-.61-.39,1.18,1.18,0,0,1-.15-.66,1.11,1.11,0,0,1,.23-.61.66.66,0,0,1,.55-.27h6.52a.71.71,0,0,1,.45.2,1.24,1.24,0,0,1,.35.51,1.54,1.54,0,0,1,.08.71,1.24,1.24,0,0,1-.4.76L101,26.66l4.32,0A.72.72,0,0,1,106,27a1,1,0,0,1,.16.62,1.3,1.3,0,0,1-.21.62.55.55,0,0,1-.48.28Z" fill="#cb962b"/>
        </g>
        <g>
          <path d="M77,25.3a4.85,4.85,0,0,1-1.31.79,3.92,3.92,0,0,1-1.48.28,4,4,0,0,1-2.08-.57,5.63,5.63,0,0,1-1.71-1.59,8,8,0,0,1-1.15-2.37,10,10,0,0,1-.42-2.94,10.39,10.39,0,0,1,.42-3,8.61,8.61,0,0,1,1.15-2.47,5.86,5.86,0,0,1,1.71-1.67,3.83,3.83,0,0,1,4.15,0A5.87,5.87,0,0,1,78,13.47a8.63,8.63,0,0,1,1.15,2.47,10.42,10.42,0,0,1,.42,3,9.68,9.68,0,0,1-.38,2.75,9,9,0,0,1-1,2.28l.93,1.22a.82.82,0,0,1,0,.72,1,1,0,0,1-.44.45,1.06,1.06,0,0,1-.63.1.6.6,0,0,1-.49-.37ZM70.77,19a7.73,7.73,0,0,0,.28,2.11,6.28,6.28,0,0,0,.76,1.72A3.82,3.82,0,0,0,72.92,24a2.45,2.45,0,0,0,1.37.42,2.49,2.49,0,0,0,1.64-.63l-1-1.34a.72.72,0,0,1-.16-.68,1,1,0,0,1,.39-.5,1.3,1.3,0,0,1,.62-.21.56.56,0,0,1,.51.2l.76,1a6.46,6.46,0,0,0,.52-1.51A8.07,8.07,0,0,0,77.73,19a8.37,8.37,0,0,0-.28-2.17A7.61,7.61,0,0,0,76.69,15a4.45,4.45,0,0,0-1.11-1.31,2.2,2.2,0,0,0-1.37-.49,2.15,2.15,0,0,0-1.36.49A4.38,4.38,0,0,0,71.77,15,7.55,7.55,0,0,0,71,16.87,8.71,8.71,0,0,0,70.77,19Z" fill="#fff"/>
          <path d="M84.15,18.22a23,23,0,0,0-.06,3.5,6.79,6.79,0,0,0,.37,1.88,1.33,1.33,0,0,0,.6.77,1.62,1.62,0,0,0,.63.15,2.2,2.2,0,0,0,1-.21A2.65,2.65,0,0,0,88,22.93a2.49,2.49,0,0,0,.2-1V18.49a.94.94,0,0,1,.29-.65,1,1,0,0,1,.6-.29.9.9,0,0,1,1,.87l0,7.35a.71.71,0,0,1-.28.65,1,1,0,0,1-.62.16,1.28,1.28,0,0,1-.62-.21.55.55,0,0,1-.28-.48l0-.39a4.14,4.14,0,0,1-1.16.63,4,4,0,0,1-1.33.22,2.95,2.95,0,0,1-3.11-2.16,8.76,8.76,0,0,1-.4-2.53q0-1.49,0-3.32a.74.74,0,0,1,.33-.65,1.11,1.11,0,0,1,.66-.16,1.37,1.37,0,0,1,.65.21A.49.49,0,0,1,84.15,18.22Z" fill="#fff"/>
          <path d="M92.67,16a1.08,1.08,0,0,1,.31-.78,1,1,0,0,1,.77-.32,1.08,1.08,0,0,1,1.1,1.1,1,1,0,0,1-.32.77,1.08,1.08,0,0,1-.78.31A1,1,0,0,1,92.67,16Zm0,2.51a.74.74,0,0,1,.42-.6,1.28,1.28,0,0,1,1.34.16.48.48,0,0,1,.2.51l0,7a.71.71,0,0,1-.28.65,1,1,0,0,1-.62.16,1.28,1.28,0,0,1-.62-.21.55.55,0,0,1-.28-.48Z" fill="#fff"/>
          <path d="M98.07,26.52a1.27,1.27,0,0,1-.66-.15.72.72,0,0,1-.33-.4,1,1,0,0,1,0-.57,1.66,1.66,0,0,1,.35-.63l4.74-5.32-4.49,0a.79.79,0,0,1-.61-.39,1.18,1.18,0,0,1-.15-.66,1.11,1.11,0,0,1,.23-.61.66.66,0,0,1,.55-.27h6.52a.71.71,0,0,1,.45.2,1.24,1.24,0,0,1,.35.51,1.54,1.54,0,0,1,.08.71,1.24,1.24,0,0,1-.4.76L100,24.66l4.32,0A.72.72,0,0,1,105,25a1,1,0,0,1,.16.62,1.3,1.3,0,0,1-.21.62.55.55,0,0,1-.48.28Z" fill="#fff"/>
        </g>
      </g>
      <g>
        <g>
          <path d="M253,33.07a4.85,4.85,0,0,1-1.31.79,3.92,3.92,0,0,1-1.48.28,4,4,0,0,1-2.08-.57A5.63,5.63,0,0,1,246.48,32a8,8,0,0,1-1.15-2.37,10,10,0,0,1-.42-2.94,10.39,10.39,0,0,1,.42-3,8.61,8.61,0,0,1,1.15-2.47,5.86,5.86,0,0,1,1.71-1.67,3.83,3.83,0,0,1,4.15,0A5.87,5.87,0,0,1,254,21.24a8.63,8.63,0,0,1,1.15,2.47,10.42,10.42,0,0,1,.42,3,9.68,9.68,0,0,1-.38,2.75,9,9,0,0,1-1,2.28l.93,1.22a.82.82,0,0,1,0,.72,1,1,0,0,1-.44.45,1.06,1.06,0,0,1-.63.1.6.6,0,0,1-.49-.37Zm-6.27-6.25a7.73,7.73,0,0,0,.28,2.11,6.28,6.28,0,0,0,.76,1.72,3.82,3.82,0,0,0,1.11,1.15,2.45,2.45,0,0,0,1.37.42,2.49,2.49,0,0,0,1.64-.63l-1-1.34a.72.72,0,0,1-.16-.68,1,1,0,0,1,.39-.5,1.3,1.3,0,0,1,.62-.21.56.56,0,0,1,.51.2l.76,1a6.46,6.46,0,0,0,.52-1.51,8.07,8.07,0,0,0,.18-1.76,8.37,8.37,0,0,0-.28-2.17,7.61,7.61,0,0,0-.76-1.87,4.45,4.45,0,0,0-1.11-1.31,2.2,2.2,0,0,0-1.37-.49,2.15,2.15,0,0,0-1.36.49,4.38,4.38,0,0,0-1.09,1.31,7.55,7.55,0,0,0-.73,1.87A8.71,8.71,0,0,0,246.77,26.82Z" fill="#cb962b"/>
          <path d="M260.15,26a23,23,0,0,0-.06,3.5,6.79,6.79,0,0,0,.37,1.88,1.33,1.33,0,0,0,.6.77,1.62,1.62,0,0,0,.63.15,2.2,2.2,0,0,0,1-.21A2.65,2.65,0,0,0,264,30.7a2.49,2.49,0,0,0,.2-1V26.26a.94.94,0,0,1,.29-.65,1,1,0,0,1,.6-.29.9.9,0,0,1,1,.87l0,7.35a.71.71,0,0,1-.28.65,1,1,0,0,1-.62.16,1.28,1.28,0,0,1-.62-.21.55.55,0,0,1-.28-.48l0-.39a4.14,4.14,0,0,1-1.16.63,4,4,0,0,1-1.33.22A2.95,2.95,0,0,1,258.6,32a8.76,8.76,0,0,1-.4-2.53q0-1.49,0-3.32a.74.74,0,0,1,.33-.65,1.11,1.11,0,0,1,.66-.16,1.37,1.37,0,0,1,.65.21A.49.49,0,0,1,260.15,26Z" fill="#cb962b"/>
          <path d="M268.67,23.74A1.08,1.08,0,0,1,269,23a1,1,0,0,1,.77-.32,1.08,1.08,0,0,1,1.1,1.1,1,1,0,0,1-.32.77,1.08,1.08,0,0,1-.78.31,1,1,0,0,1-1.07-1.07Zm0,2.51a.74.74,0,0,1,.42-.6,1.28,1.28,0,0,1,1.34.16.48.48,0,0,1,.2.51l0,7a.71.71,0,0,1-.28.65,1,1,0,0,1-.62.16,1.28,1.28,0,0,1-.62-.21.55.55,0,0,1-.28-.48Z" fill="#cb962b"/>
          <path d="M274.07,34.29a1.27,1.27,0,0,1-.66-.15.72.72,0,0,1-.33-.4,1,1,0,0,1,0-.57,1.66,1.66,0,0,1,.35-.63l4.74-5.32-4.49,0a.79.79,0,0,1-.61-.39,1.18,1.18,0,0,1-.15-.66,1.11,1.11,0,0,1,.23-.61.66.66,0,0,1,.55-.27h6.52a.71.71,0,0,1,.45.2A1.24,1.24,0,0,1,281,26a1.54,1.54,0,0,1,.08.71,1.24,1.24,0,0,1-.4.76L276,32.44l4.32,0a.72.72,0,0,1,.65.28,1,1,0,0,1,.16.62,1.3,1.3,0,0,1-.21.62.55.55,0,0,1-.48.28Z" fill="#cb962b"/>
        </g>
        <g>
          <path d="M253,33.07a4.85,4.85,0,0,1-1.31.79,3.92,3.92,0,0,1-1.48.28,4,4,0,0,1-2.08-.57A5.63,5.63,0,0,1,246.48,32a8,8,0,0,1-1.15-2.37,10,10,0,0,1-.42-2.94,10.39,10.39,0,0,1,.42-3,8.61,8.61,0,0,1,1.15-2.47,5.86,5.86,0,0,1,1.71-1.67,3.83,3.83,0,0,1,4.15,0A5.87,5.87,0,0,1,254,21.24a8.63,8.63,0,0,1,1.15,2.47,10.42,10.42,0,0,1,.42,3,9.68,9.68,0,0,1-.38,2.75,9,9,0,0,1-1,2.28l.93,1.22a.82.82,0,0,1,0,.72,1,1,0,0,1-.44.45,1.06,1.06,0,0,1-.63.1.6.6,0,0,1-.49-.37Zm-6.27-6.25a7.73,7.73,0,0,0,.28,2.11,6.28,6.28,0,0,0,.76,1.72,3.82,3.82,0,0,0,1.11,1.15,2.45,2.45,0,0,0,1.37.42,2.49,2.49,0,0,0,1.64-.63l-1-1.34a.72.72,0,0,1-.16-.68,1,1,0,0,1,.39-.5,1.3,1.3,0,0,1,.62-.21.56.56,0,0,1,.51.2l.76,1a6.46,6.46,0,0,0,.52-1.51,8.07,8.07,0,0,0,.18-1.76,8.37,8.37,0,0,0-.28-2.17,7.61,7.61,0,0,0-.76-1.87,4.45,4.45,0,0,0-1.11-1.31,2.2,2.2,0,0,0-1.37-.49,2.15,2.15,0,0,0-1.36.49,4.38,4.38,0,0,0-1.09,1.31,7.55,7.55,0,0,0-.73,1.87A8.71,8.71,0,0,0,246.77,26.82Z" fill="#fff"/>
          <path d="M260.15,26a23,23,0,0,0-.06,3.5,6.79,6.79,0,0,0,.37,1.88,1.33,1.33,0,0,0,.6.77,1.62,1.62,0,0,0,.63.15,2.2,2.2,0,0,0,1-.21A2.65,2.65,0,0,0,264,30.7a2.49,2.49,0,0,0,.2-1V26.26a.94.94,0,0,1,.29-.65,1,1,0,0,1,.6-.29.9.9,0,0,1,1,.87l0,7.35a.71.71,0,0,1-.28.65,1,1,0,0,1-.62.16,1.28,1.28,0,0,1-.62-.21.55.55,0,0,1-.28-.48l0-.39a4.14,4.14,0,0,1-1.16.63,4,4,0,0,1-1.33.22A2.95,2.95,0,0,1,258.6,32a8.76,8.76,0,0,1-.4-2.53q0-1.49,0-3.32a.74.74,0,0,1,.33-.65,1.11,1.11,0,0,1,.66-.16,1.37,1.37,0,0,1,.65.21A.49.49,0,0,1,260.15,26Z" fill="#fff"/>
          <path d="M268.67,23.74A1.08,1.08,0,0,1,269,23a1,1,0,0,1,.77-.32,1.08,1.08,0,0,1,1.1,1.1,1,1,0,0,1-.32.77,1.08,1.08,0,0,1-.78.31,1,1,0,0,1-1.07-1.07Zm0,2.51a.74.74,0,0,1,.42-.6,1.28,1.28,0,0,1,1.34.16.48.48,0,0,1,.2.51l0,7a.71.71,0,0,1-.28.65,1,1,0,0,1-.62.16,1.28,1.28,0,0,1-.62-.21.55.55,0,0,1-.28-.48Z" fill="#fff"/>
          <path d="M274.07,34.29a1.27,1.27,0,0,1-.66-.15.72.72,0,0,1-.33-.4,1,1,0,0,1,0-.57,1.66,1.66,0,0,1,.35-.63l4.74-5.32-4.49,0a.79.79,0,0,1-.61-.39,1.18,1.18,0,0,1-.15-.66,1.11,1.11,0,0,1,.23-.61.66.66,0,0,1,.55-.27h6.52a.71.71,0,0,1,.45.2A1.24,1.24,0,0,1,281,26a1.54,1.54,0,0,1,.08.71,1.24,1.24,0,0,1-.4.76L276,32.44l4.32,0a.72.72,0,0,1,.65.28,1,1,0,0,1,.16.62,1.3,1.3,0,0,1-.21.62.55.55,0,0,1-.48.28Z" fill="#fff"/>
        </g>
      </g>
    </g>
  </g>
</svg>
