<svg xmlns="http://www.w3.org/2000/svg" width="350" height="56" viewBox="0 0 350 56"><defs><style>.cls-1{fill:#fdfefd;}.cls-2{fill:#28377b;}.cls-3{fill:#3267b0;}.cls-4{fill:#42a4dc;}.cls-5,.cls-8{fill:#243f94;}.cls-6{fill:#fff;stroke:#9dd4ed;stroke-miterlimit:10;}.cls-7{fill:#9dd4ed;}.cls-10,.cls-7,.cls-8,.cls-9{fill-rule:evenodd;}.cls-9{fill:#5e5f5f;}.cls-10{fill:#888;}</style></defs><title>Asset 19</title><g id="Layer_2" data-name="Layer 2"><g id="Layer_1-2" data-name="Layer 1"><rect class="cls-1" width="175" height="49.53" rx="24.69" ry="24.69"/><rect class="cls-2" x="2.68" y="1.44" width="169.1" height="45.52" rx="22.69" ry="22.69"/><rect class="cls-3" x="2.19" y="1.1" width="169.53" height="44.03" rx="21.94" ry="21.94"/><rect class="cls-4" x="3.54" y="0.68" width="167.45" height="39.46" rx="19.67" ry="19.67"/><path class="cls-5" d="M92.06,11c-.45.1-.71,3.5-.81,7.69l-17.07.13s-1.61-.06-1.61,0l-4.3-.23c-1.08-.15-2,1.24-2.14,3.18S66.9,26.14,68,26.3L74,26.16l17.22.31c.1,4.55.38,8.31.81,8.2,1.6.4,16.48-9.23,16.35-11.77C108.28,19.28,93.79,9.65,92.06,11Z"/><path class="cls-6" d="M92.06,7c-.45.1-.71,3.5-.81,7.69l-17.07.13s-1.61-.06-1.61,0l-4.3-.23c-1.08-.15-2,1.24-2.14,3.18s.77,4.43,1.84,4.59L74,22.19l17.22.31c.1,4.55.38,8.31.81,8.2,1.6.4,16.48-9.23,16.35-11.77C108.28,15.32,93.79,5.68,92.06,7Z"/><path class="cls-7" d="M151.35.68H23.1A19.72,19.72,0,0,0,3.5,20.41h0c0,.38,0,.76,0,1.14A19.72,19.72,0,0,1,23.1,3H151.35a19.72,19.72,0,0,1,19.57,18.59c0-.38,0-.76,0-1.14h0A19.72,19.72,0,0,0,151.35.68Z"/><path class="cls-8" d="M151.35,37.85H23.1A19.72,19.72,0,0,1,3.54,19.27c0,.38,0,.76,0,1.14h0A19.72,19.72,0,0,0,23.1,40.13H151.35A19.72,19.72,0,0,0,171,20.41h0c0-.38,0-.76,0-1.14A19.72,19.72,0,0,1,151.35,37.85Z"/><path class="cls-9" d="M150.39,51.05H24.61A24.67,24.67,0,0,1,.12,28.76C0,29.57,0,30.4,0,31.23H0A24.69,24.69,0,0,0,24.61,56H150.39A24.69,24.69,0,0,0,175,31.23h0c0-.83,0-1.66-.12-2.47A24.67,24.67,0,0,1,150.39,51.05Z"/><path class="cls-10" d="M150.39,49.53H24.61A24.68,24.68,0,0,1,0,25.91c0,.38,0,.76,0,1.14H0A24.69,24.69,0,0,0,24.61,51.82H150.39A24.69,24.69,0,0,0,175,27h0c0-.38,0-.76,0-1.14A24.68,24.68,0,0,1,150.39,49.53Z"/><rect class="cls-1" x="175" y="6" width="175" height="43.79" rx="21.89" ry="21.89"/><rect class="cls-2" x="177.68" y="7.22" width="169.1" height="40.09" rx="20.05" ry="20.05"/><rect class="cls-3" x="177.19" y="7.22" width="169.53" height="38.33" rx="19.17" ry="19.17"/><rect class="cls-4" x="178.54" y="7.22" width="167.45" height="37.92" rx="18.96" ry="18.96"/><path class="cls-7" d="M326.35,7.22H198.1c-10.78,0-19.6,8.53-19.6,19h0c0,.37,0,.73,0,1.1.59-9.92,9.17-17.86,19.57-17.86H326.35c10.4,0,19,7.94,19.57,17.86,0-.36,0-.73,0-1.1h0C346,15.75,337.13,7.22,326.35,7.22Z"/><path class="cls-8" d="M326.35,42.95H198.1c-10.4,0-19-7.94-19.57-17.86,0,.36,0,.73,0,1.1h0c0,10.43,8.82,19,19.6,19H326.35c10.78,0,19.6-8.53,19.6-19h0c0-.37,0-.73,0-1.1C345.32,35,336.75,42.95,326.35,42.95Z"/><path class="cls-5" d="M267.06,15.3c-.45.1-.71,3.36-.81,7.39l-17.07.12s-1.61-.05-1.61,0l-4.3-.22c-1.08-.15-2,1.19-2.14,3.06S241.9,29.86,243,30l6.07-.13,17.22.3c.1,4.37.38,8,.81,7.88,1.6.39,16.48-8.87,16.35-11.31C283.28,23.27,268.79,14,267.06,15.3Z"/><path class="cls-6" d="M267.06,14.42c-.45.1-.71,3.36-.81,7.39l-17.07.12s-1.61-.05-1.61,0l-4.3-.22c-1.08-.15-2,1.19-2.14,3.06S241.9,29,243,29.13L249,29l17.22.3c.1,4.37.38,8,.81,7.88,1.6.39,16.48-8.87,16.35-11.31C283.28,22.39,268.79,13.13,267.06,14.42Z"/><path class="cls-9" d="M325.39,51.25H199.61c-12.76,0-23.25-9.4-24.49-21.42A23.28,23.28,0,0,0,175,32.2h0C175,45.34,186,56,199.61,56H325.39C339,56,350,45.34,350,32.2h0a23.28,23.28,0,0,0-.12-2.38C348.64,41.85,338.15,51.25,325.39,51.25Z"/><path class="cls-10" d="M325.39,49.79H199.61c-13.21,0-24-10.07-24.58-22.7,0,.36,0,.73,0,1.1h0C175,41.32,186,52,199.61,52H325.39C339,52,350,41.32,350,28.18h0c0-.37,0-.73,0-1.1C349.38,39.72,338.6,49.79,325.39,49.79Z"/></g></g></svg>