<svg xmlns="http://www.w3.org/2000/svg" width="313.12" height="50.1" viewBox="0 0 313.12 50.1">
  <title>startQuiz</title>
  <g id="Layer_2" data-name="Layer 2">
    <g id="Layer_1-2" data-name="Layer 1">
      <rect x="156.56" y="4.97" width="156.56" height="39.17" rx="19.58" ry="19.58" fill="#fff"/>
      <rect x="158.96" y="6.07" width="151.28" height="35.87" rx="17.93" ry="17.93" fill="#19497e"/>
      <path d="M175.67,6.07H293a17.15,17.15,0,0,1,17.15,17.14h0A17.15,17.15,0,0,1,293,40.36H175.67a17.15,17.15,0,0,1-17.15-17.15h0A17.15,17.15,0,0,1,175.67,6.07Z" fill="#3468b0"/>
      <path d="M176.69,6.07H292.58a17,17,0,0,1,17,17h0a17,17,0,0,1-17,17H176.69a17,17,0,0,1-17-17h0A17,17,0,0,1,176.69,6.07Z" fill="#44a4dc"/>
      <path d="M292,6.07H177.24c-9.65,0-17.54,7.63-17.54,17h0v1a17.37,17.37,0,0,1,17.51-16H292c9.31,0,17,7.1,17.51,16v-1h0C309.51,13.7,301.62,6.07,292,6.07Z" fill="#9ed3ed"/>
      <path d="M292,38H177.24c-9.31,0-17-7.1-17.51-16v1h0c0,9.33,7.89,17,17.54,17H292c9.65,0,17.54-7.63,17.54-17h0V22A17.43,17.43,0,0,1,292,38Z" fill="#244293"/>
      <path d="M291.11,45.45H178.58c-11.42,0-20.8-8.41-21.91-19.17a20.83,20.83,0,0,0-.11,2.13h0c0,11.76,9.86,21.29,22,21.29H291.11c12.16,0,22-9.53,22-21.29h0a20.84,20.84,0,0,0-.11-2.13C311.92,37,302.53,45.45,291.11,45.45Z" fill="#5f6060"/>
      <path d="M291.11,44.15H178.58c-11.82,0-21.46-9-22-20.31v1h0c0,11.76,9.86,21.29,22,21.29H291.11c12.16,0,22-9.53,22-21.29h0v-1C312.57,35.14,302.93,44.15,291.11,44.15Z" fill="#888"/>
      <rect width="156.56" height="44.32" rx="22.09" ry="22.09" fill="#fff"/>
      <rect x="2.4" y="1.29" width="151.28" height="40.73" rx="20.3" ry="20.3" fill="#19497e"/>
      <rect x="1.96" y="0.98" width="151.67" height="39.39" rx="19.63" ry="19.63" fill="#3468b0"/>
      <rect x="3.16" y="0.61" width="149.81" height="35.3" rx="17.59" ry="17.59" fill="#44a4dc"/>
      <path d="M135.41.61H20.67A17.65,17.65,0,0,0,3.13,18.26h0v1A17.64,17.64,0,0,1,20.67,2.65H135.41a17.64,17.64,0,0,1,17.51,16.63v-1h0A17.65,17.65,0,0,0,135.41.61Z" fill="#9ed3ed"/>
      <path d="M135.41,33.86H20.67A17.64,17.64,0,0,1,3.16,17.24v1h0A17.65,17.65,0,0,0,20.67,35.91H135.41A17.65,17.65,0,0,0,153,18.26h0v-1A17.64,17.64,0,0,1,135.41,33.86Z" fill="#244293"/>
      <path d="M134.55,45.68H22a22.07,22.07,0,0,1-21.89-20A14.81,14.81,0,0,0,0,27.94H0A22.09,22.09,0,0,0,22,50.1H134.55a22.09,22.09,0,0,0,22-22.16h0a14.74,14.74,0,0,0-.11-2.21A22.07,22.07,0,0,1,134.55,45.68Z" fill="#5f6060"/>
      <path d="M134.55,44.32H22A22.08,22.08,0,0,1,0,23.18v1H0A22.09,22.09,0,0,0,22,46.36H134.55a22.09,22.09,0,0,0,22-22.16h0v-1A22.08,22.08,0,0,1,134.55,44.32Z" fill="#888"/>
      <g>
        <g>
          <path d="M38.41,13.59a.65.65,0,0,1,0,.66,1.09,1.09,0,0,1-.54.39,1.25,1.25,0,0,1-.66.05.49.49,0,0,1-.41-.42,2.8,2.8,0,0,0-.55-1.17,2.93,2.93,0,0,0-.78-.66,2.46,2.46,0,0,0-.79-.29l-.56-.09a3.1,3.1,0,0,0-1.17.11,2.91,2.91,0,0,0-.92.46,2.42,2.42,0,0,0-.61.67,1.7,1.7,0,0,0-.25.76,2.34,2.34,0,0,0,.2,1.34,2.39,2.39,0,0,0,.83.88,6.61,6.61,0,0,0,1.3.64l1.57.61q.79.33,1.57.73a5.28,5.28,0,0,1,1.35,1,3.72,3.72,0,0,1,.87,1.39,4.38,4.38,0,0,1,.17,2,4.21,4.21,0,0,1-.71,2,4.29,4.29,0,0,1-1.44,1.3,5.34,5.34,0,0,1-1.86.61,5.69,5.69,0,0,1-2-.06,5.61,5.61,0,0,1-2.33-1,3.64,3.64,0,0,1-1.36-2.08,1,1,0,0,1,.24-.76,1.41,1.41,0,0,1,.6-.42.92.92,0,0,1,.64,0,.54.54,0,0,1,.36.47A1.91,1.91,0,0,0,32,24a4,4,0,0,0,2.8.6,2.78,2.78,0,0,0,1-.37,2.63,2.63,0,0,0,.78-.73A2.54,2.54,0,0,0,37,22.43a2.44,2.44,0,0,0-.1-1.24,2.33,2.33,0,0,0-.64-.9,4.22,4.22,0,0,0-1-.66q-.61-.28-1.3-.56-.87-.33-1.75-.71a6.69,6.69,0,0,1-1.57-.94A4,4,0,0,1,29.53,16a3.8,3.8,0,0,1-.27-2,3.93,3.93,0,0,1,.56-1.72A4.08,4.08,0,0,1,31,11.06a4.81,4.81,0,0,1,1.52-.69,5.2,5.2,0,0,1,1.64-.17,5.3,5.3,0,0,1,1.1.19,4.56,4.56,0,0,1,1.22.55,4.7,4.7,0,0,1,1.13,1A4.76,4.76,0,0,1,38.41,13.59Z" fill="#19497e"/>
          <path d="M44,16.4l0-4a.77.77,0,0,1,.43-.62,1.37,1.37,0,0,1,.73-.13,1.2,1.2,0,0,1,.65.27.5.5,0,0,1,.2.54v4H48.2a.86.86,0,0,1,.65.41,1,1,0,0,1-.19,1.28.94.94,0,0,1-.76.2H46v7.06a.73.73,0,0,1-.31.67,1.08,1.08,0,0,1-.66.17,1.43,1.43,0,0,1-.66-.22.57.57,0,0,1-.31-.5V18.28H41.87A.74.74,0,0,1,41.2,18a1,1,0,0,1-.17-.65,1.34,1.34,0,0,1,.22-.65.57.57,0,0,1,.5-.29Z" fill="#19497e"/>
          <path d="M57.21,25.34a4.21,4.21,0,0,1-4.33.52,4.57,4.57,0,0,1-1.43-1,4.55,4.55,0,0,1-1-5,4.51,4.51,0,0,1,1-1.47,4.7,4.7,0,0,1,1.43-1A4.15,4.15,0,0,1,54.61,17a4.08,4.08,0,0,1,1.32.22,4.5,4.5,0,0,1,1.17.6.82.82,0,0,1,.46-.6,1.3,1.3,0,0,1,1.38.17.5.5,0,0,1,.2.54V25.6a.74.74,0,0,1-.29.67,1,1,0,0,1-.65.17,1.34,1.34,0,0,1-.65-.22.57.57,0,0,1-.29-.5ZM52,21.64a2.59,2.59,0,0,0,.2,1,2.78,2.78,0,0,0,1.38,1.44,2.39,2.39,0,0,0,2,0A2.78,2.78,0,0,0,57,22.66a2.64,2.64,0,0,0-.56-2.88,2.91,2.91,0,0,0-.82-.57,2.39,2.39,0,0,0-2,0,2.9,2.9,0,0,0-.82.57A2.64,2.64,0,0,0,52,21.64Z" fill="#19497e"/>
          <path d="M68,19.91a5,5,0,0,0-.85-.64,1.94,1.94,0,0,0-1-.28,2.31,2.31,0,0,0-1,.22,2.78,2.78,0,0,0-1.38,1.44,2.6,2.6,0,0,0-.2,1v3.62a1,1,0,0,1-.31.67,1.06,1.06,0,0,1-.62.31.94.94,0,0,1-1.05-.81s0-.06,0-.09V17.68a.74.74,0,0,1,.29-.67,1,1,0,0,1,.65-.17,1.36,1.36,0,0,1,.65.22.57.57,0,0,1,.29.5V18a4.32,4.32,0,0,1,1.21-.66,4.15,4.15,0,0,1,1.39-.23,4.33,4.33,0,0,1,2,.45,3.53,3.53,0,0,1,1.43,1.29.76.76,0,0,1,.08.59,1.14,1.14,0,0,1-.31.56.84.84,0,0,1-1.19,0Z" fill="#19497e"/>
          <path d="M74.21,16.4l-.05-4a.77.77,0,0,1,.43-.62,1.37,1.37,0,0,1,.73-.13,1.2,1.2,0,0,1,.65.27.5.5,0,0,1,.2.54v4h2.24a.86.86,0,0,1,.65.41,1,1,0,0,1-.19,1.28.94.94,0,0,1-.76.2H76.2v7.06a.73.73,0,0,1-.31.67,1.08,1.08,0,0,1-.66.17,1.43,1.43,0,0,1-.66-.22.57.57,0,0,1-.31-.5l-.05-7.19H72.12a.74.74,0,0,1-.68-.29,1,1,0,0,1-.17-.65,1.34,1.34,0,0,1,.22-.65.57.57,0,0,1,.5-.29Z" fill="#19497e"/>
          <path d="M97.73,25a5.07,5.07,0,0,1-1.36.83,4.1,4.1,0,0,1-1.54.29,4.21,4.21,0,0,1-2.17-.6,5.86,5.86,0,0,1-1.78-1.66,8.35,8.35,0,0,1-1.2-2.47,10.43,10.43,0,0,1-.43-3.07,10.87,10.87,0,0,1,.43-3.1,9,9,0,0,1,1.2-2.57,6.1,6.1,0,0,1,1.78-1.75,4,4,0,0,1,4.33,0,6.11,6.11,0,0,1,1.78,1.75,9,9,0,0,1,1.2,2.57,10.87,10.87,0,0,1,.43,3.1,10.08,10.08,0,0,1-.4,2.87,9.39,9.39,0,0,1-1,2.39l1,1.27a.85.85,0,0,1,.05.75,1,1,0,0,1-.46.47,1.09,1.09,0,0,1-.66.1.63.63,0,0,1-.51-.38Zm-6.55-6.52a8,8,0,0,0,.29,2.21,6.56,6.56,0,0,0,.79,1.8,4,4,0,0,0,1.16,1.2,2.56,2.56,0,0,0,1.43.43,2.61,2.61,0,0,0,1.71-.66l-1.07-1.4a.76.76,0,0,1-.17-.71,1,1,0,0,1,.41-.52,1.36,1.36,0,0,1,.65-.22.58.58,0,0,1,.54.2l.79,1.1a6.81,6.81,0,0,0,.55-1.58,8.49,8.49,0,0,0,.19-1.83,8.76,8.76,0,0,0-.29-2.27,7.92,7.92,0,0,0-.79-1.95A4.62,4.62,0,0,0,96.2,12.9a2.3,2.3,0,0,0-1.43-.51,2.24,2.24,0,0,0-1.41.51,4.55,4.55,0,0,0-1.13,1.36,7.91,7.91,0,0,0-.76,1.95A9.11,9.11,0,0,0,91.18,18.48Z" fill="#19497e"/>
          <path d="M105.14,17.62a23.88,23.88,0,0,0-.06,3.66,7.1,7.1,0,0,0,.38,2,1.38,1.38,0,0,0,.62.8,1.7,1.7,0,0,0,.66.15,2.3,2.3,0,0,0,1-.22,2.77,2.77,0,0,0,1.38-1.44,2.6,2.6,0,0,0,.2-1V17.9a1,1,0,0,1,.31-.67,1.06,1.06,0,0,1,.62-.31.94.94,0,0,1,1.05.81s0,.06,0,.09v7.67a.75.75,0,0,1-.29.68,1,1,0,0,1-.65.17,1.34,1.34,0,0,1-.65-.22.57.57,0,0,1-.29-.5v-.41a4.33,4.33,0,0,1-1.21.66,4.16,4.16,0,0,1-1.39.23,3.08,3.08,0,0,1-3.25-2.26,9.14,9.14,0,0,1-.42-2.64q-.05-1.55.05-3.46a.77.77,0,0,1,.34-.68,1.15,1.15,0,0,1,.69-.17,1.44,1.44,0,0,1,.68.22A.52.52,0,0,1,105.14,17.62Z" fill="#19497e"/>
          <path d="M114,15.27a1.13,1.13,0,0,1,.32-.82,1.07,1.07,0,0,1,.8-.33,1.13,1.13,0,0,1,1.15,1.11s0,0,0,0a1.07,1.07,0,0,1-.33.8,1.13,1.13,0,0,1-.82.32A1.09,1.09,0,0,1,114,15.33S114,15.29,114,15.27Zm.05,2.62a.77.77,0,0,1,.43-.62,1.31,1.31,0,0,1,.74-.11,1.29,1.29,0,0,1,.66.28.5.5,0,0,1,.2.54v7.26a.75.75,0,0,1-.29.68,1,1,0,0,1-.65.17,1.34,1.34,0,0,1-.65-.22.57.57,0,0,1-.29-.5Z" fill="#19497e"/>
          <path d="M119.67,26.28a1.33,1.33,0,0,1-.69-.15.76.76,0,0,1-.34-.42,1,1,0,0,1,0-.6,1.75,1.75,0,0,1,.37-.66l5-5.56-4.69,0a.82.82,0,0,1-.64-.41,1.24,1.24,0,0,1-.15-.69,1.15,1.15,0,0,1,.24-.64.69.69,0,0,1,.57-.28h6.8a.74.74,0,0,1,.47.2,1.3,1.3,0,0,1,.37.54,1.62,1.62,0,0,1,.09.74,1.3,1.3,0,0,1-.42.79l-4.89,5.15h4.51a.74.74,0,0,1,.68.29,1,1,0,0,1,.17.65,1.35,1.35,0,0,1-.22.65.57.57,0,0,1-.5.29Z" fill="#19497e"/>
        </g>
        <g>
          <path d="M38.41,12.59a.65.65,0,0,1,0,.66,1.09,1.09,0,0,1-.54.39,1.25,1.25,0,0,1-.66.05.49.49,0,0,1-.41-.42,2.8,2.8,0,0,0-.55-1.17,2.93,2.93,0,0,0-.78-.66,2.46,2.46,0,0,0-.79-.29l-.56-.09a3.1,3.1,0,0,0-1.17.11,2.91,2.91,0,0,0-.92.46,2.42,2.42,0,0,0-.61.67,1.7,1.7,0,0,0-.25.76,2.34,2.34,0,0,0,.2,1.34,2.39,2.39,0,0,0,.83.88,6.61,6.61,0,0,0,1.3.64l1.57.61q.79.33,1.57.73a5.28,5.28,0,0,1,1.35,1,3.72,3.72,0,0,1,.87,1.39,4.38,4.38,0,0,1,.17,2,4.21,4.21,0,0,1-.71,2,4.29,4.29,0,0,1-1.44,1.3,5.34,5.34,0,0,1-1.86.61,5.69,5.69,0,0,1-2-.06,5.61,5.61,0,0,1-2.33-1,3.64,3.64,0,0,1-1.36-2.08,1,1,0,0,1,.24-.76,1.41,1.41,0,0,1,.6-.42.92.92,0,0,1,.64,0,.54.54,0,0,1,.36.47A1.91,1.91,0,0,0,32,23a4,4,0,0,0,2.8.6,2.78,2.78,0,0,0,1-.37,2.63,2.63,0,0,0,.78-.73A2.54,2.54,0,0,0,37,21.43a2.44,2.44,0,0,0-.1-1.24,2.33,2.33,0,0,0-.64-.9,4.22,4.22,0,0,0-1-.66q-.61-.28-1.3-.56-.87-.33-1.75-.71a6.69,6.69,0,0,1-1.57-.94A4,4,0,0,1,29.53,15a3.8,3.8,0,0,1-.27-2,3.93,3.93,0,0,1,.56-1.72A4.08,4.08,0,0,1,31,10.06a4.81,4.81,0,0,1,1.52-.69,5.2,5.2,0,0,1,1.64-.17,5.3,5.3,0,0,1,1.1.19,4.56,4.56,0,0,1,1.22.55,4.7,4.7,0,0,1,1.13,1A4.76,4.76,0,0,1,38.41,12.59Z" fill="#fbfadb"/>
          <path d="M44,15.4l0-4a.77.77,0,0,1,.43-.62,1.37,1.37,0,0,1,.73-.13,1.2,1.2,0,0,1,.65.27.5.5,0,0,1,.2.54v4H48.2a.86.86,0,0,1,.65.41,1,1,0,0,1-.19,1.28.94.94,0,0,1-.76.2H46v7.06a.73.73,0,0,1-.31.67,1.08,1.08,0,0,1-.66.17,1.43,1.43,0,0,1-.66-.22.57.57,0,0,1-.31-.5V17.28H41.87A.74.74,0,0,1,41.2,17a1,1,0,0,1-.17-.65,1.34,1.34,0,0,1,.22-.65.57.57,0,0,1,.5-.29Z" fill="#fbfadb"/>
          <path d="M57.21,24.34a4.21,4.21,0,0,1-4.33.52,4.57,4.57,0,0,1-1.43-1,4.55,4.55,0,0,1-1-5,4.51,4.51,0,0,1,1-1.47,4.7,4.7,0,0,1,1.43-1A4.15,4.15,0,0,1,54.61,16a4.08,4.08,0,0,1,1.32.22,4.5,4.5,0,0,1,1.17.6.82.82,0,0,1,.46-.6,1.3,1.3,0,0,1,1.38.17.5.5,0,0,1,.2.54V24.6a.74.74,0,0,1-.29.67,1,1,0,0,1-.65.17,1.34,1.34,0,0,1-.65-.22.57.57,0,0,1-.29-.5ZM52,20.64a2.59,2.59,0,0,0,.2,1,2.78,2.78,0,0,0,1.38,1.44,2.39,2.39,0,0,0,2,0A2.78,2.78,0,0,0,57,21.66a2.64,2.64,0,0,0-.56-2.88,2.91,2.91,0,0,0-.82-.57,2.39,2.39,0,0,0-2,0,2.9,2.9,0,0,0-.82.57A2.64,2.64,0,0,0,52,20.64Z" fill="#fbfadb"/>
          <path d="M68,18.91a5,5,0,0,0-.85-.64,1.94,1.94,0,0,0-1-.28,2.31,2.31,0,0,0-1,.22,2.78,2.78,0,0,0-1.38,1.44,2.6,2.6,0,0,0-.2,1v3.62a1,1,0,0,1-.31.67,1.06,1.06,0,0,1-.62.31.94.94,0,0,1-1.05-.81s0-.06,0-.09V16.68a.74.74,0,0,1,.29-.67,1,1,0,0,1,.65-.17,1.36,1.36,0,0,1,.65.22.57.57,0,0,1,.29.5V17a4.32,4.32,0,0,1,1.21-.66,4.15,4.15,0,0,1,1.39-.23,4.33,4.33,0,0,1,2,.45,3.53,3.53,0,0,1,1.43,1.29.76.76,0,0,1,.08.59,1.14,1.14,0,0,1-.31.56.84.84,0,0,1-1.19,0Z" fill="#fbfadb"/>
          <path d="M74.21,15.4l-.05-4a.77.77,0,0,1,.43-.62,1.37,1.37,0,0,1,.73-.13,1.2,1.2,0,0,1,.65.27.5.5,0,0,1,.2.54v4h2.24a.86.86,0,0,1,.65.41,1,1,0,0,1-.19,1.28.94.94,0,0,1-.76.2H76.2v7.06a.73.73,0,0,1-.31.67,1.08,1.08,0,0,1-.66.17,1.43,1.43,0,0,1-.66-.22.57.57,0,0,1-.31-.5l-.05-7.19H72.12a.74.74,0,0,1-.68-.29,1,1,0,0,1-.17-.65,1.34,1.34,0,0,1,.22-.65.57.57,0,0,1,.5-.29Z" fill="#fbfadb"/>
          <path d="M97.73,24a5.07,5.07,0,0,1-1.36.83,4.1,4.1,0,0,1-1.54.29,4.21,4.21,0,0,1-2.17-.6,5.86,5.86,0,0,1-1.78-1.66,8.35,8.35,0,0,1-1.2-2.47,10.43,10.43,0,0,1-.43-3.07,10.87,10.87,0,0,1,.43-3.1,9,9,0,0,1,1.2-2.57A6.1,6.1,0,0,1,92.66,9.9,4,4,0,0,1,97,9.9a6.11,6.11,0,0,1,1.78,1.75,9,9,0,0,1,1.2,2.57,10.87,10.87,0,0,1,.43,3.1,10.08,10.08,0,0,1-.4,2.87,9.39,9.39,0,0,1-1,2.39l1,1.27a.85.85,0,0,1,.05.75,1,1,0,0,1-.46.47,1.09,1.09,0,0,1-.66.1.63.63,0,0,1-.51-.38Zm-6.55-6.52a8,8,0,0,0,.29,2.21,6.56,6.56,0,0,0,.79,1.8,4,4,0,0,0,1.16,1.2,2.56,2.56,0,0,0,1.43.43,2.61,2.61,0,0,0,1.71-.66l-1.07-1.4a.76.76,0,0,1-.17-.71,1,1,0,0,1,.41-.52,1.36,1.36,0,0,1,.65-.22.58.58,0,0,1,.54.2l.79,1.1a6.81,6.81,0,0,0,.55-1.58,8.49,8.49,0,0,0,.19-1.83,8.76,8.76,0,0,0-.29-2.27,7.92,7.92,0,0,0-.79-1.95A4.62,4.62,0,0,0,96.2,11.9a2.3,2.3,0,0,0-1.43-.51,2.24,2.24,0,0,0-1.41.51,4.55,4.55,0,0,0-1.13,1.36,7.91,7.91,0,0,0-.76,1.95A9.11,9.11,0,0,0,91.18,17.48Z" fill="#fbfadb"/>
          <path d="M105.14,16.62a23.88,23.88,0,0,0-.06,3.66,7.1,7.1,0,0,0,.38,2,1.38,1.38,0,0,0,.62.8,1.7,1.7,0,0,0,.66.15,2.3,2.3,0,0,0,1-.22,2.77,2.77,0,0,0,1.38-1.44,2.6,2.6,0,0,0,.2-1V16.9a1,1,0,0,1,.31-.67,1.06,1.06,0,0,1,.62-.31.94.94,0,0,1,1.05.81s0,.06,0,.09v7.67a.75.75,0,0,1-.29.68,1,1,0,0,1-.65.17,1.34,1.34,0,0,1-.65-.22.57.57,0,0,1-.29-.5v-.41a4.33,4.33,0,0,1-1.21.66,4.16,4.16,0,0,1-1.39.23,3.08,3.08,0,0,1-3.25-2.26,9.14,9.14,0,0,1-.42-2.64q-.05-1.55.05-3.46a.77.77,0,0,1,.34-.68,1.15,1.15,0,0,1,.69-.17,1.44,1.44,0,0,1,.68.22A.52.52,0,0,1,105.14,16.62Z" fill="#fbfadb"/>
          <path d="M114,14.27a1.13,1.13,0,0,1,.32-.82,1.07,1.07,0,0,1,.8-.33,1.13,1.13,0,0,1,1.15,1.11s0,0,0,0a1.07,1.07,0,0,1-.33.8,1.13,1.13,0,0,1-.82.32A1.09,1.09,0,0,1,114,14.33S114,14.29,114,14.27Zm.05,2.62a.77.77,0,0,1,.43-.62,1.31,1.31,0,0,1,.74-.11,1.29,1.29,0,0,1,.66.28.5.5,0,0,1,.2.54v7.26a.75.75,0,0,1-.29.68,1,1,0,0,1-.65.17,1.34,1.34,0,0,1-.65-.22.57.57,0,0,1-.29-.5Z" fill="#fbfadb"/>
          <path d="M119.67,25.28a1.33,1.33,0,0,1-.69-.15.76.76,0,0,1-.34-.42,1,1,0,0,1,0-.6,1.75,1.75,0,0,1,.37-.66l5-5.56-4.69,0a.82.82,0,0,1-.64-.41,1.24,1.24,0,0,1-.15-.69,1.15,1.15,0,0,1,.24-.64.69.69,0,0,1,.57-.28h6.8a.74.74,0,0,1,.47.2,1.3,1.3,0,0,1,.37.54,1.62,1.62,0,0,1,.09.74,1.3,1.3,0,0,1-.42.79l-4.89,5.15h4.51a.74.74,0,0,1,.68.29,1,1,0,0,1,.17.65,1.35,1.35,0,0,1-.22.65.57.57,0,0,1-.5.29Z" fill="#fbfadb"/>
        </g>
      </g>
      <g>
        <g>
          <path d="M195,18.8a.65.65,0,0,1-.05.66,1.09,1.09,0,0,1-.54.39,1.25,1.25,0,0,1-.66,0,.49.49,0,0,1-.41-.42,2.8,2.8,0,0,0-.55-1.17,2.93,2.93,0,0,0-.78-.66,2.46,2.46,0,0,0-.79-.29l-.56-.09a3.1,3.1,0,0,0-1.17.11,2.91,2.91,0,0,0-.92.46,2.42,2.42,0,0,0-.61.67,1.7,1.7,0,0,0-.25.76,2.34,2.34,0,0,0,.2,1.34,2.39,2.39,0,0,0,.83.88,6.61,6.61,0,0,0,1.3.64l1.57.61q.79.33,1.57.73a5.28,5.28,0,0,1,1.35,1,3.72,3.72,0,0,1,.87,1.39,4.38,4.38,0,0,1,.17,2,4.21,4.21,0,0,1-.71,2,4.29,4.29,0,0,1-1.44,1.3,5.34,5.34,0,0,1-1.86.61,5.69,5.69,0,0,1-2-.06,5.61,5.61,0,0,1-2.33-1,3.64,3.64,0,0,1-1.36-2.08,1,1,0,0,1,.24-.76,1.41,1.41,0,0,1,.6-.42.92.92,0,0,1,.64,0,.54.54,0,0,1,.36.47,1.91,1.91,0,0,0,.87,1.4,4,4,0,0,0,2.8.6,2.78,2.78,0,0,0,1-.37,2.63,2.63,0,0,0,.78-.73,2.54,2.54,0,0,0,.42-1.11,2.44,2.44,0,0,0-.1-1.24,2.33,2.33,0,0,0-.64-.9,4.22,4.22,0,0,0-1-.66q-.61-.28-1.3-.56-.87-.33-1.75-.71a6.69,6.69,0,0,1-1.57-.94,4,4,0,0,1-1.08-1.39,3.8,3.8,0,0,1-.27-2,3.93,3.93,0,0,1,.56-1.72,4.08,4.08,0,0,1,1.15-1.2,4.81,4.81,0,0,1,1.52-.69,5.2,5.2,0,0,1,1.64-.17,5.3,5.3,0,0,1,1.1.19,4.56,4.56,0,0,1,1.22.55,4.7,4.7,0,0,1,1.13,1A4.76,4.76,0,0,1,195,18.8Z" fill="#19497e"/>
          <path d="M200.53,21.61l-.05-4a.77.77,0,0,1,.43-.62,1.37,1.37,0,0,1,.73-.13,1.2,1.2,0,0,1,.65.27.5.5,0,0,1,.2.54v4h2.24a.86.86,0,0,1,.65.41,1,1,0,0,1-.19,1.28.94.94,0,0,1-.76.2h-1.91v7.06a.73.73,0,0,1-.31.67,1.08,1.08,0,0,1-.66.17,1.43,1.43,0,0,1-.66-.22.57.57,0,0,1-.31-.5l-.05-7.19h-2.12a.74.74,0,0,1-.68-.29,1,1,0,0,1-.17-.65,1.34,1.34,0,0,1,.22-.65.57.57,0,0,1,.5-.29Z" fill="#19497e"/>
          <path d="M213.78,30.55a4.21,4.21,0,0,1-4.33.52,4.57,4.57,0,0,1-1.43-1,4.55,4.55,0,0,1-1-5,4.51,4.51,0,0,1,1-1.47,4.7,4.7,0,0,1,1.43-1,4.15,4.15,0,0,1,1.73-.37,4.08,4.08,0,0,1,1.32.22,4.5,4.5,0,0,1,1.17.6.82.82,0,0,1,.46-.6,1.3,1.3,0,0,1,1.38.17.5.5,0,0,1,.2.54v7.67a.74.74,0,0,1-.29.67,1,1,0,0,1-.65.17,1.34,1.34,0,0,1-.65-.22.57.57,0,0,1-.29-.5Zm-5.2-3.7a2.59,2.59,0,0,0,.2,1,2.78,2.78,0,0,0,1.38,1.44,2.39,2.39,0,0,0,2,0,2.78,2.78,0,0,0,1.38-1.44A2.64,2.64,0,0,0,213,25a2.91,2.91,0,0,0-.82-.57,2.39,2.39,0,0,0-2,0,2.9,2.9,0,0,0-.82.57,2.64,2.64,0,0,0-.76,1.86Z" fill="#19497e"/>
          <path d="M224.56,25.12a5,5,0,0,0-.85-.64,1.94,1.94,0,0,0-1-.28,2.31,2.31,0,0,0-1,.22,2.78,2.78,0,0,0-1.38,1.44,2.6,2.6,0,0,0-.2,1V30.5a1,1,0,0,1-.31.67,1.06,1.06,0,0,1-.62.31.94.94,0,0,1-1.05-.81s0-.06,0-.09V22.91a.74.74,0,0,1,.29-.67,1,1,0,0,1,.65-.17,1.36,1.36,0,0,1,.65.22.57.57,0,0,1,.29.5v.41a4.32,4.32,0,0,1,1.21-.66,4.15,4.15,0,0,1,1.39-.23,4.33,4.33,0,0,1,2,.45A3.53,3.53,0,0,1,226.06,24a.76.76,0,0,1,.08.59,1.14,1.14,0,0,1-.31.56.84.84,0,0,1-1.19,0l-.08-.09Z" fill="#19497e"/>
          <path d="M230.77,21.61l-.05-4a.77.77,0,0,1,.43-.62,1.37,1.37,0,0,1,.73-.13,1.2,1.2,0,0,1,.65.27.5.5,0,0,1,.2.54v4H235a.86.86,0,0,1,.65.41,1,1,0,0,1-.19,1.28.94.94,0,0,1-.76.2h-1.91v7.06a.73.73,0,0,1-.31.67,1.08,1.08,0,0,1-.66.17,1.43,1.43,0,0,1-.66-.22.57.57,0,0,1-.31-.5l-.05-7.19h-2.12a.74.74,0,0,1-.68-.29,1,1,0,0,1-.17-.65,1.34,1.34,0,0,1,.22-.65.57.57,0,0,1,.5-.29Z" fill="#19497e"/>
          <path d="M254.29,30.22a5.07,5.07,0,0,1-1.36.83,4.1,4.1,0,0,1-1.54.29,4.21,4.21,0,0,1-2.17-.6,5.86,5.86,0,0,1-1.78-1.66,8.35,8.35,0,0,1-1.2-2.47,10.43,10.43,0,0,1-.43-3.07,10.87,10.87,0,0,1,.43-3.1,9,9,0,0,1,1.2-2.57,6.1,6.1,0,0,1,1.78-1.75,4,4,0,0,1,4.33,0,6.11,6.11,0,0,1,1.78,1.75,9,9,0,0,1,1.2,2.57,10.87,10.87,0,0,1,.43,3.1,10.08,10.08,0,0,1-.4,2.87,9.39,9.39,0,0,1-1.06,2.38l1,1.27a.85.85,0,0,1,0,.75,1,1,0,0,1-.46.47,1.09,1.09,0,0,1-.66.1.63.63,0,0,1-.51-.38Zm-6.55-6.52a8,8,0,0,0,.26,2.2,6.56,6.56,0,0,0,.79,1.8A4,4,0,0,0,250,28.9a2.56,2.56,0,0,0,1.43.43,2.61,2.61,0,0,0,1.71-.66l-1.07-1.4a.76.76,0,0,1-.17-.71,1,1,0,0,1,.41-.52,1.36,1.36,0,0,1,.65-.22.58.58,0,0,1,.54.2l.79,1.1a6.81,6.81,0,0,0,.55-1.58A8.49,8.49,0,0,0,255,23.7a8.76,8.76,0,0,0-.29-2.27,7.92,7.92,0,0,0-.79-2,4.62,4.62,0,0,0-1.16-1.36,2.3,2.3,0,0,0-1.43-.51,2.24,2.24,0,0,0-1.41.51,4.55,4.55,0,0,0-1.13,1.36,7.91,7.91,0,0,0-.76,2,9.11,9.11,0,0,0-.29,2.27Z" fill="#19497e"/>
          <path d="M261.71,22.83a23.88,23.88,0,0,0-.06,3.66,7.1,7.1,0,0,0,.38,2,1.38,1.38,0,0,0,.62.8,1.7,1.7,0,0,0,.66.15,2.3,2.3,0,0,0,1-.22,2.77,2.77,0,0,0,1.38-1.44,2.6,2.6,0,0,0,.2-1V23.11a1,1,0,0,1,.31-.67,1.06,1.06,0,0,1,.62-.31.94.94,0,0,1,1.05.81s0,.06,0,.09V30.7a.75.75,0,0,1-.29.68,1,1,0,0,1-.65.17,1.34,1.34,0,0,1-.65-.22.57.57,0,0,1-.29-.5v-.41a4.33,4.33,0,0,1-1.21.66,4.16,4.16,0,0,1-1.39.23,3.08,3.08,0,0,1-3.25-2.26,9.14,9.14,0,0,1-.42-2.64q0-1.55,0-3.46a.77.77,0,0,1,.34-.68,1.15,1.15,0,0,1,.69-.17,1.44,1.44,0,0,1,.68.22A.52.52,0,0,1,261.71,22.83Z" fill="#19497e"/>
          <path d="M270.6,20.49a1.13,1.13,0,0,1,.32-.82,1.07,1.07,0,0,1,.8-.33,1.13,1.13,0,0,1,1.15,1.11s0,0,0,0a1.07,1.07,0,0,1-.33.8,1.13,1.13,0,0,1-.82.32,1.09,1.09,0,0,1-1.12-1.06S270.6,20.51,270.6,20.49Zm0,2.62a.77.77,0,0,1,.43-.62,1.31,1.31,0,0,1,.74-.11,1.29,1.29,0,0,1,.66.28.5.5,0,0,1,.2.54v7.26a.75.75,0,0,1-.29.68,1,1,0,0,1-.65.17,1.34,1.34,0,0,1-.65-.22.57.57,0,0,1-.29-.5Z" fill="#19497e"/>
          <path d="M276.23,31.49a1.33,1.33,0,0,1-.69-.15.76.76,0,0,1-.34-.42,1,1,0,0,1,0-.6,1.75,1.75,0,0,1,.37-.66l4.94-5.55-4.69,0a.82.82,0,0,1-.64-.41,1.24,1.24,0,0,1-.15-.69,1.15,1.15,0,0,1,.24-.64.69.69,0,0,1,.57-.28h6.8a.74.74,0,0,1,.47.2,1.3,1.3,0,0,1,.37.54,1.62,1.62,0,0,1,.09.74,1.3,1.3,0,0,1-.42.79l-4.89,5.15h4.51a.74.74,0,0,1,.68.29,1,1,0,0,1,.17.65,1.35,1.35,0,0,1-.22.65.57.57,0,0,1-.5.29Z" fill="#19497e"/>
        </g>
        <g>
          <path d="M195,18.8a.65.65,0,0,1-.05.66,1.09,1.09,0,0,1-.54.39,1.25,1.25,0,0,1-.66,0,.49.49,0,0,1-.41-.42,2.8,2.8,0,0,0-.55-1.17,2.93,2.93,0,0,0-.78-.66,2.46,2.46,0,0,0-.79-.29l-.56-.09a3.1,3.1,0,0,0-1.17.11,2.91,2.91,0,0,0-.92.46,2.42,2.42,0,0,0-.61.67,1.7,1.7,0,0,0-.25.76,2.34,2.34,0,0,0,.2,1.34,2.39,2.39,0,0,0,.83.88,6.61,6.61,0,0,0,1.3.64l1.57.61q.79.33,1.57.73a5.28,5.28,0,0,1,1.35,1,3.72,3.72,0,0,1,.87,1.39,4.38,4.38,0,0,1,.17,2,4.21,4.21,0,0,1-.71,2,4.29,4.29,0,0,1-1.44,1.3,5.34,5.34,0,0,1-1.86.61,5.69,5.69,0,0,1-2-.06,5.61,5.61,0,0,1-2.33-1,3.64,3.64,0,0,1-1.36-2.08,1,1,0,0,1,.24-.76,1.41,1.41,0,0,1,.6-.42.92.92,0,0,1,.64,0,.54.54,0,0,1,.36.47,1.91,1.91,0,0,0,.87,1.4,4,4,0,0,0,2.8.6,2.78,2.78,0,0,0,1-.37,2.63,2.63,0,0,0,.78-.73,2.54,2.54,0,0,0,.42-1.11,2.44,2.44,0,0,0-.1-1.24,2.33,2.33,0,0,0-.64-.9,4.22,4.22,0,0,0-1-.66q-.61-.28-1.3-.56-.87-.33-1.75-.71a6.69,6.69,0,0,1-1.57-.94,4,4,0,0,1-1.08-1.39,3.8,3.8,0,0,1-.27-2,3.93,3.93,0,0,1,.56-1.72,4.08,4.08,0,0,1,1.15-1.2,4.81,4.81,0,0,1,1.52-.69,5.2,5.2,0,0,1,1.64-.17,5.3,5.3,0,0,1,1.1.19,4.56,4.56,0,0,1,1.22.55,4.7,4.7,0,0,1,1.13,1A4.76,4.76,0,0,1,195,18.8Z" fill="#fbfadb"/>
          <path d="M200.53,21.61l-.05-4a.77.77,0,0,1,.43-.62,1.37,1.37,0,0,1,.73-.13,1.2,1.2,0,0,1,.65.27.5.5,0,0,1,.2.54v4h2.24a.86.86,0,0,1,.65.41,1,1,0,0,1-.19,1.28.94.94,0,0,1-.76.2h-1.91v7.06a.73.73,0,0,1-.31.67,1.08,1.08,0,0,1-.66.17,1.43,1.43,0,0,1-.66-.22.57.57,0,0,1-.31-.5l-.05-7.19h-2.12a.74.74,0,0,1-.68-.29,1,1,0,0,1-.17-.65,1.34,1.34,0,0,1,.22-.65.57.57,0,0,1,.5-.29Z" fill="#fbfadb"/>
          <path d="M213.78,30.55a4.21,4.21,0,0,1-4.33.52,4.57,4.57,0,0,1-1.43-1,4.55,4.55,0,0,1-1-5,4.51,4.51,0,0,1,1-1.47,4.7,4.7,0,0,1,1.43-1,4.15,4.15,0,0,1,1.73-.37,4.08,4.08,0,0,1,1.32.22,4.5,4.5,0,0,1,1.17.6.82.82,0,0,1,.46-.6,1.3,1.3,0,0,1,1.38.17.5.5,0,0,1,.2.54v7.67a.74.74,0,0,1-.29.67,1,1,0,0,1-.65.17,1.34,1.34,0,0,1-.65-.22.57.57,0,0,1-.29-.5Zm-5.2-3.7a2.59,2.59,0,0,0,.2,1,2.78,2.78,0,0,0,1.38,1.44,2.39,2.39,0,0,0,2,0,2.78,2.78,0,0,0,1.38-1.44A2.64,2.64,0,0,0,213,25a2.91,2.91,0,0,0-.82-.57,2.39,2.39,0,0,0-2,0,2.9,2.9,0,0,0-.82.57,2.64,2.64,0,0,0-.76,1.86Z" fill="#fbfadb"/>
          <path d="M224.56,25.12a5,5,0,0,0-.85-.64,1.94,1.94,0,0,0-1-.28,2.31,2.31,0,0,0-1,.22,2.78,2.78,0,0,0-1.38,1.44,2.6,2.6,0,0,0-.2,1V30.5a1,1,0,0,1-.31.67,1.06,1.06,0,0,1-.62.31.94.94,0,0,1-1.05-.81s0-.06,0-.09V22.91a.74.74,0,0,1,.29-.67,1,1,0,0,1,.65-.17,1.36,1.36,0,0,1,.65.22.57.57,0,0,1,.29.5v.41a4.32,4.32,0,0,1,1.21-.66,4.15,4.15,0,0,1,1.39-.23,4.33,4.33,0,0,1,2,.45A3.53,3.53,0,0,1,226.06,24a.76.76,0,0,1,.08.59,1.14,1.14,0,0,1-.31.56.84.84,0,0,1-1.19,0l-.08-.09Z" fill="#fbfadb"/>
          <path d="M230.77,21.61l-.05-4a.77.77,0,0,1,.43-.62,1.37,1.37,0,0,1,.73-.13,1.2,1.2,0,0,1,.65.27.5.5,0,0,1,.2.54v4H235a.86.86,0,0,1,.65.41,1,1,0,0,1-.19,1.28.94.94,0,0,1-.76.2h-1.91v7.06a.73.73,0,0,1-.31.67,1.08,1.08,0,0,1-.66.17,1.43,1.43,0,0,1-.66-.22.57.57,0,0,1-.31-.5l-.05-7.19h-2.12a.74.74,0,0,1-.68-.29,1,1,0,0,1-.17-.65,1.34,1.34,0,0,1,.22-.65.57.57,0,0,1,.5-.29Z" fill="#fbfadb"/>
          <path d="M254.29,30.22a5.07,5.07,0,0,1-1.36.83,4.1,4.1,0,0,1-1.54.29,4.21,4.21,0,0,1-2.17-.6,5.86,5.86,0,0,1-1.78-1.66,8.35,8.35,0,0,1-1.2-2.47,10.43,10.43,0,0,1-.43-3.07,10.87,10.87,0,0,1,.43-3.1,9,9,0,0,1,1.2-2.57,6.1,6.1,0,0,1,1.78-1.75,4,4,0,0,1,4.33,0,6.11,6.11,0,0,1,1.78,1.75,9,9,0,0,1,1.2,2.57,10.87,10.87,0,0,1,.43,3.1,10.08,10.08,0,0,1-.4,2.87,9.39,9.39,0,0,1-1.06,2.38l1,1.27a.85.85,0,0,1,0,.75,1,1,0,0,1-.46.47,1.09,1.09,0,0,1-.66.1.63.63,0,0,1-.51-.38Zm-6.55-6.52a8,8,0,0,0,.26,2.2,6.56,6.56,0,0,0,.79,1.8A4,4,0,0,0,250,28.9a2.56,2.56,0,0,0,1.43.43,2.61,2.61,0,0,0,1.71-.66l-1.07-1.4a.76.76,0,0,1-.17-.71,1,1,0,0,1,.41-.52,1.36,1.36,0,0,1,.65-.22.58.58,0,0,1,.54.2l.79,1.1a6.81,6.81,0,0,0,.55-1.58A8.49,8.49,0,0,0,255,23.7a8.76,8.76,0,0,0-.29-2.27,7.92,7.92,0,0,0-.79-2,4.62,4.62,0,0,0-1.16-1.36,2.3,2.3,0,0,0-1.43-.51,2.24,2.24,0,0,0-1.41.51,4.55,4.55,0,0,0-1.13,1.36,7.91,7.91,0,0,0-.76,2,9.11,9.11,0,0,0-.29,2.27Z" fill="#fbfadb"/>
          <path d="M261.71,22.83a23.88,23.88,0,0,0-.06,3.66,7.1,7.1,0,0,0,.38,2,1.38,1.38,0,0,0,.62.8,1.7,1.7,0,0,0,.66.15,2.3,2.3,0,0,0,1-.22,2.77,2.77,0,0,0,1.38-1.44,2.6,2.6,0,0,0,.2-1V23.11a1,1,0,0,1,.31-.67,1.06,1.06,0,0,1,.62-.31.94.94,0,0,1,1.05.81s0,.06,0,.09V30.7a.75.75,0,0,1-.29.68,1,1,0,0,1-.65.17,1.34,1.34,0,0,1-.65-.22.57.57,0,0,1-.29-.5v-.41a4.33,4.33,0,0,1-1.21.66,4.16,4.16,0,0,1-1.39.23,3.08,3.08,0,0,1-3.25-2.26,9.14,9.14,0,0,1-.42-2.64q0-1.55,0-3.46a.77.77,0,0,1,.34-.68,1.15,1.15,0,0,1,.69-.17,1.44,1.44,0,0,1,.68.22A.52.52,0,0,1,261.71,22.83Z" fill="#fbfadb"/>
          <path d="M270.6,20.49a1.13,1.13,0,0,1,.32-.82,1.07,1.07,0,0,1,.8-.33,1.13,1.13,0,0,1,1.15,1.11s0,0,0,0a1.07,1.07,0,0,1-.33.8,1.13,1.13,0,0,1-.82.32,1.09,1.09,0,0,1-1.12-1.06S270.6,20.51,270.6,20.49Zm0,2.62a.77.77,0,0,1,.43-.62,1.31,1.31,0,0,1,.74-.11,1.29,1.29,0,0,1,.66.28.5.5,0,0,1,.2.54v7.26a.75.75,0,0,1-.29.68,1,1,0,0,1-.65.17,1.34,1.34,0,0,1-.65-.22.57.57,0,0,1-.29-.5Z" fill="#fbfadb"/>
          <path d="M276.23,31.49a1.33,1.33,0,0,1-.69-.15.76.76,0,0,1-.34-.42,1,1,0,0,1,0-.6,1.75,1.75,0,0,1,.37-.66l4.94-5.55-4.69,0a.82.82,0,0,1-.64-.41,1.24,1.24,0,0,1-.15-.69,1.15,1.15,0,0,1,.24-.64.69.69,0,0,1,.57-.28h6.8a.74.74,0,0,1,.47.2,1.3,1.3,0,0,1,.37.54,1.62,1.62,0,0,1,.09.74,1.3,1.3,0,0,1-.42.79l-4.89,5.15h4.51a.74.74,0,0,1,.68.29,1,1,0,0,1,.17.65,1.35,1.35,0,0,1-.22.65.57.57,0,0,1-.5.29Z" fill="#fbfadb"/>
        </g>
      </g>
    </g>
  </g>
</svg>
