<svg xmlns="http://www.w3.org/2000/svg" width="240" height="38.54" viewBox="0 0 240 38.54">
  <title>share</title>
  <g id="Layer_2" data-name="Layer 2">
    <g id="Layer_1-2" data-name="Layer 1">
      <rect width="120" height="33.97" rx="16.93" ry="16.93" fill="#fdfefd"/>
      <rect x="1.84" y="0.99" width="115.95" height="31.22" rx="15.56" ry="15.56" fill="#19487d"/>
      <rect x="1.5" y="0.75" width="116.25" height="30.19" rx="15.05" ry="15.05" fill="#3267b0"/>
      <rect x="2.43" y="0.47" width="114.82" height="27.06" rx="13.48" ry="13.48" fill="#42a4dc"/>
      <path d="M103.78.47H15.84A13.52,13.52,0,0,0,2.4,14h0c0,.26,0,.52,0,.78A13.52,13.52,0,0,1,15.84,2h87.94A13.52,13.52,0,0,1,117.2,14.78c0-.26,0-.52,0-.78h0A13.52,13.52,0,0,0,103.78.47Z" fill="#9dd4ed" fill-rule="evenodd"/>
      <path d="M103.78,26H15.84A13.52,13.52,0,0,1,2.43,13.21c0,.26,0,.52,0,.78h0A13.52,13.52,0,0,0,15.84,27.52h87.94A13.52,13.52,0,0,0,117.22,14h0c0-.26,0-.52,0-.78A13.52,13.52,0,0,1,103.78,26Z" fill="#243f94" fill-rule="evenodd"/>
      <path d="M103.13,35H16.87A16.92,16.92,0,0,1,.08,19.72C0,20.28,0,20.84,0,21.42H0a16.93,16.93,0,0,0,16.87,17h86.25a16.93,16.93,0,0,0,16.87-17h0c0-.57,0-1.14-.08-1.7A16.92,16.92,0,0,1,103.13,35Z" fill="#5e5f5f" fill-rule="evenodd"/>
      <path d="M103.13,34H16.87A16.92,16.92,0,0,1,0,17.77c0,.26,0,.52,0,.78H0a16.93,16.93,0,0,0,16.87,17h86.25a16.93,16.93,0,0,0,16.87-17h0c0-.26,0-.52,0-.78A16.92,16.92,0,0,1,103.13,34Z" fill="#888" fill-rule="evenodd"/>
      <rect x="120" y="4.25" width="120" height="30.02" rx="15.01" ry="15.01" fill="#fdfefd"/>
      <rect x="121.84" y="5.09" width="115.95" height="27.49" rx="13.75" ry="13.75" fill="#19487d"/>
      <rect x="121.5" y="5.09" width="116.25" height="26.28" rx="13.14" ry="13.14" fill="#3267b0"/>
      <rect x="122.43" y="5.09" width="114.82" height="26" rx="13" ry="13" fill="#42a4dc"/>
      <path d="M223.78,5.09H135.84a13.27,13.27,0,0,0-13.44,13h0c0,.25,0,.5,0,.75A13.3,13.3,0,0,1,135.84,6.59h87.94A13.3,13.3,0,0,1,237.2,18.84c0-.25,0-.5,0-.75h0A13.27,13.27,0,0,0,223.78,5.09Z" fill="#9dd4ed" fill-rule="evenodd"/>
      <path d="M223.78,29.59H135.84a13.3,13.3,0,0,1-13.42-12.25c0,.25,0,.5,0,.75h0a13.27,13.27,0,0,0,13.44,13h87.94a13.27,13.27,0,0,0,13.44-13h0c0-.25,0-.5,0-.75A13.3,13.3,0,0,1,223.78,29.59Z" fill="#243f94" fill-rule="evenodd"/>
      <path d="M223.13,35.28H136.87a16.67,16.67,0,0,1-16.79-14.69,16,16,0,0,0-.08,1.63h0c0,9,7.56,16.32,16.87,16.32h86.25c9.32,0,16.87-7.31,16.87-16.32h0a16,16,0,0,0-.08-1.63A16.67,16.67,0,0,1,223.13,35.28Z" fill="#5e5f5f" fill-rule="evenodd"/>
      <path d="M223.13,34.27H136.87A16.63,16.63,0,0,1,120,18.71c0,.25,0,.5,0,.75h0c0,9,7.56,16.32,16.87,16.32h86.25c9.32,0,16.87-7.31,16.87-16.32h0c0-.25,0-.5,0-.75A16.63,16.63,0,0,1,223.13,34.27Z" fill="#888" fill-rule="evenodd"/>
      <g>
        <g>
          <g>
            <path d="M36.18,16.51a2.88,2.88,0,0,0-2.36,1.24l-4.52-2.55a3.35,3.35,0,0,0,.08-.65,3.11,3.11,0,0,0-.06-.61l4.54-2.57a2.84,2.84,0,1,0-.57-1.65,3.22,3.22,0,0,0,.1.77L28.91,13a2.88,2.88,0,1,0,0,3.12l4.5,2.53a3,3,0,0,0-.1.73,2.87,2.87,0,1,0,2.89-2.89Z" fill="#19487d"/>
            <path d="M36.18,15.39a2.88,2.88,0,0,0-2.36,1.24l-4.52-2.55a3.35,3.35,0,0,0,.08-.65,3.11,3.11,0,0,0-.06-.61l4.54-2.57a2.84,2.84,0,1,0-.57-1.65,3.22,3.22,0,0,0,.1.77L28.91,11.9a2.88,2.88,0,1,0,0,3.12l4.5,2.53a3,3,0,0,0-.1.73,2.87,2.87,0,1,0,2.89-2.89Z" fill="#fff"/>
          </g>
          <g>
            <path d="M52.81,10.73A2,2,0,0,1,53,9.9a.65.65,0,0,1,.65-.32h4.15a.43.43,0,0,1,.35.25.73.73,0,0,1,.05.42.77.77,0,0,1-.18.37.3.3,0,0,1-.32.12l-3.72-.06v2a4.24,4.24,0,0,1,1.67-.1,3.06,3.06,0,0,1,1.28.51,2.71,2.71,0,0,1,.84,1,3.24,3.24,0,0,1,.35,1.31A5.34,5.34,0,0,1,58,17a2.66,2.66,0,0,1-.63,1.19,2.3,2.3,0,0,1-1.11.64,3.62,3.62,0,0,1-1.56,0A2.35,2.35,0,0,1,53.17,18a2.31,2.31,0,0,1-.51-1.59.43.43,0,0,1,.18-.34.87.87,0,0,1,.38-.18.63.63,0,0,1,.39.05.36.36,0,0,1,.2.34,1.59,1.59,0,0,0,.44,1.11,1.53,1.53,0,0,0,.81.4,1.74,1.74,0,0,0,.94-.09,1.42,1.42,0,0,0,.61-.5,2.05,2.05,0,0,0,.32-.78,4.15,4.15,0,0,0,.07-.93,2.22,2.22,0,0,0-.26-.92,1.83,1.83,0,0,0-.62-.68,2,2,0,0,0-.94-.3,2.61,2.61,0,0,0-1.17.21,1.09,1.09,0,0,1-.27.07.85.85,0,0,1-.34,0,.68.68,0,0,1-.32-.22,1,1,0,0,1-.21-.5Z" fill="#19487d"/>
            <path d="M64.91,14a2.5,2.5,0,0,1,.7-.38,2.46,2.46,0,0,1,1.79.08,2.63,2.63,0,0,1,.82.58,2.66,2.66,0,0,1,.55.85,2.68,2.68,0,0,1,0,2,2.56,2.56,0,0,1-.55.84,2.68,2.68,0,0,1-.82.57,2.4,2.4,0,0,1-1,.21,2.38,2.38,0,0,1-.76-.12,2.58,2.58,0,0,1-.67-.34v.39c0,.25,0,.52,0,.82s0,.57,0,.81v.38a.56.56,0,0,1-.18.39.6.6,0,0,1-.36.18.54.54,0,0,1-.61-.52V13.82a.43.43,0,0,1,.17-.39.59.59,0,0,1,.37-.09.78.78,0,0,1,.37.12.33.33,0,0,1,.17.29Zm3,2.12a1.49,1.49,0,0,0-.12-.59,1.58,1.58,0,0,0-.32-.49,1.61,1.61,0,0,0-.47-.34,1.38,1.38,0,0,0-1.14,0,1.61,1.61,0,0,0-.47.34,1.58,1.58,0,0,0-.32.49,1.52,1.52,0,0,0,.32,1.66,1.64,1.64,0,0,0,.47.33,1.37,1.37,0,0,0,1.14,0,1.64,1.64,0,0,0,.47-.33,1.52,1.52,0,0,0,.44-1.07Z" fill="#19487d"/>
            <path d="M70.28,16.08a2.66,2.66,0,0,1,.2-1,2.62,2.62,0,0,1,.55-.84,2.71,2.71,0,0,1,.82-.57,2.44,2.44,0,0,1,2,0,2.71,2.71,0,0,1,.82.57,2.62,2.62,0,0,1,.55.84,2.69,2.69,0,0,1,0,2,2.7,2.7,0,0,1-.55.85,2.63,2.63,0,0,1-.82.58,2.45,2.45,0,0,1-2,0,2.63,2.63,0,0,1-.82-.58,2.7,2.7,0,0,1-.55-.85A2.66,2.66,0,0,1,70.28,16.08Zm1.07,0a1.49,1.49,0,0,0,.12.59,1.59,1.59,0,0,0,.32.49,1.57,1.57,0,0,0,.47.34,1.37,1.37,0,0,0,1.14,0,1.57,1.57,0,0,0,.47-.34,1.59,1.59,0,0,0,.32-.49A1.52,1.52,0,0,0,73.87,15a1.68,1.68,0,0,0-.47-.33,1.38,1.38,0,0,0-1.14,0,1.68,1.68,0,0,0-.47.33,1.52,1.52,0,0,0-.44,1.07Z" fill="#19487d"/>
            <path d="M76.95,12.43a.65.65,0,0,1,.18-.47.61.61,0,0,1,.46-.19.65.65,0,0,1,.66.66.61.61,0,0,1-.19.46.65.65,0,0,1-.47.18.62.62,0,0,1-.64-.64Zm0,1.51a.45.45,0,0,1,.25-.36.76.76,0,0,1,.42-.07.74.74,0,0,1,.38.16.29.29,0,0,1,.12.31v4.17a.43.43,0,0,1-.17.39.6.6,0,0,1-.37.09.78.78,0,0,1-.37-.12.33.33,0,0,1-.17-.29Z" fill="#19487d"/>
            <path d="M83.33,18.35a15,15,0,0,0-.06-2A4.94,4.94,0,0,0,83,15.2a1,1,0,0,0-.35-.51.74.74,0,0,0-.37-.12,1.33,1.33,0,0,0-.57.12,1.61,1.61,0,0,0-.47.34,1.58,1.58,0,0,0-.32.49,1.49,1.49,0,0,0-.12.59v2.08a.57.57,0,0,1-.18.39.62.62,0,0,1-.36.18.58.58,0,0,1-.38-.1.57.57,0,0,1-.23-.42V13.82a.43.43,0,0,1,.17-.39.59.59,0,0,1,.37-.09.78.78,0,0,1,.37.12.33.33,0,0,1,.17.29V14a2.5,2.5,0,0,1,.7-.38,2.39,2.39,0,0,1,.8-.13,1.78,1.78,0,0,1,1.19.36,2.16,2.16,0,0,1,.64,1,5.78,5.78,0,0,1,.26,1.52q0,.89,0,1.93a.43.43,0,0,1-.17.39.59.59,0,0,1-.37.09.78.78,0,0,1-.37-.12A.33.33,0,0,1,83.33,18.35Z" fill="#19487d"/>
            <path d="M86.69,13.08l0-2.31a.44.44,0,0,1,.25-.36.79.79,0,0,1,.42-.07.7.7,0,0,1,.37.15.29.29,0,0,1,.12.31v2.29h1.29a.5.5,0,0,1,.37.23.59.59,0,0,1,.08.39.57.57,0,0,1-.19.34.54.54,0,0,1-.44.12h-1.1v4.06a.42.42,0,0,1-.18.39.62.62,0,0,1-.38.09.83.83,0,0,1-.38-.12.33.33,0,0,1-.18-.29l0-4.13H85.49A.43.43,0,0,1,85.1,14a.59.59,0,0,1-.09-.37.78.78,0,0,1,.12-.37.33.33,0,0,1,.29-.17Z" fill="#19487d"/>
            <path d="M95.27,14.5a.36.36,0,0,1,0,.37.61.61,0,0,1-.29.25.64.64,0,0,1-.38,0,.31.31,0,0,1-.25-.24,1.08,1.08,0,0,0-.48-.43,1.89,1.89,0,0,0-.52-.17,1.14,1.14,0,0,0-.72.12.69.69,0,0,0-.4.41.53.53,0,0,0,0,.37.59.59,0,0,0,.24.23,1.68,1.68,0,0,0,.4.15l.5.1a7.31,7.31,0,0,1,.75.18,2.19,2.19,0,0,1,.64.31,1.31,1.31,0,0,1,.56,1.3,1.22,1.22,0,0,1-.26.68,1.67,1.67,0,0,1-.56.45,2.33,2.33,0,0,1-.73.23,2.93,2.93,0,0,1-1.49-.15,2.68,2.68,0,0,1-.62-.33,2.21,2.21,0,0,1-.5-.5,2,2,0,0,1-.31-.67.58.58,0,0,1,.11-.44.73.73,0,0,1,.33-.24.56.56,0,0,1,.37,0,.33.33,0,0,1,.22.26,1.14,1.14,0,0,0,.5.83,1.83,1.83,0,0,0,.79.25,1.6,1.6,0,0,0,.71-.09c.21-.08.32-.19.34-.33a.48.48,0,0,0-.23-.54,2.48,2.48,0,0,0-.73-.25l-.72-.15a2.69,2.69,0,0,1-.7-.25,1.41,1.41,0,0,1-.53-.48,1.46,1.46,0,0,1-.21-.82,1.37,1.37,0,0,1,.18-.72,1.69,1.69,0,0,1,.48-.52,1.92,1.92,0,0,1,.69-.3,2.71,2.71,0,0,1,.8-.06,2.83,2.83,0,0,1,1.09.32A2.2,2.2,0,0,1,95.27,14.5Z" fill="#19487d"/>
          </g>
        </g>
        <g>
          <path d="M52.81,9.73A2,2,0,0,1,53,8.9a.65.65,0,0,1,.65-.32h4.15a.43.43,0,0,1,.35.25.73.73,0,0,1,.05.42.77.77,0,0,1-.18.37.3.3,0,0,1-.32.12l-3.72-.06v2a4.24,4.24,0,0,1,1.67-.1,3.06,3.06,0,0,1,1.28.51,2.71,2.71,0,0,1,.84,1,3.24,3.24,0,0,1,.35,1.31A5.34,5.34,0,0,1,58,16a2.66,2.66,0,0,1-.63,1.19,2.3,2.3,0,0,1-1.11.64,3.62,3.62,0,0,1-1.56,0A2.35,2.35,0,0,1,53.17,17a2.31,2.31,0,0,1-.51-1.59.43.43,0,0,1,.18-.34.87.87,0,0,1,.38-.18.63.63,0,0,1,.39.05.36.36,0,0,1,.2.34,1.59,1.59,0,0,0,.44,1.11,1.53,1.53,0,0,0,.81.4,1.74,1.74,0,0,0,.94-.09,1.42,1.42,0,0,0,.61-.5,2.05,2.05,0,0,0,.32-.78,4.15,4.15,0,0,0,.07-.93,2.22,2.22,0,0,0-.26-.92,1.83,1.83,0,0,0-.62-.68,2,2,0,0,0-.94-.3,2.61,2.61,0,0,0-1.17.21,1.09,1.09,0,0,1-.27.07.85.85,0,0,1-.34,0,.68.68,0,0,1-.32-.22,1,1,0,0,1-.21-.5Z" fill="#fff"/>
          <path d="M64.91,13a2.5,2.5,0,0,1,.7-.38,2.46,2.46,0,0,1,1.79.08,2.63,2.63,0,0,1,.82.58,2.66,2.66,0,0,1,.55.85,2.68,2.68,0,0,1,0,2,2.56,2.56,0,0,1-.55.84,2.68,2.68,0,0,1-.82.57,2.4,2.4,0,0,1-1,.21,2.38,2.38,0,0,1-.76-.12,2.58,2.58,0,0,1-.67-.34v.39c0,.25,0,.52,0,.82s0,.57,0,.81v.38a.56.56,0,0,1-.18.39.6.6,0,0,1-.36.18.54.54,0,0,1-.61-.52V12.82a.43.43,0,0,1,.17-.39.59.59,0,0,1,.37-.09.78.78,0,0,1,.37.12.33.33,0,0,1,.17.29Zm3,2.12a1.49,1.49,0,0,0-.12-.59,1.58,1.58,0,0,0-.32-.49,1.61,1.61,0,0,0-.47-.34,1.38,1.38,0,0,0-1.14,0,1.61,1.61,0,0,0-.47.34,1.58,1.58,0,0,0-.32.49,1.52,1.52,0,0,0,.32,1.66,1.64,1.64,0,0,0,.47.33,1.37,1.37,0,0,0,1.14,0,1.64,1.64,0,0,0,.47-.33,1.52,1.52,0,0,0,.44-1.07Z" fill="#fff"/>
          <path d="M70.28,15.08a2.66,2.66,0,0,1,.2-1,2.62,2.62,0,0,1,.55-.84,2.71,2.71,0,0,1,.82-.57,2.44,2.44,0,0,1,2,0,2.71,2.71,0,0,1,.82.57,2.62,2.62,0,0,1,.55.84,2.69,2.69,0,0,1,0,2,2.7,2.7,0,0,1-.55.85,2.63,2.63,0,0,1-.82.58,2.45,2.45,0,0,1-2,0,2.63,2.63,0,0,1-.82-.58,2.7,2.7,0,0,1-.55-.85A2.66,2.66,0,0,1,70.28,15.08Zm1.07,0a1.49,1.49,0,0,0,.12.59,1.59,1.59,0,0,0,.32.49,1.57,1.57,0,0,0,.47.34,1.37,1.37,0,0,0,1.14,0,1.57,1.57,0,0,0,.47-.34,1.59,1.59,0,0,0,.32-.49A1.52,1.52,0,0,0,73.87,14a1.68,1.68,0,0,0-.47-.33,1.38,1.38,0,0,0-1.14,0,1.68,1.68,0,0,0-.47.33,1.52,1.52,0,0,0-.44,1.07Z" fill="#fff"/>
          <path d="M76.95,11.43a.65.65,0,0,1,.18-.47.61.61,0,0,1,.46-.19.65.65,0,0,1,.66.66.61.61,0,0,1-.19.46.65.65,0,0,1-.47.18.62.62,0,0,1-.64-.64Zm0,1.51a.45.45,0,0,1,.25-.36.76.76,0,0,1,.42-.07.74.74,0,0,1,.38.16.29.29,0,0,1,.12.31v4.17a.43.43,0,0,1-.17.39.6.6,0,0,1-.37.09.78.78,0,0,1-.37-.12.33.33,0,0,1-.17-.29Z" fill="#fff"/>
          <path d="M83.33,17.35a15,15,0,0,0-.06-2A4.94,4.94,0,0,0,83,14.2a1,1,0,0,0-.35-.51.74.74,0,0,0-.37-.12,1.33,1.33,0,0,0-.57.12,1.61,1.61,0,0,0-.47.34,1.58,1.58,0,0,0-.32.49,1.49,1.49,0,0,0-.12.59v2.08a.57.57,0,0,1-.18.39.62.62,0,0,1-.36.18.58.58,0,0,1-.38-.1.57.57,0,0,1-.23-.42V12.82a.43.43,0,0,1,.17-.39.59.59,0,0,1,.37-.09.78.78,0,0,1,.37.12.33.33,0,0,1,.17.29V13a2.5,2.5,0,0,1,.7-.38,2.39,2.39,0,0,1,.8-.13,1.78,1.78,0,0,1,1.19.36,2.16,2.16,0,0,1,.64,1,5.78,5.78,0,0,1,.26,1.52q0,.89,0,1.93a.43.43,0,0,1-.17.39.59.59,0,0,1-.37.09.78.78,0,0,1-.37-.12A.33.33,0,0,1,83.33,17.35Z" fill="#fff"/>
          <path d="M86.69,12.08l0-2.31a.44.44,0,0,1,.25-.36.79.79,0,0,1,.42-.07.7.7,0,0,1,.37.15.29.29,0,0,1,.12.31v2.29h1.29a.5.5,0,0,1,.37.23.59.59,0,0,1,.08.39.57.57,0,0,1-.19.34.54.54,0,0,1-.44.12h-1.1v4.06a.42.42,0,0,1-.18.39.62.62,0,0,1-.38.09.83.83,0,0,1-.38-.12.33.33,0,0,1-.18-.29l0-4.13H85.49A.43.43,0,0,1,85.1,13a.59.59,0,0,1-.09-.37.78.78,0,0,1,.12-.37.33.33,0,0,1,.29-.17Z" fill="#fff"/>
          <path d="M95.27,13.5a.36.36,0,0,1,0,.37.61.61,0,0,1-.29.25.64.64,0,0,1-.38,0,.31.31,0,0,1-.25-.24,1.08,1.08,0,0,0-.48-.43,1.89,1.89,0,0,0-.52-.17,1.14,1.14,0,0,0-.72.12.69.69,0,0,0-.4.41.53.53,0,0,0,0,.37.59.59,0,0,0,.24.23,1.68,1.68,0,0,0,.4.15l.5.1a7.31,7.31,0,0,1,.75.18,2.19,2.19,0,0,1,.64.31,1.31,1.31,0,0,1,.56,1.3,1.22,1.22,0,0,1-.26.68,1.67,1.67,0,0,1-.56.45,2.33,2.33,0,0,1-.73.23,2.93,2.93,0,0,1-1.49-.15,2.68,2.68,0,0,1-.62-.33,2.21,2.21,0,0,1-.5-.5,2,2,0,0,1-.31-.67.58.58,0,0,1,.11-.44.73.73,0,0,1,.33-.24.56.56,0,0,1,.37,0,.33.33,0,0,1,.22.26,1.14,1.14,0,0,0,.5.83,1.83,1.83,0,0,0,.79.25,1.6,1.6,0,0,0,.71-.09c.21-.08.32-.19.34-.33a.48.48,0,0,0-.23-.54,2.48,2.48,0,0,0-.73-.25l-.72-.15a2.69,2.69,0,0,1-.7-.25,1.41,1.41,0,0,1-.53-.48,1.46,1.46,0,0,1-.21-.82,1.37,1.37,0,0,1,.18-.72,1.69,1.69,0,0,1,.48-.52,1.92,1.92,0,0,1,.69-.3,2.71,2.71,0,0,1,.8-.06,2.83,2.83,0,0,1,1.09.32A2.2,2.2,0,0,1,95.27,13.5Z" fill="#fff"/>
        </g>
      </g>
      <g>
        <g>
          <g>
            <path d="M156.18,20.7a2.88,2.88,0,0,0-2.36,1.24l-4.52-2.55a3.35,3.35,0,0,0,.08-.65,3.11,3.11,0,0,0-.06-.61l4.54-2.57a2.84,2.84,0,1,0-.57-1.65,3.22,3.22,0,0,0,.1.77l-4.48,2.53a2.88,2.88,0,1,0,0,3.12l4.5,2.53a3,3,0,0,0-.1.73,2.87,2.87,0,1,0,2.89-2.89Z" fill="#19487d"/>
            <path d="M156.18,20.57a2.88,2.88,0,0,0-2.36,1.24l-4.52-2.55a3.35,3.35,0,0,0,.08-.65,3.11,3.11,0,0,0-.06-.61l4.54-2.57a2.84,2.84,0,1,0-.57-1.65,3.22,3.22,0,0,0,.1.77l-4.48,2.53a2.88,2.88,0,1,0,0,3.12l4.5,2.53a3,3,0,0,0-.1.73,2.87,2.87,0,1,0,2.89-2.89Z" fill="#fff"/>
          </g>
          <g>
            <path d="M172.81,14.92a2,2,0,0,1,.15-.83.65.65,0,0,1,.65-.32h4.15a.43.43,0,0,1,.35.25.73.73,0,0,1,.05.42.77.77,0,0,1-.18.37.3.3,0,0,1-.32.12l-3.72-.06v2a4.24,4.24,0,0,1,1.67-.1,3.06,3.06,0,0,1,1.28.51,2.71,2.71,0,0,1,.84,1,3.24,3.24,0,0,1,.35,1.31,5.34,5.34,0,0,1-.13,1.68,2.66,2.66,0,0,1-.63,1.19,2.3,2.3,0,0,1-1.11.64,3.62,3.62,0,0,1-1.56,0,2.35,2.35,0,0,1-1.49-.83,2.31,2.31,0,0,1-.51-1.59.43.43,0,0,1,.18-.34.87.87,0,0,1,.38-.18.63.63,0,0,1,.39.05.36.36,0,0,1,.2.34,1.59,1.59,0,0,0,.44,1.11,1.53,1.53,0,0,0,.81.4,1.74,1.74,0,0,0,.94-.09,1.42,1.42,0,0,0,.61-.5,2.05,2.05,0,0,0,.32-.78,4.15,4.15,0,0,0,.07-.93,2.22,2.22,0,0,0-.26-.92,1.83,1.83,0,0,0-.62-.68,2,2,0,0,0-.94-.3A2.61,2.61,0,0,0,174,18a1.09,1.09,0,0,1-.27.07.85.85,0,0,1-.34,0,.68.68,0,0,1-.32-.22,1,1,0,0,1-.21-.5Z" fill="#19487d"/>
            <path d="M184.91,18.17a2.5,2.5,0,0,1,.7-.38,2.46,2.46,0,0,1,1.79.08,2.63,2.63,0,0,1,.82.58,2.66,2.66,0,0,1,.55.85,2.68,2.68,0,0,1,0,2,2.56,2.56,0,0,1-.55.84,2.68,2.68,0,0,1-.82.57,2.4,2.4,0,0,1-1,.21,2.38,2.38,0,0,1-.76-.12,2.58,2.58,0,0,1-.67-.34v.39c0,.25,0,.52,0,.82s0,.57,0,.81v.38a.56.56,0,0,1-.18.39.6.6,0,0,1-.36.18.54.54,0,0,1-.61-.52V18a.43.43,0,0,1,.17-.39.59.59,0,0,1,.37-.09.78.78,0,0,1,.37.12.33.33,0,0,1,.17.29Zm3,2.12a1.49,1.49,0,0,0-.12-.59,1.58,1.58,0,0,0-.32-.49,1.61,1.61,0,0,0-.47-.34,1.38,1.38,0,0,0-1.14,0,1.61,1.61,0,0,0-.47.34,1.58,1.58,0,0,0-.32.49,1.52,1.52,0,0,0,.32,1.66,1.64,1.64,0,0,0,.47.33,1.37,1.37,0,0,0,1.14,0,1.64,1.64,0,0,0,.47-.33,1.52,1.52,0,0,0,.44-1.07Z" fill="#19487d"/>
            <path d="M190.28,20.27a2.66,2.66,0,0,1,.2-1,2.62,2.62,0,0,1,.55-.84,2.71,2.71,0,0,1,.82-.57,2.44,2.44,0,0,1,2,0,2.71,2.71,0,0,1,.82.57,2.62,2.62,0,0,1,.55.84,2.69,2.69,0,0,1,0,2,2.7,2.7,0,0,1-.55.85,2.63,2.63,0,0,1-.82.58,2.45,2.45,0,0,1-2,0,2.63,2.63,0,0,1-.82-.58,2.7,2.7,0,0,1-.55-.85A2.66,2.66,0,0,1,190.28,20.27Zm1.07,0a1.49,1.49,0,0,0,.12.59,1.59,1.59,0,0,0,.32.49,1.57,1.57,0,0,0,.47.34,1.37,1.37,0,0,0,1.14,0,1.57,1.57,0,0,0,.47-.34,1.59,1.59,0,0,0,.32-.49,1.52,1.52,0,0,0-.32-1.66,1.68,1.68,0,0,0-.47-.33,1.38,1.38,0,0,0-1.14,0,1.68,1.68,0,0,0-.47.33,1.52,1.52,0,0,0-.44,1.07Z" fill="#19487d"/>
            <path d="M196.95,16.62a.65.65,0,0,1,.18-.47.61.61,0,0,1,.46-.19.65.65,0,0,1,.66.66.61.61,0,0,1-.19.46.65.65,0,0,1-.47.18.62.62,0,0,1-.64-.64Zm0,1.51a.45.45,0,0,1,.25-.36.76.76,0,0,1,.42-.07.74.74,0,0,1,.38.16.29.29,0,0,1,.12.31v4.17a.43.43,0,0,1-.17.39.6.6,0,0,1-.37.09.78.78,0,0,1-.37-.12.33.33,0,0,1-.17-.29Z" fill="#19487d"/>
            <path d="M203.33,22.54a15,15,0,0,0-.06-2,4.94,4.94,0,0,0-.24-1.14,1,1,0,0,0-.35-.51.74.74,0,0,0-.37-.12,1.33,1.33,0,0,0-.57.12,1.61,1.61,0,0,0-.47.34,1.58,1.58,0,0,0-.32.49,1.49,1.49,0,0,0-.12.59v2.08a.57.57,0,0,1-.18.39.62.62,0,0,1-.36.18.58.58,0,0,1-.38-.1.57.57,0,0,1-.23-.42V18a.43.43,0,0,1,.17-.39.59.59,0,0,1,.37-.09.78.78,0,0,1,.37.12.33.33,0,0,1,.17.29v.23a2.5,2.5,0,0,1,.7-.38,2.39,2.39,0,0,1,.8-.13,1.78,1.78,0,0,1,1.19.36,2.16,2.16,0,0,1,.64,1,5.78,5.78,0,0,1,.26,1.52q0,.89,0,1.93a.43.43,0,0,1-.17.39.59.59,0,0,1-.37.09.78.78,0,0,1-.37-.12A.33.33,0,0,1,203.33,22.54Z" fill="#19487d"/>
            <path d="M206.69,17.27l0-2.31a.44.44,0,0,1,.25-.36.79.79,0,0,1,.42-.07.7.7,0,0,1,.37.15.29.29,0,0,1,.12.31v2.29h1.29a.5.5,0,0,1,.37.23.59.59,0,0,1,.08.39.57.57,0,0,1-.19.34.54.54,0,0,1-.44.12h-1.1v4.06a.42.42,0,0,1-.18.39.62.62,0,0,1-.38.09.83.83,0,0,1-.38-.12.33.33,0,0,1-.18-.29l0-4.13h-1.22a.43.43,0,0,1-.39-.17.59.59,0,0,1-.09-.37.78.78,0,0,1,.12-.37.33.33,0,0,1,.29-.17Z" fill="#19487d"/>
            <path d="M215.27,18.69a.36.36,0,0,1,0,.37.61.61,0,0,1-.29.25.64.64,0,0,1-.38,0,.31.31,0,0,1-.25-.24,1.08,1.08,0,0,0-.48-.43,1.89,1.89,0,0,0-.52-.17,1.14,1.14,0,0,0-.72.12.69.69,0,0,0-.4.41.53.53,0,0,0,0,.37.59.59,0,0,0,.24.23,1.68,1.68,0,0,0,.4.15l.5.1a7.31,7.31,0,0,1,.75.18,2.19,2.19,0,0,1,.64.31,1.31,1.31,0,0,1,.56,1.3,1.22,1.22,0,0,1-.26.68,1.67,1.67,0,0,1-.56.45,2.33,2.33,0,0,1-.73.23,2.93,2.93,0,0,1-1.49-.15,2.68,2.68,0,0,1-.62-.33,2.21,2.21,0,0,1-.5-.5,2,2,0,0,1-.31-.67.58.58,0,0,1,.11-.44.73.73,0,0,1,.33-.24.56.56,0,0,1,.37,0,.33.33,0,0,1,.22.26,1.14,1.14,0,0,0,.5.83,1.83,1.83,0,0,0,.79.25,1.6,1.6,0,0,0,.71-.09c.21-.08.32-.19.34-.33a.48.48,0,0,0-.23-.54,2.48,2.48,0,0,0-.73-.25l-.72-.15a2.69,2.69,0,0,1-.7-.25,1.41,1.41,0,0,1-.53-.48,1.46,1.46,0,0,1-.21-.82,1.37,1.37,0,0,1,.18-.72,1.69,1.69,0,0,1,.48-.52,1.92,1.92,0,0,1,.69-.3,2.71,2.71,0,0,1,.8-.06,2.83,2.83,0,0,1,1.09.32A2.2,2.2,0,0,1,215.27,18.69Z" fill="#19487d"/>
          </g>
        </g>
        <g>
          <path d="M172.81,14.92a2,2,0,0,1,.15-.83.65.65,0,0,1,.65-.32h4.15a.43.43,0,0,1,.35.25.73.73,0,0,1,.05.42.77.77,0,0,1-.18.37.3.3,0,0,1-.32.12l-3.72-.06v2a4.24,4.24,0,0,1,1.67-.1,3.06,3.06,0,0,1,1.28.51,2.71,2.71,0,0,1,.84,1,3.24,3.24,0,0,1,.35,1.31,5.34,5.34,0,0,1-.13,1.68,2.66,2.66,0,0,1-.63,1.19,2.3,2.3,0,0,1-1.11.64,3.62,3.62,0,0,1-1.56,0,2.35,2.35,0,0,1-1.49-.83,2.31,2.31,0,0,1-.51-1.59.43.43,0,0,1,.18-.34.87.87,0,0,1,.38-.18.63.63,0,0,1,.39.05.36.36,0,0,1,.2.34,1.59,1.59,0,0,0,.44,1.11,1.53,1.53,0,0,0,.81.4,1.74,1.74,0,0,0,.94-.09,1.42,1.42,0,0,0,.61-.5,2.05,2.05,0,0,0,.32-.78,4.15,4.15,0,0,0,.07-.93,2.22,2.22,0,0,0-.26-.92,1.83,1.83,0,0,0-.62-.68,2,2,0,0,0-.94-.3A2.61,2.61,0,0,0,174,18a1.09,1.09,0,0,1-.27.07.85.85,0,0,1-.34,0,.68.68,0,0,1-.32-.22,1,1,0,0,1-.21-.5Z" fill="#fff"/>
          <path d="M184.91,18.17a2.5,2.5,0,0,1,.7-.38,2.46,2.46,0,0,1,1.79.08,2.63,2.63,0,0,1,.82.58,2.66,2.66,0,0,1,.55.85,2.68,2.68,0,0,1,0,2,2.56,2.56,0,0,1-.55.84,2.68,2.68,0,0,1-.82.57,2.4,2.4,0,0,1-1,.21,2.38,2.38,0,0,1-.76-.12,2.58,2.58,0,0,1-.67-.34v.39c0,.25,0,.52,0,.82s0,.57,0,.81v.38a.56.56,0,0,1-.18.39.6.6,0,0,1-.36.18.54.54,0,0,1-.61-.52V18a.43.43,0,0,1,.17-.39.59.59,0,0,1,.37-.09.78.78,0,0,1,.37.12.33.33,0,0,1,.17.29Zm3,2.12a1.49,1.49,0,0,0-.12-.59,1.58,1.58,0,0,0-.32-.49,1.61,1.61,0,0,0-.47-.34,1.38,1.38,0,0,0-1.14,0,1.61,1.61,0,0,0-.47.34,1.58,1.58,0,0,0-.32.49,1.52,1.52,0,0,0,.32,1.66,1.64,1.64,0,0,0,.47.33,1.37,1.37,0,0,0,1.14,0,1.64,1.64,0,0,0,.47-.33,1.52,1.52,0,0,0,.44-1.07Z" fill="#fff"/>
          <path d="M190.28,20.27a2.66,2.66,0,0,1,.2-1,2.62,2.62,0,0,1,.55-.84,2.71,2.71,0,0,1,.82-.57,2.44,2.44,0,0,1,2,0,2.71,2.71,0,0,1,.82.57,2.62,2.62,0,0,1,.55.84,2.69,2.69,0,0,1,0,2,2.7,2.7,0,0,1-.55.85,2.63,2.63,0,0,1-.82.58,2.45,2.45,0,0,1-2,0,2.63,2.63,0,0,1-.82-.58,2.7,2.7,0,0,1-.55-.85A2.66,2.66,0,0,1,190.28,20.27Zm1.07,0a1.49,1.49,0,0,0,.12.59,1.59,1.59,0,0,0,.32.49,1.57,1.57,0,0,0,.47.34,1.37,1.37,0,0,0,1.14,0,1.57,1.57,0,0,0,.47-.34,1.59,1.59,0,0,0,.32-.49,1.52,1.52,0,0,0-.32-1.66,1.68,1.68,0,0,0-.47-.33,1.38,1.38,0,0,0-1.14,0,1.68,1.68,0,0,0-.47.33,1.52,1.52,0,0,0-.44,1.07Z" fill="#fff"/>
          <path d="M196.95,16.62a.65.65,0,0,1,.18-.47.61.61,0,0,1,.46-.19.65.65,0,0,1,.66.66.61.61,0,0,1-.19.46.65.65,0,0,1-.47.18.62.62,0,0,1-.64-.64Zm0,1.51a.45.45,0,0,1,.25-.36.76.76,0,0,1,.42-.07.74.74,0,0,1,.38.16.29.29,0,0,1,.12.31v4.17a.43.43,0,0,1-.17.39.6.6,0,0,1-.37.09.78.78,0,0,1-.37-.12.33.33,0,0,1-.17-.29Z" fill="#fff"/>
          <path d="M203.33,22.54a15,15,0,0,0-.06-2,4.94,4.94,0,0,0-.24-1.14,1,1,0,0,0-.35-.51.74.74,0,0,0-.37-.12,1.33,1.33,0,0,0-.57.12,1.61,1.61,0,0,0-.47.34,1.58,1.58,0,0,0-.32.49,1.49,1.49,0,0,0-.12.59v2.08a.57.57,0,0,1-.18.39.62.62,0,0,1-.36.18.58.58,0,0,1-.38-.1.57.57,0,0,1-.23-.42V18a.43.43,0,0,1,.17-.39.59.59,0,0,1,.37-.09.78.78,0,0,1,.37.12.33.33,0,0,1,.17.29v.23a2.5,2.5,0,0,1,.7-.38,2.39,2.39,0,0,1,.8-.13,1.78,1.78,0,0,1,1.19.36,2.16,2.16,0,0,1,.64,1,5.78,5.78,0,0,1,.26,1.52q0,.89,0,1.93a.43.43,0,0,1-.17.39.59.59,0,0,1-.37.09.78.78,0,0,1-.37-.12A.33.33,0,0,1,203.33,22.54Z" fill="#fff"/>
          <path d="M206.69,17.27l0-2.31a.44.44,0,0,1,.25-.36.79.79,0,0,1,.42-.07.7.7,0,0,1,.37.15.29.29,0,0,1,.12.31v2.29h1.29a.5.5,0,0,1,.37.23.59.59,0,0,1,.08.39.57.57,0,0,1-.19.34.54.54,0,0,1-.44.12h-1.1v4.06a.42.42,0,0,1-.18.39.62.62,0,0,1-.38.09.83.83,0,0,1-.38-.12.33.33,0,0,1-.18-.29l0-4.13h-1.22a.43.43,0,0,1-.39-.17.59.59,0,0,1-.09-.37.78.78,0,0,1,.12-.37.33.33,0,0,1,.29-.17Z" fill="#fff"/>
          <path d="M215.27,18.69a.36.36,0,0,1,0,.37.61.61,0,0,1-.29.25.64.64,0,0,1-.38,0,.31.31,0,0,1-.25-.24,1.08,1.08,0,0,0-.48-.43,1.89,1.89,0,0,0-.52-.17,1.14,1.14,0,0,0-.72.12.69.69,0,0,0-.4.41.53.53,0,0,0,0,.37.59.59,0,0,0,.24.23,1.68,1.68,0,0,0,.4.15l.5.1a7.31,7.31,0,0,1,.75.18,2.19,2.19,0,0,1,.64.31,1.31,1.31,0,0,1,.56,1.3,1.22,1.22,0,0,1-.26.68,1.67,1.67,0,0,1-.56.45,2.33,2.33,0,0,1-.73.23,2.93,2.93,0,0,1-1.49-.15,2.68,2.68,0,0,1-.62-.33,2.21,2.21,0,0,1-.5-.5,2,2,0,0,1-.31-.67.58.58,0,0,1,.11-.44.73.73,0,0,1,.33-.24.56.56,0,0,1,.37,0,.33.33,0,0,1,.22.26,1.14,1.14,0,0,0,.5.83,1.83,1.83,0,0,0,.79.25,1.6,1.6,0,0,0,.71-.09c.21-.08.32-.19.34-.33a.48.48,0,0,0-.23-.54,2.48,2.48,0,0,0-.73-.25l-.72-.15a2.69,2.69,0,0,1-.7-.25,1.41,1.41,0,0,1-.53-.48,1.46,1.46,0,0,1-.21-.82,1.37,1.37,0,0,1,.18-.72,1.69,1.69,0,0,1,.48-.52,1.92,1.92,0,0,1,.69-.3,2.71,2.71,0,0,1,.8-.06,2.83,2.83,0,0,1,1.09.32A2.2,2.2,0,0,1,215.27,18.69Z" fill="#fff"/>
        </g>
      </g>
    </g>
  </g>
</svg>
