<svg xmlns="http://www.w3.org/2000/svg" width="240" height="38.4" viewBox="0 0 240 38.4">
  <title>map_small</title>
  <g id="Layer_2" data-name="Layer 2">
    <g id="Layer_1-2" data-name="Layer 1">
      <g>
        <g>
          <rect width="120" height="33.97" rx="16.93" ry="16.93" fill="#fdfefd"/>
          <rect x="1.84" y="0.99" width="115.95" height="31.22" rx="15.56" ry="15.56" fill="#28377b"/>
          <rect x="1.5" y="0.75" width="116.25" height="30.19" rx="15.05" ry="15.05" fill="#3267b0"/>
          <rect x="2.43" y="0.47" width="114.82" height="27.06" rx="13.48" ry="13.48" fill="#42a4dc"/>
          <path d="M103.78.47H15.84A13.52,13.52,0,0,0,2.4,14h0c0,.26,0,.52,0,.78A13.52,13.52,0,0,1,15.84,2h87.94A13.52,13.52,0,0,1,117.2,14.78c0-.26,0-.52,0-.78h0A13.52,13.52,0,0,0,103.78.47Z" fill="#9dd4ed" fill-rule="evenodd"/>
          <path d="M103.78,26H15.84A13.52,13.52,0,0,1,2.43,13.21c0,.26,0,.52,0,.78h0A13.52,13.52,0,0,0,15.84,27.52h87.94A13.52,13.52,0,0,0,117.22,14h0c0-.26,0-.52,0-.78A13.52,13.52,0,0,1,103.78,26Z" fill="#243f94" fill-rule="evenodd"/>
          <path d="M103.13,35H16.87A16.92,16.92,0,0,1,.08,19.72C0,20.28,0,20.84,0,21.42H0a16.93,16.93,0,0,0,16.87,17h86.25a16.93,16.93,0,0,0,16.87-17h0c0-.57,0-1.14-.08-1.7A16.92,16.92,0,0,1,103.13,35Z" fill="#5e5f5f" fill-rule="evenodd"/>
          <path d="M103.13,34H16.87A16.92,16.92,0,0,1,0,17.77c0,.26,0,.52,0,.78H0a16.93,16.93,0,0,0,16.87,17h86.25a16.93,16.93,0,0,0,16.87-17h0c0-.26,0-.52,0-.78A16.92,16.92,0,0,1,103.13,34Z" fill="#888" fill-rule="evenodd"/>
          <g>
            <g>
              <path d="M48.72,12.92l0,6.3a.51.51,0,0,1-.2.46.69.69,0,0,1-.44.11.92.92,0,0,1-.44-.15.39.39,0,0,1-.2-.34l-.12-9.81a.48.48,0,0,1,.23-.35A.9.9,0,0,1,48,9a.83.83,0,0,1,.42.08.57.57,0,0,1,.29.3l3.37,8,3.39-8a.38.38,0,0,1,.28-.28.92.92,0,0,1,.47,0,1.15,1.15,0,0,1,.44.2.4.4,0,0,1,.18.37l0,9.62a.51.51,0,0,1-.2.46.7.7,0,0,1-.44.11.91.91,0,0,1-.44-.15.39.39,0,0,1-.2-.34l-.09-6.57-2.77,6.4a.54.54,0,0,1-.27.28.83.83,0,0,1-.4.08.91.91,0,0,1-.41-.11.62.62,0,0,1-.28-.29Z" fill="#243f94"/>
              <path d="M63.39,19.08a2.92,2.92,0,0,1-.82.45,2.9,2.9,0,0,1-2.12-.09,3.09,3.09,0,0,1-1-.68,3.16,3.16,0,0,1-.65-1,3.17,3.17,0,0,1,0-2.39,3.07,3.07,0,0,1,.65-1,3.18,3.18,0,0,1,1-.67,2.82,2.82,0,0,1,1.18-.25,2.78,2.78,0,0,1,.9.15,3,3,0,0,1,.8.41.56.56,0,0,1,.31-.41.88.88,0,0,1,.93.11.34.34,0,0,1,.14.36l0,5.21a.51.51,0,0,1-.2.46.69.69,0,0,1-.44.11.92.92,0,0,1-.44-.15.39.39,0,0,1-.2-.34Zm-3.53-2.51a1.76,1.76,0,0,0,.14.69,1.86,1.86,0,0,0,.38.58,1.88,1.88,0,0,0,.55.4,1.63,1.63,0,0,0,1.35,0,1.89,1.89,0,0,0,.93-1,1.8,1.8,0,0,0-.38-2,2,2,0,0,0-.55-.39,1.63,1.63,0,0,0-1.35,0,2,2,0,0,0-.55.39,1.8,1.8,0,0,0-.52,1.26Z" fill="#243f94"/>
              <path d="M67.67,14.08a2.94,2.94,0,0,1,.82-.45,2.9,2.9,0,0,1,2.12.09,3.1,3.1,0,0,1,1,.68,3.17,3.17,0,0,1,.65,1,3.17,3.17,0,0,1,0,2.39,3.07,3.07,0,0,1-.65,1,3.17,3.17,0,0,1-1,.67,2.82,2.82,0,0,1-1.18.25,2.78,2.78,0,0,1-.9-.15,3,3,0,0,1-.8-.41s0,.17,0,.46,0,.62,0,1,0,.67,0,1V22a.67.67,0,0,1-.21.46.72.72,0,0,1-.42.21.68.68,0,0,1-.45-.11.67.67,0,0,1-.27-.5l0-8.17a.51.51,0,0,1,.2-.46.69.69,0,0,1,.44-.11.92.92,0,0,1,.44.15.39.39,0,0,1,.2.34Zm3.53,2.51a1.78,1.78,0,0,0-.14-.69,1.88,1.88,0,0,0-.38-.58,1.9,1.9,0,0,0-.55-.4,1.63,1.63,0,0,0-1.35,0,1.89,1.89,0,0,0-.55.4,1.87,1.87,0,0,0-.38.58,1.8,1.8,0,0,0,.38,2,2,2,0,0,0,.55.39,1.63,1.63,0,0,0,1.35,0,2,2,0,0,0,.55-.39,1.79,1.79,0,0,0,.52-1.26Z" fill="#243f94"/>
            </g>
            <g>
              <path d="M48.72,11.55l0,6.3a.51.51,0,0,1-.2.46.69.69,0,0,1-.44.11.92.92,0,0,1-.44-.15.39.39,0,0,1-.2-.34l-.12-9.81a.48.48,0,0,1,.23-.35A.9.9,0,0,1,48,7.64a.83.83,0,0,1,.42.08.57.57,0,0,1,.29.3l3.37,8,3.39-8a.38.38,0,0,1,.28-.28.92.92,0,0,1,.47,0,1.15,1.15,0,0,1,.44.2.4.4,0,0,1,.18.37l0,9.62a.51.51,0,0,1-.2.46.7.7,0,0,1-.44.11.91.91,0,0,1-.44-.15.39.39,0,0,1-.2-.34l-.09-6.57-2.77,6.4a.54.54,0,0,1-.27.28.83.83,0,0,1-.4.08.91.91,0,0,1-.41-.11.62.62,0,0,1-.28-.29Z" fill="#fff"/>
              <path d="M63.39,17.71a2.92,2.92,0,0,1-.82.45,2.9,2.9,0,0,1-2.12-.09,3.09,3.09,0,0,1-1-.68,3.16,3.16,0,0,1-.65-1,3.17,3.17,0,0,1,0-2.39,3.07,3.07,0,0,1,.65-1,3.18,3.18,0,0,1,1-.67,2.82,2.82,0,0,1,1.18-.25,2.78,2.78,0,0,1,.9.15,3,3,0,0,1,.8.41.56.56,0,0,1,.31-.41.88.88,0,0,1,.93.11.34.34,0,0,1,.14.36l0,5.21a.51.51,0,0,1-.2.46.69.69,0,0,1-.44.11.92.92,0,0,1-.44-.15.39.39,0,0,1-.2-.34ZM59.86,15.2a1.76,1.76,0,0,0,.14.69,1.86,1.86,0,0,0,.38.58,1.88,1.88,0,0,0,.55.4,1.63,1.63,0,0,0,1.35,0,1.89,1.89,0,0,0,.93-1,1.8,1.8,0,0,0-.38-2,2,2,0,0,0-.55-.39,1.63,1.63,0,0,0-1.35,0,2,2,0,0,0-.55.39,1.8,1.8,0,0,0-.52,1.26Z" fill="#fff"/>
              <path d="M67.67,12.71a2.94,2.94,0,0,1,.82-.45,2.9,2.9,0,0,1,2.12.09,3.1,3.1,0,0,1,1,.68,3.17,3.17,0,0,1,.65,1,3.17,3.17,0,0,1,0,2.39,3.07,3.07,0,0,1-.65,1,3.17,3.17,0,0,1-1,.67,2.82,2.82,0,0,1-1.18.25,2.78,2.78,0,0,1-.9-.15,3,3,0,0,1-.8-.41s0,.17,0,.46,0,.62,0,1,0,.67,0,1v.45a.67.67,0,0,1-.21.46.72.72,0,0,1-.42.21.68.68,0,0,1-.45-.11.67.67,0,0,1-.27-.5l0-8.17a.51.51,0,0,1,.2-.46.69.69,0,0,1,.44-.11.92.92,0,0,1,.44.15.39.39,0,0,1,.2.34Zm3.53,2.51a1.78,1.78,0,0,0-.14-.69,1.88,1.88,0,0,0-.38-.58,1.9,1.9,0,0,0-.55-.4,1.63,1.63,0,0,0-1.35,0,1.89,1.89,0,0,0-.55.4,1.87,1.87,0,0,0-.38.58,1.8,1.8,0,0,0,.38,2,2,2,0,0,0,.55.39,1.63,1.63,0,0,0,1.35,0,2,2,0,0,0,.55-.39,1.79,1.79,0,0,0,.52-1.26Z" fill="#fff"/>
            </g>
          </g>
        </g>
        <g>
          <rect x="120" y="4.11" width="120" height="30.02" rx="15.01" ry="15.01" fill="#fdfefd"/>
          <rect x="121.84" y="4.95" width="115.95" height="27.49" rx="13.75" ry="13.75" fill="#28377b"/>
          <rect x="121.5" y="4.95" width="116.25" height="26.28" rx="13.14" ry="13.14" fill="#3267b0"/>
          <rect x="122.43" y="4.95" width="114.82" height="26" rx="13" ry="13" fill="#42a4dc"/>
          <path d="M223.78,5H135.84A13.27,13.27,0,0,0,122.4,18h0c0,.25,0,.5,0,.75A13.3,13.3,0,0,1,135.84,6.46h87.94A13.3,13.3,0,0,1,237.2,18.71c0-.25,0-.5,0-.75h0A13.27,13.27,0,0,0,223.78,5Z" fill="#9dd4ed" fill-rule="evenodd"/>
          <path d="M223.78,29.45H135.84A13.3,13.3,0,0,1,122.43,17.2c0,.25,0,.5,0,.75h0a13.27,13.27,0,0,0,13.44,13h87.94a13.27,13.27,0,0,0,13.44-13h0c0-.25,0-.5,0-.75A13.3,13.3,0,0,1,223.78,29.45Z" fill="#243f94" fill-rule="evenodd"/>
          <path d="M223.13,35.14H136.87a16.67,16.67,0,0,1-16.79-14.69,16,16,0,0,0-.08,1.63h0c0,9,7.56,16.32,16.87,16.32h86.25c9.32,0,16.87-7.31,16.87-16.32h0a16,16,0,0,0-.08-1.63A16.67,16.67,0,0,1,223.13,35.14Z" fill="#5e5f5f" fill-rule="evenodd"/>
          <path d="M223.13,34.14H136.87A16.63,16.63,0,0,1,120,18.57c0,.25,0,.5,0,.75h0c0,9,7.56,16.32,16.87,16.32h86.25c9.32,0,16.87-7.31,16.87-16.32h0c0-.25,0-.5,0-.75A16.63,16.63,0,0,1,223.13,34.14Z" fill="#888" fill-rule="evenodd"/>
          <g>
            <g>
              <path d="M168.72,17.56l0,6.3a.51.51,0,0,1-.2.46.69.69,0,0,1-.44.11.92.92,0,0,1-.44-.15.39.39,0,0,1-.2-.34l-.12-9.81a.48.48,0,0,1,.23-.35.9.9,0,0,1,.42-.14.83.83,0,0,1,.42.08.57.57,0,0,1,.29.3l3.37,8,3.39-8a.38.38,0,0,1,.28-.28.92.92,0,0,1,.47,0,1.15,1.15,0,0,1,.44.2.4.4,0,0,1,.18.37l0,9.62a.51.51,0,0,1-.2.46.7.7,0,0,1-.44.11.91.91,0,0,1-.44-.15.39.39,0,0,1-.2-.34l-.09-6.57-2.77,6.4a.54.54,0,0,1-.27.28.83.83,0,0,1-.4.08.91.91,0,0,1-.41-.11.62.62,0,0,1-.28-.29Z" fill="#243f94"/>
              <path d="M183.39,23.72a2.92,2.92,0,0,1-.82.45,2.9,2.9,0,0,1-2.12-.09,3.09,3.09,0,0,1-1-.68,3.16,3.16,0,0,1-.65-1,3.17,3.17,0,0,1,0-2.39,3.07,3.07,0,0,1,.65-1,3.18,3.18,0,0,1,1-.67,2.82,2.82,0,0,1,1.18-.25,2.78,2.78,0,0,1,.9.15,3,3,0,0,1,.8.41.56.56,0,0,1,.31-.41.88.88,0,0,1,.93.11.34.34,0,0,1,.14.36l0,5.21a.51.51,0,0,1-.2.46.69.69,0,0,1-.44.11.92.92,0,0,1-.44-.15.39.39,0,0,1-.2-.34Zm-3.53-2.51a1.76,1.76,0,0,0,.14.69,1.86,1.86,0,0,0,.38.58,1.88,1.88,0,0,0,.55.4,1.63,1.63,0,0,0,1.35,0,1.89,1.89,0,0,0,.93-1,1.8,1.8,0,0,0-.38-2,2,2,0,0,0-.55-.39,1.63,1.63,0,0,0-1.35,0,2,2,0,0,0-.55.39,1.8,1.8,0,0,0-.52,1.26Z" fill="#243f94"/>
              <path d="M187.67,18.72a2.94,2.94,0,0,1,.82-.45,2.9,2.9,0,0,1,2.12.09,3.1,3.1,0,0,1,1,.68,3.17,3.17,0,0,1,.65,1,3.17,3.17,0,0,1,0,2.39,3.07,3.07,0,0,1-.65,1,3.17,3.17,0,0,1-1,.67,2.82,2.82,0,0,1-1.18.25,2.78,2.78,0,0,1-.9-.15,3,3,0,0,1-.8-.41s0,.17,0,.46,0,.62,0,1,0,.67,0,1v.45a.67.67,0,0,1-.21.46.72.72,0,0,1-.42.21.68.68,0,0,1-.45-.11.67.67,0,0,1-.27-.5l0-8.17a.51.51,0,0,1,.2-.46A.69.69,0,0,1,187,18a.92.92,0,0,1,.44.15.39.39,0,0,1,.2.34Zm3.53,2.51a1.78,1.78,0,0,0-.14-.69,1.88,1.88,0,0,0-.38-.58,1.9,1.9,0,0,0-.55-.4,1.63,1.63,0,0,0-1.35,0,1.89,1.89,0,0,0-.55.4,1.87,1.87,0,0,0-.38.58,1.8,1.8,0,0,0,.38,2,2,2,0,0,0,.55.39,1.63,1.63,0,0,0,1.35,0,2,2,0,0,0,.55-.39,1.79,1.79,0,0,0,.52-1.26Z" fill="#243f94"/>
            </g>
            <g>
              <path d="M168.72,17.56l0,6.3a.51.51,0,0,1-.2.46.69.69,0,0,1-.44.11.92.92,0,0,1-.44-.15.39.39,0,0,1-.2-.34l-.12-9.81a.48.48,0,0,1,.23-.35.9.9,0,0,1,.42-.14.83.83,0,0,1,.42.08.57.57,0,0,1,.29.3l3.37,8,3.39-8a.38.38,0,0,1,.28-.28.92.92,0,0,1,.47,0,1.15,1.15,0,0,1,.44.2.4.4,0,0,1,.18.37l0,9.62a.51.51,0,0,1-.2.46.7.7,0,0,1-.44.11.91.91,0,0,1-.44-.15.39.39,0,0,1-.2-.34l-.09-6.57-2.77,6.4a.54.54,0,0,1-.27.28.83.83,0,0,1-.4.08.91.91,0,0,1-.41-.11.62.62,0,0,1-.28-.29Z" fill="#fff"/>
              <path d="M183.39,23.72a2.92,2.92,0,0,1-.82.45,2.9,2.9,0,0,1-2.12-.09,3.09,3.09,0,0,1-1-.68,3.16,3.16,0,0,1-.65-1,3.17,3.17,0,0,1,0-2.39,3.07,3.07,0,0,1,.65-1,3.18,3.18,0,0,1,1-.67,2.82,2.82,0,0,1,1.18-.25,2.78,2.78,0,0,1,.9.15,3,3,0,0,1,.8.41.56.56,0,0,1,.31-.41.88.88,0,0,1,.93.11.34.34,0,0,1,.14.36l0,5.21a.51.51,0,0,1-.2.46.69.69,0,0,1-.44.11.92.92,0,0,1-.44-.15.39.39,0,0,1-.2-.34Zm-3.53-2.51a1.76,1.76,0,0,0,.14.69,1.86,1.86,0,0,0,.38.58,1.88,1.88,0,0,0,.55.4,1.63,1.63,0,0,0,1.35,0,1.89,1.89,0,0,0,.93-1,1.8,1.8,0,0,0-.38-2,2,2,0,0,0-.55-.39,1.63,1.63,0,0,0-1.35,0,2,2,0,0,0-.55.39,1.8,1.8,0,0,0-.52,1.26Z" fill="#fff"/>
              <path d="M187.67,18.72a2.94,2.94,0,0,1,.82-.45,2.9,2.9,0,0,1,2.12.09,3.1,3.1,0,0,1,1,.68,3.17,3.17,0,0,1,.65,1,3.17,3.17,0,0,1,0,2.39,3.07,3.07,0,0,1-.65,1,3.17,3.17,0,0,1-1,.67,2.82,2.82,0,0,1-1.18.25,2.78,2.78,0,0,1-.9-.15,3,3,0,0,1-.8-.41s0,.17,0,.46,0,.62,0,1,0,.67,0,1v.45a.67.67,0,0,1-.21.46.72.72,0,0,1-.42.21.68.68,0,0,1-.45-.11.67.67,0,0,1-.27-.5l0-8.17a.51.51,0,0,1,.2-.46A.69.69,0,0,1,187,18a.92.92,0,0,1,.44.15.39.39,0,0,1,.2.34Zm3.53,2.51a1.78,1.78,0,0,0-.14-.69,1.88,1.88,0,0,0-.38-.58,1.9,1.9,0,0,0-.55-.4,1.63,1.63,0,0,0-1.35,0,1.89,1.89,0,0,0-.55.4,1.87,1.87,0,0,0-.38.58,1.8,1.8,0,0,0,.38,2,2,2,0,0,0,.55.39,1.63,1.63,0,0,0,1.35,0,2,2,0,0,0,.55-.39,1.79,1.79,0,0,0,.52-1.26Z" fill="#fff"/>
            </g>
          </g>
        </g>
      </g>
    </g>
  </g>
</svg>
