<svg xmlns="http://www.w3.org/2000/svg" width="350" height="56" viewBox="0 0 350 56">
  <title>back_button</title>
  <g id="Layer_2" data-name="Layer 2">
    <g id="Layer_1-2" data-name="Layer 1">
      <g>
        <rect width="175" height="49.53" rx="24.69" ry="24.69" transform="translate(175 49.53) rotate(-180)" fill="#fdfefd"/>
        <rect x="3.23" y="1.44" width="169.1" height="45.52" rx="22.69" ry="22.69" transform="translate(175.55 48.4) rotate(-180)" fill="#28377b"/>
        <rect x="3.28" y="1.1" width="169.53" height="44.03" rx="21.94" ry="21.94" transform="translate(176.09 46.23) rotate(180)" fill="#3267b0"/>
        <rect x="4.01" y="0.68" width="167.45" height="39.46" rx="19.67" ry="19.67" transform="translate(175.48 40.81) rotate(-180)" fill="#42a4dc"/>
        <path d="M82.94,11c.45.1.71,3.5.81,7.69l17.07.13s1.61-.06,1.61,0l4.3-.23c1.08-.15,2,1.24,2.14,3.18s-.77,4.43-1.84,4.59L101,26.16l-17.22.31c-.1,4.55-.38,8.31-.81,8.2-1.6.4-16.48-9.23-16.35-11.77C66.72,19.28,81.21,9.65,82.94,11Z" fill="#243f94"/>
        <path d="M82.94,7c.45.1.71,3.5.81,7.69l17.07.13s1.61-.06,1.61,0l4.3-.23c1.08-.15,2,1.24,2.14,3.18s-.77,4.43-1.84,4.59L101,22.19l-17.22.31c-.1,4.55-.38,8.31-.81,8.2-1.6.4-16.48-9.23-16.35-11.77C66.72,15.32,81.21,5.68,82.94,7Z" fill="#fff"/>
        <path d="M23.65.68H151.9a19.72,19.72,0,0,1,19.6,19.73h0c0,.38,0,.76,0,1.14A19.72,19.72,0,0,0,151.9,3H23.65A19.72,19.72,0,0,0,4.08,21.55c0-.38,0-.76,0-1.14H4A19.72,19.72,0,0,1,23.65.68Z" fill="#9dd4ed" fill-rule="evenodd"/>
        <path d="M23.65,37.85H151.9a19.72,19.72,0,0,0,19.57-18.59c0,.38,0,.76,0,1.14h0a19.72,19.72,0,0,1-19.6,19.73H23.65A19.72,19.72,0,0,1,4,20.41H4c0-.38,0-.76,0-1.14A19.72,19.72,0,0,0,23.65,37.85Z" fill="#243f94" fill-rule="evenodd"/>
        <path d="M24.61,51.05H150.39a24.67,24.67,0,0,0,24.49-22.29c.08.81.12,1.64.12,2.47h0A24.69,24.69,0,0,1,150.39,56H24.61A24.69,24.69,0,0,1,0,31.23H0c0-.83,0-1.66.12-2.47A24.67,24.67,0,0,0,24.61,51.05Z" fill="#5e5f5f" fill-rule="evenodd"/>
        <path d="M24.61,49.53H150.39A24.68,24.68,0,0,0,175,25.91c0,.38,0,.76,0,1.14h0a24.69,24.69,0,0,1-24.61,24.77H24.61A24.69,24.69,0,0,1,0,27H0c0-.38,0-.76,0-1.14A24.68,24.68,0,0,0,24.61,49.53Z" fill="#888" fill-rule="evenodd"/>
      </g>
      <rect x="175" y="6" width="175" height="43.79" rx="21.89" ry="21.89" transform="translate(525 55.79) rotate(180)" fill="#fdfefd"/>
      <rect x="178.23" y="7.22" width="169.1" height="40.09" rx="20.05" ry="20.05" transform="translate(525.55 54.54) rotate(-180)" fill="#28377b"/>
      <rect x="178.28" y="7.22" width="169.53" height="38.33" rx="19.17" ry="19.17" transform="translate(526.09 52.78) rotate(-180)" fill="#3267b0"/>
      <rect x="179.01" y="7.22" width="167.45" height="37.92" rx="18.96" ry="18.96" transform="translate(525.48 52.36) rotate(-180)" fill="#42a4dc"/>
      <path d="M198.65,7.22H326.9c10.78,0,19.6,8.53,19.6,19h0c0,.37,0,.73,0,1.1-.59-9.92-9.17-17.86-19.57-17.86H198.65c-10.4,0-19,7.94-19.57,17.86,0-.36,0-.73,0-1.1h0C179,15.75,187.87,7.22,198.65,7.22Z" fill="#9dd4ed" fill-rule="evenodd"/>
      <path d="M198.65,42.95H326.9c10.4,0,19-7.94,19.57-17.86,0,.36,0,.73,0,1.1h0c0,10.43-8.82,19-19.6,19H198.65c-10.78,0-19.6-8.53-19.6-19h0c0-.37,0-.73,0-1.1C179.68,35,188.25,42.95,198.65,42.95Z" fill="#243f94" fill-rule="evenodd"/>
      <path d="M257.94,15.3c.45.1.71,3.36.81,7.39l17.07.12s1.61-.05,1.61,0l4.3-.22c1.08-.15,2,1.19,2.14,3.06S283.1,29.86,282,30L276,29.88l-17.22.3c-.1,4.37-.38,8-.81,7.88-1.6.39-16.48-8.87-16.35-11.31C241.72,23.27,256.21,14,257.94,15.3Z" fill="#243f94"/>
      <path d="M257.94,14.42c.45.1.71,3.36.81,7.39l17.07.12s1.61-.05,1.61,0l4.3-.22c1.08-.15,2,1.19,2.14,3.06S283.1,29,282,29.13L276,29l-17.22.3c-.1,4.37-.38,8-.81,7.88-1.6.39-16.48-8.87-16.35-11.31C241.72,22.39,256.21,13.13,257.94,14.42Z" fill="#fff"/>
      <path d="M199.61,51.25H325.39c12.76,0,23.25-9.4,24.49-21.42A23.28,23.28,0,0,1,350,32.2h0C350,45.34,339,56,325.39,56H199.61C186,56,175,45.34,175,32.2h0a23.28,23.28,0,0,1,.12-2.38C176.36,41.85,186.85,51.25,199.61,51.25Z" fill="#5e5f5f" fill-rule="evenodd"/>
      <path d="M199.61,49.79H325.39c13.21,0,24-10.07,24.58-22.7,0,.36,0,.73,0,1.1h0C350,41.32,339,52,325.39,52H199.61C186,52,175,41.32,175,28.18h0c0-.37,0-.73,0-1.1C175.62,39.72,186.4,49.79,199.61,49.79Z" fill="#888" fill-rule="evenodd"/>
    </g>
  </g>
</svg>
