<svg xmlns="http://www.w3.org/2000/svg" width="229.13" height="47.26" viewBox="0 0 229.13 47.26">
  <title>how it works</title>
  <g id="Layer_2" data-name="Layer 2">
    <g id="Layer_1-2" data-name="Layer 1">
      <g>
        <g id="ribbon">
          <path d="M206.62,36.84q0-13.09,0-26.18c0-1.92,0-1.92-1.75-1.71a.67.67,0,0,0-.6-.57L192.48,6.21,177.78,3.5c.38,0,.76-.09,1.14-.09H229c-1.54,1.8-2.89,3.41-4.27,5-3.07,3.54-6.13,7.1-9.24,10.59-.75.84-.66,1.31,0,2.11,4.25,4.82,8.45,9.7,12.66,14.57.22.26.42.54.9,1.16Z" fill="#232323" opacity="0.89"/>
          <path d="M23.81,8.71c-1.23-.21-1.15.68-1.15,1.54q0,12.35,0,24.7a3.73,3.73,0,0,1-.16,1.82A55.82,55.82,0,0,0,16,36.65c-4.7,0-9.41,0-14.11,0H0c1.31-1.54,2.38-2.81,3.47-4.07C6.83,28.69,10.19,24.8,13.59,21c.66-.75.71-1.18,0-2C9.48,14.31,5.42,9.57,1.34,4.86,1,4.45.65,4,.3,3.63c.28-.45.65-.29,1-.29H49.5c.29,0,.57,0,.86.07-.12.08-.23.22-.36.24-6.31,1.17-12.62,2.28-18.92,3.5C28.65,7.62,26.15,7.79,23.81,8.71Z" fill="#232323" opacity="0.89"/>
          <path d="M206.62,33.59q0-13.09,0-26.18c0-1.92,0-1.92-1.75-1.71a.67.67,0,0,0-.6-.57L192.48,3,177.78.26c.38,0,.76-.09,1.14-.09H229c-1.54,1.8-2.89,3.41-4.27,5-3.07,3.54-6.13,7.1-9.24,10.59-.75.84-.66,1.31,0,2.11,4.25,4.82,8.45,9.7,12.66,14.57.22.26.42.54.9,1.16Z" fill="#c03246"/>
          <path d="M23.81,5.46c-1.23-.21-1.15.68-1.15,1.54q0,12.35,0,24.7a3.73,3.73,0,0,1-.16,1.82A55.82,55.82,0,0,0,16,33.41c-4.7,0-9.41,0-14.11,0H0c1.31-1.54,2.38-2.81,3.47-4.07,3.36-3.88,6.72-7.78,10.12-11.62.66-.75.71-1.18,0-2C9.48,11.06,5.42,6.33,1.34,1.61,1,1.21.65.79.3.38.59-.07,1,.1,1.26.1H49.5c.29,0,.57,0,.86.07-.12.08-.23.22-.36.24-6.31,1.17-12.62,2.28-18.92,3.5C28.65,4.38,26.15,4.55,23.81,5.46Z" fill="#c03246"/>
          <path d="M177.78.26,192.48,3l11.74,2.18a.67.67,0,0,1,.6.57c-9.07,2.16-18.15,4.31-27.34,5.82,0-3.22,0-6.44.09-9.67C177.58,1.33,177.36.74,177.78.26Z" fill="#881728"/>
          <path d="M23.81,5.46c2.35-.92,4.84-1.08,7.27-1.56C37.38,2.69,43.69,1.57,50,.41c.13,0,.24-.16.36-.24.83-.35,1.21-.18,1.2.9,0,3.39,0,6.77,0,10.16C42.24,9.65,33,7.65,23.81,5.46Z" fill="#881728"/>
          <path d="M22.48,41.79c0-3.14,0-6.28,0-9.42a3.73,3.73,0,0,0,.16-1.82q0-12.35,0-24.7c0-.86-.08-1.75,1.15-1.54C33,6.51,42.24,8.51,51.55,10.09a134.61,134.61,0,0,0,13.54,2,424.44,424.44,0,0,0,43.37,2.2c13.24.11,26.47,0,39.69-.76a246,246,0,0,0,29.33-3.11c9.19-1.51,18.27-3.66,27.34-5.82,1.75-.21,1.75-.21,1.75,1.71q0,13.09,0,26.18c0,3.14,0,6.28,0,9.43,0,.71-.12,1-.89,1.15C100.8,52.84,22.47,42.63,22.48,41.79Z" fill="#a41e2c"/>
          <path d="M22.48,38.55c0-3.14,0-6.28,0-9.42a3.73,3.73,0,0,0,.16-1.82q0-12.35,0-24.7c0-.86-.08-1.75,1.15-1.54C33,3.26,42.24,5.26,51.55,6.84a134.61,134.61,0,0,0,13.54,2A424.44,424.44,0,0,0,108.46,11c13.24.11,26.47,0,39.69-.76a246,246,0,0,0,29.33-3.11c9.19-1.51,18.27-3.66,27.34-5.82,1.75-.21,1.75-.21,1.75,1.71q0,13.09,0,26.18c0,3.14,0,6.28,0,9.43,0,.71-.12,1-.89,1.15C100.8,49.6,22.47,39.38,22.48,38.55Z" fill="#cb202e"/>
          <path d="M206.48,3.8h.09q0-.38,0-.77c0-1.92,0-1.92-1.75-1.71-9.07,2.16-18.15,4.31-27.34,5.82a246,246,0,0,1-29.33,3.11c-13.22.72-26.45.87-39.69.76a424.43,424.43,0,0,1-43.37-2.2,134.62,134.62,0,0,1-13.54-2C42.24,5.26,33,3.26,23.8,1.08c-1.23-.21-1.15.68-1.15,1.54q0,.7,0,1.4h0c.06-.53.28-.92,1.13-.77C33,5.42,42.24,7.43,51.55,9a134.62,134.62,0,0,0,13.54,2,424.43,424.43,0,0,0,43.37,2.2c13.24.11,26.47,0,39.69-.76a246,246,0,0,0,29.33-3.11c9.19-1.51,18.27-3.66,27.34-5.82C205.94,3.35,206.34,3.3,206.48,3.8Z" fill="#cd4d5c"/>
        </g>
        <g>
          <path d="M63.42,27.9c-2.49-.2-3.73-.31-6.22-.54l-.54,6.21a.74.74,0,0,1-.35.64,1,1,0,0,1-.65.11,1.31,1.31,0,0,1-.62-.27.57.57,0,0,1-.24-.52c.46-5.61.69-8.41,1.15-14a.74.74,0,0,1,.47-.57,1.18,1.18,0,0,1,.7,0,1.25,1.25,0,0,1,.59.36.53.53,0,0,1,.14.56l-.48,5.55c2.48.23,3.72.33,6.2.54L64,20.22a.77.77,0,0,1,.46-.59,1.16,1.16,0,0,1,.69-.06,1.21,1.21,0,0,1,.59.33.51.51,0,0,1,.15.55c-.41,5.53-.62,8.29-1,13.82a.74.74,0,0,1-.34.65,1,1,0,0,1-.66.11,1.32,1.32,0,0,1-.63-.27.57.57,0,0,1-.25-.52Z" fill="#fff"/>
          <path d="M67.71,30.88a4.66,4.66,0,0,1,.46-1.72,4.53,4.53,0,0,1,1-1.39,4.59,4.59,0,0,1,1.45-.89,4,4,0,0,1,3.35.23,4.59,4.59,0,0,1,1.32,1.07,4.53,4.53,0,0,1,.84,1.51,4.73,4.73,0,0,1-.21,3.49,4.62,4.62,0,0,1-1,1.41,4.47,4.47,0,0,1-1.46.91,4.1,4.1,0,0,1-3.39-.23,4.46,4.46,0,0,1-1.33-1.1,4.69,4.69,0,0,1-1-3.3Zm1.81.16a2.62,2.62,0,0,0,.13,1,2.72,2.72,0,0,0,.49.89,2.69,2.69,0,0,0,.76.64,2.3,2.3,0,0,0,1.94.13,2.69,2.69,0,0,0,.83-.53,2.74,2.74,0,0,0,.6-.81,2.67,2.67,0,0,0-.36-2.89,2.8,2.8,0,0,0-.75-.62,2.27,2.27,0,0,0-1.93-.13,2.79,2.79,0,0,0-.83.51,2.6,2.6,0,0,0-.6.79A2.64,2.64,0,0,0,69.52,31Z" fill="#fff"/>
          <path d="M88,36.05a1.08,1.08,0,0,1-.54.55,1,1,0,0,1-.62,0,1.46,1.46,0,0,1-.55-.28,1,1,0,0,1-.34-.49C85.34,33.94,85,33,84.39,31c-.74,1.89-1.11,2.84-1.85,4.73a1.08,1.08,0,0,1-.54.54,1,1,0,0,1-.62,0,1.48,1.48,0,0,1-.55-.28,1,1,0,0,1-.34-.49c-1-3-1.42-4.48-2.34-7.47a.58.58,0,0,1,.13-.55,1.23,1.23,0,0,1,.54-.39,1,1,0,0,1,.66,0,.69.69,0,0,1,.45.53c.69,2.09,1,3.13,1.73,5.22.79-1.93,1.18-2.89,2-4.82a1.11,1.11,0,0,1,.41-.5,1.08,1.08,0,0,1,.56-.19.92.92,0,0,1,.56.17,1.06,1.06,0,0,1,.39.56c.63,2,.94,3.06,1.58,5.09.8-2,1.19-3.05,2-5.09a.69.69,0,0,1,.5-.49,1,1,0,0,1,.65.09,1.23,1.23,0,0,1,.5.44.58.58,0,0,1,.08.56C89.73,31.65,89.16,33.12,88,36.05Z" fill="#fff"/>
          <path d="M100.93,26.18a1.14,1.14,0,0,1,.33-.8,1,1,0,0,1,.78-.31,1.05,1.05,0,0,1,.78.35,1.12,1.12,0,0,1,.3.82A1.09,1.09,0,0,1,102,27.32a1,1,0,0,1-.77-.33A1.1,1.1,0,0,1,100.93,26.18Zm0,2.61a.77.77,0,0,1,.43-.61,1.27,1.27,0,0,1,1.35.19.5.5,0,0,1,.19.54l-.17,7.22a.74.74,0,0,1-.3.67,1,1,0,0,1-.64.15,1.31,1.31,0,0,1-.63-.23.57.57,0,0,1-.28-.5C100.89,33.24,100.9,31.76,100.92,28.79Z" fill="#fff"/>
          <path d="M108,27.41c0-1.6,0-2.4,0-4a.77.77,0,0,1,.42-.62,1.27,1.27,0,0,1,.7-.12,1.13,1.13,0,0,1,.62.27.51.51,0,0,1,.19.53l0,4h2.17a.84.84,0,0,1,.63.41,1,1,0,0,1,.13.67,1,1,0,0,1-.32.59.89.89,0,0,1-.74.2h-1.85c0,2.81,0,4.21,0,7a.73.73,0,0,1-.31.67,1,1,0,0,1-.65.16,1.39,1.39,0,0,1-.65-.22.57.57,0,0,1-.29-.5c0-2.86,0-4.29,0-7.15l-2.05,0a.71.71,0,0,1-.65-.3,1,1,0,0,1-.15-.65,1.37,1.37,0,0,1,.22-.64.55.55,0,0,1,.48-.28Z" fill="#fff"/>
          <path d="M132.78,36.39a1.08,1.08,0,0,1-.5.58,1,1,0,0,1-.61.09,1.46,1.46,0,0,1-.57-.24,1,1,0,0,1-.37-.46c-.77-1.9-1.16-2.85-1.92-4.75-.6,1.94-.91,2.91-1.52,4.85a1.08,1.08,0,0,1-.5.58,1,1,0,0,1-.61.09,1.47,1.47,0,0,1-.57-.24,1,1,0,0,1-.37-.46c-1.15-2.91-1.72-4.37-2.85-7.29a.58.58,0,0,1,.09-.56,1.23,1.23,0,0,1,.51-.42,1,1,0,0,1,.65-.07.69.69,0,0,1,.49.5c.83,2,1.25,3.05,2.09,5.09.65-2,1-3,1.62-4.95a1.11,1.11,0,0,1,.37-.53,1.08,1.08,0,0,1,.55-.23.92.92,0,0,1,.57.13,1.05,1.05,0,0,1,.43.53c.77,2,1.15,3,1.93,5,.65-2.08,1-3.13,1.62-5.21a.69.69,0,0,1,.47-.52,1,1,0,0,1,.65,0,1.23,1.23,0,0,1,.53.4.58.58,0,0,1,.12.55C134.16,31.88,133.71,33.39,132.78,36.39Z" fill="#fff"/>
          <path d="M136.81,32.29a4.67,4.67,0,0,1,.28-1.76A4.52,4.52,0,0,1,138,29a4.58,4.58,0,0,1,1.35-1,4,4,0,0,1,3.35-.14,4.59,4.59,0,0,1,1.43.93,4.54,4.54,0,0,1,1,1.41,4.73,4.73,0,0,1,.16,3.49,4.62,4.62,0,0,1-.87,1.51A4.47,4.47,0,0,1,143,36.27a4.09,4.09,0,0,1-3.4.14,4.46,4.46,0,0,1-1.43-.95,4.7,4.7,0,0,1-1.38-3.17Zm1.81,0a2.62,2.62,0,0,0,.24,1,2.72,2.72,0,0,0,.58.83,2.68,2.68,0,0,0,.82.55,2.3,2.3,0,0,0,1.94-.08,2.69,2.69,0,0,0,.77-.62,2.74,2.74,0,0,0,.51-.87,2.67,2.67,0,0,0-.67-2.84,2.8,2.8,0,0,0-.82-.54,2.27,2.27,0,0,0-1.93.08,2.79,2.79,0,0,0-.77.6,2.61,2.61,0,0,0-.51.86A2.64,2.64,0,0,0,138.63,32.25Z" fill="#fff"/>
          <path d="M154.08,29.78a4.9,4.9,0,0,0-.87-.58,1.86,1.86,0,0,0-1-.22,2.19,2.19,0,0,0-1,.27,2.69,2.69,0,0,0-.76.63,2.74,2.74,0,0,0-.5.88,2.62,2.62,0,0,0-.14,1l.19,3.59a1,1,0,0,1-.26.69,1,1,0,0,1-.6.34,1,1,0,0,1-.66-.13,1,1,0,0,1-.42-.71c-.14-3-.22-4.57-.36-7.62a.75.75,0,0,1,.25-.69,1,1,0,0,1,.62-.2,1.28,1.28,0,0,1,.64.18.57.57,0,0,1,.31.48l0,.4a4.2,4.2,0,0,1,1.13-.72,3.94,3.94,0,0,1,1.33-.3,4.13,4.13,0,0,1,1.92.33,3.48,3.48,0,0,1,1.46,1.19.77.77,0,0,1,.11.58,1.13,1.13,0,0,1-.26.57.8.8,0,0,1-1.24,0Z" fill="#fff"/>
          <path d="M157.31,20.91a.77.77,0,0,1,.37-.65,1.19,1.19,0,0,1,.69-.16,1.21,1.21,0,0,1,.64.23.51.51,0,0,1,.23.52l.62,8.49c1.45-1.44,2.17-2.17,3.6-3.62a.75.75,0,0,1,.74-.07,1.31,1.31,0,0,1,.57.49,1.35,1.35,0,0,1,.23.68.5.5,0,0,1-.27.5l-2.15,2.07c1.26,1.79,1.89,2.68,3.16,4.46a.62.62,0,0,1,.06.58,1.39,1.39,0,0,1-.38.59,1.08,1.08,0,0,1-.63.29.75.75,0,0,1-.66-.32c-1.21-1.68-1.81-2.52-3-4.2l-1.08,1,.23,2.88a.75.75,0,0,1-.24.69,1,1,0,0,1-.63.21,1.31,1.31,0,0,1-.65-.17.57.57,0,0,1-.32-.47C158,29.32,157.75,26.52,157.31,20.91Z" fill="#fff"/>
          <path d="M175.21,27.1a.64.64,0,0,1,.06.64,1,1,0,0,1-.45.48,1.08,1.08,0,0,1-.63.14.53.53,0,0,1-.46-.38,1.84,1.84,0,0,0-.87-.67,3.24,3.24,0,0,0-.9-.21,1.92,1.92,0,0,0-1.19.31,1.17,1.17,0,0,0-.6.76.92.92,0,0,0,.12.64,1,1,0,0,0,.44.36,2.81,2.81,0,0,0,.69.19c.27,0,.56.08.86.1a11.43,11.43,0,0,1,1.29.2,3.71,3.71,0,0,1,1.14.43,2.44,2.44,0,0,1,.82.8,2.54,2.54,0,0,1,.33,1.34,2.14,2.14,0,0,1-.32,1.21,2.87,2.87,0,0,1-.87.87,3.94,3.94,0,0,1-1.21.5,5.16,5.16,0,0,1-1.36.15,5,5,0,0,1-1.2-.19,4.44,4.44,0,0,1-1.11-.48,3.74,3.74,0,0,1-.92-.79,3.06,3.06,0,0,1-.63-1.12,1,1,0,0,1,.12-.77,1.22,1.22,0,0,1,.52-.46.93.93,0,0,1,.62-.07.56.56,0,0,1,.41.42,2,2,0,0,0,1,1.37,3.07,3.07,0,0,0,1.38.31,2.68,2.68,0,0,0,1.19-.27c.34-.17.52-.38.53-.62a.84.84,0,0,0-.47-.9,4.32,4.32,0,0,0-1.27-.32L171,30.93a4.55,4.55,0,0,1-1.23-.33,2.4,2.4,0,0,1-1-.74,2.56,2.56,0,0,1-.46-1.39,2.43,2.43,0,0,1,.2-1.26,2.9,2.9,0,0,1,.74-1,3.19,3.19,0,0,1,1.11-.62,4.43,4.43,0,0,1,1.33-.22,4.69,4.69,0,0,1,1.88.39A3.78,3.78,0,0,1,175.21,27.1Z" fill="#fff"/>
        </g>
      </g>
    </g>
  </g>
</svg>
