<svg xmlns="http://www.w3.org/2000/svg" width="27.51" height="20.49" viewBox="0 0 27.51 20.49">
  <title>read</title>
  <g id="Layer_2" data-name="Layer 2">
    <g id="RC">
      <g>
        <path d="M11.85,3.86a.48.48,0,0,1-.59.46,16.68,16.68,0,0,0-7.44-.06.48.48,0,0,1-.58-.46h0a.48.48,0,0,1,.37-.47,16.73,16.73,0,0,1,7.89.06A.48.48,0,0,1,11.85,3.86Z" fill="#1d80c3"/>
        <path d="M11.85,6.63a.48.48,0,0,1-.59.46A16.73,16.73,0,0,0,3.82,7a.48.48,0,0,1-.58-.46h0a.48.48,0,0,1,.37-.47,16.77,16.77,0,0,1,7.89.06A.48.48,0,0,1,11.85,6.63Z" fill="#1d80c3"/>
        <path d="M11.85,9.39a.48.48,0,0,1-.59.46,16.68,16.68,0,0,0-7.44-.06.48.48,0,0,1-.58-.46h0a.48.48,0,0,1,.37-.47,16.73,16.73,0,0,1,7.89.06A.48.48,0,0,1,11.85,9.39Z" fill="#1d80c3"/>
        <path d="M11.85,12.16a.48.48,0,0,1-.59.46,16.73,16.73,0,0,0-7.44-.06.48.48,0,0,1-.58-.46h0a.48.48,0,0,1,.37-.47,16.77,16.77,0,0,1,7.89.06A.48.48,0,0,1,11.85,12.16Z" fill="#1d80c3"/>
        <path d="M11.85,14.92a.48.48,0,0,1-.59.46,16.68,16.68,0,0,0-7.44-.06.48.48,0,0,1-.58-.46h0a.48.48,0,0,1,.37-.47,16.73,16.73,0,0,1,7.89.06A.48.48,0,0,1,11.85,14.92Z" fill="#1d80c3"/>
        <path d="M24.66,3.86a.48.48,0,0,1-.59.46,16.68,16.68,0,0,0-7.44-.06A.48.48,0,0,1,16,3.8h0a.48.48,0,0,1,.37-.47,16.73,16.73,0,0,1,7.89.06A.48.48,0,0,1,24.66,3.86Z" fill="#1d80c3"/>
        <path d="M24.66,6.63a.48.48,0,0,1-.59.46A16.73,16.73,0,0,0,16.63,7,.48.48,0,0,1,16,6.57h0a.48.48,0,0,1,.37-.47,16.77,16.77,0,0,1,7.89.06A.48.48,0,0,1,24.66,6.63Z" fill="#1d80c3"/>
        <path d="M24.66,9.39a.48.48,0,0,1-.59.46,16.68,16.68,0,0,0-7.44-.06A.48.48,0,0,1,16,9.33h0a.48.48,0,0,1,.37-.47,16.73,16.73,0,0,1,7.89.06A.48.48,0,0,1,24.66,9.39Z" fill="#1d80c3"/>
        <path d="M24.66,12.16a.48.48,0,0,1-.59.46,16.73,16.73,0,0,0-7.44-.06A.48.48,0,0,1,16,12.1h0a.48.48,0,0,1,.37-.47,16.77,16.77,0,0,1,7.89.06A.48.48,0,0,1,24.66,12.16Z" fill="#1d80c3"/>
        <path d="M24.66,14.92a.48.48,0,0,1-.59.46,16.68,16.68,0,0,0-7.44-.06.48.48,0,0,1-.58-.46h0a.48.48,0,0,1,.37-.47,16.73,16.73,0,0,1,7.89.06A.48.48,0,0,1,24.66,14.92Z" fill="#1d80c3"/>
        <path d="M27.17,2.79l-.22-.14v-.5a1.11,1.11,0,0,0-.72-1,16.62,16.62,0,0,0-12.13.06.72.72,0,0,1-.52,0A16.92,16.92,0,0,0,7.43,0a16.93,16.93,0,0,0-6,1.12,1.12,1.12,0,0,0-.72,1,.73.73,0,0,1-.35.62l0,0A.74.74,0,0,0,0,3.42L.17,19.78a.73.73,0,0,0,.82.71c3-.38,10.29-.78,10.37-.52s.34.52,2,.52H14c1.66,0,1.91-.23,2-.52s8,.24,10.58.4a.73.73,0,0,0,.77-.72l.17-16.23A.73.73,0,0,0,27.17,2.79ZM13.38,17.42a.73.73,0,0,1-.95.69,16.71,16.71,0,0,0-5-.78,16.75,16.75,0,0,0-5,.78.73.73,0,0,1-.95-.69v-15A.72.72,0,0,1,2,1.74a16,16,0,0,1,5.48-1,16,16,0,0,1,5.48,1,.73.73,0,0,1,.47.68Zm12.81,0a.73.73,0,0,1-.95.69,16.47,16.47,0,0,0-10,0,.73.73,0,0,1-.95-.69v-15a.73.73,0,0,1,.47-.68,15.77,15.77,0,0,1,11,0,.73.73,0,0,1,.47.68Z" fill="#fff"/>
        <path d="M25.71,1.74a15.77,15.77,0,0,0-11,0,.73.73,0,0,0-.47.68v15a.73.73,0,0,0,.95.69,16.47,16.47,0,0,1,10,0,.73.73,0,0,0,.95-.69v-15A.73.73,0,0,0,25.71,1.74ZM24.07,15.38a16.68,16.68,0,0,0-7.44-.06.48.48,0,0,1-.58-.46h0a.48.48,0,0,1,.37-.47,16.73,16.73,0,0,1,7.89.06.48.48,0,1,1-.23.93Zm0-2.77a16.73,16.73,0,0,0-7.44-.06A.48.48,0,0,1,16,12.1h0a.48.48,0,0,1,.37-.47,16.77,16.77,0,0,1,7.89.06.48.48,0,1,1-.23.93Zm0-2.76a16.68,16.68,0,0,0-7.44-.06A.48.48,0,0,1,16,9.33h0a.48.48,0,0,1,.37-.47,16.73,16.73,0,0,1,7.89.06.48.48,0,1,1-.23.93Zm0-2.77A16.73,16.73,0,0,0,16.63,7,.48.48,0,0,1,16,6.57h0a.48.48,0,0,1,.37-.47,16.77,16.77,0,0,1,7.89.06.48.48,0,1,1-.23.93Zm0-2.76a16.68,16.68,0,0,0-7.44-.06A.48.48,0,0,1,16,3.8h0a.48.48,0,0,1,.37-.47,16.73,16.73,0,0,1,7.89.06.48.48,0,1,1-.23.93Z" fill="#41a3db"/>
        <path d="M12.9,1.74a16,16,0,0,0-5.48-1A16,16,0,0,0,2,1.74a.72.72,0,0,0-.48.68v15a.73.73,0,0,0,.95.69,16.75,16.75,0,0,1,5-.78,16.71,16.71,0,0,1,5,.78.73.73,0,0,0,.95-.69v-15A.73.73,0,0,0,12.9,1.74ZM11.26,15.38a16.68,16.68,0,0,0-7.44-.06.48.48,0,0,1-.58-.46h0a.48.48,0,0,1,.37-.47,16.73,16.73,0,0,1,7.89.06.48.48,0,0,1-.23.93Zm0-2.77a16.73,16.73,0,0,0-7.44-.06.48.48,0,0,1-.58-.46h0a.48.48,0,0,1,.37-.47,16.77,16.77,0,0,1,7.89.06.48.48,0,0,1-.23.93Zm0-2.76a16.68,16.68,0,0,0-7.44-.06.48.48,0,0,1-.58-.46h0a.48.48,0,0,1,.37-.47,16.73,16.73,0,0,1,7.89.06.48.48,0,0,1-.23.93Zm0-2.77A16.73,16.73,0,0,0,3.82,7a.48.48,0,0,1-.58-.46h0a.48.48,0,0,1,.37-.47,16.77,16.77,0,0,1,7.89.06.48.48,0,0,1-.23.93Zm0-2.76a16.68,16.68,0,0,0-7.44-.06.48.48,0,0,1-.58-.46h0a.48.48,0,0,1,.37-.47,16.73,16.73,0,0,1,7.89.06.48.48,0,0,1-.23.93Z" fill="#41a3db"/>
      </g>
    </g>
  </g>
</svg>
