<svg xmlns="http://www.w3.org/2000/svg" width="21.17" height="22.72" viewBox="0 0 21.17 22.72">
  <title>share</title>
  <g id="Layer_2" data-name="Layer 2">
    <g id="daily_challenge" data-name="daily challenge">
      <g>
        <path d="M17.19,14.84A3.94,3.94,0,0,0,14,16.54L7.77,13.06a4.58,4.58,0,0,0,.11-.89,4.26,4.26,0,0,0-.08-.84L14,7.82A3.94,3.94,0,1,0,17.19,1.6a4,4,0,0,0-4,4,4.41,4.41,0,0,0,.14,1.06L7.24,10.07A3.92,3.92,0,0,0,0,12.16a4,4,0,0,0,3.93,4,4,4,0,0,0,3.29-1.78l6.16,3.45a4.14,4.14,0,0,0-.14,1,3.93,3.93,0,1,0,4-4Z" fill="#3167af"/>
        <path d="M17.19,13.23A3.94,3.94,0,0,0,14,14.93L7.77,11.45a4.58,4.58,0,0,0,.11-.89,4.26,4.26,0,0,0-.08-.84L14,6.21A3.94,3.94,0,1,0,17.19,0a4,4,0,0,0-4,4A4.41,4.41,0,0,0,13.37,5L7.24,8.47A3.92,3.92,0,0,0,0,10.56a4,4,0,0,0,3.93,4,4,4,0,0,0,3.29-1.78l6.16,3.45a4.14,4.14,0,0,0-.14,1,3.93,3.93,0,1,0,4-4Z" fill="#fff"/>
      </g>
    </g>
  </g>
</svg>
