<svg xmlns="http://www.w3.org/2000/svg" width="267.92" height="55.26" viewBox="0 0 267.92 55.26">
  <title>Asset 11</title>
  <g id="Layer_2" data-name="Layer 2">
    <g id="RC">
      <g>
        <g id="ribbon">
          <path d="M241.59,43.07q0-15.31-.05-30.61c0-2.24,0-2.24-2-2a.79.79,0,0,0-.7-.66L225.06,7.26,207.87,4.09c.44,0,.89-.11,1.33-.11h58.62c-1.8,2.11-3.38,4-5,5.84-3.59,4.14-7.16,8.3-10.81,12.39-.87,1-.78,1.53.05,2.47,5,5.64,9.87,11.35,14.8,17,.26.3.49.63,1,1.36Z" fill="#232323" opacity="0.89"/>
          <path d="M27.83,10.18c-1.44-.24-1.34.8-1.34,1.8q0,14.44,0,28.88A4.36,4.36,0,0,1,26.3,43a65.26,65.26,0,0,0-7.56-.13c-5.5,0-11,0-16.5,0H0c1.53-1.8,2.78-3.29,4.06-4.76C8,33.55,11.91,29,15.89,24.5c.77-.87.83-1.39,0-2.31-4.82-5.47-9.57-11-14.34-16.51C1.15,5.2.76,4.72.36,4.24c.33-.53.76-.33,1.12-.33H57.88c.33,0,.67.05,1,.08-.14.1-.27.25-.42.28C51.09,5.63,43.7,6.94,36.34,8.36,33.5,8.91,30.58,9.11,27.83,10.18Z" fill="#232323" opacity="0.89"/>
          <path d="M241.59,39.28q0-15.31-.05-30.61c0-2.24,0-2.24-2-2a.79.79,0,0,0-.7-.66L225.06,3.47,207.87.3c.44,0,.89-.11,1.33-.11h58.62c-1.8,2.11-3.38,4-5,5.84-3.59,4.14-7.16,8.3-10.81,12.39-.87,1-.78,1.53.05,2.47,5,5.64,9.87,11.35,14.8,17,.26.3.49.63,1,1.36Z" fill="#c03246"/>
          <path d="M27.83,6.39c-1.44-.24-1.34.8-1.34,1.8q0,14.44,0,28.88a4.36,4.36,0,0,1-.19,2.12,65.26,65.26,0,0,0-7.56-.13c-5.5,0-11,0-16.5,0H0c1.53-1.8,2.78-3.29,4.06-4.76C8,29.75,11.91,25.2,15.89,20.7c.77-.87.83-1.39,0-2.31C11.08,12.93,6.33,7.4,1.56,1.88,1.15,1.41.76.92.36.45.69-.08,1.12.12,1.47.12H57.88c.33,0,.67.05,1,.08-.14.1-.27.25-.42.28C51.09,1.84,43.7,3.14,36.34,4.57,33.5,5.12,30.58,5.32,27.83,6.39Z" fill="#c03246"/>
          <path d="M207.87.3l17.19,3.17L238.79,6a.79.79,0,0,1,.7.66c-10.61,2.53-21.22,5-32,6.81,0-3.77,0-7.54.1-11.3C207.64,1.55,207.38.86,207.87.3Z" fill="#881728"/>
          <path d="M27.83,6.39c2.75-1.07,5.66-1.27,8.5-1.82C43.7,3.14,51.09,1.84,58.46.48c.15,0,.28-.19.42-.28,1-.41,1.42-.21,1.4,1.05-.05,4,0,7.92,0,11.88C49.39,11.28,38.59,8.94,27.83,6.39Z" fill="#881728"/>
          <path d="M26.29,48.87c.05-3.67,0-7.34,0-11a4.36,4.36,0,0,0,.19-2.12q0-14.44,0-28.88c0-1-.1-2,1.34-1.8C38.59,7.61,49.39,9.95,60.28,11.8a157.4,157.4,0,0,0,15.83,2.3,496.29,496.29,0,0,0,50.71,2.57c15.48.13,31,0,46.41-.89a287.59,287.59,0,0,0,34.29-3.63c10.75-1.76,21.36-4.28,32-6.81,2-.25,2-.25,2,2q0,15.31.05,30.61c0,3.67,0,7.35,0,11,0,.83-.14,1.15-1,1.34C117.87,61.79,26.27,49.85,26.29,48.87Z" fill="#a41e2c"/>
          <path d="M26.29,45.07c.05-3.67,0-7.34,0-11a4.36,4.36,0,0,0,.19-2.12q0-14.44,0-28.88c0-1-.1-2,1.34-1.8C38.59,3.81,49.39,6.15,60.28,8a157.4,157.4,0,0,0,15.83,2.3,496.29,496.29,0,0,0,50.71,2.57c15.48.13,31,0,46.41-.89a287.59,287.59,0,0,0,34.29-3.63c10.75-1.76,21.36-4.28,32-6.81,2-.25,2-.25,2,2q0,15.31.05,30.61c0,3.67,0,7.35,0,11,0,.83-.14,1.15-1,1.34C117.87,58,26.27,46.05,26.29,45.07Z" fill="#cb202e"/>
          <path d="M241.44,4.44h.1q0-.45,0-.9c0-2.24,0-2.24-2-2-10.61,2.53-21.22,5-32,6.81A287.59,287.59,0,0,1,173.23,12c-15.46.84-30.93,1-46.41.89A496.27,496.27,0,0,1,76.11,10.3,157.41,157.41,0,0,1,60.28,8C49.39,6.15,38.59,3.81,27.83,1.26c-1.44-.24-1.34.8-1.34,1.8q0,.82,0,1.63h0c.07-.62.32-1.07,1.32-.91,10.76,2.55,21.56,4.89,32.45,6.74a157.41,157.41,0,0,0,15.83,2.3,496.27,496.27,0,0,0,50.71,2.57c15.48.13,31,0,46.41-.89a287.59,287.59,0,0,0,34.29-3.63c10.75-1.76,21.36-4.28,32-6.81C240.8,3.91,241.27,3.86,241.44,4.44Z" fill="#cd4d5c"/>
        </g>
        <g>
          <path d="M63.57,23a.85.85,0,0,1,.56-.65,1.38,1.38,0,0,1,.84,0,1.64,1.64,0,0,1,.71.43.6.6,0,0,1,.18.65c-.51,5.79-.76,8.69-1.26,14.48,3.27.25,4.9.37,8.17.58a.8.8,0,0,1,.65.54,1.35,1.35,0,0,1,0,.82,1.51,1.51,0,0,1-.48.7.69.69,0,0,1-.69.16c-3.29-.22-4.93-.34-8.22-.59a4.45,4.45,0,0,1-.61-.1,1.71,1.71,0,0,1-.57-.24,1.2,1.2,0,0,1-.41-.48,1.57,1.57,0,0,1-.1-.83C62.82,32.32,63.07,29.23,63.57,23Z" fill="#fff"/>
          <path d="M84.36,38.69a1,1,0,0,1,.77-.27,1.52,1.52,0,0,1,.79.27,1.14,1.14,0,0,1,.46.62.78.78,0,0,1-.24.76,5.56,5.56,0,0,1-2,1.41,5.83,5.83,0,0,1-2.2.44,5.72,5.72,0,0,1-2.13-.41A5.37,5.37,0,0,1,78,40.34a5.15,5.15,0,0,1-1.19-1.84,5.35,5.35,0,0,1-.32-2.36,5.11,5.11,0,0,1,.55-2,5.26,5.26,0,0,1,1.24-1.58,5.51,5.51,0,0,1,1.74-1,5.32,5.32,0,0,1,2-.31,5.4,5.4,0,0,1,1.74.35,5,5,0,0,1,1.46.86,4.35,4.35,0,0,1,1,1.3,4.48,4.48,0,0,1,.49,1.67A1.93,1.93,0,0,1,86.4,37a2.63,2.63,0,0,1-2.08.44L78.68,37a3.23,3.23,0,0,0,.68,1.63,3.14,3.14,0,0,0,1.37,1,3.11,3.11,0,0,0,1.77.11A3.78,3.78,0,0,0,84.36,38.69Zm-2.46-5.24a2.87,2.87,0,0,0-1.58.37,3.21,3.21,0,0,0-1.15,1.11l5.47.43a2.18,2.18,0,0,0-.39-.92,2.23,2.23,0,0,0-.65-.57,2.68,2.68,0,0,0-.81-.3A6.18,6.18,0,0,0,81.89,33.45Z" fill="#fff"/>
          <path d="M97.64,41.72a5.09,5.09,0,0,1-1.46.69,5.14,5.14,0,0,1-3.67-.35,5.32,5.32,0,0,1-2.64-3,5.29,5.29,0,0,1,1.44-5.66,5.5,5.5,0,0,1,1.72-1,4.92,4.92,0,0,1,2-.32,4.85,4.85,0,0,1,1.53.33,5.3,5.3,0,0,1,1.33.75,1,1,0,0,1,.57-.66,1.53,1.53,0,0,1,1.59.26.57.57,0,0,1,.21.63l-.42,8.81a.85.85,0,0,1-.38.76,1.23,1.23,0,0,1-.77.16,1.61,1.61,0,0,1-.75-.28.66.66,0,0,1-.32-.59C97.64,42,97.64,41.91,97.64,41.72Zm-5.88-4.55a2.93,2.93,0,0,0,.17,1.18,3.15,3.15,0,0,0,.6,1,3.23,3.23,0,0,0,.92.72,2.86,2.86,0,0,0,2.33.12,3.23,3.23,0,0,0,1-.63,3.15,3.15,0,0,0,.7-.95,3,3,0,0,0,.11-2.34,3,3,0,0,0-.61-1,3.39,3.39,0,0,0-.92-.7,2.84,2.84,0,0,0-2.32-.12,3.39,3.39,0,0,0-1,.61,3,3,0,0,0-.71.93A3,3,0,0,0,91.76,37.17Z" fill="#fff"/>
          <path d="M110.93,42.23a5.09,5.09,0,0,1-1.45.72,5.14,5.14,0,0,1-3.67-.28,5.32,5.32,0,0,1-2.69-3A5.29,5.29,0,0,1,104.45,34a5.5,5.5,0,0,1,1.7-1.08,4.92,4.92,0,0,1,2-.35,4.85,4.85,0,0,1,1.53.3,5.3,5.3,0,0,1,1.34.73s0-.21,0-.59,0-.84.06-1.41,0-1.17.07-1.82.05-1.24.07-1.8l0-1.39,0-.59a1.13,1.13,0,0,1,.37-.77,1.23,1.23,0,0,1,.73-.33,1.15,1.15,0,0,1,.76.21,1.14,1.14,0,0,1,.43.86c-.19,6.64-.28,10-.47,16.6a.85.85,0,0,1-.37.77,1.24,1.24,0,0,1-.77.17,1.61,1.61,0,0,1-.76-.27.66.66,0,0,1-.33-.58Zm-6-4.45a2.93,2.93,0,0,0,.2,1.18,3.15,3.15,0,0,0,.62,1,3.23,3.23,0,0,0,.93.71,2.86,2.86,0,0,0,2.34.08,3.23,3.23,0,0,0,1-.64,3.15,3.15,0,0,0,.69-1,3,3,0,0,0,.07-2.34,3,3,0,0,0-.63-1,3.39,3.39,0,0,0-.93-.69,2.84,2.84,0,0,0-2.32-.08,3.39,3.39,0,0,0-1,.62,3,3,0,0,0-.69.94A3,3,0,0,0,105,37.78Z" fill="#fff"/>
          <path d="M124.28,40.22a1,1,0,0,1,.75-.31,1.52,1.52,0,0,1,.81.23,1.14,1.14,0,0,1,.49.59.78.78,0,0,1-.2.77A5.56,5.56,0,0,1,124.21,43a5.83,5.83,0,0,1-2.17.56,5.71,5.71,0,0,1-2.14-.3A5.37,5.37,0,0,1,118,42.2a5.15,5.15,0,0,1-1.28-1.77,5.35,5.35,0,0,1-.44-2.34,5.11,5.11,0,0,1,.45-2,5.26,5.26,0,0,1,1.15-1.65,5.5,5.5,0,0,1,1.68-1.11,5.31,5.31,0,0,1,2-.42,5.4,5.4,0,0,1,1.76.26,5,5,0,0,1,1.5.78A4.35,4.35,0,0,1,126,35.2a4.48,4.48,0,0,1,.58,1.65,1.93,1.93,0,0,1-.33,1.56,2.63,2.63,0,0,1-2.05.55l-5.65-.12a3.23,3.23,0,0,0,.76,1.6,3.14,3.14,0,0,0,1.42.95,3.11,3.11,0,0,0,1.77,0A3.78,3.78,0,0,0,124.28,40.22Zm-2.74-5.11a2.87,2.87,0,0,0-1.55.46,3.21,3.21,0,0,0-1.09,1.17l5.48.14a2.18,2.18,0,0,0-.44-.9,2.23,2.23,0,0,0-.68-.54,2.67,2.67,0,0,0-.83-.26A6.16,6.16,0,0,0,121.55,35.11Z" fill="#fff"/>
          <path d="M137,36.3a5.86,5.86,0,0,0-1-.73,2.29,2.29,0,0,0-1.18-.32,2.73,2.73,0,0,0-1.16.25,3.26,3.26,0,0,0-1,.67,3.19,3.19,0,0,0-.66,1,3,3,0,0,0-.24,1.17c0,1.66,0,2.5,0,4.16a1.12,1.12,0,0,1-.36.78,1.26,1.26,0,0,1-.74.35,1.2,1.2,0,0,1-.78-.19,1.13,1.13,0,0,1-.46-.85c0-3.53,0-5.29.07-8.82a.85.85,0,0,1,.34-.77,1.21,1.21,0,0,1,.76-.19,1.58,1.58,0,0,1,.76.25.66.66,0,0,1,.34.57l0,.47a5.09,5.09,0,0,1,1.41-.76,4.91,4.91,0,0,1,1.62-.27,5.12,5.12,0,0,1,2.29.5A4.13,4.13,0,0,1,138.79,35a.87.87,0,0,1,.09.67,1.3,1.3,0,0,1-.35.65,1,1,0,0,1-1.49,0Z" fill="#fff"/>
          <path d="M144,42.94a.66.66,0,0,1-.34.58,1.61,1.61,0,0,1-.76.26,1.24,1.24,0,0,1-.77-.18.85.85,0,0,1-.35-.77c-.09-6.64-.14-10-.22-16.61a1.14,1.14,0,0,1,.45-.85,1.15,1.15,0,0,1,.76-.2,1.22,1.22,0,0,1,.72.34,1.11,1.11,0,0,1,.36.77c0,.74,0,1.42,0,2s0,1.16,0,1.8,0,1.25,0,1.82,0,1,0,1.41,0,.57,0,.59a5.3,5.3,0,0,1,1.35-.71,4.86,4.86,0,0,1,1.54-.28,4.92,4.92,0,0,1,2,.38,5.5,5.5,0,0,1,1.69,1.1,5.28,5.28,0,0,1,1.26,5.7A5.32,5.32,0,0,1,149.13,43a5.14,5.14,0,0,1-3.68.23,5.09,5.09,0,0,1-1.44-.74ZM150,38.11a3,3,0,0,0-.27-1.17,3,3,0,0,0-.68-1,3.39,3.39,0,0,0-1-.64,2.84,2.84,0,0,0-2.32,0,3.39,3.39,0,0,0-.94.67,3,3,0,0,0-.64,1,3,3,0,0,0,0,2.34,3.15,3.15,0,0,0,.67,1,3.23,3.23,0,0,0,1,.66,2.86,2.86,0,0,0,2.34,0,3.23,3.23,0,0,0,.94-.69,3.15,3.15,0,0,0,.64-1A2.93,2.93,0,0,0,150,38.11Z" fill="#fff"/>
          <path d="M154.75,38a5.3,5.3,0,0,1,1.41-3.75,5.5,5.5,0,0,1,1.62-1.2,5,5,0,0,1,4-.15,5.5,5.5,0,0,1,1.71,1.08,5.28,5.28,0,0,1,1.36,5.68,5.32,5.32,0,0,1-2.69,3,5.1,5.1,0,0,1-4.08.15A5.32,5.32,0,0,1,155.21,40,5.18,5.18,0,0,1,154.75,38Zm2.18,0a2.93,2.93,0,0,0,.28,1.16,3.15,3.15,0,0,0,.69,1,3.23,3.23,0,0,0,1,.64,2.86,2.86,0,0,0,2.34-.08,3.23,3.23,0,0,0,.93-.71,3.14,3.14,0,0,0,.62-1,3,3,0,0,0-.09-2.34,3,3,0,0,0-.69-.94,3.39,3.39,0,0,0-1-.62,2.84,2.84,0,0,0-2.32.08,3.39,3.39,0,0,0-.93.69,3,3,0,0,0-.62,1A3,3,0,0,0,156.93,37.92Z" fill="#fff"/>
          <path d="M176.5,41.3a5.09,5.09,0,0,1-1.38.84,5.14,5.14,0,0,1-3.69,0,5.32,5.32,0,0,1-2.94-2.72,5.29,5.29,0,0,1,.84-5.77,5.5,5.5,0,0,1,1.6-1.22,4.92,4.92,0,0,1,2-.53,4.85,4.85,0,0,1,1.55.16,5.3,5.3,0,0,1,1.4.61,1,1,0,0,1,.49-.72,1.53,1.53,0,0,1,1.61.1.57.57,0,0,1,.27.6c.2,3.52.3,5.28.51,8.8a.85.85,0,0,1-.3.8,1.24,1.24,0,0,1-.75.24,1.61,1.61,0,0,1-.78-.2.66.66,0,0,1-.38-.55Zm-6.33-3.91a2.93,2.93,0,0,0,.3,1.16,3.15,3.15,0,0,0,.71.95,3.23,3.23,0,0,0,1,.62,2.86,2.86,0,0,0,2.33-.13,3.23,3.23,0,0,0,.92-.73,3.15,3.15,0,0,0,.6-1,3,3,0,0,0-.13-2.34,3,3,0,0,0-.71-.93,3.39,3.39,0,0,0-1-.61,2.84,2.84,0,0,0-2.32.12,3.39,3.39,0,0,0-.92.71,3,3,0,0,0-.61,1A3,3,0,0,0,170.18,37.38Z" fill="#fff"/>
          <path d="M188.72,34.23a5.87,5.87,0,0,0-1-.66,2.3,2.3,0,0,0-1.2-.24,2.73,2.73,0,0,0-1.14.33,3.25,3.25,0,0,0-.9.74,3.19,3.19,0,0,0-.59,1,3,3,0,0,0-.16,1.19l.28,4.15a1.12,1.12,0,0,1-.31.8,1.26,1.26,0,0,1-.71.4,1.2,1.2,0,0,1-.79-.14,1.13,1.13,0,0,1-.52-.82l-.54-8.8a.85.85,0,0,1,.29-.8,1.21,1.21,0,0,1,.74-.24,1.58,1.58,0,0,1,.77.2.66.66,0,0,1,.38.55l.06.47a5.09,5.09,0,0,1,1.35-.86,4.91,4.91,0,0,1,1.59-.38,5.13,5.13,0,0,1,2.32.34,4.13,4.13,0,0,1,1.77,1.35.87.87,0,0,1,.14.66,1.3,1.3,0,0,1-.31.67,1,1,0,0,1-1.49.05Z" fill="#fff"/>
          <path d="M201.67,39.42a5.09,5.09,0,0,1-1.35.89,5.14,5.14,0,0,1-3.68.16,5.32,5.32,0,0,1-3-2.62,5.29,5.29,0,0,1,.65-5.8,5.51,5.51,0,0,1,1.56-1.28,4.92,4.92,0,0,1,2-.6,4.86,4.86,0,0,1,1.56.11,5.3,5.3,0,0,1,1.42.56l0-.58q0-.55-.11-1.4t-.15-1.81q-.07-1-.15-1.8l-.13-1.39-.05-.58a1.13,1.13,0,0,1,.28-.81,1.23,1.23,0,0,1,.68-.42,1.15,1.15,0,0,1,.78.12,1.14,1.14,0,0,1,.53.8l1.53,16.54a.85.85,0,0,1-.27.81,1.24,1.24,0,0,1-.75.26,1.62,1.62,0,0,1-.79-.18.66.66,0,0,1-.4-.54Zm-6.46-3.7a2.93,2.93,0,0,0,.34,1.15,3.15,3.15,0,0,0,.74.92,3.23,3.23,0,0,0,1,.59,2.86,2.86,0,0,0,2.33-.2,3.23,3.23,0,0,0,.9-.76,3.15,3.15,0,0,0,.57-1,3,3,0,0,0-.21-2.33,3,3,0,0,0-.74-.9,3.4,3.4,0,0,0-1-.57,2.84,2.84,0,0,0-2.31.2,3.4,3.4,0,0,0-.89.74,3,3,0,0,0-.57,1A3,3,0,0,0,195.21,35.72Z" fill="#fff"/>
        </g>
      </g>
    </g>
  </g>
</svg>
