<svg xmlns="http://www.w3.org/2000/svg" width="30.83" height="41.97" viewBox="0 0 30.83 41.97">
  <title>badge_1</title>
  <g id="Layer_2" data-name="Layer 2">
    <g id="RC">
      <g>
        <g>
          <g>
            <path d="M11.66,41.87,7.92,38a.32.32,0,0,0-.28-.09l-5.33.91A.32.32,0,0,1,2,38.39L5.74,26.88a.32.32,0,0,1,.4-.2l9.64,3.17a.32.32,0,0,1,.2.4L12.19,41.75A.32.32,0,0,1,11.66,41.87Z" fill="#cb202e"/>
            <path d="M18.35,41.87,22.1,38a.32.32,0,0,1,.28-.09l5.33.91a.32.32,0,0,0,.35-.41L24.27,26.88a.32.32,0,0,0-.4-.2l-9.64,3.17a.32.32,0,0,0-.2.4l3.79,11.51A.32.32,0,0,0,18.35,41.87Z" fill="#cb202e"/>
          </g>
          <circle cx="15.71" cy="17.12" r="15.13" fill="#3167af"/>
          <circle cx="15.13" cy="15.13" r="15.13" fill="#41a3db"/>
        </g>
        <g>
          <g>
            <path d="M10.63,16.7a1.09,1.09,0,0,1,0,.23.6.6,0,0,1-.06.16.24.24,0,0,1-.09.09l-.11,0H8v2.62a.16.16,0,0,1,0,.1.23.23,0,0,1-.09.07l-.16,0-.25,0-.25,0L7,20A.23.23,0,0,1,7,19.94a.16.16,0,0,1,0-.1V17.22H4.57a.21.21,0,0,1-.11,0,.25.25,0,0,1-.08-.09.6.6,0,0,1-.06-.16,1.09,1.09,0,0,1,0-.23,1,1,0,0,1,0-.23.61.61,0,0,1,.06-.16.25.25,0,0,1,.08-.09.2.2,0,0,1,.1,0H6.93V13.57a.2.2,0,0,1,0-.1A.23.23,0,0,1,7,13.38l.17,0,.25,0,.25,0,.16,0a.23.23,0,0,1,.09.08.2.2,0,0,1,0,.1v2.62h2.37a.2.2,0,0,1,.1,0,.28.28,0,0,1,.09.09.48.48,0,0,1,.06.16A1.3,1.3,0,0,1,10.63,16.7Z" fill="#253f93"/>
            <path d="M17.82,20.36a1,1,0,0,1,0,.23.47.47,0,0,1-.06.15.22.22,0,0,1-.08.08l-.1,0H12.69l-.09,0a.26.26,0,0,1-.08-.08.44.44,0,0,1-.06-.15,1,1,0,0,1,0-.23,1,1,0,0,1,0-.22A.61.61,0,0,1,12.5,20a.25.25,0,0,1,.08-.09.18.18,0,0,1,.1,0h1.95V12.77l-1.8,1.07a.77.77,0,0,1-.22.09.15.15,0,0,1-.13,0,.26.26,0,0,1-.07-.15,1.64,1.64,0,0,1,0-.27,1.79,1.79,0,0,1,0-.21.75.75,0,0,1,0-.14.32.32,0,0,1,.06-.1l.1-.09,2.15-1.38.07,0,.11,0,.15,0h.5l.18,0a.16.16,0,0,1,.09.06.17.17,0,0,1,0,.08v8.2h1.69a.2.2,0,0,1,.11,0,.25.25,0,0,1,.08.09.55.55,0,0,1,0,.15A1.23,1.23,0,0,1,17.82,20.36Z" fill="#253f93"/>
            <path d="M25.59,16.17a10.44,10.44,0,0,1-.17,2,4.48,4.48,0,0,1-.56,1.52,2.74,2.74,0,0,1-1,1,3.66,3.66,0,0,1-3,0,2.43,2.43,0,0,1-1-.92,4.31,4.31,0,0,1-.52-1.5,12,12,0,0,1-.16-2,10.21,10.21,0,0,1,.17-2,4.58,4.58,0,0,1,.56-1.53,2.73,2.73,0,0,1,1-1,3.67,3.67,0,0,1,3,0,2.43,2.43,0,0,1,1,.92,4.33,4.33,0,0,1,.52,1.5A12,12,0,0,1,25.59,16.17Zm-1.27.09q0-.7-.05-1.25a7.48,7.48,0,0,0-.15-1,3.23,3.23,0,0,0-.25-.73,1.75,1.75,0,0,0-.37-.5A1.34,1.34,0,0,0,23,12.5a2,2,0,0,0-.62-.09,1.61,1.61,0,0,0-1,.29,1.94,1.94,0,0,0-.6.79,4.17,4.17,0,0,0-.3,1.18,12.34,12.34,0,0,0-.08,1.46,12.38,12.38,0,0,0,.11,1.78,3.93,3.93,0,0,0,.34,1.19,1.55,1.55,0,0,0,.6.67,1.75,1.75,0,0,0,.88.21,1.82,1.82,0,0,0,.71-.13,1.49,1.49,0,0,0,.53-.37,2.06,2.06,0,0,0,.36-.58,4.1,4.1,0,0,0,.23-.75,6.4,6.4,0,0,0,.12-.89C24.31,16.94,24.32,16.6,24.32,16.26Z" fill="#253f93"/>
          </g>
          <g>
            <g>
              <path d="M10.26,16.33a1.09,1.09,0,0,1,0,.23.6.6,0,0,1-.06.16.24.24,0,0,1-.09.09l-.11,0H7.62v2.62a.16.16,0,0,1,0,.1.23.23,0,0,1-.09.07l-.16,0-.25,0-.25,0-.17,0a.23.23,0,0,1-.09-.07.16.16,0,0,1,0-.1V16.85H4.19a.21.21,0,0,1-.11,0A.25.25,0,0,1,4,16.73a.6.6,0,0,1-.06-.16,1.09,1.09,0,0,1,0-.23,1,1,0,0,1,0-.23A.61.61,0,0,1,4,15.94a.25.25,0,0,1,.08-.09.2.2,0,0,1,.1,0H6.56V13.19a.2.2,0,0,1,0-.1A.23.23,0,0,1,6.67,13l.17,0,.25,0,.25,0,.16,0a.23.23,0,0,1,.09.08.2.2,0,0,1,0,.1v2.62H10a.2.2,0,0,1,.1,0,.28.28,0,0,1,.09.09.48.48,0,0,1,.06.16A1.3,1.3,0,0,1,10.26,16.33Z" fill="#252a53"/>
              <path d="M17.45,20a1,1,0,0,1,0,.23.47.47,0,0,1-.06.15.22.22,0,0,1-.08.08l-.1,0H12.31l-.09,0a.26.26,0,0,1-.08-.08.44.44,0,0,1-.06-.15,1,1,0,0,1,0-.23,1,1,0,0,1,0-.22.61.61,0,0,1,.05-.15.25.25,0,0,1,.08-.09.18.18,0,0,1,.1,0h1.95V12.39l-1.8,1.07a.77.77,0,0,1-.22.09.15.15,0,0,1-.13,0,.26.26,0,0,1-.07-.15,1.64,1.64,0,0,1,0-.27,1.79,1.79,0,0,1,0-.21.75.75,0,0,1,0-.14.32.32,0,0,1,.06-.1l.1-.09,2.15-1.38.07,0,.11,0,.15,0h.5l.18,0a.16.16,0,0,1,.09.06.17.17,0,0,1,0,.08v8.2h1.69a.2.2,0,0,1,.11,0,.25.25,0,0,1,.08.09.55.55,0,0,1,0,.15A1.23,1.23,0,0,1,17.45,20Z" fill="#252a53"/>
              <path d="M25.22,15.8a10.44,10.44,0,0,1-.17,2,4.48,4.48,0,0,1-.56,1.52,2.74,2.74,0,0,1-1,1,3.66,3.66,0,0,1-3,0,2.43,2.43,0,0,1-1-.92,4.31,4.31,0,0,1-.52-1.5,12,12,0,0,1-.16-2,10.21,10.21,0,0,1,.17-2,4.58,4.58,0,0,1,.56-1.53,2.73,2.73,0,0,1,1-1,3.67,3.67,0,0,1,3,0,2.43,2.43,0,0,1,1,.92,4.33,4.33,0,0,1,.52,1.5A12,12,0,0,1,25.22,15.8Zm-1.27.09q0-.7-.05-1.25a7.48,7.48,0,0,0-.15-1,3.23,3.23,0,0,0-.25-.73,1.75,1.75,0,0,0-.37-.5,1.34,1.34,0,0,0-.49-.29A2,2,0,0,0,22,12a1.61,1.61,0,0,0-1,.29,1.94,1.94,0,0,0-.6.79,4.17,4.17,0,0,0-.3,1.18A12.34,12.34,0,0,0,20,15.75a12.38,12.38,0,0,0,.11,1.78,3.93,3.93,0,0,0,.34,1.19,1.55,1.55,0,0,0,.6.67,1.75,1.75,0,0,0,.88.21,1.82,1.82,0,0,0,.71-.13,1.49,1.49,0,0,0,.53-.37,2.06,2.06,0,0,0,.36-.58,4.1,4.1,0,0,0,.23-.75,6.4,6.4,0,0,0,.12-.89C23.94,16.56,23.95,16.23,23.95,15.88Z" fill="#252a53"/>
            </g>
            <g>
              <path d="M10.26,16.33a1.09,1.09,0,0,1,0,.23.6.6,0,0,1-.06.16.24.24,0,0,1-.09.09l-.11,0H7.62v2.62a.16.16,0,0,1,0,.1.23.23,0,0,1-.09.07l-.16,0-.25,0-.25,0-.17,0a.23.23,0,0,1-.09-.07.16.16,0,0,1,0-.1V16.85H4.19a.21.21,0,0,1-.11,0A.25.25,0,0,1,4,16.73a.6.6,0,0,1-.06-.16,1.09,1.09,0,0,1,0-.23,1,1,0,0,1,0-.23A.61.61,0,0,1,4,15.94a.25.25,0,0,1,.08-.09.2.2,0,0,1,.1,0H6.56V13.19a.2.2,0,0,1,0-.1A.23.23,0,0,1,6.67,13l.17,0,.25,0,.25,0,.16,0a.23.23,0,0,1,.09.08.2.2,0,0,1,0,.1v2.62H10a.2.2,0,0,1,.1,0,.28.28,0,0,1,.09.09.48.48,0,0,1,.06.16A1.3,1.3,0,0,1,10.26,16.33Z" fill="#252a53"/>
              <path d="M17.45,20a1,1,0,0,1,0,.23.47.47,0,0,1-.06.15.22.22,0,0,1-.08.08l-.1,0H12.31l-.09,0a.26.26,0,0,1-.08-.08.44.44,0,0,1-.06-.15,1,1,0,0,1,0-.23,1,1,0,0,1,0-.22.61.61,0,0,1,.05-.15.25.25,0,0,1,.08-.09.18.18,0,0,1,.1,0h1.95V12.39l-1.8,1.07a.77.77,0,0,1-.22.09.15.15,0,0,1-.13,0,.26.26,0,0,1-.07-.15,1.64,1.64,0,0,1,0-.27,1.79,1.79,0,0,1,0-.21.75.75,0,0,1,0-.14.32.32,0,0,1,.06-.1l.1-.09,2.15-1.38.07,0,.11,0,.15,0h.5l.18,0a.16.16,0,0,1,.09.06.17.17,0,0,1,0,.08v8.2h1.69a.2.2,0,0,1,.11,0,.25.25,0,0,1,.08.09.55.55,0,0,1,0,.15A1.23,1.23,0,0,1,17.45,20Z" fill="#252a53"/>
              <path d="M25.22,15.8a10.44,10.44,0,0,1-.17,2,4.48,4.48,0,0,1-.56,1.52,2.74,2.74,0,0,1-1,1,3.66,3.66,0,0,1-3,0,2.43,2.43,0,0,1-1-.92,4.31,4.31,0,0,1-.52-1.5,12,12,0,0,1-.16-2,10.21,10.21,0,0,1,.17-2,4.58,4.58,0,0,1,.56-1.53,2.73,2.73,0,0,1,1-1,3.67,3.67,0,0,1,3,0,2.43,2.43,0,0,1,1,.92,4.33,4.33,0,0,1,.52,1.5A12,12,0,0,1,25.22,15.8Zm-1.27.09q0-.7-.05-1.25a7.48,7.48,0,0,0-.15-1,3.23,3.23,0,0,0-.25-.73,1.75,1.75,0,0,0-.37-.5,1.34,1.34,0,0,0-.49-.29A2,2,0,0,0,22,12a1.61,1.61,0,0,0-1,.29,1.94,1.94,0,0,0-.6.79,4.17,4.17,0,0,0-.3,1.18A12.34,12.34,0,0,0,20,15.75a12.38,12.38,0,0,0,.11,1.78,3.93,3.93,0,0,0,.34,1.19,1.55,1.55,0,0,0,.6.67,1.75,1.75,0,0,0,.88.21,1.82,1.82,0,0,0,.71-.13,1.49,1.49,0,0,0,.53-.37,2.06,2.06,0,0,0,.36-.58,4.1,4.1,0,0,0,.23-.75,6.4,6.4,0,0,0,.12-.89C23.94,16.56,23.95,16.23,23.95,15.88Z" fill="#252a53"/>
            </g>
            <g>
              <path d="M10.26,16.33a1.09,1.09,0,0,1,0,.23.6.6,0,0,1-.06.16.24.24,0,0,1-.09.09l-.11,0H7.62v2.62a.16.16,0,0,1,0,.1.23.23,0,0,1-.09.07l-.16,0-.25,0-.25,0-.17,0a.23.23,0,0,1-.09-.07.16.16,0,0,1,0-.1V16.85H4.19a.21.21,0,0,1-.11,0A.25.25,0,0,1,4,16.73a.6.6,0,0,1-.06-.16,1.09,1.09,0,0,1,0-.23,1,1,0,0,1,0-.23A.61.61,0,0,1,4,15.94a.25.25,0,0,1,.08-.09.2.2,0,0,1,.1,0H6.56V13.19a.2.2,0,0,1,0-.1A.23.23,0,0,1,6.67,13l.17,0,.25,0,.25,0,.16,0a.23.23,0,0,1,.09.08.2.2,0,0,1,0,.1v2.62H10a.2.2,0,0,1,.1,0,.28.28,0,0,1,.09.09.48.48,0,0,1,.06.16A1.3,1.3,0,0,1,10.26,16.33Z" fill="#252a53"/>
              <path d="M17.45,20a1,1,0,0,1,0,.23.47.47,0,0,1-.06.15.22.22,0,0,1-.08.08l-.1,0H12.31l-.09,0a.26.26,0,0,1-.08-.08.44.44,0,0,1-.06-.15,1,1,0,0,1,0-.23,1,1,0,0,1,0-.22.61.61,0,0,1,.05-.15.25.25,0,0,1,.08-.09.18.18,0,0,1,.1,0h1.95V12.39l-1.8,1.07a.77.77,0,0,1-.22.09.15.15,0,0,1-.13,0,.26.26,0,0,1-.07-.15,1.64,1.64,0,0,1,0-.27,1.79,1.79,0,0,1,0-.21.75.75,0,0,1,0-.14.32.32,0,0,1,.06-.1l.1-.09,2.15-1.38.07,0,.11,0,.15,0h.5l.18,0a.16.16,0,0,1,.09.06.17.17,0,0,1,0,.08v8.2h1.69a.2.2,0,0,1,.11,0,.25.25,0,0,1,.08.09.55.55,0,0,1,0,.15A1.23,1.23,0,0,1,17.45,20Z" fill="#252a53"/>
              <path d="M25.22,15.8a10.44,10.44,0,0,1-.17,2,4.48,4.48,0,0,1-.56,1.52,2.74,2.74,0,0,1-1,1,3.66,3.66,0,0,1-3,0,2.43,2.43,0,0,1-1-.92,4.31,4.31,0,0,1-.52-1.5,12,12,0,0,1-.16-2,10.21,10.21,0,0,1,.17-2,4.58,4.58,0,0,1,.56-1.53,2.73,2.73,0,0,1,1-1,3.67,3.67,0,0,1,3,0,2.43,2.43,0,0,1,1,.92,4.33,4.33,0,0,1,.52,1.5A12,12,0,0,1,25.22,15.8Zm-1.27.09q0-.7-.05-1.25a7.48,7.48,0,0,0-.15-1,3.23,3.23,0,0,0-.25-.73,1.75,1.75,0,0,0-.37-.5,1.34,1.34,0,0,0-.49-.29A2,2,0,0,0,22,12a1.61,1.61,0,0,0-1,.29,1.94,1.94,0,0,0-.6.79,4.17,4.17,0,0,0-.3,1.18A12.34,12.34,0,0,0,20,15.75a12.38,12.38,0,0,0,.11,1.78,3.93,3.93,0,0,0,.34,1.19,1.55,1.55,0,0,0,.6.67,1.75,1.75,0,0,0,.88.21,1.82,1.82,0,0,0,.71-.13,1.49,1.49,0,0,0,.53-.37,2.06,2.06,0,0,0,.36-.58,4.1,4.1,0,0,0,.23-.75,6.4,6.4,0,0,0,.12-.89C23.94,16.56,23.95,16.23,23.95,15.88Z" fill="#252a53"/>
            </g>
          </g>
          <g>
            <g>
              <path d="M11,17.08a1.09,1.09,0,0,1,0,.23.6.6,0,0,1-.06.16.24.24,0,0,1-.09.09l-.11,0H8.37v2.62a.16.16,0,0,1,0,.1.23.23,0,0,1-.09.07l-.16,0-.25,0-.25,0-.17,0a.23.23,0,0,1-.09-.07.16.16,0,0,1,0-.1V17.6H4.94a.21.21,0,0,1-.11,0,.25.25,0,0,1-.08-.09.6.6,0,0,1-.06-.16,1.09,1.09,0,0,1,0-.23,1,1,0,0,1,0-.23.61.61,0,0,1,.06-.16.25.25,0,0,1,.08-.09.2.2,0,0,1,.1,0H7.3V13.94a.2.2,0,0,1,0-.1.23.23,0,0,1,.09-.08l.17,0,.25,0,.25,0,.16,0a.23.23,0,0,1,.09.08.2.2,0,0,1,0,.1v2.62h2.37a.2.2,0,0,1,.1,0,.28.28,0,0,1,.09.09.48.48,0,0,1,.06.16A1.3,1.3,0,0,1,11,17.08Z" fill="#9bd7de"/>
              <path d="M18.19,20.74a1,1,0,0,1,0,.23.47.47,0,0,1-.06.15.22.22,0,0,1-.08.08l-.1,0H13.06l-.09,0a.26.26,0,0,1-.08-.08.44.44,0,0,1-.06-.15,1,1,0,0,1,0-.23,1,1,0,0,1,0-.22.61.61,0,0,1,.05-.15.25.25,0,0,1,.08-.09.18.18,0,0,1,.1,0H15V13.14l-1.8,1.07a.77.77,0,0,1-.22.09.15.15,0,0,1-.13,0,.26.26,0,0,1-.07-.15,1.64,1.64,0,0,1,0-.27,1.79,1.79,0,0,1,0-.21.75.75,0,0,1,0-.14.32.32,0,0,1,.06-.1l.1-.09,2.15-1.38.07,0,.11,0,.15,0H16l.18,0a.16.16,0,0,1,.09.06.17.17,0,0,1,0,.08v8.2h1.69a.2.2,0,0,1,.11,0,.25.25,0,0,1,.08.09.55.55,0,0,1,0,.15A1.23,1.23,0,0,1,18.19,20.74Z" fill="#9bd7de"/>
              <path d="M26,16.54a10.44,10.44,0,0,1-.17,2A4.48,4.48,0,0,1,25.23,20a2.74,2.74,0,0,1-1,1,3.66,3.66,0,0,1-3,0,2.43,2.43,0,0,1-1-.92,4.31,4.31,0,0,1-.52-1.5,12,12,0,0,1-.16-2,10.21,10.21,0,0,1,.17-2,4.58,4.58,0,0,1,.56-1.53,2.73,2.73,0,0,1,1-1,3.67,3.67,0,0,1,3,0,2.43,2.43,0,0,1,1,.92,4.33,4.33,0,0,1,.52,1.5A12,12,0,0,1,26,16.54Zm-1.27.09q0-.7-.05-1.25a7.48,7.48,0,0,0-.15-1,3.23,3.23,0,0,0-.25-.73,1.75,1.75,0,0,0-.37-.5,1.34,1.34,0,0,0-.49-.29,2,2,0,0,0-.62-.09,1.61,1.61,0,0,0-1,.29,1.94,1.94,0,0,0-.6.79,4.17,4.17,0,0,0-.3,1.18,12.34,12.34,0,0,0-.08,1.46,12.38,12.38,0,0,0,.11,1.78,3.93,3.93,0,0,0,.34,1.19,1.55,1.55,0,0,0,.6.67,1.75,1.75,0,0,0,.88.21,1.82,1.82,0,0,0,.71-.13,1.49,1.49,0,0,0,.53-.37,2.06,2.06,0,0,0,.36-.58,4.1,4.1,0,0,0,.23-.75,6.4,6.4,0,0,0,.12-.89C24.68,17.31,24.69,17,24.69,16.63Z" fill="#9bd7de"/>
            </g>
            <g>
              <path d="M11,17.08a1.09,1.09,0,0,1,0,.23.6.6,0,0,1-.06.16.24.24,0,0,1-.09.09l-.11,0H8.37v2.62a.16.16,0,0,1,0,.1.23.23,0,0,1-.09.07l-.16,0-.25,0-.25,0-.17,0a.23.23,0,0,1-.09-.07.16.16,0,0,1,0-.1V17.6H4.94a.21.21,0,0,1-.11,0,.25.25,0,0,1-.08-.09.6.6,0,0,1-.06-.16,1.09,1.09,0,0,1,0-.23,1,1,0,0,1,0-.23.61.61,0,0,1,.06-.16.25.25,0,0,1,.08-.09.2.2,0,0,1,.1,0H7.3V13.94a.2.2,0,0,1,0-.1.23.23,0,0,1,.09-.08l.17,0,.25,0,.25,0,.16,0a.23.23,0,0,1,.09.08.2.2,0,0,1,0,.1v2.62h2.37a.2.2,0,0,1,.1,0,.28.28,0,0,1,.09.09.48.48,0,0,1,.06.16A1.3,1.3,0,0,1,11,17.08Z" fill="#9bd7de"/>
              <path d="M18.19,20.74a1,1,0,0,1,0,.23.47.47,0,0,1-.06.15.22.22,0,0,1-.08.08l-.1,0H13.06l-.09,0a.26.26,0,0,1-.08-.08.44.44,0,0,1-.06-.15,1,1,0,0,1,0-.23,1,1,0,0,1,0-.22.61.61,0,0,1,.05-.15.25.25,0,0,1,.08-.09.18.18,0,0,1,.1,0H15V13.14l-1.8,1.07a.77.77,0,0,1-.22.09.15.15,0,0,1-.13,0,.26.26,0,0,1-.07-.15,1.64,1.64,0,0,1,0-.27,1.79,1.79,0,0,1,0-.21.75.75,0,0,1,0-.14.32.32,0,0,1,.06-.1l.1-.09,2.15-1.38.07,0,.11,0,.15,0H16l.18,0a.16.16,0,0,1,.09.06.17.17,0,0,1,0,.08v8.2h1.69a.2.2,0,0,1,.11,0,.25.25,0,0,1,.08.09.55.55,0,0,1,0,.15A1.23,1.23,0,0,1,18.19,20.74Z" fill="#9bd7de"/>
              <path d="M26,16.54a10.44,10.44,0,0,1-.17,2A4.48,4.48,0,0,1,25.23,20a2.74,2.74,0,0,1-1,1,3.66,3.66,0,0,1-3,0,2.43,2.43,0,0,1-1-.92,4.31,4.31,0,0,1-.52-1.5,12,12,0,0,1-.16-2,10.21,10.21,0,0,1,.17-2,4.58,4.58,0,0,1,.56-1.53,2.73,2.73,0,0,1,1-1,3.67,3.67,0,0,1,3,0,2.43,2.43,0,0,1,1,.92,4.33,4.33,0,0,1,.52,1.5A12,12,0,0,1,26,16.54Zm-1.27.09q0-.7-.05-1.25a7.48,7.48,0,0,0-.15-1,3.23,3.23,0,0,0-.25-.73,1.75,1.75,0,0,0-.37-.5,1.34,1.34,0,0,0-.49-.29,2,2,0,0,0-.62-.09,1.61,1.61,0,0,0-1,.29,1.94,1.94,0,0,0-.6.79,4.17,4.17,0,0,0-.3,1.18,12.34,12.34,0,0,0-.08,1.46,12.38,12.38,0,0,0,.11,1.78,3.93,3.93,0,0,0,.34,1.19,1.55,1.55,0,0,0,.6.67,1.75,1.75,0,0,0,.88.21,1.82,1.82,0,0,0,.71-.13,1.49,1.49,0,0,0,.53-.37,2.06,2.06,0,0,0,.36-.58,4.1,4.1,0,0,0,.23-.75,6.4,6.4,0,0,0,.12-.89C24.68,17.31,24.69,17,24.69,16.63Z" fill="#9bd7de"/>
            </g>
            <g>
              <path d="M11,17.08a1.09,1.09,0,0,1,0,.23.6.6,0,0,1-.06.16.24.24,0,0,1-.09.09l-.11,0H8.37v2.62a.16.16,0,0,1,0,.1.23.23,0,0,1-.09.07l-.16,0-.25,0-.25,0-.17,0a.23.23,0,0,1-.09-.07.16.16,0,0,1,0-.1V17.6H4.94a.21.21,0,0,1-.11,0,.25.25,0,0,1-.08-.09.6.6,0,0,1-.06-.16,1.09,1.09,0,0,1,0-.23,1,1,0,0,1,0-.23.61.61,0,0,1,.06-.16.25.25,0,0,1,.08-.09.2.2,0,0,1,.1,0H7.3V13.94a.2.2,0,0,1,0-.1.23.23,0,0,1,.09-.08l.17,0,.25,0,.25,0,.16,0a.23.23,0,0,1,.09.08.2.2,0,0,1,0,.1v2.62h2.37a.2.2,0,0,1,.1,0,.28.28,0,0,1,.09.09.48.48,0,0,1,.06.16A1.3,1.3,0,0,1,11,17.08Z" fill="#9bd7de"/>
              <path d="M18.19,20.74a1,1,0,0,1,0,.23.47.47,0,0,1-.06.15.22.22,0,0,1-.08.08l-.1,0H13.06l-.09,0a.26.26,0,0,1-.08-.08.44.44,0,0,1-.06-.15,1,1,0,0,1,0-.23,1,1,0,0,1,0-.22.61.61,0,0,1,.05-.15.25.25,0,0,1,.08-.09.18.18,0,0,1,.1,0H15V13.14l-1.8,1.07a.77.77,0,0,1-.22.09.15.15,0,0,1-.13,0,.26.26,0,0,1-.07-.15,1.64,1.64,0,0,1,0-.27,1.79,1.79,0,0,1,0-.21.75.75,0,0,1,0-.14.32.32,0,0,1,.06-.1l.1-.09,2.15-1.38.07,0,.11,0,.15,0H16l.18,0a.16.16,0,0,1,.09.06.17.17,0,0,1,0,.08v8.2h1.69a.2.2,0,0,1,.11,0,.25.25,0,0,1,.08.09.55.55,0,0,1,0,.15A1.23,1.23,0,0,1,18.19,20.74Z" fill="#9bd7de"/>
              <path d="M26,16.54a10.44,10.44,0,0,1-.17,2A4.48,4.48,0,0,1,25.23,20a2.74,2.74,0,0,1-1,1,3.66,3.66,0,0,1-3,0,2.43,2.43,0,0,1-1-.92,4.31,4.31,0,0,1-.52-1.5,12,12,0,0,1-.16-2,10.21,10.21,0,0,1,.17-2,4.58,4.58,0,0,1,.56-1.53,2.73,2.73,0,0,1,1-1,3.67,3.67,0,0,1,3,0,2.43,2.43,0,0,1,1,.92,4.33,4.33,0,0,1,.52,1.5A12,12,0,0,1,26,16.54Zm-1.27.09q0-.7-.05-1.25a7.48,7.48,0,0,0-.15-1,3.23,3.23,0,0,0-.25-.73,1.75,1.75,0,0,0-.37-.5,1.34,1.34,0,0,0-.49-.29,2,2,0,0,0-.62-.09,1.61,1.61,0,0,0-1,.29,1.94,1.94,0,0,0-.6.79,4.17,4.17,0,0,0-.3,1.18,12.34,12.34,0,0,0-.08,1.46,12.38,12.38,0,0,0,.11,1.78,3.93,3.93,0,0,0,.34,1.19,1.55,1.55,0,0,0,.6.67,1.75,1.75,0,0,0,.88.21,1.82,1.82,0,0,0,.71-.13,1.49,1.49,0,0,0,.53-.37,2.06,2.06,0,0,0,.36-.58,4.1,4.1,0,0,0,.23-.75,6.4,6.4,0,0,0,.12-.89C24.68,17.31,24.69,17,24.69,16.63Z" fill="#9bd7de"/>
            </g>
          </g>
          <g>
            <g>
              <path d="M10.63,16.7a1.09,1.09,0,0,1,0,.23.6.6,0,0,1-.06.16.24.24,0,0,1-.09.09l-.11,0H8v2.62a.16.16,0,0,1,0,.1.23.23,0,0,1-.09.07l-.16,0-.25,0-.25,0L7,20A.23.23,0,0,1,7,19.94a.16.16,0,0,1,0-.1V17.22H4.57a.21.21,0,0,1-.11,0,.25.25,0,0,1-.08-.09.6.6,0,0,1-.06-.16,1.09,1.09,0,0,1,0-.23,1,1,0,0,1,0-.23.61.61,0,0,1,.06-.16.25.25,0,0,1,.08-.09.2.2,0,0,1,.1,0H6.93V13.57a.2.2,0,0,1,0-.1A.23.23,0,0,1,7,13.38l.17,0,.25,0,.25,0,.16,0a.23.23,0,0,1,.09.08.2.2,0,0,1,0,.1v2.62h2.37a.2.2,0,0,1,.1,0,.28.28,0,0,1,.09.09.48.48,0,0,1,.06.16A1.3,1.3,0,0,1,10.63,16.7Z" fill="#224099"/>
              <path d="M17.82,20.36a1,1,0,0,1,0,.23.47.47,0,0,1-.06.15.22.22,0,0,1-.08.08l-.1,0H12.69l-.09,0a.26.26,0,0,1-.08-.08.44.44,0,0,1-.06-.15,1,1,0,0,1,0-.23,1,1,0,0,1,0-.22A.61.61,0,0,1,12.5,20a.25.25,0,0,1,.08-.09.18.18,0,0,1,.1,0h1.95V12.77l-1.8,1.07a.77.77,0,0,1-.22.09.15.15,0,0,1-.13,0,.26.26,0,0,1-.07-.15,1.64,1.64,0,0,1,0-.27,1.79,1.79,0,0,1,0-.21.75.75,0,0,1,0-.14.32.32,0,0,1,.06-.1l.1-.09,2.15-1.38.07,0,.11,0,.15,0h.5l.18,0a.16.16,0,0,1,.09.06.17.17,0,0,1,0,.08v8.2h1.69a.2.2,0,0,1,.11,0,.25.25,0,0,1,.08.09.55.55,0,0,1,0,.15A1.23,1.23,0,0,1,17.82,20.36Z" fill="#224099"/>
              <path d="M25.59,16.17a10.44,10.44,0,0,1-.17,2,4.48,4.48,0,0,1-.56,1.52,2.74,2.74,0,0,1-1,1,3.66,3.66,0,0,1-3,0,2.43,2.43,0,0,1-1-.92,4.31,4.31,0,0,1-.52-1.5,12,12,0,0,1-.16-2,10.21,10.21,0,0,1,.17-2,4.58,4.58,0,0,1,.56-1.53,2.73,2.73,0,0,1,1-1,3.67,3.67,0,0,1,3,0,2.43,2.43,0,0,1,1,.92,4.33,4.33,0,0,1,.52,1.5A12,12,0,0,1,25.59,16.17Zm-1.27.09q0-.7-.05-1.25a7.48,7.48,0,0,0-.15-1,3.23,3.23,0,0,0-.25-.73,1.75,1.75,0,0,0-.37-.5A1.34,1.34,0,0,0,23,12.5a2,2,0,0,0-.62-.09,1.61,1.61,0,0,0-1,.29,1.94,1.94,0,0,0-.6.79,4.17,4.17,0,0,0-.3,1.18,12.34,12.34,0,0,0-.08,1.46,12.38,12.38,0,0,0,.11,1.78,3.93,3.93,0,0,0,.34,1.19,1.55,1.55,0,0,0,.6.67,1.75,1.75,0,0,0,.88.21,1.82,1.82,0,0,0,.71-.13,1.49,1.49,0,0,0,.53-.37,2.06,2.06,0,0,0,.36-.58,4.1,4.1,0,0,0,.23-.75,6.4,6.4,0,0,0,.12-.89C24.31,16.94,24.32,16.6,24.32,16.26Z" fill="#224099"/>
            </g>
            <g>
              <path d="M10.63,16.7a1.09,1.09,0,0,1,0,.23.6.6,0,0,1-.06.16.24.24,0,0,1-.09.09l-.11,0H8v2.62a.16.16,0,0,1,0,.1.23.23,0,0,1-.09.07l-.16,0-.25,0-.25,0L7,20A.23.23,0,0,1,7,19.94a.16.16,0,0,1,0-.1V17.22H4.57a.21.21,0,0,1-.11,0,.25.25,0,0,1-.08-.09.6.6,0,0,1-.06-.16,1.09,1.09,0,0,1,0-.23,1,1,0,0,1,0-.23.61.61,0,0,1,.06-.16.25.25,0,0,1,.08-.09.2.2,0,0,1,.1,0H6.93V13.57a.2.2,0,0,1,0-.1A.23.23,0,0,1,7,13.38l.17,0,.25,0,.25,0,.16,0a.23.23,0,0,1,.09.08.2.2,0,0,1,0,.1v2.62h2.37a.2.2,0,0,1,.1,0,.28.28,0,0,1,.09.09.48.48,0,0,1,.06.16A1.3,1.3,0,0,1,10.63,16.7Z" fill="#224099"/>
              <path d="M17.82,20.36a1,1,0,0,1,0,.23.47.47,0,0,1-.06.15.22.22,0,0,1-.08.08l-.1,0H12.69l-.09,0a.26.26,0,0,1-.08-.08.44.44,0,0,1-.06-.15,1,1,0,0,1,0-.23,1,1,0,0,1,0-.22A.61.61,0,0,1,12.5,20a.25.25,0,0,1,.08-.09.18.18,0,0,1,.1,0h1.95V12.77l-1.8,1.07a.77.77,0,0,1-.22.09.15.15,0,0,1-.13,0,.26.26,0,0,1-.07-.15,1.64,1.64,0,0,1,0-.27,1.79,1.79,0,0,1,0-.21.75.75,0,0,1,0-.14.32.32,0,0,1,.06-.1l.1-.09,2.15-1.38.07,0,.11,0,.15,0h.5l.18,0a.16.16,0,0,1,.09.06.17.17,0,0,1,0,.08v8.2h1.69a.2.2,0,0,1,.11,0,.25.25,0,0,1,.08.09.55.55,0,0,1,0,.15A1.23,1.23,0,0,1,17.82,20.36Z" fill="#224099"/>
              <path d="M25.59,16.17a10.44,10.44,0,0,1-.17,2,4.48,4.48,0,0,1-.56,1.52,2.74,2.74,0,0,1-1,1,3.66,3.66,0,0,1-3,0,2.43,2.43,0,0,1-1-.92,4.31,4.31,0,0,1-.52-1.5,12,12,0,0,1-.16-2,10.21,10.21,0,0,1,.17-2,4.58,4.58,0,0,1,.56-1.53,2.73,2.73,0,0,1,1-1,3.67,3.67,0,0,1,3,0,2.43,2.43,0,0,1,1,.92,4.33,4.33,0,0,1,.52,1.5A12,12,0,0,1,25.59,16.17Zm-1.27.09q0-.7-.05-1.25a7.48,7.48,0,0,0-.15-1,3.23,3.23,0,0,0-.25-.73,1.75,1.75,0,0,0-.37-.5A1.34,1.34,0,0,0,23,12.5a2,2,0,0,0-.62-.09,1.61,1.61,0,0,0-1,.29,1.94,1.94,0,0,0-.6.79,4.17,4.17,0,0,0-.3,1.18,12.34,12.34,0,0,0-.08,1.46,12.38,12.38,0,0,0,.11,1.78,3.93,3.93,0,0,0,.34,1.19,1.55,1.55,0,0,0,.6.67,1.75,1.75,0,0,0,.88.21,1.82,1.82,0,0,0,.71-.13,1.49,1.49,0,0,0,.53-.37,2.06,2.06,0,0,0,.36-.58,4.1,4.1,0,0,0,.23-.75,6.4,6.4,0,0,0,.12-.89C24.31,16.94,24.32,16.6,24.32,16.26Z" fill="#224099"/>
            </g>
            <g>
              <path d="M10.63,16.7a1.09,1.09,0,0,1,0,.23.6.6,0,0,1-.06.16.24.24,0,0,1-.09.09l-.11,0H8v2.62a.16.16,0,0,1,0,.1.23.23,0,0,1-.09.07l-.16,0-.25,0-.25,0L7,20A.23.23,0,0,1,7,19.94a.16.16,0,0,1,0-.1V17.22H4.57a.21.21,0,0,1-.11,0,.25.25,0,0,1-.08-.09.6.6,0,0,1-.06-.16,1.09,1.09,0,0,1,0-.23,1,1,0,0,1,0-.23.61.61,0,0,1,.06-.16.25.25,0,0,1,.08-.09.2.2,0,0,1,.1,0H6.93V13.57a.2.2,0,0,1,0-.1A.23.23,0,0,1,7,13.38l.17,0,.25,0,.25,0,.16,0a.23.23,0,0,1,.09.08.2.2,0,0,1,0,.1v2.62h2.37a.2.2,0,0,1,.1,0,.28.28,0,0,1,.09.09.48.48,0,0,1,.06.16A1.3,1.3,0,0,1,10.63,16.7Z" fill="#224099"/>
              <path d="M17.82,20.36a1,1,0,0,1,0,.23.47.47,0,0,1-.06.15.22.22,0,0,1-.08.08l-.1,0H12.69l-.09,0a.26.26,0,0,1-.08-.08.44.44,0,0,1-.06-.15,1,1,0,0,1,0-.23,1,1,0,0,1,0-.22A.61.61,0,0,1,12.5,20a.25.25,0,0,1,.08-.09.18.18,0,0,1,.1,0h1.95V12.77l-1.8,1.07a.77.77,0,0,1-.22.09.15.15,0,0,1-.13,0,.26.26,0,0,1-.07-.15,1.64,1.64,0,0,1,0-.27,1.79,1.79,0,0,1,0-.21.75.75,0,0,1,0-.14.32.32,0,0,1,.06-.1l.1-.09,2.15-1.38.07,0,.11,0,.15,0h.5l.18,0a.16.16,0,0,1,.09.06.17.17,0,0,1,0,.08v8.2h1.69a.2.2,0,0,1,.11,0,.25.25,0,0,1,.08.09.55.55,0,0,1,0,.15A1.23,1.23,0,0,1,17.82,20.36Z" fill="#224099"/>
              <path d="M25.59,16.17a10.44,10.44,0,0,1-.17,2,4.48,4.48,0,0,1-.56,1.52,2.74,2.74,0,0,1-1,1,3.66,3.66,0,0,1-3,0,2.43,2.43,0,0,1-1-.92,4.31,4.31,0,0,1-.52-1.5,12,12,0,0,1-.16-2,10.21,10.21,0,0,1,.17-2,4.58,4.58,0,0,1,.56-1.53,2.73,2.73,0,0,1,1-1,3.67,3.67,0,0,1,3,0,2.43,2.43,0,0,1,1,.92,4.33,4.33,0,0,1,.52,1.5A12,12,0,0,1,25.59,16.17Zm-1.27.09q0-.7-.05-1.25a7.48,7.48,0,0,0-.15-1,3.23,3.23,0,0,0-.25-.73,1.75,1.75,0,0,0-.37-.5A1.34,1.34,0,0,0,23,12.5a2,2,0,0,0-.62-.09,1.61,1.61,0,0,0-1,.29,1.94,1.94,0,0,0-.6.79,4.17,4.17,0,0,0-.3,1.18,12.34,12.34,0,0,0-.08,1.46,12.38,12.38,0,0,0,.11,1.78,3.93,3.93,0,0,0,.34,1.19,1.55,1.55,0,0,0,.6.67,1.75,1.75,0,0,0,.88.21,1.82,1.82,0,0,0,.71-.13,1.49,1.49,0,0,0,.53-.37,2.06,2.06,0,0,0,.36-.58,4.1,4.1,0,0,0,.23-.75,6.4,6.4,0,0,0,.12-.89C24.31,16.94,24.32,16.6,24.32,16.26Z" fill="#224099"/>
            </g>
          </g>
        </g>
      </g>
    </g>
  </g>
</svg>
