<svg xmlns="http://www.w3.org/2000/svg" width="56" height="56" viewBox="0 0 56 56">
  <title>badge</title>
  <g id="Layer_2" data-name="Layer 2">
    <g id="daily_challenge" data-name="daily challenge">
      <g>
        <circle cx="28" cy="28" r="28" fill="#fff"/>
        <g>
          <g>
            <path d="M24.25,49.83l-3.75-3.9a.32.32,0,0,0-.28-.09l-5.33.91a.32.32,0,0,1-.35-.41l3.79-11.51a.32.32,0,0,1,.4-.2l9.64,3.17a.32.32,0,0,1,.2.4L24.78,49.71A.32.32,0,0,1,24.25,49.83Z" fill="#cb202e"/>
            <path d="M30.93,49.83l3.75-3.9a.32.32,0,0,1,.28-.09l5.33.91a.32.32,0,0,0,.35-.41L36.86,34.83a.32.32,0,0,0-.4-.2L26.82,37.8a.32.32,0,0,0-.2.4l3.79,11.51A.32.32,0,0,0,30.93,49.83Z" fill="#cb202e"/>
          </g>
          <circle cx="28.29" cy="25.07" r="15.13" fill="#3167af"/>
          <circle cx="27.71" cy="23.08" r="15.13" fill="#41a3db"/>
        </g>
        <g>
          <g>
            <path d="M26.3,29.2a1.43,1.43,0,0,1,0,.31.69.69,0,0,1-.08.2.3.3,0,0,1-.11.11.26.26,0,0,1-.13,0H19.44a.23.23,0,0,1-.12,0,.34.34,0,0,1-.11-.11.56.56,0,0,1-.08-.2,1.37,1.37,0,0,1,0-.31,1.3,1.3,0,0,1,0-.3.81.81,0,0,1,.07-.21.32.32,0,0,1,.11-.12.24.24,0,0,1,.14,0H22V19.05l-2.41,1.43a1.12,1.12,0,0,1-.29.12.2.2,0,0,1-.18,0,.35.35,0,0,1-.09-.21A2.33,2.33,0,0,1,19,20a2.25,2.25,0,0,1,0-.28.84.84,0,0,1,0-.19.43.43,0,0,1,.08-.13l.14-.12,2.87-1.84.1,0,.14,0,.2,0h.29l.38,0,.24.05a.22.22,0,0,1,.12.09.22.22,0,0,1,0,.11V28.53H26a.26.26,0,0,1,.14,0,.31.31,0,0,1,.11.13.72.72,0,0,1,.07.21A1.53,1.53,0,0,1,26.3,29.2Z" fill="#253f93"/>
            <path d="M36.68,23.6a14,14,0,0,1-.23,2.62,6,6,0,0,1-.75,2,3.67,3.67,0,0,1-1.37,1.32,4.9,4.9,0,0,1-4.07,0A3.24,3.24,0,0,1,29,28.39a5.78,5.78,0,0,1-.7-2,16.08,16.08,0,0,1-.21-2.73A13.71,13.71,0,0,1,28.29,21,6.12,6.12,0,0,1,29,19a3.65,3.65,0,0,1,1.37-1.32,4.9,4.9,0,0,1,4.07,0,3.26,3.26,0,0,1,1.3,1.23,5.77,5.77,0,0,1,.7,2A16.09,16.09,0,0,1,36.68,23.6Zm-1.7.12q0-.93-.07-1.68a9.92,9.92,0,0,0-.2-1.31,4.33,4.33,0,0,0-.34-1,2.38,2.38,0,0,0-.5-.67,1.79,1.79,0,0,0-.66-.38,2.69,2.69,0,0,0-.83-.12,2.15,2.15,0,0,0-1.33.38,2.6,2.6,0,0,0-.8,1.06,5.57,5.57,0,0,0-.4,1.58,16.85,16.85,0,0,0-.11,1.95,16.69,16.69,0,0,0,.14,2.38,5.27,5.27,0,0,0,.46,1.59,2.07,2.07,0,0,0,.8.89,2.32,2.32,0,0,0,1.18.28,2.39,2.39,0,0,0,.95-.17A2,2,0,0,0,34,28a2.74,2.74,0,0,0,.49-.78,5.41,5.41,0,0,0,.31-1A8.62,8.62,0,0,0,34.94,25C35,24.62,35,24.18,35,23.71Z" fill="#253f93"/>
          </g>
          <g>
            <g>
              <path d="M25.8,28.7a1.43,1.43,0,0,1,0,.31.69.69,0,0,1-.08.2.3.3,0,0,1-.11.11.26.26,0,0,1-.13,0H18.94a.23.23,0,0,1-.12,0,.34.34,0,0,1-.11-.11.56.56,0,0,1-.08-.2,1.37,1.37,0,0,1,0-.31,1.3,1.3,0,0,1,0-.3.81.81,0,0,1,.07-.21.32.32,0,0,1,.11-.12.24.24,0,0,1,.14,0h2.6V18.55L19.13,20a1.12,1.12,0,0,1-.29.12.2.2,0,0,1-.18,0,.35.35,0,0,1-.09-.21,2.33,2.33,0,0,1,0-.37,2.25,2.25,0,0,1,0-.28.84.84,0,0,1,0-.19.43.43,0,0,1,.08-.13l.14-.12,2.87-1.84.1,0,.14,0,.2,0h.29l.38,0,.24.05a.22.22,0,0,1,.12.09.22.22,0,0,1,0,.11V28h2.25a.26.26,0,0,1,.14,0,.31.31,0,0,1,.11.13.72.72,0,0,1,.07.21A1.53,1.53,0,0,1,25.8,28.7Z" fill="#252a53"/>
              <path d="M36.18,23.1A14,14,0,0,1,36,25.72a6,6,0,0,1-.75,2,3.67,3.67,0,0,1-1.37,1.32,4.9,4.9,0,0,1-4.07,0,3.24,3.24,0,0,1-1.29-1.23,5.78,5.78,0,0,1-.7-2,16.08,16.08,0,0,1-.21-2.73,13.71,13.71,0,0,1,.23-2.62,6.12,6.12,0,0,1,.75-2,3.65,3.65,0,0,1,1.37-1.32,4.9,4.9,0,0,1,4.07,0,3.26,3.26,0,0,1,1.3,1.23,5.77,5.77,0,0,1,.7,2A16.09,16.09,0,0,1,36.18,23.1Zm-1.7.12q0-.93-.07-1.68a9.92,9.92,0,0,0-.2-1.31,4.33,4.33,0,0,0-.34-1,2.38,2.38,0,0,0-.5-.67,1.79,1.79,0,0,0-.66-.38,2.69,2.69,0,0,0-.83-.12,2.15,2.15,0,0,0-1.33.38,2.6,2.6,0,0,0-.8,1.06,5.57,5.57,0,0,0-.4,1.58A16.85,16.85,0,0,0,29.25,23a16.69,16.69,0,0,0,.14,2.38A5.27,5.27,0,0,0,29.86,27a2.07,2.07,0,0,0,.8.89,2.32,2.32,0,0,0,1.18.28,2.39,2.39,0,0,0,.95-.17,2,2,0,0,0,.7-.49,2.74,2.74,0,0,0,.49-.78,5.41,5.41,0,0,0,.31-1,8.62,8.62,0,0,0,.16-1.19C34.47,24.12,34.48,23.68,34.48,23.21Z" fill="#252a53"/>
            </g>
            <g>
              <path d="M25.8,28.7a1.43,1.43,0,0,1,0,.31.69.69,0,0,1-.08.2.3.3,0,0,1-.11.11.26.26,0,0,1-.13,0H18.94a.23.23,0,0,1-.12,0,.34.34,0,0,1-.11-.11.56.56,0,0,1-.08-.2,1.37,1.37,0,0,1,0-.31,1.3,1.3,0,0,1,0-.3.81.81,0,0,1,.07-.21.32.32,0,0,1,.11-.12.24.24,0,0,1,.14,0h2.6V18.55L19.13,20a1.12,1.12,0,0,1-.29.12.2.2,0,0,1-.18,0,.35.35,0,0,1-.09-.21,2.33,2.33,0,0,1,0-.37,2.25,2.25,0,0,1,0-.28.84.84,0,0,1,0-.19.43.43,0,0,1,.08-.13l.14-.12,2.87-1.84.1,0,.14,0,.2,0h.29l.38,0,.24.05a.22.22,0,0,1,.12.09.22.22,0,0,1,0,.11V28h2.25a.26.26,0,0,1,.14,0,.31.31,0,0,1,.11.13.72.72,0,0,1,.07.21A1.53,1.53,0,0,1,25.8,28.7Z" fill="#252a53"/>
              <path d="M36.18,23.1A14,14,0,0,1,36,25.72a6,6,0,0,1-.75,2,3.67,3.67,0,0,1-1.37,1.32,4.9,4.9,0,0,1-4.07,0,3.24,3.24,0,0,1-1.29-1.23,5.78,5.78,0,0,1-.7-2,16.08,16.08,0,0,1-.21-2.73,13.71,13.71,0,0,1,.23-2.62,6.12,6.12,0,0,1,.75-2,3.65,3.65,0,0,1,1.37-1.32,4.9,4.9,0,0,1,4.07,0,3.26,3.26,0,0,1,1.3,1.23,5.77,5.77,0,0,1,.7,2A16.09,16.09,0,0,1,36.18,23.1Zm-1.7.12q0-.93-.07-1.68a9.92,9.92,0,0,0-.2-1.31,4.33,4.33,0,0,0-.34-1,2.38,2.38,0,0,0-.5-.67,1.79,1.79,0,0,0-.66-.38,2.69,2.69,0,0,0-.83-.12,2.15,2.15,0,0,0-1.33.38,2.6,2.6,0,0,0-.8,1.06,5.57,5.57,0,0,0-.4,1.58A16.85,16.85,0,0,0,29.25,23a16.69,16.69,0,0,0,.14,2.38A5.27,5.27,0,0,0,29.86,27a2.07,2.07,0,0,0,.8.89,2.32,2.32,0,0,0,1.18.28,2.39,2.39,0,0,0,.95-.17,2,2,0,0,0,.7-.49,2.74,2.74,0,0,0,.49-.78,5.41,5.41,0,0,0,.31-1,8.62,8.62,0,0,0,.16-1.19C34.47,24.12,34.48,23.68,34.48,23.21Z" fill="#252a53"/>
            </g>
            <g>
              <path d="M25.8,28.7a1.43,1.43,0,0,1,0,.31.69.69,0,0,1-.08.2.3.3,0,0,1-.11.11.26.26,0,0,1-.13,0H18.94a.23.23,0,0,1-.12,0,.34.34,0,0,1-.11-.11.56.56,0,0,1-.08-.2,1.37,1.37,0,0,1,0-.31,1.3,1.3,0,0,1,0-.3.81.81,0,0,1,.07-.21.32.32,0,0,1,.11-.12.24.24,0,0,1,.14,0h2.6V18.55L19.13,20a1.12,1.12,0,0,1-.29.12.2.2,0,0,1-.18,0,.35.35,0,0,1-.09-.21,2.33,2.33,0,0,1,0-.37,2.25,2.25,0,0,1,0-.28.84.84,0,0,1,0-.19.43.43,0,0,1,.08-.13l.14-.12,2.87-1.84.1,0,.14,0,.2,0h.29l.38,0,.24.05a.22.22,0,0,1,.12.09.22.22,0,0,1,0,.11V28h2.25a.26.26,0,0,1,.14,0,.31.31,0,0,1,.11.13.72.72,0,0,1,.07.21A1.53,1.53,0,0,1,25.8,28.7Z" fill="#252a53"/>
              <path d="M36.18,23.1A14,14,0,0,1,36,25.72a6,6,0,0,1-.75,2,3.67,3.67,0,0,1-1.37,1.32,4.9,4.9,0,0,1-4.07,0,3.24,3.24,0,0,1-1.29-1.23,5.78,5.78,0,0,1-.7-2,16.08,16.08,0,0,1-.21-2.73,13.71,13.71,0,0,1,.23-2.62,6.12,6.12,0,0,1,.75-2,3.65,3.65,0,0,1,1.37-1.32,4.9,4.9,0,0,1,4.07,0,3.26,3.26,0,0,1,1.3,1.23,5.77,5.77,0,0,1,.7,2A16.09,16.09,0,0,1,36.18,23.1Zm-1.7.12q0-.93-.07-1.68a9.92,9.92,0,0,0-.2-1.31,4.33,4.33,0,0,0-.34-1,2.38,2.38,0,0,0-.5-.67,1.79,1.79,0,0,0-.66-.38,2.69,2.69,0,0,0-.83-.12,2.15,2.15,0,0,0-1.33.38,2.6,2.6,0,0,0-.8,1.06,5.57,5.57,0,0,0-.4,1.58A16.85,16.85,0,0,0,29.25,23a16.69,16.69,0,0,0,.14,2.38A5.27,5.27,0,0,0,29.86,27a2.07,2.07,0,0,0,.8.89,2.32,2.32,0,0,0,1.18.28,2.39,2.39,0,0,0,.95-.17,2,2,0,0,0,.7-.49,2.74,2.74,0,0,0,.49-.78,5.41,5.41,0,0,0,.31-1,8.62,8.62,0,0,0,.16-1.19C34.47,24.12,34.48,23.68,34.48,23.21Z" fill="#252a53"/>
            </g>
          </g>
          <g>
            <g>
              <path d="M26.8,29.7a1.43,1.43,0,0,1,0,.31.69.69,0,0,1-.08.2.3.3,0,0,1-.11.11.26.26,0,0,1-.13,0H19.94a.23.23,0,0,1-.12,0,.34.34,0,0,1-.11-.11.56.56,0,0,1-.08-.2,1.37,1.37,0,0,1,0-.31,1.3,1.3,0,0,1,0-.3.81.81,0,0,1,.07-.21.32.32,0,0,1,.11-.12.24.24,0,0,1,.14,0h2.6V19.55L20.13,21a1.12,1.12,0,0,1-.29.12.2.2,0,0,1-.18,0,.35.35,0,0,1-.09-.21,2.33,2.33,0,0,1,0-.37,2.25,2.25,0,0,1,0-.28.84.84,0,0,1,0-.19.43.43,0,0,1,.08-.13l.14-.12,2.87-1.84.1,0,.14,0,.2,0h.29l.38,0,.24.05a.22.22,0,0,1,.12.09.22.22,0,0,1,0,.11V29h2.25a.26.26,0,0,1,.14,0,.31.31,0,0,1,.11.13.72.72,0,0,1,.07.21A1.53,1.53,0,0,1,26.8,29.7Z" fill="#9bd7de"/>
              <path d="M37.18,24.1A14,14,0,0,1,37,26.72a6,6,0,0,1-.75,2,3.67,3.67,0,0,1-1.37,1.32,4.9,4.9,0,0,1-4.07,0,3.24,3.24,0,0,1-1.29-1.23,5.78,5.78,0,0,1-.7-2,16.08,16.08,0,0,1-.21-2.73,13.71,13.71,0,0,1,.23-2.62,6.12,6.12,0,0,1,.75-2,3.65,3.65,0,0,1,1.37-1.32,4.9,4.9,0,0,1,4.07,0,3.26,3.26,0,0,1,1.3,1.23,5.77,5.77,0,0,1,.7,2A16.09,16.09,0,0,1,37.18,24.1Zm-1.7.12q0-.93-.07-1.68a9.92,9.92,0,0,0-.2-1.31,4.33,4.33,0,0,0-.34-1,2.38,2.38,0,0,0-.5-.67,1.79,1.79,0,0,0-.66-.38,2.69,2.69,0,0,0-.83-.12,2.15,2.15,0,0,0-1.33.38,2.6,2.6,0,0,0-.8,1.06,5.57,5.57,0,0,0-.4,1.58A16.85,16.85,0,0,0,30.25,24a16.69,16.69,0,0,0,.14,2.38A5.27,5.27,0,0,0,30.86,28a2.07,2.07,0,0,0,.8.89,2.32,2.32,0,0,0,1.18.28,2.39,2.39,0,0,0,.95-.17,2,2,0,0,0,.7-.49,2.74,2.74,0,0,0,.49-.78,5.41,5.41,0,0,0,.31-1,8.62,8.62,0,0,0,.16-1.19C35.47,25.12,35.48,24.68,35.48,24.21Z" fill="#9bd7de"/>
            </g>
            <g>
              <path d="M26.8,29.7a1.43,1.43,0,0,1,0,.31.69.69,0,0,1-.08.2.3.3,0,0,1-.11.11.26.26,0,0,1-.13,0H19.94a.23.23,0,0,1-.12,0,.34.34,0,0,1-.11-.11.56.56,0,0,1-.08-.2,1.37,1.37,0,0,1,0-.31,1.3,1.3,0,0,1,0-.3.81.81,0,0,1,.07-.21.32.32,0,0,1,.11-.12.24.24,0,0,1,.14,0h2.6V19.55L20.13,21a1.12,1.12,0,0,1-.29.12.2.2,0,0,1-.18,0,.35.35,0,0,1-.09-.21,2.33,2.33,0,0,1,0-.37,2.25,2.25,0,0,1,0-.28.84.84,0,0,1,0-.19.43.43,0,0,1,.08-.13l.14-.12,2.87-1.84.1,0,.14,0,.2,0h.29l.38,0,.24.05a.22.22,0,0,1,.12.09.22.22,0,0,1,0,.11V29h2.25a.26.26,0,0,1,.14,0,.31.31,0,0,1,.11.13.72.72,0,0,1,.07.21A1.53,1.53,0,0,1,26.8,29.7Z" fill="#9bd7de"/>
              <path d="M37.18,24.1A14,14,0,0,1,37,26.72a6,6,0,0,1-.75,2,3.67,3.67,0,0,1-1.37,1.32,4.9,4.9,0,0,1-4.07,0,3.24,3.24,0,0,1-1.29-1.23,5.78,5.78,0,0,1-.7-2,16.08,16.08,0,0,1-.21-2.73,13.71,13.71,0,0,1,.23-2.62,6.12,6.12,0,0,1,.75-2,3.65,3.65,0,0,1,1.37-1.32,4.9,4.9,0,0,1,4.07,0,3.26,3.26,0,0,1,1.3,1.23,5.77,5.77,0,0,1,.7,2A16.09,16.09,0,0,1,37.18,24.1Zm-1.7.12q0-.93-.07-1.68a9.92,9.92,0,0,0-.2-1.31,4.33,4.33,0,0,0-.34-1,2.38,2.38,0,0,0-.5-.67,1.79,1.79,0,0,0-.66-.38,2.69,2.69,0,0,0-.83-.12,2.15,2.15,0,0,0-1.33.38,2.6,2.6,0,0,0-.8,1.06,5.57,5.57,0,0,0-.4,1.58A16.85,16.85,0,0,0,30.25,24a16.69,16.69,0,0,0,.14,2.38A5.27,5.27,0,0,0,30.86,28a2.07,2.07,0,0,0,.8.89,2.32,2.32,0,0,0,1.18.28,2.39,2.39,0,0,0,.95-.17,2,2,0,0,0,.7-.49,2.74,2.74,0,0,0,.49-.78,5.41,5.41,0,0,0,.31-1,8.62,8.62,0,0,0,.16-1.19C35.47,25.12,35.48,24.68,35.48,24.21Z" fill="#9bd7de"/>
            </g>
            <g>
              <path d="M26.8,29.7a1.43,1.43,0,0,1,0,.31.69.69,0,0,1-.08.2.3.3,0,0,1-.11.11.26.26,0,0,1-.13,0H19.94a.23.23,0,0,1-.12,0,.34.34,0,0,1-.11-.11.56.56,0,0,1-.08-.2,1.37,1.37,0,0,1,0-.31,1.3,1.3,0,0,1,0-.3.81.81,0,0,1,.07-.21.32.32,0,0,1,.11-.12.24.24,0,0,1,.14,0h2.6V19.55L20.13,21a1.12,1.12,0,0,1-.29.12.2.2,0,0,1-.18,0,.35.35,0,0,1-.09-.21,2.33,2.33,0,0,1,0-.37,2.25,2.25,0,0,1,0-.28.84.84,0,0,1,0-.19.43.43,0,0,1,.08-.13l.14-.12,2.87-1.84.1,0,.14,0,.2,0h.29l.38,0,.24.05a.22.22,0,0,1,.12.09.22.22,0,0,1,0,.11V29h2.25a.26.26,0,0,1,.14,0,.31.31,0,0,1,.11.13.72.72,0,0,1,.07.21A1.53,1.53,0,0,1,26.8,29.7Z" fill="#9bd7de"/>
              <path d="M37.18,24.1A14,14,0,0,1,37,26.72a6,6,0,0,1-.75,2,3.67,3.67,0,0,1-1.37,1.32,4.9,4.9,0,0,1-4.07,0,3.24,3.24,0,0,1-1.29-1.23,5.78,5.78,0,0,1-.7-2,16.08,16.08,0,0,1-.21-2.73,13.71,13.71,0,0,1,.23-2.62,6.12,6.12,0,0,1,.75-2,3.65,3.65,0,0,1,1.37-1.32,4.9,4.9,0,0,1,4.07,0,3.26,3.26,0,0,1,1.3,1.23,5.77,5.77,0,0,1,.7,2A16.09,16.09,0,0,1,37.18,24.1Zm-1.7.12q0-.93-.07-1.68a9.92,9.92,0,0,0-.2-1.31,4.33,4.33,0,0,0-.34-1,2.38,2.38,0,0,0-.5-.67,1.79,1.79,0,0,0-.66-.38,2.69,2.69,0,0,0-.83-.12,2.15,2.15,0,0,0-1.33.38,2.6,2.6,0,0,0-.8,1.06,5.57,5.57,0,0,0-.4,1.58A16.85,16.85,0,0,0,30.25,24a16.69,16.69,0,0,0,.14,2.38A5.27,5.27,0,0,0,30.86,28a2.07,2.07,0,0,0,.8.89,2.32,2.32,0,0,0,1.18.28,2.39,2.39,0,0,0,.95-.17,2,2,0,0,0,.7-.49,2.74,2.74,0,0,0,.49-.78,5.41,5.41,0,0,0,.31-1,8.62,8.62,0,0,0,.16-1.19C35.47,25.12,35.48,24.68,35.48,24.21Z" fill="#9bd7de"/>
            </g>
          </g>
          <g>
            <g>
              <path d="M26.3,29.2a1.43,1.43,0,0,1,0,.31.69.69,0,0,1-.08.2.3.3,0,0,1-.11.11.26.26,0,0,1-.13,0H19.44a.23.23,0,0,1-.12,0,.34.34,0,0,1-.11-.11.56.56,0,0,1-.08-.2,1.37,1.37,0,0,1,0-.31,1.3,1.3,0,0,1,0-.3.81.81,0,0,1,.07-.21.32.32,0,0,1,.11-.12.24.24,0,0,1,.14,0H22V19.05l-2.41,1.43a1.12,1.12,0,0,1-.29.12.2.2,0,0,1-.18,0,.35.35,0,0,1-.09-.21A2.33,2.33,0,0,1,19,20a2.25,2.25,0,0,1,0-.28.84.84,0,0,1,0-.19.43.43,0,0,1,.08-.13l.14-.12,2.87-1.84.1,0,.14,0,.2,0h.29l.38,0,.24.05a.22.22,0,0,1,.12.09.22.22,0,0,1,0,.11V28.53H26a.26.26,0,0,1,.14,0,.31.31,0,0,1,.11.13.72.72,0,0,1,.07.21A1.53,1.53,0,0,1,26.3,29.2Z" fill="#224099"/>
              <path d="M36.68,23.6a14,14,0,0,1-.23,2.62,6,6,0,0,1-.75,2,3.67,3.67,0,0,1-1.37,1.32,4.9,4.9,0,0,1-4.07,0A3.24,3.24,0,0,1,29,28.39a5.78,5.78,0,0,1-.7-2,16.08,16.08,0,0,1-.21-2.73A13.71,13.71,0,0,1,28.29,21,6.12,6.12,0,0,1,29,19a3.65,3.65,0,0,1,1.37-1.32,4.9,4.9,0,0,1,4.07,0,3.26,3.26,0,0,1,1.3,1.23,5.77,5.77,0,0,1,.7,2A16.09,16.09,0,0,1,36.68,23.6Zm-1.7.12q0-.93-.07-1.68a9.92,9.92,0,0,0-.2-1.31,4.33,4.33,0,0,0-.34-1,2.38,2.38,0,0,0-.5-.67,1.79,1.79,0,0,0-.66-.38,2.69,2.69,0,0,0-.83-.12,2.15,2.15,0,0,0-1.33.38,2.6,2.6,0,0,0-.8,1.06,5.57,5.57,0,0,0-.4,1.58,16.85,16.85,0,0,0-.11,1.95,16.69,16.69,0,0,0,.14,2.38,5.27,5.27,0,0,0,.46,1.59,2.07,2.07,0,0,0,.8.89,2.32,2.32,0,0,0,1.18.28,2.39,2.39,0,0,0,.95-.17A2,2,0,0,0,34,28a2.74,2.74,0,0,0,.49-.78,5.41,5.41,0,0,0,.31-1A8.62,8.62,0,0,0,34.94,25C35,24.62,35,24.18,35,23.71Z" fill="#224099"/>
            </g>
            <g>
              <path d="M26.3,29.2a1.43,1.43,0,0,1,0,.31.69.69,0,0,1-.08.2.3.3,0,0,1-.11.11.26.26,0,0,1-.13,0H19.44a.23.23,0,0,1-.12,0,.34.34,0,0,1-.11-.11.56.56,0,0,1-.08-.2,1.37,1.37,0,0,1,0-.31,1.3,1.3,0,0,1,0-.3.81.81,0,0,1,.07-.21.32.32,0,0,1,.11-.12.24.24,0,0,1,.14,0H22V19.05l-2.41,1.43a1.12,1.12,0,0,1-.29.12.2.2,0,0,1-.18,0,.35.35,0,0,1-.09-.21A2.33,2.33,0,0,1,19,20a2.25,2.25,0,0,1,0-.28.84.84,0,0,1,0-.19.43.43,0,0,1,.08-.13l.14-.12,2.87-1.84.1,0,.14,0,.2,0h.29l.38,0,.24.05a.22.22,0,0,1,.12.09.22.22,0,0,1,0,.11V28.53H26a.26.26,0,0,1,.14,0,.31.31,0,0,1,.11.13.72.72,0,0,1,.07.21A1.53,1.53,0,0,1,26.3,29.2Z" fill="#224099"/>
              <path d="M36.68,23.6a14,14,0,0,1-.23,2.62,6,6,0,0,1-.75,2,3.67,3.67,0,0,1-1.37,1.32,4.9,4.9,0,0,1-4.07,0A3.24,3.24,0,0,1,29,28.39a5.78,5.78,0,0,1-.7-2,16.08,16.08,0,0,1-.21-2.73A13.71,13.71,0,0,1,28.29,21,6.12,6.12,0,0,1,29,19a3.65,3.65,0,0,1,1.37-1.32,4.9,4.9,0,0,1,4.07,0,3.26,3.26,0,0,1,1.3,1.23,5.77,5.77,0,0,1,.7,2A16.09,16.09,0,0,1,36.68,23.6Zm-1.7.12q0-.93-.07-1.68a9.92,9.92,0,0,0-.2-1.31,4.33,4.33,0,0,0-.34-1,2.38,2.38,0,0,0-.5-.67,1.79,1.79,0,0,0-.66-.38,2.69,2.69,0,0,0-.83-.12,2.15,2.15,0,0,0-1.33.38,2.6,2.6,0,0,0-.8,1.06,5.57,5.57,0,0,0-.4,1.58,16.85,16.85,0,0,0-.11,1.95,16.69,16.69,0,0,0,.14,2.38,5.27,5.27,0,0,0,.46,1.59,2.07,2.07,0,0,0,.8.89,2.32,2.32,0,0,0,1.18.28,2.39,2.39,0,0,0,.95-.17A2,2,0,0,0,34,28a2.74,2.74,0,0,0,.49-.78,5.41,5.41,0,0,0,.31-1A8.62,8.62,0,0,0,34.94,25C35,24.62,35,24.18,35,23.71Z" fill="#224099"/>
            </g>
            <g>
              <path d="M26.3,29.2a1.43,1.43,0,0,1,0,.31.69.69,0,0,1-.08.2.3.3,0,0,1-.11.11.26.26,0,0,1-.13,0H19.44a.23.23,0,0,1-.12,0,.34.34,0,0,1-.11-.11.56.56,0,0,1-.08-.2,1.37,1.37,0,0,1,0-.31,1.3,1.3,0,0,1,0-.3.81.81,0,0,1,.07-.21.32.32,0,0,1,.11-.12.24.24,0,0,1,.14,0H22V19.05l-2.41,1.43a1.12,1.12,0,0,1-.29.12.2.2,0,0,1-.18,0,.35.35,0,0,1-.09-.21A2.33,2.33,0,0,1,19,20a2.25,2.25,0,0,1,0-.28.84.84,0,0,1,0-.19.43.43,0,0,1,.08-.13l.14-.12,2.87-1.84.1,0,.14,0,.2,0h.29l.38,0,.24.05a.22.22,0,0,1,.12.09.22.22,0,0,1,0,.11V28.53H26a.26.26,0,0,1,.14,0,.31.31,0,0,1,.11.13.72.72,0,0,1,.07.21A1.53,1.53,0,0,1,26.3,29.2Z" fill="#224099"/>
              <path d="M36.68,23.6a14,14,0,0,1-.23,2.62,6,6,0,0,1-.75,2,3.67,3.67,0,0,1-1.37,1.32,4.9,4.9,0,0,1-4.07,0A3.24,3.24,0,0,1,29,28.39a5.78,5.78,0,0,1-.7-2,16.08,16.08,0,0,1-.21-2.73A13.71,13.71,0,0,1,28.29,21,6.12,6.12,0,0,1,29,19a3.65,3.65,0,0,1,1.37-1.32,4.9,4.9,0,0,1,4.07,0,3.26,3.26,0,0,1,1.3,1.23,5.77,5.77,0,0,1,.7,2A16.09,16.09,0,0,1,36.68,23.6Zm-1.7.12q0-.93-.07-1.68a9.92,9.92,0,0,0-.2-1.31,4.33,4.33,0,0,0-.34-1,2.38,2.38,0,0,0-.5-.67,1.79,1.79,0,0,0-.66-.38,2.69,2.69,0,0,0-.83-.12,2.15,2.15,0,0,0-1.33.38,2.6,2.6,0,0,0-.8,1.06,5.57,5.57,0,0,0-.4,1.58,16.85,16.85,0,0,0-.11,1.95,16.69,16.69,0,0,0,.14,2.38,5.27,5.27,0,0,0,.46,1.59,2.07,2.07,0,0,0,.8.89,2.32,2.32,0,0,0,1.18.28,2.39,2.39,0,0,0,.95-.17A2,2,0,0,0,34,28a2.74,2.74,0,0,0,.49-.78,5.41,5.41,0,0,0,.31-1A8.62,8.62,0,0,0,34.94,25C35,24.62,35,24.18,35,23.71Z" fill="#224099"/>
            </g>
          </g>
        </g>
      </g>
    </g>
  </g>
</svg>
