<svg xmlns="http://www.w3.org/2000/svg" width="56" height="56" viewBox="0 0 56 56">
  <title>first</title>
  <g id="Layer_2" data-name="Layer 2">
    <g id="daily_challenge" data-name="daily challenge">
      <g>
        <circle cx="28" cy="28" r="28" fill="#fff"/>
        <path d="M17.53,26.25h.8A10.14,10.14,0,0,0,25.41,33v2.79H23.56A1.58,1.58,0,0,0,22,37.41h0v1.77h-.59a1.58,1.58,0,0,0-1.58,1.58h0v3.31a1.58,1.58,0,0,0,1.58,1.58H34.62a1.58,1.58,0,0,0,1.58-1.58h0V40.76a1.58,1.58,0,0,0-1.58-1.58H34V37.41a1.58,1.58,0,0,0-1.58-1.58H30.59V33a10.14,10.14,0,0,0,7.07-6.75h.81a5.92,5.92,0,0,0,5.92-5.92V15.94a1.49,1.49,0,0,0-1.49-1.49H38.12V13a1,1,0,0,0-1-1H18.88a1,1,0,0,0-1,1v1.39H13.11a1.49,1.49,0,0,0-1.49,1.49h0v4.42A5.92,5.92,0,0,0,17.53,26.25Zm20.59-3V17.44h3.27v2.93a2.93,2.93,0,0,1-2.93,2.93h-.35ZM14.6,17.41h3.27v5.85h-.35a2.93,2.93,0,0,1-2.93-2.93Z" fill="#ffc708"/>
        <g>
          <path d="M31.67,27.68a1.43,1.43,0,0,1,0,.31.7.7,0,0,1-.08.2.31.31,0,0,1-.11.11.27.27,0,0,1-.13,0H24.82a.24.24,0,0,1-.12,0,.36.36,0,0,1-.11-.11.57.57,0,0,1-.08-.2,1.37,1.37,0,0,1,0-.31,1.31,1.31,0,0,1,0-.3.79.79,0,0,1,.07-.21.33.33,0,0,1,.11-.13.24.24,0,0,1,.14,0h2.6V17.53L25,19a1.1,1.1,0,0,1-.29.12.2.2,0,0,1-.18,0,.35.35,0,0,1-.09-.21,2.33,2.33,0,0,1,0-.37,2.26,2.26,0,0,1,0-.28.81.81,0,0,1,0-.19.42.42,0,0,1,.08-.14l.14-.12,2.87-1.84.1,0,.14,0,.2,0h.29l.38,0,.24.05a.22.22,0,0,1,.12.09.22.22,0,0,1,0,.11V27h2.25a.27.27,0,0,1,.14,0,.32.32,0,0,1,.11.13.71.71,0,0,1,.07.21A1.54,1.54,0,0,1,31.67,27.68Z" fill="#eea220"/>
          <path d="M32,28a1.45,1.45,0,0,1,0,.31.71.71,0,0,1-.08.2.3.3,0,0,1-.11.11.27.27,0,0,1-.13,0H25.14a.24.24,0,0,1-.12,0,.35.35,0,0,1-.11-.11.57.57,0,0,1-.08-.2,1.38,1.38,0,0,1,0-.31,1.32,1.32,0,0,1,0-.3.79.79,0,0,1,.07-.21.34.34,0,0,1,.11-.13.24.24,0,0,1,.14,0h2.6V17.85l-2.41,1.43a1.07,1.07,0,0,1-.29.12.2.2,0,0,1-.18,0,.36.36,0,0,1-.09-.21,2.35,2.35,0,0,1,0-.37,2.28,2.28,0,0,1,0-.28.81.81,0,0,1,0-.19.42.42,0,0,1,.08-.13l.14-.12,2.87-1.84.1,0,.14,0,.2,0h.29l.38,0,.24.05a.21.21,0,0,1,.12.09.23.23,0,0,1,0,.11V27.33h2.25a.27.27,0,0,1,.14,0,.33.33,0,0,1,.11.13.71.71,0,0,1,.07.21A1.55,1.55,0,0,1,32,28Z" fill="#ffe986"/>
          <path d="M31.35,27.36a1.43,1.43,0,0,1,0,.31.68.68,0,0,1-.08.2.3.3,0,0,1-.11.11A.27.27,0,0,1,31,28H24.5a.24.24,0,0,1-.12,0,.35.35,0,0,1-.11-.11.55.55,0,0,1-.08-.2,1.37,1.37,0,0,1,0-.31,1.33,1.33,0,0,1,0-.3.82.82,0,0,1,.07-.21.33.33,0,0,1,.11-.12.24.24,0,0,1,.14,0h2.6V17.21l-2.41,1.44a1.1,1.1,0,0,1-.29.12.2.2,0,0,1-.18,0,.36.36,0,0,1-.09-.21,2.34,2.34,0,0,1,0-.37,2.26,2.26,0,0,1,0-.28.79.79,0,0,1,0-.19.42.42,0,0,1,.08-.14l.14-.12,2.87-1.84.1,0,.14,0,.2,0H28l.38,0,.24.05a.21.21,0,0,1,.12.09.23.23,0,0,1,0,.11V26.69H31a.26.26,0,0,1,.14,0,.32.32,0,0,1,.11.13.73.73,0,0,1,.07.21A1.56,1.56,0,0,1,31.35,27.36Z" fill="#c05d0a"/>
          <path d="M31.67,27.68a1.43,1.43,0,0,1,0,.31.7.7,0,0,1-.08.2.31.31,0,0,1-.11.11.27.27,0,0,1-.13,0H24.82a.24.24,0,0,1-.12,0,.36.36,0,0,1-.11-.11.57.57,0,0,1-.08-.2,1.37,1.37,0,0,1,0-.31,1.31,1.31,0,0,1,0-.3.79.79,0,0,1,.07-.21.33.33,0,0,1,.11-.13.24.24,0,0,1,.14,0h2.6V17.53L25,19a1.1,1.1,0,0,1-.29.12.2.2,0,0,1-.18,0,.35.35,0,0,1-.09-.21,2.33,2.33,0,0,1,0-.37,2.26,2.26,0,0,1,0-.28.81.81,0,0,1,0-.19.42.42,0,0,1,.08-.14l.14-.12,2.87-1.84.1,0,.14,0,.2,0h.29l.38,0,.24.05a.22.22,0,0,1,.12.09.22.22,0,0,1,0,.11V27h2.25a.27.27,0,0,1,.14,0,.32.32,0,0,1,.11.13.71.71,0,0,1,.07.21A1.54,1.54,0,0,1,31.67,27.68Z" fill="#ff890c"/>
        </g>
      </g>
    </g>
  </g>
</svg>
