<svg xmlns="http://www.w3.org/2000/svg" width="56" height="56" viewBox="0 0 56 56">
  <title>third</title>
  <g id="Layer_2" data-name="Layer 2">
    <g id="daily_challenge" data-name="daily challenge">
      <g>
        <circle cx="28" cy="28" r="28" fill="#fff"/>
        <path d="M17.53,27.43h.8a10.14,10.14,0,0,0,7.08,6.78V37H23.56A1.58,1.58,0,0,0,22,38.58h0v1.77h-.59a1.58,1.58,0,0,0-1.58,1.58h0v3.31a1.58,1.58,0,0,0,1.58,1.58H34.62a1.58,1.58,0,0,0,1.58-1.58h0V41.93a1.58,1.58,0,0,0-1.58-1.58H34V38.59A1.58,1.58,0,0,0,32.44,37H30.59V34.22a10.14,10.14,0,0,0,7.07-6.75h.81a5.92,5.92,0,0,0,5.92-5.92V17.12a1.49,1.49,0,0,0-1.49-1.49H38.12V14.2a1,1,0,0,0-1-1H18.88a1,1,0,0,0-1,1v1.39H13.11a1.49,1.49,0,0,0-1.49,1.49h0v4.42A5.92,5.92,0,0,0,17.53,27.43Zm20.59-3V18.62h3.27v2.93a2.93,2.93,0,0,1-2.93,2.93h-.35ZM14.6,18.58h3.27v5.85h-.35a2.93,2.93,0,0,1-2.93-2.93Z" fill="#ef4a2e"/>
        <g>
          <path d="M31.55,26a3.84,3.84,0,0,1-.3,1.54,3.29,3.29,0,0,1-.86,1.18,3.84,3.84,0,0,1-1.38.76,6,6,0,0,1-1.85.27A6.32,6.32,0,0,1,26,29.6a7.22,7.22,0,0,1-1-.24,4.58,4.58,0,0,1-.7-.29,2.06,2.06,0,0,1-.35-.22.58.58,0,0,1-.11-.13.82.82,0,0,1-.07-.16,1.28,1.28,0,0,1,0-.24c0-.09,0-.21,0-.34a1.17,1.17,0,0,1,.07-.48.22.22,0,0,1,.2-.13.94.94,0,0,1,.35.15,6.64,6.64,0,0,0,.67.33,7.63,7.63,0,0,0,1,.33,4.47,4.47,0,0,0,1.22.15,3.64,3.64,0,0,0,1.15-.16,2.34,2.34,0,0,0,.83-.46,1.88,1.88,0,0,0,.5-.71,2.32,2.32,0,0,0,.17-.89A2,2,0,0,0,29,24.42a3,3,0,0,0-1-.47,5.3,5.3,0,0,0-1.37-.16H25.41a.36.36,0,0,1-.15,0,.31.31,0,0,1-.13-.11.65.65,0,0,1-.09-.2,1.25,1.25,0,0,1,0-.33,1.31,1.31,0,0,1,0-.3.53.53,0,0,1,.08-.19.34.34,0,0,1,.12-.11.35.35,0,0,1,.15,0h1.09a3.69,3.69,0,0,0,1.14-.16,2.41,2.41,0,0,0,.86-.47A2.09,2.09,0,0,0,29,21.1a2.36,2.36,0,0,0,.19-1,2.18,2.18,0,0,0-.12-.74,1.68,1.68,0,0,0-.38-.61,1.72,1.72,0,0,0-.64-.41,2.5,2.5,0,0,0-.9-.15,3,3,0,0,0-1,.17,6.39,6.39,0,0,0-.83.36,5.58,5.58,0,0,0-.61.36.79.79,0,0,1-.34.17l-.12,0a.18.18,0,0,1-.09-.1.66.66,0,0,1,0-.2c0-.09,0-.2,0-.34s0-.18,0-.26a.72.72,0,0,1,0-.19A1,1,0,0,1,24.2,18a.8.8,0,0,1,.13-.16,2.34,2.34,0,0,1,.37-.27,4.8,4.8,0,0,1,.69-.34,5.59,5.59,0,0,1,.94-.28,5.38,5.38,0,0,1,1.15-.12,4.73,4.73,0,0,1,1.52.22,3,3,0,0,1,1.09.63,2.55,2.55,0,0,1,.65,1A3.44,3.44,0,0,1,31,19.93,3.74,3.74,0,0,1,30.82,21a2.74,2.74,0,0,1-1.18,1.56,2.88,2.88,0,0,1-1,.38v0a3.54,3.54,0,0,1,1.18.32,3.3,3.3,0,0,1,.92.64,2.81,2.81,0,0,1,.82,2Z" fill="#eea220"/>
          <path d="M31.87,26.27a3.84,3.84,0,0,1-.3,1.55A3.3,3.3,0,0,1,30.71,29a3.87,3.87,0,0,1-1.38.76,6,6,0,0,1-1.85.26,6.41,6.41,0,0,1-1.17-.1,7.36,7.36,0,0,1-1-.24,4.49,4.49,0,0,1-.7-.29,2,2,0,0,1-.35-.22.58.58,0,0,1-.11-.13.82.82,0,0,1-.07-.16,1.28,1.28,0,0,1,0-.24c0-.09,0-.21,0-.34a1.17,1.17,0,0,1,.07-.48.22.22,0,0,1,.2-.13,1,1,0,0,1,.35.15,6.25,6.25,0,0,0,.67.33,7.47,7.47,0,0,0,1,.33,4.47,4.47,0,0,0,1.22.15,3.64,3.64,0,0,0,1.15-.16A2.32,2.32,0,0,0,29.5,28a1.89,1.89,0,0,0,.5-.71,2.31,2.31,0,0,0,.17-.89,2,2,0,0,0-.84-1.68,3,3,0,0,0-1-.47A5.25,5.25,0,0,0,27,24.11H25.73a.37.37,0,0,1-.15,0,.32.32,0,0,1-.13-.11.65.65,0,0,1-.09-.2,1.25,1.25,0,0,1,0-.33,1.31,1.31,0,0,1,0-.3.54.54,0,0,1,.08-.19.33.33,0,0,1,.12-.11.34.34,0,0,1,.15,0h1.09a3.69,3.69,0,0,0,1.14-.16,2.41,2.41,0,0,0,.86-.47,2.09,2.09,0,0,0,.54-.74,2.36,2.36,0,0,0,.19-1,2.19,2.19,0,0,0-.12-.74,1.69,1.69,0,0,0-.38-.61,1.72,1.72,0,0,0-.64-.41,2.5,2.5,0,0,0-.9-.15,3,3,0,0,0-1,.17,6.67,6.67,0,0,0-.83.36,5.75,5.75,0,0,0-.61.36.77.77,0,0,1-.34.17l-.12,0a.18.18,0,0,1-.09-.1.66.66,0,0,1,0-.2c0-.09,0-.2,0-.34s0-.18,0-.25a.74.74,0,0,1,0-.19,1,1,0,0,1,.07-.15.83.83,0,0,1,.13-.16,2.36,2.36,0,0,1,.37-.26,4.61,4.61,0,0,1,.69-.34,5.58,5.58,0,0,1,.94-.28,5.44,5.44,0,0,1,1.15-.12,4.76,4.76,0,0,1,1.52.22,3,3,0,0,1,1.09.63,2.54,2.54,0,0,1,.65,1,3.45,3.45,0,0,1,.22,1.25,3.75,3.75,0,0,1-.15,1.09A2.76,2.76,0,0,1,29,23.29v0a3.57,3.57,0,0,1,1.18.32,3.29,3.29,0,0,1,.92.64,2.81,2.81,0,0,1,.82,2Z" fill="#ea9e52"/>
          <path d="M31.23,25.63a3.84,3.84,0,0,1-.3,1.55,3.3,3.3,0,0,1-.86,1.18,3.87,3.87,0,0,1-1.38.76,6,6,0,0,1-1.85.26,6.41,6.41,0,0,1-1.17-.1,7.36,7.36,0,0,1-1-.24,4.49,4.49,0,0,1-.7-.29,2,2,0,0,1-.35-.22.58.58,0,0,1-.11-.13.82.82,0,0,1-.07-.16,1.28,1.28,0,0,1,0-.24c0-.09,0-.21,0-.34a1.17,1.17,0,0,1,.07-.48.22.22,0,0,1,.2-.13,1,1,0,0,1,.35.15,6.25,6.25,0,0,0,.67.33,7.47,7.47,0,0,0,1,.33,4.47,4.47,0,0,0,1.22.15A3.64,3.64,0,0,0,28,27.85a2.32,2.32,0,0,0,.83-.46,1.89,1.89,0,0,0,.5-.71,2.31,2.31,0,0,0,.17-.89,2,2,0,0,0-.84-1.68,3,3,0,0,0-1-.47,5.25,5.25,0,0,0-1.37-.16H25.09a.37.37,0,0,1-.15,0,.32.32,0,0,1-.13-.11.65.65,0,0,1-.09-.2,1.25,1.25,0,0,1,0-.33,1.31,1.31,0,0,1,0-.3.54.54,0,0,1,.08-.19.33.33,0,0,1,.12-.11.34.34,0,0,1,.15,0h1.09A3.69,3.69,0,0,0,27.3,22a2.41,2.41,0,0,0,.86-.47,2.09,2.09,0,0,0,.54-.74,2.36,2.36,0,0,0,.19-1,2.19,2.19,0,0,0-.12-.74,1.69,1.69,0,0,0-.38-.61,1.72,1.72,0,0,0-.64-.41,2.5,2.5,0,0,0-.9-.15,3,3,0,0,0-1,.17,6.67,6.67,0,0,0-.83.36,5.75,5.75,0,0,0-.61.36A.77.77,0,0,1,24,19l-.12,0a.18.18,0,0,1-.09-.1.66.66,0,0,1,0-.2c0-.09,0-.2,0-.34s0-.18,0-.25a.74.74,0,0,1,0-.19,1,1,0,0,1,.07-.15.83.83,0,0,1,.13-.16,2.36,2.36,0,0,1,.37-.26,4.61,4.61,0,0,1,.69-.34,5.58,5.58,0,0,1,.94-.28,5.44,5.44,0,0,1,1.15-.12,4.76,4.76,0,0,1,1.52.22,3,3,0,0,1,1.09.63,2.54,2.54,0,0,1,.65,1,3.45,3.45,0,0,1,.22,1.25,3.75,3.75,0,0,1-.15,1.09,2.76,2.76,0,0,1-2.19,1.94v0a3.57,3.57,0,0,1,1.18.32,3.29,3.29,0,0,1,.92.64,2.81,2.81,0,0,1,.82,2Z" fill="#77342e"/>
          <path d="M31.55,26a3.84,3.84,0,0,1-.3,1.54,3.29,3.29,0,0,1-.86,1.18,3.84,3.84,0,0,1-1.38.76,6,6,0,0,1-1.85.27A6.32,6.32,0,0,1,26,29.6a7.22,7.22,0,0,1-1-.24,4.58,4.58,0,0,1-.7-.29,2.06,2.06,0,0,1-.35-.22.58.58,0,0,1-.11-.13.82.82,0,0,1-.07-.16,1.28,1.28,0,0,1,0-.24c0-.09,0-.21,0-.34a1.17,1.17,0,0,1,.07-.48.22.22,0,0,1,.2-.13.94.94,0,0,1,.35.15,6.64,6.64,0,0,0,.67.33,7.63,7.63,0,0,0,1,.33,4.47,4.47,0,0,0,1.22.15,3.64,3.64,0,0,0,1.15-.16,2.34,2.34,0,0,0,.83-.46,1.88,1.88,0,0,0,.5-.71,2.32,2.32,0,0,0,.17-.89A2,2,0,0,0,29,24.42a3,3,0,0,0-1-.47,5.3,5.3,0,0,0-1.37-.16H25.41a.36.36,0,0,1-.15,0,.31.31,0,0,1-.13-.11.65.65,0,0,1-.09-.2,1.25,1.25,0,0,1,0-.33,1.31,1.31,0,0,1,0-.3.53.53,0,0,1,.08-.19.34.34,0,0,1,.12-.11.35.35,0,0,1,.15,0h1.09a3.69,3.69,0,0,0,1.14-.16,2.41,2.41,0,0,0,.86-.47A2.09,2.09,0,0,0,29,21.1a2.36,2.36,0,0,0,.19-1,2.18,2.18,0,0,0-.12-.74,1.68,1.68,0,0,0-.38-.61,1.72,1.72,0,0,0-.64-.41,2.5,2.5,0,0,0-.9-.15,3,3,0,0,0-1,.17,6.39,6.39,0,0,0-.83.36,5.58,5.58,0,0,0-.61.36.79.79,0,0,1-.34.17l-.12,0a.18.18,0,0,1-.09-.1.66.66,0,0,1,0-.2c0-.09,0-.2,0-.34s0-.18,0-.26a.72.72,0,0,1,0-.19A1,1,0,0,1,24.2,18a.8.8,0,0,1,.13-.16,2.34,2.34,0,0,1,.37-.27,4.8,4.8,0,0,1,.69-.34,5.59,5.59,0,0,1,.94-.28,5.38,5.38,0,0,1,1.15-.12,4.73,4.73,0,0,1,1.52.22,3,3,0,0,1,1.09.63,2.55,2.55,0,0,1,.65,1A3.44,3.44,0,0,1,31,19.93,3.74,3.74,0,0,1,30.82,21a2.74,2.74,0,0,1-1.18,1.56,2.88,2.88,0,0,1-1,.38v0a3.54,3.54,0,0,1,1.18.32,3.3,3.3,0,0,1,.92.64,2.81,2.81,0,0,1,.82,2Z" fill="#c1342e"/>
        </g>
      </g>
    </g>
  </g>
</svg>
