<svg xmlns="http://www.w3.org/2000/svg" width="56" height="56" viewBox="0 0 56 56">
  <title>second</title>
  <g id="Layer_2" data-name="Layer 2">
    <g id="daily_challenge" data-name="daily challenge">
      <g>
        <circle cx="28" cy="28" r="28" fill="#fff"/>
        <path d="M17.53,27.09h.8a10.14,10.14,0,0,0,7.08,6.78v2.79H23.56A1.58,1.58,0,0,0,22,38.24h0V40h-.59A1.58,1.58,0,0,0,19.8,41.6h0V44.9a1.58,1.58,0,0,0,1.58,1.58H34.62A1.58,1.58,0,0,0,36.2,44.9h0V41.59A1.58,1.58,0,0,0,34.62,40H34V38.25a1.58,1.58,0,0,0-1.58-1.58H30.59V33.88a10.14,10.14,0,0,0,7.07-6.75h.81a5.92,5.92,0,0,0,5.92-5.92V16.78a1.49,1.49,0,0,0-1.49-1.49H38.12V13.85a1,1,0,0,0-1-1H18.88a1,1,0,0,0-1,1v1.39H13.11a1.49,1.49,0,0,0-1.49,1.49h0v4.42A5.92,5.92,0,0,0,17.53,27.09Zm20.59-3V18.28h3.27V21.2a2.93,2.93,0,0,1-2.93,2.93h-.35ZM14.6,18.24h3.27v5.85h-.35a2.93,2.93,0,0,1-2.93-2.93Z" fill="#fe842f"/>
        <g>
          <path d="M31.65,28.46a1.8,1.8,0,0,1,0,.31.94.94,0,0,1-.07.23.3.3,0,0,1-.12.13.3.3,0,0,1-.16,0H24.39a.72.72,0,0,1-.24,0A.4.4,0,0,1,24,29a.48.48,0,0,1-.11-.22,1.59,1.59,0,0,1,0-.36c0-.13,0-.24,0-.34a.85.85,0,0,1,.06-.25,1.64,1.64,0,0,1,.12-.22,1.81,1.81,0,0,1,.19-.24l2.49-2.56a16.11,16.11,0,0,0,1.38-1.59,8.44,8.44,0,0,0,.8-1.28,4.23,4.23,0,0,0,.37-1,4.77,4.77,0,0,0,.09-.89,2.21,2.21,0,0,0-.14-.78,1.92,1.92,0,0,0-.4-.65,1.88,1.88,0,0,0-.66-.44,2.38,2.38,0,0,0-.91-.16,3.36,3.36,0,0,0-1.09.16,5.8,5.8,0,0,0-.84.36,6.67,6.67,0,0,0-.61.36.78.78,0,0,1-.36.16.21.21,0,0,1-.12,0,.27.27,0,0,1-.09-.12,1,1,0,0,1-.05-.23,2.7,2.7,0,0,1,0-.35c0-.1,0-.18,0-.25a.9.9,0,0,1,0-.18.8.8,0,0,1,.06-.14.74.74,0,0,1,.15-.17,3.13,3.13,0,0,1,.4-.27,4.58,4.58,0,0,1,.71-.34,6.32,6.32,0,0,1,.94-.28,4.94,4.94,0,0,1,1.08-.12,4.48,4.48,0,0,1,1.58.25,3.16,3.16,0,0,1,1.13.7,2.85,2.85,0,0,1,.67,1,3.52,3.52,0,0,1,.22,1.25A6.67,6.67,0,0,1,31,21a4.82,4.82,0,0,1-.45,1.28,9.71,9.71,0,0,1-1,1.53,22.41,22.41,0,0,1-1.71,1.94l-2,2.06h5.42a.28.28,0,0,1,.15,0,.38.38,0,0,1,.13.13.65.65,0,0,1,.08.22A1.74,1.74,0,0,1,31.65,28.46Z" fill="#eea220"/>
          <path d="M32,28.78a1.8,1.8,0,0,1,0,.31,1,1,0,0,1-.07.23.29.29,0,0,1-.27.18H24.71a.74.74,0,0,1-.24,0,.41.41,0,0,1-.17-.11.48.48,0,0,1-.11-.22,1.6,1.6,0,0,1,0-.36,3.37,3.37,0,0,1,0-.34.85.85,0,0,1,.06-.26,1.64,1.64,0,0,1,.12-.22,1.81,1.81,0,0,1,.19-.24l2.49-2.56a16.11,16.11,0,0,0,1.38-1.59,8.45,8.45,0,0,0,.8-1.28,4.2,4.2,0,0,0,.37-1,4.77,4.77,0,0,0,.09-.89,2.21,2.21,0,0,0-.14-.78,1.94,1.94,0,0,0-.4-.65,1.88,1.88,0,0,0-.66-.44,2.4,2.4,0,0,0-.91-.16,3.39,3.39,0,0,0-1.09.16,5.8,5.8,0,0,0-.84.36,6.9,6.9,0,0,0-.61.36.78.78,0,0,1-.36.16.2.2,0,0,1-.12,0,.27.27,0,0,1-.09-.12,1,1,0,0,1-.05-.23,2.69,2.69,0,0,1,0-.35c0-.1,0-.18,0-.25a.87.87,0,0,1,0-.18A.77.77,0,0,1,24.5,18a.74.74,0,0,1,.15-.17,3.13,3.13,0,0,1,.4-.27,4.67,4.67,0,0,1,.71-.34,6.44,6.44,0,0,1,.94-.28,4.94,4.94,0,0,1,1.08-.12,4.5,4.5,0,0,1,1.58.25,3.16,3.16,0,0,1,1.13.7,2.85,2.85,0,0,1,.67,1,3.52,3.52,0,0,1,.22,1.25,6.68,6.68,0,0,1-.11,1.19,4.83,4.83,0,0,1-.45,1.28,9.66,9.66,0,0,1-1,1.53A22.41,22.41,0,0,1,28.14,26l-2,2.06h5.42a.28.28,0,0,1,.15,0,.38.38,0,0,1,.13.13.65.65,0,0,1,.08.22A1.72,1.72,0,0,1,32,28.78Z" fill="#f0b683"/>
          <path d="M31.33,28.14a1.81,1.81,0,0,1,0,.31.94.94,0,0,1-.07.23.3.3,0,0,1-.12.13.3.3,0,0,1-.16,0H24.07a.74.74,0,0,1-.24,0,.41.41,0,0,1-.17-.11.48.48,0,0,1-.11-.22,1.6,1.6,0,0,1,0-.36q0-.19,0-.34a.84.84,0,0,1,.06-.25,1.58,1.58,0,0,1,.12-.22,1.81,1.81,0,0,1,.19-.24l2.49-2.56a16,16,0,0,0,1.38-1.59,8.49,8.49,0,0,0,.8-1.28,4.23,4.23,0,0,0,.37-1,4.77,4.77,0,0,0,.09-.89,2.21,2.21,0,0,0-.14-.79,1.94,1.94,0,0,0-.4-.65,1.89,1.89,0,0,0-.66-.44,2.38,2.38,0,0,0-.91-.16,3.36,3.36,0,0,0-1.09.16,5.7,5.7,0,0,0-.84.36,6.92,6.92,0,0,0-.61.36.78.78,0,0,1-.36.16.21.21,0,0,1-.12,0,.27.27,0,0,1-.09-.13,1,1,0,0,1-.05-.23,2.7,2.7,0,0,1,0-.35c0-.1,0-.18,0-.25a.89.89,0,0,1,0-.18.8.8,0,0,1,.06-.14.74.74,0,0,1,.15-.17,3.13,3.13,0,0,1,.4-.27,4.58,4.58,0,0,1,.71-.34,6.32,6.32,0,0,1,.94-.28,4.94,4.94,0,0,1,1.08-.12,4.48,4.48,0,0,1,1.58.26,3.15,3.15,0,0,1,1.13.7,2.85,2.85,0,0,1,.67,1,3.52,3.52,0,0,1,.22,1.25,6.67,6.67,0,0,1-.11,1.19,4.82,4.82,0,0,1-.45,1.28,9.71,9.71,0,0,1-1,1.53,22.71,22.71,0,0,1-1.71,1.94l-2,2.06H31a.29.29,0,0,1,.15,0,.38.38,0,0,1,.13.13.65.65,0,0,1,.08.22A1.73,1.73,0,0,1,31.33,28.14Z" fill="#d64539"/>
          <path d="M31.65,28.46a1.8,1.8,0,0,1,0,.31.94.94,0,0,1-.07.23.3.3,0,0,1-.12.13.3.3,0,0,1-.16,0H24.39a.72.72,0,0,1-.24,0A.4.4,0,0,1,24,29a.48.48,0,0,1-.11-.22,1.59,1.59,0,0,1,0-.36c0-.13,0-.24,0-.34a.85.85,0,0,1,.06-.25,1.64,1.64,0,0,1,.12-.22,1.81,1.81,0,0,1,.19-.24l2.49-2.56a16.11,16.11,0,0,0,1.38-1.59,8.44,8.44,0,0,0,.8-1.28,4.23,4.23,0,0,0,.37-1,4.77,4.77,0,0,0,.09-.89,2.21,2.21,0,0,0-.14-.78,1.92,1.92,0,0,0-.4-.65,1.88,1.88,0,0,0-.66-.44,2.38,2.38,0,0,0-.91-.16,3.36,3.36,0,0,0-1.09.16,5.8,5.8,0,0,0-.84.36,6.67,6.67,0,0,0-.61.36.78.78,0,0,1-.36.16.21.21,0,0,1-.12,0,.27.27,0,0,1-.09-.12,1,1,0,0,1-.05-.23,2.7,2.7,0,0,1,0-.35c0-.1,0-.18,0-.25a.9.9,0,0,1,0-.18.8.8,0,0,1,.06-.14.74.74,0,0,1,.15-.17,3.13,3.13,0,0,1,.4-.27,4.58,4.58,0,0,1,.71-.34,6.32,6.32,0,0,1,.94-.28,4.94,4.94,0,0,1,1.08-.12,4.48,4.48,0,0,1,1.58.25,3.16,3.16,0,0,1,1.13.7,2.85,2.85,0,0,1,.67,1,3.52,3.52,0,0,1,.22,1.25A6.67,6.67,0,0,1,31,21a4.82,4.82,0,0,1-.45,1.28,9.71,9.71,0,0,1-1,1.53,22.41,22.41,0,0,1-1.71,1.94l-2,2.06h5.42a.28.28,0,0,1,.15,0,.38.38,0,0,1,.13.13.65.65,0,0,1,.08.22A1.74,1.74,0,0,1,31.65,28.46Z" fill="#f04f28"/>
        </g>
      </g>
    </g>
  </g>
</svg>
