<?xml version="1.0" standalone="no"?>
<!DOCTYPE svg PUBLIC "-//W3C//DTD SVG 1.1//EN" "http://www.w3.org/Graphics/SVG/1.1/DTD/svg11.dtd" >
<svg xmlns="http://www.w3.org/2000/svg">
<metadata></metadata>
<defs>
<font id="kg_primary_penmanship_2Rg" horiz-adv-x="888" >
<font-face units-per-em="2048" ascent="1638" descent="-410" />
<missing-glyph horiz-adv-x="596" />
<glyph horiz-adv-x="0" />
<glyph unicode="&#xd;" horiz-adv-x="508" />
<glyph unicode=" "  horiz-adv-x="596" />
<glyph unicode="&#x09;" horiz-adv-x="596" />
<glyph unicode="&#xa0;" horiz-adv-x="596" />
<glyph unicode="!" horiz-adv-x="366" d="M94 46q0 38 26 63t64 25t63 -25t25 -63t-25 -64t-63 -26t-64 26t-26 64zM112 252l6 936q0 38 23 53t51 13t51 -17t23 -39l2 -946q-6 -36 -34 -50t-56 -11t-50 20t-16 41z" />
<glyph unicode="&#x22;" horiz-adv-x="760" d="M128 655q-8 23 10 45q32 28 47 64t15 70t-10 63t-26 45q-20 18 -14 43t26 42t47 20t51 -23q26 -28 43 -74t19 -99t-15 -110t-61 -105q-24 -26 -53 -28t-50 11t-29 36zM406 663q-8 23 10 45q32 28 47 64t15 70t-10 63t-26 45q-20 18 -14 43t26 42t47 20t51 -23 q26 -28 43 -74t19 -99t-15 -110t-61 -105q-24 -26 -53 -28t-50 11t-29 36z" />
<glyph unicode="#" horiz-adv-x="898" d="M92 412q2 28 17 51t39 23h96v110h-86q-38 0 -53 23t-13 51t17 51t39 23h98v92q8 36 34 51t54 12t48 -21t14 -46v-86l108 2v84q8 36 34 51t54 12t48 -21t14 -46v-80l90 2q36 -6 51 -33t13 -54t-20 -48t-46 -15h-90v-110l92 2q36 -6 51 -33t13 -54t-20 -48t-46 -15h-92v-98 q0 -38 -23 -52t-51 -12t-51 17t-23 39v104h-110v-92q0 -38 -23 -52t-51 -12t-51 17t-23 39v98h-86q-38 0 -53 23t-13 51zM394 488h108v110h-108v-110z" />
<glyph unicode="$" horiz-adv-x="928" d="M88 940q12 122 91 194t181 94v24q6 36 32 50t54 12t50 -20t22 -44v-20q38 -8 80 -25t81 -47t73 -76t54 -112q12 -30 -4 -52t-42 -31t-52 -4t-32 33q-20 84 -69 120t-91 46v-412q16 -8 24 -10q62 -26 123 -57t106 -76t68 -109t13 -154q-8 -74 -39 -130t-77 -94t-103 -59 t-119 -27v-36q0 -38 -23 -53t-51 -13t-51 17t-23 39v56q-96 22 -173 82t-101 158q-2 36 19 60t47 33t50 0t28 -37q8 -54 43 -89t85 -53v458q-58 24 -111 53t-92 71t-59 100t-12 140zM234 932q-10 -80 26 -124t100 -76v344q-56 -20 -89 -62t-37 -82zM512 102q70 10 120 52 t64 122q8 48 -3 85t-37 65t-62 50t-80 40z" />
<glyph unicode="%" horiz-adv-x="778" d="M62 68l502 1122q20 30 50 32t54 -11t38 -38t2 -49l-508 -1106q-16 -34 -43 -39t-51 8t-39 36t-5 45zM94 1108q0 38 25 64t63 26t64 -26t26 -64t-26 -63t-64 -25t-63 25t-25 63zM512 100q0 38 25 64t63 26t64 -26t26 -64t-26 -63t-64 -25t-63 25t-25 63z" />
<glyph unicode="&#x26;" horiz-adv-x="842" d="M77 232q9 70 36 141t66 137t81 116q-26 42 -51 105t-40 131t-15 135t24 121t75 86t139 30q78 -2 119 -34t54 -84t2 -118t-36 -134t-58 -135t-65 -119q-2 -6 21 -51t53 -98t57 -99t37 -56q20 76 13 148t-17 122q-6 32 11 50t42 20t48 -12t29 -44q38 -230 -38 -424l96 -146 q14 -24 7 -48t-26 -38t-45 -14t-46 24l-76 118q-44 -58 -115 -84t-161 -16q-92 8 -143 47t-69 96t-9 127zM208 189q4 -39 29 -68t81 -39q52 -4 102 22t78 66l-176 328q-14 -22 -35 -58t-40 -79t-31 -88t-8 -84zM286 918q10 -72 58 -180q8 14 25 46t34 72t29 84t13 81t-15 62 t-56 27q-24 2 -49 -16t-37 -61t-2 -115z" />
<glyph unicode="'" horiz-adv-x="474" d="M128 565q-8 23 10 45q32 28 47 64t15 70t-10 63t-26 45q-20 18 -14 43t26 42t47 20t51 -23q26 -28 43 -74t19 -99t-15 -110t-61 -105q-24 -26 -53 -28t-50 11t-29 36z" />
<glyph unicode="(" horiz-adv-x="740" d="M114 608q6 128 36 252t89 226t149 177t214 105q28 6 47 -13t23 -48t-10 -57t-50 -40q-102 -30 -168 -96t-105 -151t-56 -181t-21 -188q-6 -126 18 -235t68 -191t100 -130t116 -50q42 -4 58 -32t13 -58t-23 -54t-50 -18q-112 20 -198 84t-144 165t-85 236t-21 297z" />
<glyph unicode=")" horiz-adv-x="770" d="M134 1307q4 29 23 48t47 13q124 -30 214 -105t149 -177t89 -226t36 -252q6 -162 -21 -297t-85 -236t-145 -165t-197 -84q-30 -6 -50 18t-23 54t13 58t58 32q60 2 116 50t100 130t68 191t18 235q-4 92 -21 188t-56 181t-105 151t-168 96q-36 12 -50 40t-10 57z" />
<glyph unicode="*" horiz-adv-x="984" d="M163 793q-1 27 15 50t41 36t45 1l166 -92l-2 186q0 38 23 53t51 13t52 -17t24 -39l2 -170l106 86q30 24 56 15t43 -31t19 -50t-16 -44l-148 -118l170 -94q28 -24 28 -54t-16 -53t-41 -31t-47 10l-152 82l4 -180q-6 -36 -33 -51t-54 -13t-48 19t-15 45l-2 154l-140 -110 q-32 -18 -60 -7t-43 34t-15 49t24 40l172 136l-176 98q-32 20 -33 47z" />
<glyph unicode="+" horiz-adv-x="790" d="M92 464q2 28 17 51t39 23l174 2l2 166q6 36 33 51t54 12t47 -21t14 -46l-2 -160l172 2q36 -6 51 -33t13 -54t-20 -48t-46 -15l-172 -2v-172q0 -38 -24 -52t-52 -12t-50 17t-22 39v178h-162q-38 0 -53 23t-13 51z" />
<glyph unicode="," horiz-adv-x="446" d="M116 -129q-8 23 10 45q32 28 47 64t15 70t-10 63t-26 45q-20 18 -14 43t26 42t47 20t51 -23q26 -28 43 -74t19 -99t-15 -110t-61 -105q-24 -26 -53 -28t-50 11t-29 36z" />
<glyph unicode="-" horiz-adv-x="806" d="M92 464q2 28 17 51t39 23l494 6q36 -6 51 -33t13 -54t-20 -48t-46 -15l-482 -4q-38 0 -53 23t-13 51z" />
<glyph unicode="." horiz-adv-x="332" d="M78 82q0 38 25 64t63 26t64 -26t26 -64t-26 -63t-64 -25t-63 25t-25 63z" />
<glyph unicode="/" horiz-adv-x="764" d="M62 68l502 1122q20 30 50 32t54 -11t38 -38t2 -49l-508 -1106q-16 -34 -43 -39t-51 8t-39 36t-5 45z" />
<glyph unicode="0" horiz-adv-x="1068" d="M98 598q0 128 34 243t94 202t140 137t170 50t170 -50t140 -137t94 -202t34 -243q0 -130 -34 -241t-94 -194t-140 -130t-170 -47t-170 47t-140 130t-94 194t-34 241zM246 586q0 -92 23 -173t63 -142t93 -96t113 -35t112 35t91 96t61 142t22 173t-23 179t-63 154t-93 108 t-113 41t-112 -41t-91 -108t-61 -154t-22 -179z" />
<glyph unicode="1" horiz-adv-x="366" d="M104 1156q6 36 32 50t54 12t50 -20t22 -44l4 -1098q0 -38 -23 -53t-51 -13t-51 17t-23 39z" />
<glyph unicode="2" horiz-adv-x="882" d="M90 970q28 78 78 133t110 87t127 42t129 -2q52 -10 100 -37t84 -69t55 -100t15 -128q-6 -104 -44 -206t-97 -199t-131 -186t-148 -169h382q36 -6 49 -32t8 -52t-25 -46t-48 -14l-566 -4q-36 0 -54 20t-22 45t5 49t29 32q98 96 190 196t163 199t113 195t40 182 q-2 76 -44 122t-104 56q-40 6 -81 -1t-78 -29t-65 -58t-40 -86q-6 -28 -32 -32t-52 6t-42 33t-4 53z" />
<glyph unicode="3" horiz-adv-x="922" d="M84 204q-12 30 4 52t42 31t52 3t32 -32q14 -58 43 -92t61 -52t61 -23t45 -7q50 -4 96 10t81 44t58 72t29 92q6 64 -12 114t-54 84t-84 52t-100 18q-18 -2 -33 18t-20 46t5 49t40 27q30 0 71 11t78 37t60 68t17 106q-4 30 -21 60t-47 53t-72 36t-92 9q-16 -2 -45 -7 t-61 -23t-61 -52t-43 -92q-6 -28 -32 -33t-52 4t-42 31t-4 52q24 78 65 128t89 80t96 43t86 15q64 4 129 -13t119 -54t90 -94t44 -135q10 -102 -23 -172t-91 -114q76 -48 118 -138t28 -222q-10 -102 -52 -172t-101 -112t-128 -59t-133 -13q-38 2 -86 15t-96 43t-89 80 t-65 128z" />
<glyph unicode="4" horiz-adv-x="882" d="M88 1156q6 36 34 48t57 7t51 -24t16 -43l-2 -440h384l-4 452q6 36 34 49t56 9t50 -22t16 -42l4 -1094q0 -38 -23 -53t-52 -13t-52 17t-23 39l-6 502h-376q-70 0 -114 21t-44 89z" />
<glyph unicode="5" horiz-adv-x="902" d="M78 290q0 28 24 47t52 24t53 -7t27 -46q8 -106 60 -152t110 -54q76 -10 128 13t83 68t43 106t10 127q-4 68 -35 126t-85 93t-128 41t-160 -28q-14 -6 -37 -9t-47 4t-44 30t-28 69l-6 328q0 70 21 114t89 44h566q36 -6 48 -34t7 -57t-24 -51t-43 -16l-508 8v-270 q126 30 228 13t175 -69t115 -133t48 -179q8 -130 -18 -229t-86 -162t-151 -87t-213 -2q-130 22 -204 113t-70 217z" />
<glyph unicode="6" horiz-adv-x="972" d="M106 340q-16 118 0 246q8 58 22 134t44 153t77 149t119 123t170 74t232 3q24 -8 34 -36t6 -57t-23 -48t-55 -11q-86 12 -152 -3t-115 -48t-82 -78t-55 -94t-35 -95t-19 -80q40 30 95 48t107 24q80 6 151 -18t127 -73t90 -117t38 -148t-21 -154t-74 -133t-117 -97 t-148 -46q-126 -12 -212 37t-137 138t-67 207zM252 330q4 -48 28 -92t60 -75t81 -48t93 -11q48 4 90 27t73 59t47 82t14 94q-4 48 -25 89t-56 71t-80 46t-93 12q-48 -6 -92 -24t-77 -50t-51 -77t-12 -103z" />
<glyph unicode="7" horiz-adv-x="954" d="M86 1153q2 27 17 50t39 23l616 10q78 2 107 -40t-7 -126l-446 -1042q-12 -36 -39 -43t-53 3t-43 32t-9 44l428 1018h-546q-38 0 -52 22t-12 49z" />
<glyph unicode="8" horiz-adv-x="890" d="M92 336q0 84 37 159t101 125q-62 46 -98 115t-36 155q0 72 27 138t75 115t112 78t136 29t136 -29t112 -78t75 -115t27 -138q0 -84 -36 -153t-96 -115q64 -50 104 -125t40 -161q0 -72 -29 -138t-78 -115t-115 -78t-138 -29t-137 29t-114 78t-77 115t-28 138zM242 338 q0 -42 17 -80t46 -66t66 -45t79 -17t80 17t67 45t47 66t18 80t-18 80t-47 67t-67 46t-80 17t-79 -17t-66 -46t-46 -67t-17 -80zM242 888q0 -42 16 -76t44 -59t64 -38t78 -13t78 13t64 38t44 59t16 76t-16 80t-44 66t-64 45t-78 17t-78 -17t-64 -45t-44 -66t-16 -80z" />
<glyph unicode="9" horiz-adv-x="886" d="M80 836q0 72 27 138t75 116t112 79t136 29q58 0 109 -18t95 -52l2 32q0 24 23 39t51 17t51 -13t23 -53l2 -1112q-6 -42 -31 -58t-52 -13t-49 24t-24 53v37v91t-1 117t-1 117t-1 90t-1 38q-42 -30 -92 -47t-104 -17q-72 0 -136 30t-112 80t-75 117t-27 139zM226 838 q0 -42 16 -81t44 -68t64 -47t78 -18t79 17t65 45t44 66t14 80q-4 108 -61 162t-141 54q-42 0 -78 -17t-64 -46t-44 -67t-16 -80z" />
<glyph unicode=":" horiz-adv-x="402" d="M110 262q0 38 25 64t63 26t64 -26t26 -64t-26 -63t-64 -25t-63 25t-25 63zM110 640q0 38 25 64t63 26t64 -26t26 -64t-26 -63t-64 -25t-63 25t-25 63z" />
<glyph unicode=";" horiz-adv-x="438" d="M110 640q0 38 25 64t63 26t64 -26t26 -64t-26 -63t-64 -25t-63 25t-25 63zM116 -129q-8 23 10 45q32 28 47 64t15 70t-10 63t-26 45q-20 18 -14 43t26 42t47 20t51 -23q26 -28 43 -74t19 -99t-15 -110t-61 -105q-24 -26 -53 -28t-50 11t-29 36z" />
<glyph unicode="&#x3c;" horiz-adv-x="756" d="M116 492q6 24 22 44t38 28l388 218q22 8 43 -7t30 -40t2 -52t-39 -45l-282 -152l302 -154q34 -12 39 -39t-7 -52t-36 -41t-44 -6l-410 206q-32 18 -42 43t-4 49z" />
<glyph unicode="=" horiz-adv-x="808" d="M92 334q2 28 17 51t39 23l494 6q36 -6 51 -33t13 -54t-20 -48t-46 -15l-482 -4q-38 0 -53 23t-13 51zM92 592q2 28 17 51t39 23l494 6q36 -6 51 -33t13 -54t-20 -48t-46 -15l-482 -4q-38 0 -53 23t-13 51z" />
<glyph unicode="&#x3e;" horiz-adv-x="776" d="M131 295q5 27 39 39l302 154l-282 152q-32 18 -39 45t2 52t30 40t43 7l388 -218q20 -8 37 -28t23 -44t-4 -49t-42 -43l-410 -206q-22 -10 -45 6t-35 41t-7 52z" />
<glyph unicode="?" horiz-adv-x="920" d="M78 926q8 94 45 161t94 108t131 57t158 10q92 -10 158 -55t107 -110t57 -145t4 -158q-10 -64 -36 -124t-70 -108t-105 -79t-141 -37l-2 -112q0 -38 -23 -53t-51 -13t-51 17t-23 39v172q0 36 11 56t28 30t36 12t37 2q48 0 87 17t68 45t48 65t25 79q8 50 0 103t-33 97 t-65 75t-96 37q-96 10 -165 -43t-77 -163q-2 -34 -28 -46t-55 -7t-52 24t-21 47zM304 62q0 38 26 63t64 25t63 -25t25 -63t-25 -64t-63 -26t-64 26t-26 64z" />
<glyph unicode="@" horiz-adv-x="1578" d="M102 490q-2 148 51 279t147 230t226 157t290 60t278 -41t203 -117t129 -169t57 -197t-13 -203t-82 -186t-148 -146t-212 -83q-28 -6 -43 9t-22 40t-9 57t-2 62q-44 -34 -95 -52t-109 -18q-72 0 -136 29t-112 79t-75 116t-27 138t27 138t75 115t112 78t136 29 q54 0 104 -17t92 -47q8 34 36 47t57 9t51 -22t16 -42l-2 -576q78 10 133 74t79 156t10 195t-73 190t-169 141t-280 48q-116 -4 -214 -47t-170 -115t-114 -171t-46 -215q-4 -100 30 -195t111 -167t202 -110t303 -24q38 2 55 -19t16 -48t-17 -51t-46 -26q-208 -20 -360 27 t-252 137t-148 212t-50 252zM544 532q0 -42 16 -80t44 -67t64 -46t78 -17t78 17t64 46t44 67t16 80t-16 80t-44 66t-64 45t-78 17t-78 -17t-64 -45t-44 -66t-16 -80z" />
<glyph unicode="A" horiz-adv-x="1108" d="M112 60l382 1110q16 32 41 44q18 8 35 8q7 0 14 -1q24 -5 45 -21t29 -36l384 -1110q3 -7 3 -15q0 -15 -11 -29q-16 -22 -42 -33q-17 -7 -34 -7q-9 0 -19 2q-27 6 -39 40l-146 414h-356l-144 -408q-12 -34 -39 -40t-53 5t-42 33q-11 15 -11 29q0 8 3 15zM452 578h248 l-124 350z" />
<glyph unicode="B" horiz-adv-x="980" d="M130 116l12 988q0 8 7 27t23 40t42 38t66 23q30 6 82 8q15 1 30 0q39 0 83 -3q61 -5 122 -23t112 -54t84 -95t35 -145q0 -48 -14 -90t-40 -76t-59 -61t-69 -47q48 -22 91 -57t74 -78t48 -94q15 -46 15 -94v-11q-12 -198 -160 -277q-121 -64 -337 -64q-49 0 -103 3 q-28 2 -54 3t-46 13t-32 40t-12 86zM280 126q64 -14 141 -14t144 22t111 70t44 130q-2 70 -42 117t-103 75t-140 38q-55 7 -111 7q-22 0 -44 -1v-444zM280 720q31 -2 67 -2q27 0 57 1q70 3 133 23t105 62t42 114q0 40 -29 77t-82 62t-127 33q-21 2 -44 2q-56 0 -120 -14z " />
<glyph unicode="C" horiz-adv-x="1052" d="M118 598q0 128 34 243t94 202t140 137t170 50q126 0 224 -68t154 -220q8 -12 8 -25q0 -12 -7 -24q-15 -25 -43 -38t-59 -8t-49 41q-40 102 -98 140t-134 38q-60 0 -112 -40t-91 -107t-61 -154t-22 -179t23 -173t63 -141t93 -94t113 -34q78 0 143 61t101 157q14 36 43 41 t54 -10t38 -46q5 -13 5 -27q0 -19 -10 -40q-58 -134 -157 -216t-219 -82q-90 0 -170 48t-140 131t-94 195t-34 242z" />
<glyph unicode="D" horiz-adv-x="1012" d="M130 116l12 988q0 8 7 28t23 41t42 38t66 21q37 3 71 3q130 0 227 -42q122 -53 196 -151t105 -228q27 -115 28 -235q0 -15 -1 -31q-4 -120 -39 -228t-109 -187t-193 -122q-104 -38 -250 -38q-20 0 -41 1q-28 0 -55 1t-47 13t-31 41t-11 87zM280 126q38 -4 73 -4 q81 0 144 20q89 28 144 86t81 141t30 183q1 19 1 37q0 88 -16 173q-19 102 -72 178t-146 116q-64 28 -153 28q-40 0 -84 -6z" />
<glyph unicode="E" horiz-adv-x="976" d="M136 1128q0 52 28 79t104 27l538 -4q38 0 53 -23t13 -51t-17 -51t-39 -23l-522 -6v-376l346 -2q38 0 53 -23t13 -51t-17 -51t-39 -23l-354 -6l2 -418l512 -4q38 0 53 -23q13 -20 13 -44v-7q-2 -28 -17 -51t-39 -23l-548 -6q-18 0 -40 4t-40 13t-30 21t-12 30z" />
<glyph unicode="F" horiz-adv-x="980" d="M136 1140q0 52 28 79t104 27l538 -4q38 0 53 -23q13 -20 13 -44v-7q-2 -28 -17 -51t-39 -23l-522 -6v-388l346 -2q38 0 53 -23t13 -51t-17 -51t-39 -23l-354 -6l2 -524q0 -24 -24 -33q-18 -7 -38 -7q-7 0 -13 1q-27 3 -50 15t-23 30z" />
<glyph unicode="G" horiz-adv-x="1092" d="M118 598q0 128 34 243t94 202t140 137t170 50q62 0 120 -25t108 -69t90 -106t68 -136q6 -18 -16 -38t-51 -30t-55 -9t-28 25q-40 96 -102 164t-138 68q-60 0 -112 -42t-91 -110t-62 -156t-23 -180t24 -174t64 -143t93 -96t113 -35q52 0 101 20t86 64t62 115t29 173 l-234 -4q-38 0 -53 23t-13 51t17 51t39 23l260 2q54 0 83 -13t42 -34t14 -45v-16q0 -15 -1 -30q-8 -136 -45 -236t-96 -167t-134 -100t-159 -33q-90 0 -170 48t-140 131t-94 195t-34 242z" />
<glyph unicode="H" horiz-adv-x="1040" d="M104 1156q6 36 34 48t57 7t51 -24t16 -43l2 -440h504l-4 452q6 36 34 49q21 10 43 10l13 -1q28 -4 50 -22t16 -42l4 -1094q0 -38 -23 -53q-20 -13 -45 -13h-7q-29 2 -52 17t-23 39l-6 502h-504l2 -492q0 -38 -23 -53q-20 -13 -44 -13h-7q-28 2 -51 17t-23 39z" />
<glyph unicode="I" horiz-adv-x="812" d="M72 76v7q0 24 13 44q15 23 53 23l176 -2h6l-6 922l-176 -2q-38 0 -53 23q-13 20 -13 44v7q2 28 17 51t39 23h548q36 -6 49 -32q9 -19 9 -38q0 -7 -1 -14q-5 -26 -25 -46t-48 -14l-188 -2l2 -922l186 -2q28 6 48 -14t25 -46q1 -7 1 -14q0 -19 -9 -38q-13 -26 -49 -32h-548 q-24 0 -39 23t-17 51z" />
<glyph unicode="J" horiz-adv-x="1130" d="M71 347q13 31 38 46t54 10t43 -41q36 -96 101 -158q63 -60 138 -60h5q56 2 92 48t58 122t30 172t10 199q1 51 1 102t-1 102q-2 101 -4 185l-266 4q-38 0 -53 23t-13 51t17 51t39 23h652q36 -6 49 -32q9 -19 9 -38q0 -7 -1 -14q-5 -26 -25 -46t-48 -14l-200 -2 q4 -102 8 -221q2 -59 2 -119t-2 -120q-4 -120 -22 -233t-58 -201t-106 -143t-166 -61q-9 -1 -18 -1q-51 0 -98 19q-56 22 -104 62t-88 96t-68 122q-10 21 -10 40q0 14 5 27z" />
<glyph unicode="K" horiz-adv-x="1012" d="M104 1156q6 36 34 50q23 12 47 12q5 0 10 -1q29 -3 51 -20t16 -41l2 -448l484 498q32 16 60 1t43 -42t14 -55t-25 -38l-358 -356l410 -590q17 -13 17 -39q0 -29 -16 -55q-15 -24 -41 -33t-56 13l-424 594q-58 -54 -78 -77t-30 -21l2 -452q0 -38 -23 -53q-20 -13 -44 -13 h-7q-28 2 -51 17t-23 39z" />
<glyph unicode="L" horiz-adv-x="956" d="M104 1156q6 36 34 48q19 8 38 8q10 0 19 -2q29 -6 51 -25t16 -43l4 -992l546 8q36 -6 46 -33q6 -16 6 -32q0 -12 -3 -24q-7 -29 -28 -50t-45 -15l-548 -8q-20 0 -41 3t-39 13t-30 30t-12 56z" />
<glyph unicode="M" horiz-adv-x="1312" d="M104 1156q4 26 26 40t48 16h8q22 0 41 -9q23 -11 33 -35l390 -922l392 928q6 24 32 32t54 2t51 -23t21 -43l4 -1112q0 -38 -23 -53q-20 -13 -44 -13h-7q-28 2 -51 17t-23 39l-10 760l-320 -740q-10 -22 -31 -32t-46 -9t-47 13t-32 34l-308 714l4 -728q0 -38 -23 -53 t-51 -13t-51 17t-23 39z" />
<glyph unicode="N" horiz-adv-x="1028" d="M104 1156q4 30 25 45t47 18q6 1 11 1q20 0 40 -9q25 -11 37 -31l512 -874l-10 850q6 36 32 50t54 12t50 -20t22 -44l4 -1122q0 -24 -19 -37t-44 -16t-49 5t-34 26l-520 878l4 -852q0 -38 -23 -53q-20 -13 -44 -13h-7q-28 2 -51 17t-23 39z" />
<glyph unicode="O" horiz-adv-x="1112" d="M118 598q0 128 34 243t94 202t140 137t170 50t170 -50t140 -137t94 -202t34 -243q0 -130 -34 -241t-94 -194t-140 -130t-170 -47t-170 47t-140 130t-94 194t-34 241zM266 586q0 -92 23 -173t63 -142t93 -96t113 -35t112 35t91 96t61 142t22 173t-23 179t-63 154t-93 108 t-113 41t-112 -41t-91 -108t-61 -154t-22 -179z" />
<glyph unicode="P" horiz-adv-x="876" d="M98 18l4 1044q0 76 42 122t110 48h82t112 -8t122 -27t112 -56t83 -96t35 -147v-9q0 -106 -48 -181q-50 -78 -130 -126t-178 -67q-74 -14 -148 -14q-23 0 -46 1v-486q-12 -22 -37 -32q-23 -9 -45 -9h-5q-25 1 -45 12t-20 31zM250 646q18 -2 38 -2q40 0 86 8q70 12 133 43 t106 83t43 124q0 40 -29 79t-82 66t-127 37q-28 4 -59 4q-49 0 -105 -10z" />
<glyph unicode="Q" horiz-adv-x="1104" d="M118 598q0 128 34 243t94 202t140 137t170 50t170 -50t140 -137t94 -202t34 -243q0 -120 -31 -225t-83 -187l76 -100q16 -34 4 -59t-36 -37q-18 -9 -38 -9q-7 0 -14 1q-28 4 -40 30l-48 62q-50 -42 -107 -65t-121 -23q-90 0 -170 47t-140 130t-94 194t-34 241zM270 586 q0 -92 23 -173t62 -141t91 -94t112 -34q72 0 134 52l-84 110q-22 30 -13 56t32 41t51 17t42 -16l62 -86q28 56 43 124t15 144q0 92 -23 178t-62 153t-91 107t-112 40t-111 -40t-89 -107t-60 -153t-22 -178z" />
<glyph unicode="R" horiz-adv-x="968" d="M126 18l4 1044q0 76 42 122t110 48h82t112 -8t122 -27t112 -56t83 -96t35 -147q0 -48 -15 -93t-40 -83t-59 -68t-70 -50l208 -556q2 -7 2 -14q0 -19 -17 -31q-23 -17 -54 -22t-60 2t-31 25l-208 568q-54 -13 -105 -13h-19q-60 3 -88 9v-556q-12 -22 -36 -32 q-22 -9 -44 -9h-4q-24 1 -43 12t-19 31zM272 716q46 -5 105 -5h20q71 1 135 19t108 59t44 113q0 40 -31 79t-85 66t-130 37q-29 4 -61 4q-50 0 -105 -10v-362z" />
<glyph unicode="S" horiz-adv-x="938" d="M88 940q8 78 44 135t90 94t119 54q53 14 105 14q12 0 24 -1q38 -2 86 -15t96 -43t89 -80t65 -128q12 -30 -4 -52t-42 -31t-52 -4t-32 33q-14 58 -43 92t-61 52t-62 23t-44 7q-12 1 -23 1q-37 0 -69 -10q-42 -13 -72 -36t-48 -53t-20 -60q-1 -14 -1 -26q0 -46 17 -79 q22 -41 65 -69t102 -50t123 -48q62 -26 123 -57t106 -76t68 -109q16 -45 16 -102q0 -25 -3 -52q-10 -94 -56 -159t-113 -102t-146 -48q-32 -4 -64 -4q-46 0 -91 9q-102 20 -183 81t-107 163v6q0 32 19 54q21 24 47 33t50 0t28 -37q10 -72 68 -110t130 -48q21 -3 42 -2 q24 0 48 3q44 7 80 29t61 57t33 87q3 19 3 36q0 34 -11 61q-16 41 -50 71t-82 52t-102 44q-68 26 -137 56t-123 74t-85 109q-23 49 -23 116q0 22 2 45z" />
<glyph unicode="T" horiz-adv-x="1084" d="M94 1148q2 28 17 51t39 23h798q36 -6 47 -32q7 -17 7 -34q0 -9 -2 -18q-6 -26 -27 -46t-49 -14l-312 -2l4 -1038q0 -38 -23 -53q-20 -13 -44 -13h-7q-28 2 -51 17t-23 39l-14 1048l-294 -2q-38 0 -53 23q-13 20 -13 44v7z" />
<glyph unicode="U" horiz-adv-x="992" d="M99 838v27q0 136 9 301q2 38 27 53q22 13 47 13h7q29 -2 53 -17t22 -39q-11 -190 -11 -335q0 -42 1 -80q4 -171 14 -287q10 -128 38 -197t61 -102t64 -40t45 -7q28 0 65 13t74 46t67 87t46 136l12 744q2 32 24 53t49 24t52 -13t31 -58l-14 -1128q0 -38 -23 -53 q-20 -13 -44 -13h-7q-28 2 -51 17t-23 39l-2 92q-34 -48 -94 -91t-136 -45h-9q-123 0 -198 51q-77 53 -118 139t-55 193t-18 215q-4 116 -5 262z" />
<glyph unicode="V" horiz-adv-x="1148" d="M112 1124q-3 7 -3 15q0 15 11 29q16 22 42 33q17 7 34 7q9 0 19 -2q27 -6 39 -40l324 -916l322 910q12 34 39 40t53 -5t42 -33q11 -15 11 -29q0 -7 -3 -15l-382 -1110q-16 -34 -41 -45q-17 -8 -34 -8q-8 0 -15 2q-24 5 -45 20t-29 37z" />
<glyph unicode="W" horiz-adv-x="1660" d="M100 1124q-3 7 -3 15q0 15 11 29q16 22 42 33q17 7 34 7q9 0 19 -2q27 -6 39 -40l298 -916l226 870q8 22 27 33t41 11t42 -10t30 -32l230 -870l294 916q12 34 39 40q10 2 19 2q17 0 34 -7q26 -11 42 -33q11 -15 11 -29q0 -7 -3 -15l-354 -1110q-8 -22 -29 -37t-45 -20 t-49 6t-41 45l-218 798l-214 -800q-16 -34 -41 -45q-17 -8 -34 -8q-8 0 -15 2q-24 5 -45 20t-29 37z" />
<glyph unicode="X" horiz-adv-x="964" d="M110 70l290 546l-284 524q-9 11 -9 24q0 10 6 21q13 25 39 40q24 14 52 14h4q30 -1 52 -31l228 -428l228 428q20 30 51 31h4q29 0 53 -14q26 -15 38 -40q6 -12 6 -22q0 -12 -8 -23l-286 -524l292 -546q4 -9 4 -18q0 -13 -9 -27q-15 -23 -39 -36q-18 -10 -38 -10 q-6 0 -13 1q-27 4 -43 38l-240 440l-240 -440q-16 -34 -43 -38q-6 -1 -13 -1q-20 0 -38 10q-24 13 -39 36q-9 14 -9 27q0 9 4 18z" />
<glyph unicode="Y" horiz-adv-x="920" d="M76 1138q-3 8 -3 15q0 14 10 28q15 21 39 32t51 5t45 -38l260 -490l224 492q14 34 42 40q10 2 19 2q18 0 34 -7q25 -11 40 -33q10 -14 10 -29q0 -7 -3 -15l-288 -618l-2 -502q0 -38 -23 -53q-20 -13 -44 -13h-7q-28 2 -51 17t-23 39l-10 500q-4 8 -6 14z" />
<glyph unicode="Z" horiz-adv-x="964" d="M82 1154q2 28 19 50t45 22h658q18 0 36 -11t28 -33t6 -56t-30 -78l-522 -922l496 -2q38 0 53 -23q13 -20 13 -44v-7q-2 -28 -17 -51t-39 -23l-660 -2q-34 0 -50 17t-18 44t9 57t33 56l522 924l-520 -4q-36 6 -50 32q-12 23 -12 47v7z" />
<glyph unicode="[" horiz-adv-x="520" d="M74 1282q0 52 28 79t104 27l188 2q38 0 53 -23t13 -51t-17 -51t-39 -23l-172 -6l4 -1294l162 -4q38 0 53 -23t13 -51t-17 -51t-39 -23l-198 -2q-18 0 -40 4t-40 13t-30 21t-12 30z" />
<glyph unicode="\" horiz-adv-x="774" d="M66 1124q-12 24 2 49t38 38t53 11t51 -32l502 -1122q10 -22 -5 -45t-39 -36t-52 -8t-42 39z" />
<glyph unicode="]" horiz-adv-x="552" d="M86 -136q-2 28 13 51t53 23l162 4l4 1294l-172 6q-24 0 -39 23t-17 51t13 51t53 23l188 -2q76 0 104 -27t28 -79l-14 -1426q0 -18 -12 -30t-30 -21t-40 -13t-40 -4l-198 2q-24 0 -39 23t-17 51z" />
<glyph unicode="^" horiz-adv-x="550" d="M88 548l96 144q18 24 41 34t46 9t43 -13t34 -30l94 -138q8 -20 -2 -42t-28 -35t-42 -12t-44 25l-62 86l-58 -84q-16 -24 -39 -25t-43 10t-32 31t-4 40z" />
<glyph unicode="_" horiz-adv-x="756" d="M72 26q2 28 17 51t39 23l494 6q36 -6 51 -33t13 -54t-20 -48t-46 -15l-482 -4q-38 0 -53 23t-13 51z" />
<glyph unicode="`" horiz-adv-x="448" d="M101 936q3 26 22 47t48 28t59 -15l132 -150q16 -16 10 -43t-25 -47t-46 -26t-53 22l-126 140q-24 18 -21 44z" />
<glyph unicode="a" d="M92 340q0 72 27 138t75 115t112 78t136 29q54 0 104 -17t92 -47q8 34 36 47t57 9t51 -22q17 -14 17 -32q0 -5 -1 -10l-2 -602q0 -38 -23 -53q-20 -13 -44 -13h-7q-28 2 -51 17t-23 39l-2 32q-44 -34 -95 -52t-109 -18q-72 0 -136 29t-112 79t-75 116t-27 138zM238 338 q0 -42 16 -80t44 -67t64 -46t78 -17t78 17t64 46t44 67t16 80t-16 80t-44 66t-64 45t-78 17t-78 -17t-64 -45t-44 -66t-16 -80z" />
<glyph unicode="b" horiz-adv-x="890" d="M106 1160q6 42 31 58q21 13 44 13h8q27 -3 49 -24t24 -53v-39v-96t1 -123t1 -124t1 -96t1 -40q42 30 92 47t104 17q72 0 136 -29t112 -78t75 -115t27 -138t-27 -138t-75 -116t-112 -79t-136 -29q-58 0 -109 18t-95 52l-2 -32q0 -24 -23 -39t-51 -17h-7q-24 0 -44 13 q-23 15 -23 53zM262 338q0 -42 16 -80t44 -67t64 -46t78 -17t78 17t64 46t44 67t16 80t-16 80t-44 66t-64 45t-78 17t-78 -17t-64 -45t-44 -66t-16 -80z" />
<glyph unicode="c" horiz-adv-x="848" d="M92 340q0 72 27 138t75 116t112 79q60 27 127 27h9q120 -4 196 -59t104 -127q10 -24 -6 -45t-40 -33t-50 -10t-36 22q-28 58 -73 78t-97 20q-42 0 -78 -17t-64 -45t-44 -66t-16 -80t16 -80t44 -67t64 -46t78 -17q60 0 100 24t84 94q16 26 44 27t51 -13t35 -41 q5 -11 5 -22q0 -17 -11 -37q-46 -84 -127 -133t-179 -49q-72 0 -136 29t-112 79t-75 116t-27 138z" />
<glyph unicode="d" horiz-adv-x="904" d="M90 340q0 72 27 138t75 115t112 78t136 29q54 0 104 -17t92 -47q0 2 1 40t1 96t1 124t1 123v95v40q2 32 24 53t49 24h8q22 0 44 -13q25 -16 31 -58l-2 -1134q0 -38 -23 -53q-20 -13 -44 -13h-7q-28 2 -51 17t-23 39l-2 32q-44 -34 -95 -52t-109 -18q-72 0 -136 29 t-112 79t-75 116t-27 138zM236 338q0 -42 16 -80t44 -67t64 -46t78 -17t78 17t64 46t44 67t16 80t-16 80t-44 66t-64 45t-78 17t-78 -17t-64 -45t-44 -66t-16 -80z" />
<glyph unicode="e" horiz-adv-x="878" d="M92 340q0 72 27 137t75 114t112 78t136 31h12q55 0 107 -16q57 -18 102 -52t75 -84t40 -112q2 -17 2 -31q0 -46 -23 -76q-31 -39 -137 -39l-378 2q12 -62 53 -108t96 -63q27 -8 55 -8q30 0 63 9q63 18 119 82q20 22 50 22t54 -15t33 -40t-13 -53q-56 -70 -127 -105 t-144 -40q-13 -1 -26 -1q-60 0 -117 19q-70 23 -125 71t-88 119t-33 159zM264 436l368 -4q-10 38 -30 61t-46 36t-56 17t-60 4q-58 -2 -104 -33t-72 -81z" />
<glyph unicode="f" horiz-adv-x="884" d="M76 656q2 28 17 51t39 23h118q8 104 29 197t56 162t88 110t127 41q60 0 105 -20t76 -49t49 -62t26 -59q10 -21 10 -40q0 -14 -5 -27q-13 -31 -38 -46t-54 -10t-43 41q-16 52 -44 80t-80 30q-32 0 -57 -26t-42 -73t-28 -111t-17 -138h228q36 -6 49 -32t8 -52t-25 -46 t-48 -14l-214 -2q-3 -126 -3 -250v-62q1 -154 5 -266q2 -12 -23 -24t-56 -14h-8q-26 0 -49 11q-26 13 -22 49q-4 56 -4 100v101v139v214h-104q-38 0 -53 23q-13 20 -13 44v7z" />
<glyph unicode="g" horiz-adv-x="872" d="M78 356q0 72 27 138t75 116t112 79t136 29q58 0 109 -18t95 -52l2 32q0 24 23 39t51 17h7q24 0 44 -13q23 -15 23 -53v-522q0 -258 -86 -388q-81 -122 -272 -122h-24q-82 2 -144 38t-134 118q-24 26 -15 52t33 42t53 20t47 -12q40 -58 88 -82t90 -28q14 -1 27 -1 q42 0 74 15q41 20 65 56t33 86q7 41 7 87v21q-40 -26 -93 -40t-103 -14q-72 0 -136 29t-112 78t-75 115t-27 138zM224 358q0 -42 16 -80t44 -66t64 -45t78 -17t78 17t64 45t44 66t16 80t-16 80t-44 67t-64 46t-78 17t-78 -17t-64 -46t-44 -67t-16 -80z" />
<glyph unicode="h" horiz-adv-x="834" d="M100 46l2 1108q0 38 23 53q20 13 44 13h7q28 -2 51 -17t23 -39l2 -538q44 34 95 52t109 18q104 0 162 -49t87 -136t35 -208t6 -263q0 -38 -23 -53q-20 -13 -44 -13h-7q-28 2 -51 17t-23 39q1 43 1 82q0 116 -9 192q-12 102 -33 156t-48 70t-51 16q-42 0 -78 -17t-64 -46 t-44 -67t-16 -80v-284q-2 -32 -24 -53t-49 -24t-52 13t-31 58z" />
<glyph unicode="i" horiz-adv-x="388" d="M114 838q0 38 25 64t63 26t64 -26t26 -64t-26 -63t-64 -25t-63 25t-25 63zM118 632q6 36 34 49q21 10 44 10q7 0 14 -1q30 -4 52 -22q17 -14 17 -32q0 -5 -1 -10l-2 -570q0 -38 -23 -53q-20 -13 -44 -13h-7q-28 2 -51 17t-23 39z" />
<glyph unicode="j" horiz-adv-x="364" d="M-193 -277q3 27 25 48q17 16 45 16q8 0 17 -1q14 -2 27 -2q94 0 140 99q51 109 51 349v18l-2 430q0 24 23 39t51 17t51 -13t23 -53v-522q0 -130 -21 -231t-67 -169t-118 -97q-46 -19 -106 -19q-33 0 -70 6q-40 6 -56 32q-13 22 -13 44v9zM94 892q0 38 25 64t63 26t64 -26 t26 -64t-26 -63t-64 -25t-63 25t-25 63z" />
<glyph unicode="k" horiz-adv-x="808" d="M104 1156q6 36 34 49q21 10 43 10q7 0 14 -1q29 -4 51 -22t16 -42l2 -672l312 264q32 16 60 1t43 -42t14 -55t-25 -38l-186 -150l226 -370q6 -10 6 -23q0 -11 -5 -23q-11 -26 -34 -44t-52 -19h-2q-28 0 -49 29l-216 348l-92 -72l2 -228q0 -38 -23 -53t-51 -13t-51 17 t-23 39z" />
<glyph unicode="l" horiz-adv-x="372" d="M104 1156q6 36 32 50q23 12 47 12h7q28 -2 50 -20t22 -44l4 -1098q0 -38 -23 -53q-20 -13 -44 -13h-7q-28 2 -51 17t-23 39z" />
<glyph unicode="m" horiz-adv-x="1286" d="M100 46l2 602q0 38 23 53q20 13 44 13h7q28 -2 51 -17t23 -39l2 -32q44 34 95 52t109 18q84 0 138 -33t86 -93q48 64 117 99t121 35q104 0 162 -49t87 -136t35 -208t6 -263q0 -38 -23 -53t-51 -13t-51 17t-23 39q1 43 1 82q0 116 -9 192q-12 102 -33 156t-48 70t-51 16 q-70 0 -119 -50t-71 -114q10 -76 13 -163t3 -187q0 -38 -23 -53q-20 -13 -44 -13h-7q-28 2 -51 17t-23 39q1 43 1 82q0 116 -9 192q-12 102 -33 156t-48 70t-51 16q-42 0 -78 -17t-64 -46t-44 -67t-16 -80v-284q-2 -32 -24 -53t-49 -24t-52 13t-31 58z" />
<glyph unicode="n" horiz-adv-x="834" d="M100 46l2 602q0 38 23 53q20 13 44 13h7q28 -2 51 -17t23 -39l2 -32q44 34 95 52t109 18q104 0 162 -49t87 -136t35 -208t6 -263q0 -38 -23 -53q-20 -13 -44 -13h-7q-28 2 -51 17t-23 39q1 43 1 82q0 116 -9 192q-12 102 -33 156t-48 70t-51 16q-42 0 -78 -17t-64 -46 t-44 -67t-16 -80v-284q-2 -32 -24 -53t-49 -24t-52 13t-31 58z" />
<glyph unicode="o" d="M92 340q0 72 27 138t75 115t112 78t136 29t136 -29t112 -78t75 -115t27 -138t-27 -138t-75 -116t-112 -79t-136 -29t-136 29t-112 79t-75 116t-27 138zM238 338q0 -42 16 -80t44 -67t64 -46t78 -17t78 17t64 46t44 67t16 80t-16 80t-44 66t-64 45t-78 17t-78 -17t-64 -45 t-44 -66t-16 -80z" />
<glyph unicode="p" horiz-adv-x="894" d="M100 -296l2 944q0 38 23 53q20 13 44 13h7q28 -2 51 -17t23 -39l2 -32q44 34 95 52t109 18q72 0 136 -29t112 -79t75 -116t27 -138t-27 -138t-75 -115t-112 -78t-136 -29q-54 0 -104 17t-92 47q0 -2 -1 -53t-2 -112t-1 -111v-52q-2 -32 -24 -53t-49 -24h-8q-23 0 -44 13 q-25 16 -31 58zM256 336q0 -42 16 -80t44 -66t64 -45t78 -17t78 17t64 45t44 66t16 80t-16 80t-44 67t-64 46t-78 17t-78 -17t-64 -46t-44 -67t-16 -80z" />
<glyph unicode="q" horiz-adv-x="924" d="M100 334q0 72 27 138t75 116t112 79t136 29q58 0 109 -18t95 -52l2 32q0 24 27 39t57 16h3q28 0 50 -16q23 -17 17 -55q0 -74 -2 -166t-4 -187q-1 -47 -1 -93.5t1 -91.5q2 -90 10 -160t22 -114t40 -46q34 -4 44 25t10 67t22 57t48 18t49 -22t25 -59q1 -12 1 -24 q0 -91 -42 -149q-47 -65 -159 -67q-72 0 -112 48t-60 115t-26 136t-8 111q-52 -42 -109 -54t-109 -12q-72 0 -136 29t-112 78t-75 115t-27 138zM246 336q0 -42 16 -80t44 -66t64 -45t78 -17t78 17t64 45t44 66t16 80t-16 80t-44 67t-64 46t-78 17t-78 -17t-64 -46t-44 -67 t-16 -80z" />
<glyph unicode="r" horiz-adv-x="808" d="M100 46l2 602q0 38 23 53q20 13 44 13h7q28 -2 51 -17t23 -39l2 -32q44 34 95 52t109 18q84 0 154 -35t112 -101q8 -13 8 -29q0 -8 -2 -17q-6 -26 -24 -44t-44 -21t-56 25t-67 50t-79 22t-78 -17t-64 -46t-44 -67t-16 -80v-284q-2 -32 -24 -53t-49 -24h-8q-22 0 -44 13 q-25 16 -31 58z" />
<glyph unicode="s" horiz-adv-x="814" d="M108 188q-1 6 -1 12q0 28 16 48q19 24 45 33t50 1t30 -36q16 -84 68 -114t108 -34q10 -1 20 -1q42 0 77 14q43 17 47 45q1 9 1 17q0 39 -32 57q-39 22 -99 34q-46 10 -98 21t-96 34t-72 65t-28 112q0 56 25 98t66 71t94 41q40 9 81 9q14 0 28 -1q76 -6 149 -44t119 -114 q14 -28 0 -51t-40 -34t-52 -6t-34 33q-24 40 -65 59t-71 23q-13 2 -26 2q-38 0 -72 -18q-46 -24 -54 -56q-6 -32 5 -51t33 -31t54 -20t68 -14q52 -10 102 -25t88 -42t60 -69q17 -33 17 -81q0 -13 -1 -27q-4 -54 -35 -93t-76 -62t-100 -31q-31 -5 -63 -5q-23 0 -46 3 q-48 6 -94 23t-85 45t-68 68t-43 92z" />
<glyph unicode="t" horiz-adv-x="770" d="M74 676q2 28 17 51t39 23h174l-4 316q6 36 34 49q23 11 46 11q5 0 11 -1q29 -3 51 -21t16 -42v-312h176q36 -6 51 -32q12 -21 12 -42q0 -6 -1 -11q-4 -27 -26 -47q-18 -17 -48 -17q-6 0 -12 1h-150l2 -554q0 -38 -24 -53q-21 -13 -45 -13h-7q-28 2 -52 17t-24 39l-4 564 h-166q-38 0 -53 23q-13 20 -13 44v7z" />
<glyph unicode="u" horiz-adv-x="846" d="M102 372q-1 41 -1 84q0 88 5 188q2 38 27 53q22 13 47 13h7q29 -2 53 -17t22 -39q-9 -112 -8 -194q0 -53 3 -93q9 -103 30 -154t49 -63t52 -12q42 0 78 17t64 46t44 67t16 80v284q2 32 24 53t49 24t52 -13t31 -58l-2 -602q0 -38 -23 -53q-20 -13 -44 -13h-7q-28 2 -51 17 t-23 39l-2 32q-44 -34 -95 -52t-109 -18q-104 0 -165 46t-90 131t-33 207z" />
<glyph unicode="v" horiz-adv-x="790" d="M76 614q-3 7 -3 15q0 15 11 29q16 22 42 33t53 5t39 -40l182 -420l160 424q12 34 39 40q10 2 19 2q17 0 34 -7q26 -11 42 -33q11 -15 10 -29q0 -7 -2 -15l-220 -588q-16 -34 -41 -45q-17 -8 -34 -8q-8 0 -15 2q-24 5 -45 20t-29 37z" />
<glyph unicode="w" horiz-adv-x="1232" d="M102 614q-3 7 -3 15q0 15 11 29q16 22 42 33q17 7 34 7q9 0 19 -2q27 -6 39 -40l162 -404l138 388q10 26 31 41t45 17h6q21 0 40 -11q22 -13 34 -43l146 -396l142 408q12 34 39 40q10 2 19 2q17 0 34 -7q26 -11 42 -33q11 -15 11 -29q0 -7 -3 -15l-202 -588 q-16 -34 -41 -45q-17 -8 -34 -8q-8 0 -15 2q-24 5 -45 20t-29 37l-146 378l-130 -380q-16 -34 -41 -45t-49 -6t-45 20t-29 37z" />
<glyph unicode="x" horiz-adv-x="788" d="M107 25q-4 9 -4 19q0 18 13 38l184 254l-190 256q-6 15 -6 28q0 17 10 30q18 24 46 33q17 5 34 5q11 0 23 -2q29 -6 39 -30l138 -190l138 190q8 24 37 30q12 2 23 2l35 -5q29 -9 47 -33q10 -14 10 -30q0 -13 -6 -28l-190 -256l184 -254q13 -21 13 -38q0 -10 -4 -19 q-11 -25 -35 -38t-52 -13t-40 20l-160 214l-160 -214q-12 -20 -40 -20t-52 13t-35 38z" />
<glyph unicode="y" horiz-adv-x="916" d="M90 606q-2 11 -2 21q0 22 12 38q18 23 45 32t54 2t37 -31l270 -464l168 468q20 32 49 36q7 1 13 1q22 0 42 -10q26 -13 40 -37q8 -14 8 -28q0 -10 -4 -20l-350 -940q-12 -34 -39 -40q-9 -2 -18 -2q-17 0 -34 8q-25 12 -41 34t-8 44l100 280z" />
<glyph unicode="z" horiz-adv-x="822" d="M74 636q2 28 19 50t45 22h534q18 0 37 -16t29 -42t7 -58t-33 -62l-384 -404l354 -2q38 0 53 -23q13 -20 13 -44v-7q-2 -28 -17 -51t-39 -23l-524 -2q-34 0 -54 12t-27 33t0 47t29 52l388 436l-368 -4q-36 6 -50 32q-12 23 -12 47v7z" />
<glyph unicode="{" horiz-adv-x="760" d="M103 546q3 26 18 48t37 32l162 102q0 106 4 209t31 188t85 147t166 84q28 6 47 -14t23 -48t-10 -56t-50 -40q-80 -24 -112 -82t-40 -132t-4 -158t-2 -158q-2 -10 -9 -21t-24 -25t-48 -34t-79 -46q46 -18 76 -29t48 -18t26 -15t10 -20q-6 -144 -2 -244t19 -161t43 -87 t70 -26q42 -4 58 -31t13 -57t-23 -54t-50 -20q-102 12 -160 70t-85 141t-29 183t6 198l-160 82q-34 14 -46 40t-9 52z" />
<glyph unicode="|" horiz-adv-x="372" d="M104 1156q6 36 32 50t54 12t50 -20t22 -44l4 -1098q0 -38 -23 -53t-51 -13t-51 17t-23 39z" />
<glyph unicode="}" horiz-adv-x="786" d="M78 1294q4 28 23 48t47 14q108 -22 166 -84t85 -147t31 -188t4 -209l162 -102q20 -10 36 -32t19 -48t-9 -52t-46 -40l-160 -82q8 -98 6 -198t-29 -183t-85 -141t-160 -70q-30 -4 -50 20t-23 54t13 57t58 31q42 0 70 26t43 87t19 161t-2 244q2 12 10 20t26 15t48 18t76 29 q-48 26 -79 46t-48 34t-24 25t-9 21q-6 74 -2 158t-4 158t-40 132t-112 82q-36 12 -50 40t-10 56z" />
<glyph unicode="~" horiz-adv-x="820" d="M98 576q28 70 70 120t112 48q58 0 95 -22t64 -47t53 -46t62 -21q32 0 42 28t12 70q8 26 31 36t47 5t41 -25t15 -54q-8 -84 -59 -137t-115 -57q-52 -4 -87 20t-65 52t-60 50t-68 16q-30 -4 -42 -30t-26 -70q-12 -34 -37 -40t-48 6t-36 39t-1 59z" />
<glyph unicode="&#xa1;" horiz-adv-x="366" d="M14 1134q0 38 25 64t63 26t64 -26t26 -64t-26 -63t-64 -25t-63 25t-25 63zM18 928q6 36 34 50t56 11t50 -20t16 -41l-6 -936q0 -38 -23 -53t-51 -13t-51 17t-23 39z" />
<glyph unicode="&#xa2;" horiz-adv-x="848" d="M98 482q0 62 20 120t56 105t86 80t108 47v36q6 36 32 50t54 12t50 -20t22 -44v-36q88 -18 144 -68t78 -108q10 -24 -6 -45t-40 -33t-50 -10t-36 22q-16 34 -39 54t-51 30l2 -390q50 22 102 104q16 26 44 27t51 -13t35 -41t-6 -59q-36 -64 -95 -110t-129 -62v-30 q0 -38 -23 -53t-51 -13t-51 17t-23 39l-2 38q-60 12 -112 45t-90 80t-59 106t-21 123zM244 480q0 -66 38 -121t96 -77l-6 390q-56 -22 -92 -75t-36 -117z" />
<glyph unicode="&#xa3;" horiz-adv-x="890" d="M70 706q2 28 17 51t39 23h118q8 104 29 197t56 162t88 110t127 41q60 0 105 -20t76 -49t49 -62t26 -59q18 -36 5 -67t-38 -46t-54 -10t-43 41q-16 52 -44 80t-80 30q-32 0 -57 -26t-42 -73t-28 -111t-17 -138h228q36 -6 49 -32t8 -52t-25 -46t-48 -14l-214 -2 q-4 -128 -3 -254t3 -230l374 8q36 -6 46 -33t3 -56t-28 -50t-45 -15l-388 -8q-50 0 -85 22t-37 80h2q-2 50 -2 92v98v137v207h-104q-38 0 -53 23t-13 51z" />
<glyph unicode="&#xa5;" horiz-adv-x="920" d="M76 1138q-8 22 7 43t39 32t51 5t45 -38l260 -490l224 492q14 34 42 40t53 -5t40 -33t7 -44l-288 -618l164 2q36 -6 51 -33t13 -54t-20 -48t-46 -15l-164 -2v-108l166 2q36 -6 51 -33t13 -54t-20 -48t-46 -15l-164 -2v-94q0 -38 -23 -53t-51 -13t-51 17t-23 39l-2 102 h-168q-38 0 -53 23t-13 51t17 51t39 23l174 2l-2 108h-162q-38 0 -53 23t-13 51t17 51t39 23l166 2l-2 4z" />
<glyph unicode="&#xa8;" horiz-adv-x="596" d="M80 810q0 38 25 64t63 26t64 -26t26 -64t-26 -63t-64 -25t-63 25t-25 63zM332 810q0 38 25 64t63 26t64 -26t26 -64t-26 -63t-64 -25t-63 25t-25 63z" />
<glyph unicode="&#xa9;" horiz-adv-x="1300" d="M78 610q2 158 54 274t134 193t185 113t210 33t208 -46t178 -124t121 -202t38 -279q-6 -142 -58 -246t-133 -172t-183 -101t-207 -30t-204 42t-176 112t-123 182t-44 251zM204 616q-4 -114 31 -199t93 -142t132 -88t146 -35q78 -4 158 13t147 65t112 132t55 214 q10 128 -27 225t-100 162t-144 98t-159 37q-78 2 -155 -29t-140 -93t-104 -153t-45 -207zM290 632q0 72 27 138t75 116t112 79t136 27q120 -4 196 -59t104 -127q10 -24 -6 -45t-40 -33t-50 -10t-36 22q-28 58 -73 78t-97 20q-42 0 -78 -17t-64 -45t-44 -66t-16 -80t16 -80 t44 -67t64 -46t78 -17q60 0 100 24t84 94q16 26 44 27t51 -13t35 -41t-6 -59q-46 -84 -127 -133t-179 -49q-72 0 -136 29t-112 79t-75 116t-27 138z" />
<glyph unicode="&#xaa;" horiz-adv-x="564" d="M72 504q0 44 16 83t45 69t67 47t82 17q66 0 116 -38q4 20 21 27t35 5t31 -13t9 -25v-360q0 -22 -14 -31t-31 -8t-31 10t-14 23v18q-58 -42 -122 -42q-44 0 -82 18t-67 48t-45 69t-16 83zM158 502q0 -50 36 -88t86 -38t86 38t36 88q0 52 -36 89t-86 37t-86 -37t-36 -89z " />
<glyph unicode="&#xab;" horiz-adv-x="1170" d="M116 492q6 24 22 44t38 28l388 218q22 8 43 -7t30 -40t2 -52t-39 -45l-282 -152l302 -154q34 -12 39 -39t-7 -52t-36 -41t-44 -6l-410 206q-32 18 -42 43t-4 49zM526 506q6 24 22 44t38 28l388 218q22 8 43 -7t30 -40t2 -52t-39 -45l-282 -152l302 -154q34 -12 39 -39 t-7 -52t-36 -41t-44 -6l-410 206q-32 18 -42 43t-4 49z" />
<glyph unicode="&#xac;" horiz-adv-x="920" d="M92 592q2 28 17 51t39 23l540 6q54 2 86 -25t32 -103l-2 -238q0 -38 -24 -52t-52 -12t-50 17t-22 39v222l-498 -2q-38 0 -53 23t-13 51z" />
<glyph unicode="&#xad;" horiz-adv-x="806" d="M92 464q2 28 17 51t39 23l494 6q36 -6 51 -33t13 -54t-20 -48t-46 -15l-482 -4q-38 0 -53 23t-13 51z" />
<glyph unicode="&#xae;" horiz-adv-x="1292" d="M78 610q2 158 54 274t134 193t185 113t210 33t208 -46t178 -124t121 -202t38 -279q-6 -142 -58 -246t-133 -172t-183 -101t-207 -30t-204 42t-176 112t-123 182t-44 251zM204 616q-4 -114 31 -199t93 -142t132 -88t146 -35q78 -4 158 13t147 65t112 132t55 214 q10 128 -27 225t-100 162t-144 98t-159 37q-78 2 -155 -29t-140 -93t-104 -153t-45 -207zM422 276l2 616q0 46 37 73t77 27q28 0 82 -1t109 -19t96 -58t43 -118q2 -58 -31 -104t-75 -68l132 -320q4 -16 -12 -28t-39 -16t-42 -2t-21 12l-122 336q-38 -10 -72 -8t-50 6l8 -328 q-6 -14 -26 -20t-41 -5t-38 7t-17 18zM536 708q28 -4 66 -3t73 11t60 31t25 59q0 20 -17 38t-47 30t-71 15t-87 -5z" />
<glyph unicode="&#xaf;" horiz-adv-x="732" d="M58 808q2 28 17 51t39 23l494 6q36 -6 51 -33t13 -54t-20 -48t-46 -15l-482 -4q-38 0 -53 23t-13 51z" />
<glyph unicode="&#xb0;" horiz-adv-x="410" d="M76 850q0 54 37 92t91 38t92 -38t38 -92t-38 -91t-92 -37t-91 37t-37 91zM166 850q0 -38 38 -38q16 0 28 11t12 27t-12 28t-28 12t-27 -12t-11 -28z" />
<glyph unicode="&#xb1;" horiz-adv-x="806" d="M92 284q2 28 17 51t39 23l494 6q36 -6 51 -33t13 -54t-20 -48t-46 -15l-482 -4q-38 0 -53 23t-13 51zM98 706q2 28 17 51t39 23l174 2l2 166q6 36 33 51t54 12t47 -21t14 -46l-2 -160l172 2q36 -6 51 -33t13 -54t-20 -48t-46 -15l-172 -2v-172q0 -38 -24 -52t-52 -12 t-50 17t-22 39v178h-162q-38 0 -53 23t-13 51z" />
<glyph unicode="&#xb2;" horiz-adv-x="562" d="M70 882q18 46 47 79t65 53t76 26t78 -2q64 -12 111 -64t41 -136q-4 -64 -27 -125t-57 -119t-78 -111t-90 -101h230q22 -4 29 -20t4 -32t-14 -27t-29 -7l-340 -4q-22 0 -32 12t-13 27t3 30t18 19q60 56 115 117t97 121t67 117t25 109q-2 46 -27 73t-63 33q-24 4 -48 0 t-46 -17t-39 -35t-25 -52q-4 -16 -19 -19t-31 3t-26 20t-2 32z" />
<glyph unicode="&#xb3;" horiz-adv-x="586" d="M66 422q-8 18 2 31t26 19t31 2t19 -20q8 -34 25 -55t37 -31t37 -14t27 -4q60 -4 106 33t52 99q4 38 -7 68t-32 50t-50 31t-61 11q-10 0 -19 12t-12 27t3 28t24 17q18 0 42 7t47 22t37 41t10 64q-2 18 -13 36t-29 32t-43 21t-55 5q-10 0 -27 -4t-37 -14t-37 -30t-25 -56 q-4 -16 -19 -20t-31 2t-26 19t-2 31q14 46 39 76t54 48t58 26t51 10q38 2 78 -8t72 -32t54 -57t26 -81q6 -62 -14 -103t-56 -69q46 -28 72 -83t16 -133q-6 -62 -31 -104t-60 -67t-77 -35t-80 -8q-22 2 -51 9t-58 25t-54 49t-39 77z" />
<glyph unicode="&#xb4;" horiz-adv-x="462" d="M94 803q-6 27 10 43l132 150q30 22 59 17t47 -24t21 -46t-19 -51l-126 -140q-26 -28 -53 -22t-46 26t-25 47z" />
<glyph unicode="&#xb8;" horiz-adv-x="546" d="M116 40h118l4 -50q116 -4 172 -49t56 -115q0 -104 -67 -147t-175 -41q-40 0 -61 22t-24 48t14 49t57 25q18 0 39 1t37 5t26 13t8 27q-4 22 -22 28t-78 4q-8 0 -29 2t-40 19t-32 53t-3 106z" />
<glyph unicode="&#xb9;" horiz-adv-x="252" d="M78 994q4 22 20 30t33 7t30 -12t13 -27l2 -658q0 -22 -14 -31t-31 -8t-31 10t-14 23z" />
<glyph unicode="&#xbb;" horiz-adv-x="1218" d="M131 295q5 27 39 39l302 154l-282 152q-32 18 -39 45t2 52t30 40t43 7l388 -218q20 -8 37 -28t23 -44t-4 -49t-42 -43l-410 -206q-22 -10 -45 6t-35 41t-7 52zM583 293q5 27 39 39l302 154l-282 152q-32 18 -39 45t2 52t30 40t43 7l388 -218q20 -8 37 -28t23 -44t-4 -49 t-42 -43l-410 -206q-22 -10 -45 6t-35 41t-7 52z" />
<glyph unicode="&#xbc;" horiz-adv-x="1114" d="M90 44q-6 16 2 28l686 1144q16 14 34 12t30 -13t17 -28t-5 -29l-686 -1134q-14 -18 -30 -17t-29 11t-19 26zM124 1176q4 22 20 30t33 7t30 -12t13 -27l2 -658q0 -22 -14 -31t-31 -8t-31 10t-14 23zM618 686q4 22 21 29t35 4t30 -15t10 -26l-2 -264h230l-2 272q4 22 21 30 t34 5t29 -14t10 -25l2 -656q0 -22 -14 -31t-31 -8t-31 10t-14 23l-4 300h-224q-42 0 -69 13t-27 53z" />
<glyph unicode="&#xbd;" horiz-adv-x="1114" d="M90 44q-6 16 2 28l686 1144q16 14 34 12t30 -13t17 -28t-5 -29l-686 -1134q-14 -18 -30 -17t-29 11t-19 26zM124 1176q4 22 20 30t33 7t30 -12t13 -27l2 -658q0 -22 -14 -31t-31 -8t-31 10t-14 23zM602 606q18 46 47 79t65 53t76 26t78 -2q64 -12 111 -64t41 -136 q-4 -64 -27 -125t-57 -119t-78 -111t-90 -101h230q22 -4 29 -20t4 -32t-14 -27t-29 -7l-340 -4q-22 0 -32 12t-13 27t3 30t18 19q60 56 115 117t97 121t67 117t25 109q-2 46 -27 73t-63 33q-24 4 -48 0t-46 -17t-39 -35t-25 -52q-4 -16 -19 -19t-31 3t-26 20t-2 32z" />
<glyph unicode="&#xbe;" horiz-adv-x="1342" d="M80 606q-8 18 2 31t26 19t31 2t19 -20q8 -34 25 -55t37 -31t37 -14t27 -4q60 -4 106 33t52 99q4 38 -7 68t-32 50t-50 31t-61 11q-10 0 -19 12t-12 27t3 28t24 17q18 0 42 7t47 22t37 41t10 64q-2 18 -13 36t-29 32t-43 21t-55 5q-10 0 -27 -4t-37 -14t-37 -30t-25 -56 q-4 -16 -19 -20t-31 2t-26 19t-2 31q14 46 39 76t54 48t58 26t51 10q38 2 78 -8t72 -32t54 -57t26 -81q6 -62 -14 -103t-56 -69q46 -28 72 -83t16 -133q-6 -62 -31 -104t-60 -67t-77 -35t-80 -8q-22 2 -51 9t-58 25t-54 49t-39 77zM276 44q-6 16 2 28l686 1144q16 14 34 12 t30 -13t17 -28t-5 -29l-686 -1134q-14 -18 -30 -17t-29 11t-19 26zM818 694q4 22 21 29t35 4t30 -15t10 -26l-2 -264h230l-2 272q4 22 21 30t34 5t29 -14t10 -25l2 -656q0 -22 -14 -31t-31 -8t-31 10t-14 23l-4 300h-224q-42 0 -69 13t-27 53z" />
<glyph unicode="&#xbf;" horiz-adv-x="920" d="M20 404q10 64 36 124t70 108t105 79t141 37l2 112q0 38 23 53t51 13t51 -17t23 -39v-172q0 -36 -11 -56t-28 -30t-36 -12t-37 -2q-48 0 -87 -17t-68 -45t-48 -65t-25 -79q-8 -50 0 -103t33 -97t65 -75t96 -37q96 -10 165 43t77 163q2 34 28 46t55 7t52 -24t21 -47 q-8 -94 -45 -161t-94 -108t-131 -57t-158 -10q-92 10 -158 55t-107 110t-57 145t-4 158zM370 1136q0 38 25 64t63 26t64 -26t26 -64t-26 -63t-64 -25t-63 25t-25 63z" />
<glyph unicode="&#xc0;" horiz-adv-x="1108" d="M112 60l382 1110q16 32 41 44t49 7t45 -21t29 -36l384 -1110q8 -22 -8 -44t-42 -33t-53 -5t-39 40l-146 414h-356l-144 -408q-12 -34 -39 -40t-53 5t-42 33t-8 44zM421 1476q3 26 22 47t48 28t59 -15l132 -150q16 -16 10 -43t-25 -47t-46 -26t-53 22l-126 140 q-24 18 -21 44zM452 578h248l-124 350z" />
<glyph unicode="&#xc1;" horiz-adv-x="1108" d="M112 60l382 1110q16 32 41 44t49 7t45 -21t29 -36l384 -1110q8 -22 -8 -44t-42 -33t-53 -5t-39 40l-146 414h-356l-144 -408q-12 -34 -39 -40t-53 5t-42 33t-8 44zM428 1337q-6 27 10 43l132 150q30 22 59 17t47 -24t21 -46t-19 -51l-126 -140q-26 -28 -53 -22t-46 26 t-25 47zM452 578h248l-124 350z" />
<glyph unicode="&#xc2;" horiz-adv-x="1108" d="M112 60l382 1110q16 32 41 44t49 7t45 -21t29 -36l384 -1110q8 -22 -8 -44t-42 -33t-53 -5t-39 40l-146 414h-356l-144 -408q-12 -34 -39 -40t-53 5t-42 33t-8 44zM376 1348l96 144q18 24 41 34t46 9t43 -13t34 -30l94 -138q8 -20 -2 -42t-28 -35t-42 -12t-44 25l-62 86 l-58 -84q-16 -24 -39 -25t-43 10t-32 31t-4 40zM452 578h248l-124 350z" />
<glyph unicode="&#xc3;" horiz-adv-x="1108" d="M112 60l382 1110q16 32 41 44t49 7t45 -21t29 -36l384 -1110q8 -22 -8 -44t-42 -33t-53 -5t-39 40l-146 414h-356l-144 -408q-12 -34 -39 -40t-53 5t-42 33t-8 44zM244 1408q28 70 70 120t112 48q58 0 95 -22t64 -47t53 -46t62 -21q32 0 42 28t12 70q8 26 31 36t47 5 t41 -25t15 -54q-8 -84 -59 -137t-115 -57q-52 -4 -87 20t-65 52t-60 50t-68 16q-30 -4 -42 -30t-26 -70q-12 -34 -37 -40t-48 6t-36 39t-1 59zM452 578h248l-124 350z" />
<glyph unicode="&#xc4;" horiz-adv-x="1108" d="M112 60l382 1110q16 32 41 44t49 7t45 -21t29 -36l384 -1110q8 -22 -8 -44t-42 -33t-53 -5t-39 40l-146 414h-356l-144 -408q-12 -34 -39 -40t-53 5t-42 33t-8 44zM338 1350q0 38 25 64t63 26t64 -26t26 -64t-26 -63t-64 -25t-63 25t-25 63zM452 578h248l-124 350z M590 1350q0 38 25 64t63 26t64 -26t26 -64t-26 -63t-64 -25t-63 25t-25 63z" />
<glyph unicode="&#xc5;" horiz-adv-x="1108" d="M112 60l382 1110q16 32 41 44t49 7t45 -21t29 -36l384 -1110q8 -22 -8 -44t-42 -33t-53 -5t-39 40l-146 414h-356l-144 -408q-12 -34 -39 -40t-53 5t-42 33t-8 44zM424 1390q0 54 37 92t91 38t92 -38t38 -92t-38 -91t-92 -37t-91 37t-37 91zM452 578h248l-124 350z M514 1390q0 -38 38 -38q16 0 28 11t12 27t-12 28t-28 12t-27 -12t-11 -28z" />
<glyph unicode="&#xc6;" horiz-adv-x="1574" d="M91 54q-13 26 1 48l630 1084q18 22 35 32t35 14t36 3t40 -1l538 -4q38 0 53 -23t13 -51t-17 -51t-39 -23l-522 -6v-376l346 -2q38 0 53 -23t13 -51t-17 -51t-39 -23l-354 -6l2 -418l512 -4q38 0 53 -23t13 -51t-17 -51t-39 -23l-548 -6q-18 0 -40 4t-40 13t-30 21t-12 30 l-6 396l-280 4l-232 -406q-20 -34 -50 -34t-54 16t-37 42zM542 586h200l-4 332z" />
<glyph unicode="&#xc7;" horiz-adv-x="1052" d="M118 598q0 128 34 243t94 202t140 137t170 50q126 0 224 -68t154 -220q16 -24 1 -49t-43 -38t-59 -8t-49 41q-40 102 -98 140t-134 38q-60 0 -112 -40t-91 -107t-61 -154t-22 -179t23 -173t63 -141t93 -94t113 -34q78 0 143 61t101 157q14 36 43 41t54 -10t38 -46t-5 -67 q-58 -134 -157 -216t-219 -82q-90 0 -170 48t-140 131t-94 195t-34 242zM478 16h118l4 -50q116 -4 172 -49t56 -115q0 -104 -67 -147t-175 -41q-40 0 -61 22t-24 48t14 49t57 25q18 0 39 1t37 5t26 13t8 27q-4 22 -22 28t-78 4q-8 0 -29 2t-40 19t-32 53t-3 106z" />
<glyph unicode="&#xc8;" horiz-adv-x="976" d="M136 1128q0 52 28 79t104 27l538 -4q38 0 53 -23t13 -51t-17 -51t-39 -23l-522 -6v-376l346 -2q38 0 53 -23t13 -51t-17 -51t-39 -23l-354 -6l2 -418l512 -4q38 0 53 -23t13 -51t-17 -51t-39 -23l-548 -6q-18 0 -40 4t-40 13t-30 21t-12 30zM355 1476q3 26 22 47t48 28 t59 -15l132 -150q16 -16 10 -43t-25 -47t-46 -26t-53 22l-126 140q-24 18 -21 44z" />
<glyph unicode="&#xc9;" horiz-adv-x="976" d="M136 1128q0 52 28 79t104 27l538 -4q38 0 53 -23t13 -51t-17 -51t-39 -23l-522 -6v-376l346 -2q38 0 53 -23t13 -51t-17 -51t-39 -23l-354 -6l2 -418l512 -4q38 0 53 -23t13 -51t-17 -51t-39 -23l-548 -6q-18 0 -40 4t-40 13t-30 21t-12 30zM348 1343q-6 27 10 43 l132 150q30 22 59 17t47 -24t21 -46t-19 -51l-126 -140q-26 -28 -53 -22t-46 26t-25 47z" />
<glyph unicode="&#xca;" horiz-adv-x="976" d="M136 1128q0 52 28 79t104 27l538 -4q38 0 53 -23t13 -51t-17 -51t-39 -23l-522 -6v-376l346 -2q38 0 53 -23t13 -51t-17 -51t-39 -23l-354 -6l2 -418l512 -4q38 0 53 -23t13 -51t-17 -51t-39 -23l-548 -6q-18 0 -40 4t-40 13t-30 21t-12 30zM310 1348l96 144q18 24 41 34 t46 9t43 -13t34 -30l94 -138q8 -20 -2 -42t-28 -35t-42 -12t-44 25l-62 86l-58 -84q-16 -24 -39 -25t-43 10t-32 31t-4 40z" />
<glyph unicode="&#xcb;" horiz-adv-x="976" d="M136 1128q0 52 28 79t104 27l538 -4q38 0 53 -23t13 -51t-17 -51t-39 -23l-522 -6v-376l346 -2q38 0 53 -23t13 -51t-17 -51t-39 -23l-354 -6l2 -418l512 -4q38 0 53 -23t13 -51t-17 -51t-39 -23l-548 -6q-18 0 -40 4t-40 13t-30 21t-12 30zM272 1350q0 38 25 64t63 26 t64 -26t26 -64t-26 -63t-64 -25t-63 25t-25 63zM524 1350q0 38 25 64t63 26t64 -26t26 -64t-26 -63t-64 -25t-63 25t-25 63z" />
<glyph unicode="&#xcc;" horiz-adv-x="812" d="M72 76q-2 28 13 51t53 23l176 -2h6l-6 922l-176 -2q-38 0 -53 23t-13 51t17 51t39 23h548q36 -6 49 -32t8 -52t-25 -46t-48 -14l-188 -2l2 -922l186 -2q28 6 48 -14t25 -46t-8 -52t-49 -32h-548q-24 0 -39 23t-17 51zM273 1476q3 26 22 47t48 28t59 -15l132 -150 q16 -16 10 -43t-25 -47t-46 -26t-53 22l-126 140q-24 18 -21 44z" />
<glyph unicode="&#xcd;" horiz-adv-x="812" d="M72 76q-2 28 13 51t53 23l176 -2h6l-6 922l-176 -2q-38 0 -53 23t-13 51t17 51t39 23h548q36 -6 49 -32t8 -52t-25 -46t-48 -14l-188 -2l2 -922l186 -2q28 6 48 -14t25 -46t-8 -52t-49 -32h-548q-24 0 -39 23t-17 51zM266 1343q-6 27 10 43l132 150q30 22 59 17t47 -24 t21 -46t-19 -51l-126 -140q-26 -28 -53 -22t-46 26t-25 47z" />
<glyph unicode="&#xce;" horiz-adv-x="812" d="M72 76q-2 28 13 51t53 23l176 -2h6l-6 922l-176 -2q-38 0 -53 23t-13 51t17 51t39 23h548q36 -6 49 -32t8 -52t-25 -46t-48 -14l-188 -2l2 -922l186 -2q28 6 48 -14t25 -46t-8 -52t-49 -32h-548q-24 0 -39 23t-17 51zM228 1348l96 144q18 24 41 34t46 9t43 -13t34 -30 l94 -138q8 -20 -2 -42t-28 -35t-42 -12t-44 25l-62 86l-58 -84q-16 -24 -39 -25t-43 10t-32 31t-4 40z" />
<glyph unicode="&#xcf;" horiz-adv-x="812" d="M72 76q-2 28 13 51t53 23l176 -2h6l-6 922l-176 -2q-38 0 -53 23t-13 51t17 51t39 23h548q36 -6 49 -32t8 -52t-25 -46t-48 -14l-188 -2l2 -922l186 -2q28 6 48 -14t25 -46t-8 -52t-49 -32h-548q-24 0 -39 23t-17 51zM190 1350q0 38 25 64t63 26t64 -26t26 -64t-26 -63 t-64 -25t-63 25t-25 63zM442 1350q0 38 25 64t63 26t64 -26t26 -64t-26 -63t-64 -25t-63 25t-25 63z" />
<glyph unicode="&#xd0;" horiz-adv-x="1012" d="M26 638q2 28 17 51t39 23l494 6q36 -6 51 -33t13 -54t-20 -48t-46 -15l-482 -4q-38 0 -53 23t-13 51zM130 116l12 988q0 8 7 28t23 41t42 38t66 21q176 14 298 -39t196 -151t105 -228t27 -266q-4 -120 -39 -228t-109 -187t-193 -122t-291 -37q-28 0 -55 1t-47 13t-31 41 t-11 87zM280 126q128 -12 217 16t144 86t81 141t30 183q4 108 -15 210t-72 178t-146 116t-237 22z" />
<glyph unicode="&#xd1;" horiz-adv-x="1028" d="M104 1156q4 30 25 45t47 18t51 -8t37 -31l512 -874l-10 850q6 36 32 50t54 12t50 -20t22 -44l4 -1122q0 -24 -19 -37t-44 -16t-49 5t-34 26l-520 878l4 -852q0 -38 -23 -53t-51 -13t-51 17t-23 39zM204 1408q28 70 70 120t112 48q58 0 95 -22t64 -47t53 -46t62 -21 q32 0 42 28t12 70q8 26 31 36t47 5t41 -25t15 -54q-8 -84 -59 -137t-115 -57q-52 -4 -87 20t-65 52t-60 50t-68 16q-30 -4 -42 -30t-26 -70q-12 -34 -37 -40t-48 6t-36 39t-1 59z" />
<glyph unicode="&#xd2;" horiz-adv-x="1112" d="M118 598q0 128 34 243t94 202t140 137t170 50t170 -50t140 -137t94 -202t34 -243q0 -130 -34 -241t-94 -194t-140 -130t-170 -47t-170 47t-140 130t-94 194t-34 241zM266 586q0 -92 23 -173t63 -142t93 -96t113 -35t112 35t91 96t61 142t22 173t-23 179t-63 154t-93 108 t-113 41t-112 -41t-91 -108t-61 -154t-22 -179zM423 1476q3 26 22 47t48 28t59 -15l132 -150q16 -16 10 -43t-25 -47t-46 -26t-53 22l-126 140q-24 18 -21 44z" />
<glyph unicode="&#xd3;" horiz-adv-x="1112" d="M118 598q0 128 34 243t94 202t140 137t170 50t170 -50t140 -137t94 -202t34 -243q0 -130 -34 -241t-94 -194t-140 -130t-170 -47t-170 47t-140 130t-94 194t-34 241zM266 586q0 -92 23 -173t63 -142t93 -96t113 -35t112 35t91 96t61 142t22 173t-23 179t-63 154t-93 108 t-113 41t-112 -41t-91 -108t-61 -154t-22 -179zM416 1343q-6 27 10 43l132 150q30 22 59 17t47 -24t21 -46t-19 -51l-126 -140q-26 -28 -53 -22t-46 26t-25 47z" />
<glyph unicode="&#xd4;" horiz-adv-x="1112" d="M118 598q0 128 34 243t94 202t140 137t170 50t170 -50t140 -137t94 -202t34 -243q0 -130 -34 -241t-94 -194t-140 -130t-170 -47t-170 47t-140 130t-94 194t-34 241zM266 586q0 -92 23 -173t63 -142t93 -96t113 -35t112 35t91 96t61 142t22 173t-23 179t-63 154t-93 108 t-113 41t-112 -41t-91 -108t-61 -154t-22 -179zM378 1348l96 144q18 24 41 34t46 9t43 -13t34 -30l94 -138q8 -20 -2 -42t-28 -35t-42 -12t-44 25l-62 86l-58 -84q-16 -24 -39 -25t-43 10t-32 31t-4 40z" />
<glyph unicode="&#xd5;" horiz-adv-x="1112" d="M118 598q0 128 34 243t94 202t140 137t170 50t170 -50t140 -137t94 -202t34 -243q0 -130 -34 -241t-94 -194t-140 -130t-170 -47t-170 47t-140 130t-94 194t-34 241zM246 1408q28 70 70 120t112 48q58 0 95 -22t64 -47t53 -46t62 -21q32 0 42 28t12 70q8 26 31 36t47 5 t41 -25t15 -54q-8 -84 -59 -137t-115 -57q-52 -4 -87 20t-65 52t-60 50t-68 16q-30 -4 -42 -30t-26 -70q-12 -34 -37 -40t-48 6t-36 39t-1 59zM266 586q0 -92 23 -173t63 -142t93 -96t113 -35t112 35t91 96t61 142t22 173t-23 179t-63 154t-93 108t-113 41t-112 -41 t-91 -108t-61 -154t-22 -179z" />
<glyph unicode="&#xd6;" horiz-adv-x="1112" d="M118 598q0 128 34 243t94 202t140 137t170 50t170 -50t140 -137t94 -202t34 -243q0 -130 -34 -241t-94 -194t-140 -130t-170 -47t-170 47t-140 130t-94 194t-34 241zM266 586q0 -92 23 -173t63 -142t93 -96t113 -35t112 35t91 96t61 142t22 173t-23 179t-63 154t-93 108 t-113 41t-112 -41t-91 -108t-61 -154t-22 -179zM340 1350q0 38 25 64t63 26t64 -26t26 -64t-26 -63t-64 -25t-63 25t-25 63zM592 1350q0 38 25 64t63 26t64 -26t26 -64t-26 -63t-64 -25t-63 25t-25 63z" />
<glyph unicode="&#xd7;" horiz-adv-x="790" d="M155 295q-5 27 11 43l122 126l-116 118q-20 30 -12 59t30 46t48 19t42 -22l112 -114l120 122q30 20 59 12t47 -29t20 -48t-22 -43l-120 -122l122 -122q26 -28 20 -55t-27 -45t-49 -23t-44 13l-124 126l-116 -114q-26 -28 -53 -22t-46 27t-24 48z" />
<glyph unicode="&#xd8;" horiz-adv-x="1112" d="M118 598q0 128 34 243t94 202t140 137t170 50t170 -50t140 -137t94 -202t34 -243q0 -130 -34 -241t-94 -194t-140 -130t-170 -47t-170 47t-140 130t-94 194t-34 241zM230 68l502 1122q20 30 50 32t54 -11t38 -38t2 -49l-508 -1106q-16 -34 -43 -39t-51 8t-39 36t-5 45z M266 586q0 -92 23 -173t63 -142t93 -96t113 -35t112 35t91 96t61 142t22 173t-23 179t-63 154t-93 108t-113 41t-112 -41t-91 -108t-61 -154t-22 -179z" />
<glyph unicode="&#xd9;" horiz-adv-x="992" d="M99 838q-1 146 9 328q2 38 27 53t54 13t53 -17t22 -39q-14 -244 -10 -415t14 -287q10 -128 38 -197t61 -102t64 -40t45 -7q28 0 65 13t74 46t67 87t46 136l12 744q2 32 24 53t49 24t52 -13t31 -58l-14 -1128q0 -38 -23 -53t-51 -13t-51 17t-23 39l-2 92q-34 -48 -94 -91 t-136 -45q-130 -2 -207 51t-118 139t-55 193t-18 215q-4 116 -5 262zM363 1476q3 26 22 47t48 28t59 -15l132 -150q16 -16 10 -43t-25 -47t-46 -26t-53 22l-126 140q-24 18 -21 44z" />
<glyph unicode="&#xda;" horiz-adv-x="992" d="M99 838q-1 146 9 328q2 38 27 53t54 13t53 -17t22 -39q-14 -244 -10 -415t14 -287q10 -128 38 -197t61 -102t64 -40t45 -7q28 0 65 13t74 46t67 87t46 136l12 744q2 32 24 53t49 24t52 -13t31 -58l-14 -1128q0 -38 -23 -53t-51 -13t-51 17t-23 39l-2 92q-34 -48 -94 -91 t-136 -45q-130 -2 -207 51t-118 139t-55 193t-18 215q-4 116 -5 262zM356 1343q-6 27 10 43l132 150q30 22 59 17t47 -24t21 -46t-19 -51l-126 -140q-26 -28 -53 -22t-46 26t-25 47z" />
<glyph unicode="&#xdb;" horiz-adv-x="992" d="M99 838q-1 146 9 328q2 38 27 53t54 13t53 -17t22 -39q-14 -244 -10 -415t14 -287q10 -128 38 -197t61 -102t64 -40t45 -7q28 0 65 13t74 46t67 87t46 136l12 744q2 32 24 53t49 24t52 -13t31 -58l-14 -1128q0 -38 -23 -53t-51 -13t-51 17t-23 39l-2 92q-34 -48 -94 -91 t-136 -45q-130 -2 -207 51t-118 139t-55 193t-18 215q-4 116 -5 262zM318 1348l96 144q18 24 41 34t46 9t43 -13t34 -30l94 -138q8 -20 -2 -42t-28 -35t-42 -12t-44 25l-62 86l-58 -84q-16 -24 -39 -25t-43 10t-32 31t-4 40z" />
<glyph unicode="&#xdc;" horiz-adv-x="992" d="M99 838q-1 146 9 328q2 38 27 53t54 13t53 -17t22 -39q-14 -244 -10 -415t14 -287q10 -128 38 -197t61 -102t64 -40t45 -7q28 0 65 13t74 46t67 87t46 136l12 744q2 32 24 53t49 24t52 -13t31 -58l-14 -1128q0 -38 -23 -53t-51 -13t-51 17t-23 39l-2 92q-34 -48 -94 -91 t-136 -45q-130 -2 -207 51t-118 139t-55 193t-18 215q-4 116 -5 262zM280 1350q0 38 25 64t63 26t64 -26t26 -64t-26 -63t-64 -25t-63 25t-25 63zM532 1350q0 38 25 64t63 26t64 -26t26 -64t-26 -63t-64 -25t-63 25t-25 63z" />
<glyph unicode="&#xdd;" horiz-adv-x="920" d="M76 1138q-8 22 7 43t39 32t51 5t45 -38l260 -490l224 492q14 34 42 40t53 -5t40 -33t7 -44l-288 -618l-2 -502q0 -38 -23 -53t-51 -13t-51 17t-23 39l-10 500q-4 8 -6 14zM320 1343q-6 27 10 43l132 150q30 22 59 17t47 -24t21 -46t-19 -51l-126 -140q-26 -28 -53 -22 t-46 26t-25 47z" />
<glyph unicode="&#xde;" horiz-adv-x="886" d="M96 1130q6 42 31 58t52 13t49 -24t24 -53v-42t1 -88t2 -88t1 -42q42 30 92 47t104 17q72 0 136 -29t112 -78t75 -115t27 -138t-27 -138t-75 -116t-112 -79t-136 -29q-58 0 -109 18t-95 52l-2 -220q0 -24 -23 -39t-51 -17t-51 13t-23 53zM252 566q0 -42 16 -80t44 -67 t64 -46t78 -17t78 17t64 46t44 67t16 80t-16 80t-44 66t-64 45t-78 17t-78 -17t-64 -45t-44 -66t-16 -80z" />
<glyph unicode="&#xdf;" horiz-adv-x="916" d="M98 -72l12 1104q0 72 30 130t108 70q32 6 83 8t112 -3t122 -23t112 -54t84 -95t35 -145q0 -48 -14 -90t-40 -76t-59 -61t-69 -47q48 -22 91 -57t74 -78t48 -94t15 -105q-6 -88 -47 -153t-107 -107t-150 -62t-176 -20q-28 0 -47 22t-23 48t9 49t51 23q60 0 120 10t108 35 t78 68t30 109q-2 54 -25 93t-62 67t-91 45t-108 25q-28 -4 -42 21t-16 55t11 56t41 24q48 4 94 17t82 36t58 58t22 87q0 36 -24 69t-67 59t-103 38t-134 6q-10 0 -22 -4t-24 -12t-20 -22t-8 -36l-2 -1090q0 -40 -24 -60t-52 -21t-51 19t-23 64z" />
<glyph unicode="&#xe0;" d="M92 340q0 72 27 138t75 115t112 78t136 29q54 0 104 -17t92 -47q8 34 36 47t57 9t51 -22t16 -42l-2 -602q0 -38 -23 -53t-51 -13t-51 17t-23 39l-2 32q-44 -34 -95 -52t-109 -18q-72 0 -136 29t-112 79t-75 116t-27 138zM238 338q0 -42 16 -80t44 -67t64 -46t78 -17 t78 17t64 46t44 67t16 80t-16 80t-44 66t-64 45t-78 17t-78 -17t-64 -45t-44 -66t-16 -80zM311 936q3 26 22 47t48 28t59 -15l132 -150q16 -16 10 -43t-25 -47t-46 -26t-53 22l-126 140q-24 18 -21 44z" />
<glyph unicode="&#xe1;" d="M92 340q0 72 27 138t75 115t112 78t136 29q54 0 104 -17t92 -47q8 34 36 47t57 9t51 -22t16 -42l-2 -602q0 -38 -23 -53t-51 -13t-51 17t-23 39l-2 32q-44 -34 -95 -52t-109 -18q-72 0 -136 29t-112 79t-75 116t-27 138zM238 338q0 -42 16 -80t44 -67t64 -46t78 -17 t78 17t64 46t44 67t16 80t-16 80t-44 66t-64 45t-78 17t-78 -17t-64 -45t-44 -66t-16 -80zM306 803q-6 27 10 43l132 150q30 22 59 17t47 -24t21 -46t-19 -51l-126 -140q-26 -28 -53 -22t-46 26t-25 47z" />
<glyph unicode="&#xe2;" d="M92 340q0 72 27 138t75 115t112 78t136 29q54 0 104 -17t92 -47q8 34 36 47t57 9t51 -22t16 -42l-2 -602q0 -38 -23 -53t-51 -13t-51 17t-23 39l-2 32q-44 -34 -95 -52t-109 -18q-72 0 -136 29t-112 79t-75 116t-27 138zM238 338q0 -42 16 -80t44 -67t64 -46t78 -17 t78 17t64 46t44 67t16 80t-16 80t-44 66t-64 45t-78 17t-78 -17t-64 -45t-44 -66t-16 -80zM266 808l96 144q18 24 41 34t46 9t43 -13t34 -30l94 -138q8 -20 -2 -42t-28 -35t-42 -12t-44 25l-62 86l-58 -84q-16 -24 -39 -25t-43 10t-32 31t-4 40z" />
<glyph unicode="&#xe3;" d="M92 340q0 72 27 138t75 115t112 78t136 29q54 0 104 -17t92 -47q8 34 36 47t57 9t51 -22t16 -42l-2 -602q0 -38 -23 -53t-51 -13t-51 17t-23 39l-2 32q-44 -34 -95 -52t-109 -18q-72 0 -136 29t-112 79t-75 116t-27 138zM134 868q28 70 70 120t112 48q58 0 95 -22t64 -47 t53 -46t62 -21q32 0 42 28t12 70q8 26 31 36t47 5t41 -25t15 -54q-8 -84 -59 -137t-115 -57q-52 -4 -87 20t-65 52t-60 50t-68 16q-30 -4 -42 -30t-26 -70q-12 -34 -37 -40t-48 6t-36 39t-1 59zM238 338q0 -42 16 -80t44 -67t64 -46t78 -17t78 17t64 46t44 67t16 80t-16 80 t-44 66t-64 45t-78 17t-78 -17t-64 -45t-44 -66t-16 -80z" />
<glyph unicode="&#xe4;" d="M92 340q0 72 27 138t75 115t112 78t136 29q54 0 104 -17t92 -47q8 34 36 47t57 9t51 -22t16 -42l-2 -602q0 -38 -23 -53t-51 -13t-51 17t-23 39l-2 32q-44 -34 -95 -52t-109 -18q-72 0 -136 29t-112 79t-75 116t-27 138zM228 810q0 38 25 64t63 26t64 -26t26 -64t-26 -63 t-64 -25t-63 25t-25 63zM238 338q0 -42 16 -80t44 -67t64 -46t78 -17t78 17t64 46t44 67t16 80t-16 80t-44 66t-64 45t-78 17t-78 -17t-64 -45t-44 -66t-16 -80zM480 810q0 38 25 64t63 26t64 -26t26 -64t-26 -63t-64 -25t-63 25t-25 63z" />
<glyph unicode="&#xe5;" d="M92 340q0 72 27 138t75 115t112 78t136 29q54 0 104 -17t92 -47q8 34 36 47t57 9t51 -22t16 -42l-2 -602q0 -38 -23 -53t-51 -13t-51 17t-23 39l-2 32q-44 -34 -95 -52t-109 -18q-72 0 -136 29t-112 79t-75 116t-27 138zM238 338q0 -42 16 -80t44 -67t64 -46t78 -17 t78 17t64 46t44 67t16 80t-16 80t-44 66t-64 45t-78 17t-78 -17t-64 -45t-44 -66t-16 -80zM314 850q0 54 37 92t91 38t92 -38t38 -92t-38 -91t-92 -37t-91 37t-37 91zM404 850q0 -38 38 -38q16 0 28 11t12 27t-12 28t-28 12t-27 -12t-11 -28z" />
<glyph unicode="&#xe6;" horiz-adv-x="1260" d="M76 328q0 72 27 138t75 115t112 78t136 29q52 0 101 -17t89 -45q44 34 97 53t111 21q62 2 119 -16t102 -52t75 -84t40 -112q10 -68 -21 -107t-137 -39l-376 2v-14q16 -60 57 -102t96 -57t116 3t115 82q20 22 50 22t54 -15t33 -40t-13 -53q-52 -64 -117 -99t-133 -44 t-134 7t-120 54q-44 -34 -95 -52t-109 -18q-72 0 -136 29t-112 79t-75 116t-27 138zM222 326q0 -42 16 -80t44 -67t64 -46t78 -17q56 0 102 30q-24 40 -38 88t-14 106q0 92 42 170q-22 10 -45 17t-47 7q-42 0 -78 -17t-64 -45t-44 -66t-16 -80zM646 436l368 -4 q-10 38 -30 61t-46 36t-56 17t-60 4q-58 -2 -104 -33t-72 -81z" />
<glyph unicode="&#xe7;" horiz-adv-x="848" d="M92 340q0 72 27 138t75 116t112 79t136 27q120 -4 196 -59t104 -127q10 -24 -6 -45t-40 -33t-50 -10t-36 22q-28 58 -73 78t-97 20q-42 0 -78 -17t-64 -45t-44 -66t-16 -80t16 -80t44 -67t64 -46t78 -17q60 0 100 24t84 94q16 26 44 27t51 -13t35 -41t-6 -59 q-46 -84 -127 -133t-179 -49q-72 0 -136 29t-112 79t-75 116t-27 138zM356 12h118l4 -50q116 -4 172 -49t56 -115q0 -104 -67 -147t-175 -41q-40 0 -61 22t-24 48t14 49t57 25q18 0 39 1t37 5t26 13t8 27q-4 22 -22 28t-78 4q-8 0 -29 2t-40 19t-32 53t-3 106z" />
<glyph unicode="&#xe8;" horiz-adv-x="878" d="M92 340q0 72 27 137t75 114t112 78t136 31q62 2 119 -16t102 -52t75 -84t40 -112q10 -68 -21 -107t-137 -39l-378 2q12 -62 53 -108t96 -63t118 1t119 82q20 22 50 22t54 -15t33 -40t-13 -53q-56 -70 -127 -105t-144 -40t-143 18t-125 71t-88 119t-33 159zM264 436 l368 -4q-10 38 -30 61t-46 36t-56 17t-60 4q-58 -2 -104 -33t-72 -81zM307 936q3 26 22 47t48 28t59 -15l132 -150q16 -16 10 -43t-25 -47t-46 -26t-53 22l-126 140q-24 18 -21 44z" />
<glyph unicode="&#xe9;" horiz-adv-x="878" d="M92 340q0 72 27 137t75 114t112 78t136 31q62 2 119 -16t102 -52t75 -84t40 -112q10 -68 -21 -107t-137 -39l-378 2q12 -62 53 -108t96 -63t118 1t119 82q20 22 50 22t54 -15t33 -40t-13 -53q-56 -70 -127 -105t-144 -40t-143 18t-125 71t-88 119t-33 159zM264 436 l368 -4q-10 38 -30 61t-46 36t-56 17t-60 4q-58 -2 -104 -33t-72 -81zM300 803q-6 27 10 43l132 150q30 22 59 17t47 -24t21 -46t-19 -51l-126 -140q-26 -28 -53 -22t-46 26t-25 47z" />
<glyph unicode="&#xea;" horiz-adv-x="878" d="M92 340q0 72 27 137t75 114t112 78t136 31q62 2 119 -16t102 -52t75 -84t40 -112q10 -68 -21 -107t-137 -39l-378 2q12 -62 53 -108t96 -63t118 1t119 82q20 22 50 22t54 -15t33 -40t-13 -53q-56 -70 -127 -105t-144 -40t-143 18t-125 71t-88 119t-33 159zM262 808 l96 144q18 24 41 34t46 9t43 -13t34 -30l94 -138q8 -20 -2 -42t-28 -35t-42 -12t-44 25l-62 86l-58 -84q-16 -24 -39 -25t-43 10t-32 31t-4 40zM264 436l368 -4q-10 38 -30 61t-46 36t-56 17t-60 4q-58 -2 -104 -33t-72 -81z" />
<glyph unicode="&#xeb;" horiz-adv-x="878" d="M92 340q0 72 27 137t75 114t112 78t136 31q62 2 119 -16t102 -52t75 -84t40 -112q10 -68 -21 -107t-137 -39l-378 2q12 -62 53 -108t96 -63t118 1t119 82q20 22 50 22t54 -15t33 -40t-13 -53q-56 -70 -127 -105t-144 -40t-143 18t-125 71t-88 119t-33 159zM224 810 q0 38 25 64t63 26t64 -26t26 -64t-26 -63t-64 -25t-63 25t-25 63zM264 436l368 -4q-10 38 -30 61t-46 36t-56 17t-60 4q-58 -2 -104 -33t-72 -81zM476 810q0 38 25 64t63 26t64 -26t26 -64t-26 -63t-64 -25t-63 25t-25 63z" />
<glyph unicode="&#xec;" horiz-adv-x="388" d="M65 936q3 26 22 47t48 28t59 -15l132 -150q16 -16 10 -43t-25 -47t-46 -26t-53 22l-126 140q-24 18 -21 44zM118 632q6 36 34 49t58 9t52 -22t16 -42l-2 -570q0 -38 -23 -53t-51 -13t-51 17t-23 39z" />
<glyph unicode="&#xed;" horiz-adv-x="388" d="M58 803q-6 27 10 43l132 150q30 22 59 17t47 -24t21 -46t-19 -51l-126 -140q-26 -28 -53 -22t-46 26t-25 47zM118 632q6 36 34 49t58 9t52 -22t16 -42l-2 -570q0 -38 -23 -53t-51 -13t-51 17t-23 39z" />
<glyph unicode="&#xee;" horiz-adv-x="388" d="M20 808l96 144q18 24 41 34t46 9t43 -13t34 -30l94 -138q8 -20 -2 -42t-28 -35t-42 -12t-44 25l-62 86l-58 -84q-16 -24 -39 -25t-43 10t-32 31t-4 40zM118 632q6 36 34 49t58 9t52 -22t16 -42l-2 -570q0 -38 -23 -53t-51 -13t-51 17t-23 39z" />
<glyph unicode="&#xef;" horiz-adv-x="388" d="M-18 810q0 38 25 64t63 26t64 -26t26 -64t-26 -63t-64 -25t-63 25t-25 63zM118 632q6 36 34 49t58 9t52 -22t16 -42l-2 -570q0 -38 -23 -53t-51 -13t-51 17t-23 39zM234 810q0 38 25 64t63 26t64 -26t26 -64t-26 -63t-64 -25t-63 25t-25 63z" />
<glyph unicode="&#xf1;" horiz-adv-x="834" d="M100 46l2 602q0 38 23 53t51 13t51 -17t23 -39l2 -32q44 34 95 52t109 18q104 0 162 -49t87 -136t35 -208t6 -263q0 -38 -23 -53t-51 -13t-51 17t-23 39q4 172 -8 274t-33 156t-48 70t-51 16q-42 0 -78 -17t-64 -46t-44 -67t-16 -80v-284q-2 -32 -24 -53t-49 -24t-52 13 t-31 58zM106 868q28 70 70 120t112 48q58 0 95 -22t64 -47t53 -46t62 -21q32 0 42 28t12 70q8 26 31 36t47 5t41 -25t15 -54q-8 -84 -59 -137t-115 -57q-52 -4 -87 20t-65 52t-60 50t-68 16q-30 -4 -42 -30t-26 -70q-12 -34 -37 -40t-48 6t-36 39t-1 59z" />
<glyph unicode="&#xf2;" d="M92 340q0 72 27 138t75 115t112 78t136 29t136 -29t112 -78t75 -115t27 -138t-27 -138t-75 -116t-112 -79t-136 -29t-136 29t-112 79t-75 116t-27 138zM238 338q0 -42 16 -80t44 -67t64 -46t78 -17t78 17t64 46t44 67t16 80t-16 80t-44 66t-64 45t-78 17t-78 -17t-64 -45 t-44 -66t-16 -80zM311 936q3 26 22 47t48 28t59 -15l132 -150q16 -16 10 -43t-25 -47t-46 -26t-53 22l-126 140q-24 18 -21 44z" />
<glyph unicode="&#xf3;" d="M92 340q0 72 27 138t75 115t112 78t136 29t136 -29t112 -78t75 -115t27 -138t-27 -138t-75 -116t-112 -79t-136 -29t-136 29t-112 79t-75 116t-27 138zM238 338q0 -42 16 -80t44 -67t64 -46t78 -17t78 17t64 46t44 67t16 80t-16 80t-44 66t-64 45t-78 17t-78 -17t-64 -45 t-44 -66t-16 -80zM306 803q-6 27 10 43l132 150q30 22 59 17t47 -24t21 -46t-19 -51l-126 -140q-26 -28 -53 -22t-46 26t-25 47z" />
<glyph unicode="&#xf4;" d="M92 340q0 72 27 138t75 115t112 78t136 29t136 -29t112 -78t75 -115t27 -138t-27 -138t-75 -116t-112 -79t-136 -29t-136 29t-112 79t-75 116t-27 138zM238 338q0 -42 16 -80t44 -67t64 -46t78 -17t78 17t64 46t44 67t16 80t-16 80t-44 66t-64 45t-78 17t-78 -17t-64 -45 t-44 -66t-16 -80zM266 808l96 144q18 24 41 34t46 9t43 -13t34 -30l94 -138q8 -20 -2 -42t-28 -35t-42 -12t-44 25l-62 86l-58 -84q-16 -24 -39 -25t-43 10t-32 31t-4 40z" />
<glyph unicode="&#xf5;" d="M92 340q0 72 27 138t75 115t112 78t136 29t136 -29t112 -78t75 -115t27 -138t-27 -138t-75 -116t-112 -79t-136 -29t-136 29t-112 79t-75 116t-27 138zM134 868q28 70 70 120t112 48q58 0 95 -22t64 -47t53 -46t62 -21q32 0 42 28t12 70q8 26 31 36t47 5t41 -25t15 -54 q-8 -84 -59 -137t-115 -57q-52 -4 -87 20t-65 52t-60 50t-68 16q-30 -4 -42 -30t-26 -70q-12 -34 -37 -40t-48 6t-36 39t-1 59zM238 338q0 -42 16 -80t44 -67t64 -46t78 -17t78 17t64 46t44 67t16 80t-16 80t-44 66t-64 45t-78 17t-78 -17t-64 -45t-44 -66t-16 -80z" />
<glyph unicode="&#xf6;" d="M92 340q0 72 27 138t75 115t112 78t136 29t136 -29t112 -78t75 -115t27 -138t-27 -138t-75 -116t-112 -79t-136 -29t-136 29t-112 79t-75 116t-27 138zM228 810q0 38 25 64t63 26t64 -26t26 -64t-26 -63t-64 -25t-63 25t-25 63zM238 338q0 -42 16 -80t44 -67t64 -46 t78 -17t78 17t64 46t44 67t16 80t-16 80t-44 66t-64 45t-78 17t-78 -17t-64 -45t-44 -66t-16 -80zM480 810q0 38 25 64t63 26t64 -26t26 -64t-26 -63t-64 -25t-63 25t-25 63z" />
<glyph unicode="&#xf7;" horiz-adv-x="774" d="M78 466q2 28 17 51t39 23l494 6q36 -6 51 -33t13 -54t-20 -48t-46 -15l-482 -4q-38 0 -53 23t-13 51zM282 278q0 38 25 64t63 26t64 -26t26 -64t-26 -63t-64 -25t-63 25t-25 63zM282 656q0 38 25 64t63 26t64 -26t26 -64t-26 -63t-64 -25t-63 25t-25 63z" />
<glyph unicode="&#xf8;" d="M92 340q0 72 27 138t75 115t112 78t136 29t136 -29t112 -78t75 -115t27 -138t-27 -138t-75 -116t-112 -79t-136 -29t-136 29t-112 79t-75 116t-27 138zM122 28l490 658q20 30 50 32t54 -11t38 -38t2 -49l-496 -642q-16 -34 -43 -39t-51 8t-39 36t-5 45zM238 338 q0 -42 16 -80t44 -67t64 -46t78 -17t78 17t64 46t44 67t16 80t-16 80t-44 66t-64 45t-78 17t-78 -17t-64 -45t-44 -66t-16 -80z" />
<glyph unicode="&#xf9;" horiz-adv-x="846" d="M102 372q-4 122 4 272q2 38 27 53t54 13t53 -17t22 -39q-14 -184 -5 -287t30 -154t49 -63t52 -12q42 0 78 17t64 46t44 67t16 80v284q2 32 24 53t49 24t52 -13t31 -58l-2 -602q0 -38 -23 -53t-51 -13t-51 17t-23 39l-2 32q-44 -34 -95 -52t-109 -18q-104 0 -165 46 t-90 131t-33 207zM291 936q3 26 22 47t48 28t59 -15l132 -150q16 -16 10 -43t-25 -47t-46 -26t-53 22l-126 140q-24 18 -21 44z" />
<glyph unicode="&#xfa;" horiz-adv-x="846" d="M102 372q-4 122 4 272q2 38 27 53t54 13t53 -17t22 -39q-14 -184 -5 -287t30 -154t49 -63t52 -12q42 0 78 17t64 46t44 67t16 80v284q2 32 24 53t49 24t52 -13t31 -58l-2 -602q0 -38 -23 -53t-51 -13t-51 17t-23 39l-2 32q-44 -34 -95 -52t-109 -18q-104 0 -165 46 t-90 131t-33 207zM284 803q-6 27 10 43l132 150q30 22 59 17t47 -24t21 -46t-19 -51l-126 -140q-26 -28 -53 -22t-46 26t-25 47z" />
<glyph unicode="&#xfb;" horiz-adv-x="846" d="M102 372q-4 122 4 272q2 38 27 53t54 13t53 -17t22 -39q-14 -184 -5 -287t30 -154t49 -63t52 -12q42 0 78 17t64 46t44 67t16 80v284q2 32 24 53t49 24t52 -13t31 -58l-2 -602q0 -38 -23 -53t-51 -13t-51 17t-23 39l-2 32q-44 -34 -95 -52t-109 -18q-104 0 -165 46 t-90 131t-33 207zM246 808l96 144q18 24 41 34t46 9t43 -13t34 -30l94 -138q8 -20 -2 -42t-28 -35t-42 -12t-44 25l-62 86l-58 -84q-16 -24 -39 -25t-43 10t-32 31t-4 40z" />
<glyph unicode="&#xfc;" horiz-adv-x="846" d="M102 372q-4 122 4 272q2 38 27 53t54 13t53 -17t22 -39q-14 -184 -5 -287t30 -154t49 -63t52 -12q42 0 78 17t64 46t44 67t16 80v284q2 32 24 53t49 24t52 -13t31 -58l-2 -602q0 -38 -23 -53t-51 -13t-51 17t-23 39l-2 32q-44 -34 -95 -52t-109 -18q-104 0 -165 46 t-90 131t-33 207zM208 810q0 38 25 64t63 26t64 -26t26 -64t-26 -63t-64 -25t-63 25t-25 63zM460 810q0 38 25 64t63 26t64 -26t26 -64t-26 -63t-64 -25t-63 25t-25 63z" />
<glyph unicode="&#xfd;" horiz-adv-x="916" d="M90 606q-8 36 10 59t45 32t54 2t37 -31l270 -464l168 468q20 32 49 36t55 -9t40 -37t4 -48l-350 -940q-12 -34 -39 -40t-52 6t-41 34t-8 44l100 280zM320 803q-6 27 10 43l132 150q30 22 59 17t47 -24t21 -46t-19 -51l-126 -140q-26 -28 -53 -22t-46 26t-25 47z" />
<glyph unicode="&#xfe;" horiz-adv-x="896" d="M96 1050q6 42 31 58t52 13t49 -24t24 -53v-28v-70t1 -90t1 -89t1 -69t1 -30q42 30 92 47t104 17q72 0 136 -29t112 -78t75 -115t27 -138t-27 -138t-75 -116t-112 -79t-136 -29q-58 0 -109 18t-95 52l-2 -376q0 -24 -23 -39t-51 -17t-51 13t-23 53zM252 370q0 -42 16 -80 t44 -67t64 -46t78 -17t78 17t64 46t44 67t16 80t-16 80t-44 66t-64 45t-78 17t-78 -17t-64 -45t-44 -66t-16 -80z" />
<glyph unicode="&#xff;" horiz-adv-x="916" d="M90 606q-8 36 10 59t45 32t54 2t37 -31l270 -464l168 468q20 32 49 36t55 -9t40 -37t4 -48l-350 -940q-12 -34 -39 -40t-52 6t-41 34t-8 44l100 280zM242 810q0 38 25 64t63 26t64 -26t26 -64t-26 -63t-64 -25t-63 25t-25 63zM494 810q0 38 25 64t63 26t64 -26t26 -64 t-26 -63t-64 -25t-63 25t-25 63z" />
<glyph unicode="&#x152;" horiz-adv-x="1340" d="M106 608q4 118 38 231t99 201t162 142t227 52l538 -4q38 0 53 -23t13 -51t-17 -51t-39 -23l-522 -6v-376l346 -2q38 0 53 -23t13 -51t-17 -51t-39 -23l-354 -6l2 -418l512 -4q38 0 53 -23t13 -51t-17 -51t-39 -23q-214 -2 -334 -3t-182 0t-83 2t-37 3q-112 0 -197 54 t-141 143t-82 203t-22 232zM258 576q0 -84 20 -160t54 -135t81 -98t99 -49l-12 918q-52 -14 -96 -59t-76 -110t-51 -144t-19 -163z" />
<glyph unicode="&#x153;" horiz-adv-x="1274" d="M80 334q0 72 27 138t75 115t112 78t136 29q56 0 107 -18t93 -50q44 34 97 53t111 21q62 2 119 -16t102 -52t75 -84t40 -112q10 -68 -21 -107t-137 -39l-378 2q12 -62 53 -108t96 -63t118 1t119 82q20 22 50 22t54 -15t33 -40t-13 -53q-54 -66 -120 -101t-135 -43t-136 10 t-123 58q-42 -32 -94 -51t-110 -19q-72 0 -136 29t-112 79t-75 116t-27 138zM226 332q0 -42 16 -80t44 -67t64 -46t78 -17q54 0 106 32q-46 80 -46 186q0 46 11 88t31 80q-48 32 -102 32q-42 0 -78 -17t-64 -45t-44 -66t-16 -80zM660 436l368 -4q-10 38 -30 61t-46 36 t-56 17t-60 4q-58 -2 -104 -33t-72 -81z" />
<glyph unicode="&#x178;" horiz-adv-x="920" d="M76 1138q-8 22 7 43t39 32t51 5t45 -38l260 -490l224 492q14 34 42 40t53 -5t40 -33t7 -44l-288 -618l-2 -502q0 -38 -23 -53t-51 -13t-51 17t-23 39l-10 500q-4 8 -6 14zM244 1350q0 38 25 64t63 26t64 -26t26 -64t-26 -63t-64 -25t-63 25t-25 63zM496 1350q0 38 25 64 t63 26t64 -26t26 -64t-26 -63t-64 -25t-63 25t-25 63z" />
<glyph unicode="&#x2c6;" horiz-adv-x="534" d="M88 808l96 144q18 24 41 34t46 9t43 -13t34 -30l94 -138q8 -20 -2 -42t-28 -35t-42 -12t-44 25l-62 86l-58 -84q-16 -24 -39 -25t-43 10t-32 31t-4 40z" />
<glyph unicode="&#x2dc;" horiz-adv-x="826" d="M84 868q28 70 70 120t112 48q58 0 95 -22t64 -47t53 -46t62 -21q32 0 42 28t12 70q8 26 31 36t47 5t41 -25t15 -54q-8 -84 -59 -137t-115 -57q-52 -4 -87 20t-65 52t-60 50t-68 16q-30 -4 -42 -30t-26 -70q-12 -34 -37 -40t-48 6t-36 39t-1 59z" />
<glyph unicode="&#x2000;" horiz-adv-x="790" />
<glyph unicode="&#x2001;" horiz-adv-x="1580" />
<glyph unicode="&#x2002;" horiz-adv-x="790" />
<glyph unicode="&#x2003;" horiz-adv-x="1580" />
<glyph unicode="&#x2004;" horiz-adv-x="526" />
<glyph unicode="&#x2005;" horiz-adv-x="395" />
<glyph unicode="&#x2006;" horiz-adv-x="263" />
<glyph unicode="&#x2007;" horiz-adv-x="263" />
<glyph unicode="&#x2008;" horiz-adv-x="197" />
<glyph unicode="&#x2009;" horiz-adv-x="316" />
<glyph unicode="&#x200a;" horiz-adv-x="87" />
<glyph unicode="&#x2010;" horiz-adv-x="806" d="M92 464q2 28 17 51t39 23l494 6q36 -6 51 -33t13 -54t-20 -48t-46 -15l-482 -4q-38 0 -53 23t-13 51z" />
<glyph unicode="&#x2011;" horiz-adv-x="806" d="M92 464q2 28 17 51t39 23l494 6q36 -6 51 -33t13 -54t-20 -48t-46 -15l-482 -4q-38 0 -53 23t-13 51z" />
<glyph unicode="&#x2012;" horiz-adv-x="806" d="M92 464q2 28 17 51t39 23l494 6q36 -6 51 -33t13 -54t-20 -48t-46 -15l-482 -4q-38 0 -53 23t-13 51z" />
<glyph unicode="&#x2013;" horiz-adv-x="806" d="M92 464q2 28 17 51t39 23l494 6q36 -6 51 -33t13 -54t-20 -48t-46 -15l-482 -4q-38 0 -53 23t-13 51z" />
<glyph unicode="&#x2014;" horiz-adv-x="926" d="M92 464q2 28 17 51t39 23l626 6q36 -6 51 -33t13 -54t-20 -48t-46 -15l-614 -4q-38 0 -53 23t-13 51z" />
<glyph unicode="&#x2018;" horiz-adv-x="474" d="M126 713q-2 53 15 110t61 105q24 26 53 28t50 -11t29 -36t-10 -45q-34 -28 -48 -64t-14 -70t10 -63t26 -45q20 -18 14 -43t-26 -42t-47 -20t-51 23q-26 28 -43 74t-19 99z" />
<glyph unicode="&#x2019;" horiz-adv-x="474" d="M128 565q-8 23 10 45q32 28 47 64t15 70t-10 63t-26 45q-20 18 -14 43t26 42t47 20t51 -23q26 -28 43 -74t19 -99t-15 -110t-61 -105q-24 -26 -53 -28t-50 11t-29 36z" />
<glyph unicode="&#x201a;" horiz-adv-x="474" d="M100 -47q-8 23 10 45q32 28 47 64t15 70t-10 63t-26 45q-20 18 -14 43t26 42t47 20t51 -23q26 -28 43 -74t19 -99t-15 -110t-61 -105q-24 -26 -53 -28t-50 11t-29 36z" />
<glyph unicode="&#x201c;" horiz-adv-x="760" d="M126 803q-2 53 15 110t61 105q24 26 53 28t50 -11t29 -36t-10 -45q-34 -28 -48 -64t-14 -70t10 -63t26 -45q20 -18 14 -43t-26 -42t-47 -20t-51 23q-26 28 -43 74t-19 99zM404 811q-2 53 15 110t61 105q24 26 53 28t50 -11t29 -36t-10 -45q-34 -28 -48 -64t-14 -70 t10 -63t26 -45q20 -18 14 -43t-26 -42t-47 -20t-51 23q-26 28 -43 74t-19 99z" />
<glyph unicode="&#x201d;" horiz-adv-x="760" d="M128 655q-8 23 10 45q32 28 47 64t15 70t-10 63t-26 45q-20 18 -14 43t26 42t47 20t51 -23q26 -28 43 -74t19 -99t-15 -110t-61 -105q-24 -26 -53 -28t-50 11t-29 36zM406 663q-8 23 10 45q32 28 47 64t15 70t-10 63t-26 45q-20 18 -14 43t26 42t47 20t51 -23 q26 -28 43 -74t19 -99t-15 -110t-61 -105q-24 -26 -53 -28t-50 11t-29 36z" />
<glyph unicode="&#x201e;" horiz-adv-x="760" d="M148 -33q-8 23 10 45q32 28 47 64t15 70t-10 63t-26 45q-20 18 -14 43t26 42t47 20t51 -23q26 -28 43 -74t19 -99t-15 -110t-61 -105q-24 -26 -53 -28t-50 11t-29 36zM426 -25q-8 23 10 45q32 28 47 64t15 70t-10 63t-26 45q-20 18 -14 43t26 42t47 20t51 -23 q26 -28 43 -74t19 -99t-15 -110t-61 -105q-24 -26 -53 -28t-50 11t-29 36z" />
<glyph unicode="&#x2022;" horiz-adv-x="408" d="M94 508q0 46 32 79t78 33t79 -33t33 -79t-33 -78t-79 -32t-78 32t-32 78z" />
<glyph unicode="&#x2026;" horiz-adv-x="836" d="M78 82q0 38 25 64t63 26t64 -26t26 -64t-26 -63t-64 -25t-63 25t-25 63zM330 82q0 38 25 64t63 26t64 -26t26 -64t-26 -63t-64 -25t-63 25t-25 63zM582 82q0 38 25 64t63 26t64 -26t26 -64t-26 -63t-64 -25t-63 25t-25 63z" />
<glyph unicode="&#x202f;" horiz-adv-x="316" />
<glyph unicode="&#x2039;" horiz-adv-x="828" d="M116 492q6 24 22 44t38 28l388 218q22 8 43 -7t30 -40t2 -52t-39 -45l-282 -152l302 -154q34 -12 39 -39t-7 -52t-36 -41t-44 -6l-410 206q-32 18 -42 43t-4 49z" />
<glyph unicode="&#x203a;" horiz-adv-x="776" d="M131 295q5 27 39 39l302 154l-282 152q-32 18 -39 45t2 52t30 40t43 7l388 -218q20 -8 37 -28t23 -44t-4 -49t-42 -43l-410 -206q-22 -10 -45 6t-35 41t-7 52z" />
<glyph unicode="&#x205f;" horiz-adv-x="395" />
<glyph unicode="&#x20ac;" horiz-adv-x="1114" d="M92 472q2 28 17 51t39 23h32v52v29t2 29h-24q-38 0 -53 23t-13 51t17 51t39 23h56q22 92 63 170t95 135t119 89t137 32q126 0 224 -68t154 -220q16 -24 1 -49t-43 -38t-59 -8t-49 41q-40 102 -98 140t-134 38q-82 0 -148 -73t-104 -187l280 4q36 -6 51 -33t13 -54 t-20 -48t-46 -15l-308 -4q-2 -16 -3 -34t-1 -36v-38l314 4q36 -6 51 -33t13 -54t-20 -48t-46 -15l-286 -4q36 -114 107 -184t159 -70q78 0 143 61t101 157q14 36 43 41t54 -10t38 -46t-5 -67q-58 -134 -157 -216t-219 -82q-72 0 -138 31t-120 86t-95 131t-63 168h-44 q-38 0 -53 23t-13 51z" />
<glyph unicode="&#x25fc;" horiz-adv-x="690" d="M0 0v690h690v-690h-690z" />
</font>
</defs>
</svg>
